<svg width="510" height="418" viewBox="0 0 510 418" fill="none" xmlns="http://www.w3.org/2000/svg">
<path d="M133.014 115.378L101.018 387.33C100.796 389.104 102.679 390.324 104.229 389.326L124.821 376.687C127.368 375.135 130.689 375.8 132.35 378.35L158.146 416.82L168.886 255.179L133.014 115.378Z" fill="white" stroke="#090909" stroke-miterlimit="10" stroke-linecap="round" stroke-linejoin="round"/>
<path d="M132.792 122.139L103.896 380.455C103.563 383.005 106.442 384.557 108.435 383.116L123.492 372.03C126.813 369.591 131.463 370.477 133.678 373.914L151.281 400.744C152.167 402.074 154.27 401.409 154.16 399.746L133.678 122.139C133.678 121.585 132.792 121.585 132.792 122.139Z" fill="white" stroke="#090909" stroke-miterlimit="10" stroke-linecap="round" stroke-linejoin="round"/>
<path opacity="0.6" d="M133.235 118.481L103.896 380.456C103.563 383.005 106.442 384.558 108.435 383.116L123.492 372.03C126.813 369.591 131.463 370.478 133.678 373.914L151.281 400.744C152.167 402.074 154.27 401.409 154.16 399.746L133.456 118.481C133.456 118.259 133.235 118.259 133.235 118.481Z" fill="white"/>
<path d="M127.812 370.589C130.137 370.589 132.351 371.697 133.68 373.804L151.283 400.633C152.169 401.963 154.273 401.298 154.162 399.635L151.616 365.71L127.369 370.478C127.591 370.478 127.701 370.589 127.812 370.589Z" fill="#EEE9E2" stroke="#090909" stroke-miterlimit="10" stroke-linecap="round" stroke-linejoin="round"/>
<path d="M127.812 370.589C130.137 370.589 132.351 371.697 133.68 373.804L151.283 400.633C152.169 401.963 154.273 401.298 154.162 399.635L151.616 365.71L127.369 370.478C127.591 370.478 127.701 370.589 127.812 370.589Z" fill="white"/>
<path d="M133.677 115.155L158.145 416.709L443.012 362.385L376.03 127.129L133.677 115.155Z" fill="white" stroke="#090909" stroke-miterlimit="10" stroke-linecap="round" stroke-linejoin="round"/>
<path d="M146.853 121.696L163.681 400.744L431.61 351.963L375.145 135.11L146.853 121.696Z" fill="white" stroke="#090909" stroke-miterlimit="10" stroke-linecap="round" stroke-linejoin="round"/>
<path d="M163.24 259.059L175.972 391.321L419.433 346.975L396.847 247.529L163.24 259.059Z" fill="white" stroke="#090909" stroke-miterlimit="10" stroke-linecap="round" stroke-linejoin="round"/>
<path d="M210.181 384.777L206.195 342.205" stroke="#090909" stroke-miterlimit="10" stroke-linecap="round" stroke-linejoin="round"/>
<path d="M247.489 378.126L243.614 342.76" stroke="#090909" stroke-miterlimit="10" stroke-linecap="round" stroke-linejoin="round"/>
<path d="M284.026 371.03L279.486 342.76" stroke="#090909" stroke-miterlimit="10" stroke-linecap="round" stroke-linejoin="round"/>
<path d="M321.671 364.601L316.246 330.787" stroke="#090909" stroke-miterlimit="10" stroke-linecap="round" stroke-linejoin="round"/>
<path d="M354.772 358.614L350.122 325.687" stroke="#090909" stroke-miterlimit="10" stroke-linecap="round" stroke-linejoin="round"/>
<path d="M386.548 352.738L379.684 313.048" stroke="#090909" stroke-miterlimit="10" stroke-linecap="round" stroke-linejoin="round"/>
<path d="M140.766 118.592L373.93 131.23C373.93 131.23 396.626 199.302 419.212 237.772C441.798 276.242 479.108 273.692 479.108 273.692C479.108 273.692 393.637 320.477 327.098 345.422C257.791 371.365 197.783 376.021 197.783 376.021C197.783 376.021 142.98 301.187 140.766 118.592Z" fill="#EEE9E2" stroke="#090909" stroke-miterlimit="10" stroke-linecap="round" stroke-linejoin="round"/>
<path d="M167.445 106.508C163.127 106.508 160.027 110.388 159.03 116.375L163.459 116.597C164.123 113.16 165.562 110.942 167.445 110.942C169.77 110.942 172.316 114.601 172.316 119.923C172.316 125.244 169.77 128.903 167.445 128.903C166.227 128.903 165.23 129.9 165.23 131.12C165.23 132.339 166.227 133.337 167.445 133.337C172.648 133.337 176.745 127.461 176.745 119.923C176.634 112.384 172.648 106.508 167.445 106.508Z" fill="white" stroke="#090909" stroke-miterlimit="10"/>
<path d="M173.759 123.47C173.538 124.246 173.317 125.022 172.984 125.798" stroke="#090909" stroke-width="0.75" stroke-miterlimit="10" stroke-linecap="round" stroke-linejoin="round"/>
<path d="M161.138 114.379C161.138 114.379 162.798 108.392 167.67 108.725C171.545 108.946 174.756 114.711 174.202 120.809" stroke="#090909" stroke-width="0.75" stroke-miterlimit="10" stroke-linecap="round" stroke-linejoin="round"/>
<path d="M205.863 108.503C201.545 108.503 198.445 112.383 197.448 118.37L201.877 118.592C202.541 115.155 203.98 112.938 205.863 112.938C208.188 112.938 210.734 116.596 210.734 121.918C210.734 127.239 208.188 130.898 205.863 130.898C204.645 130.898 203.648 131.895 203.648 133.115C203.648 134.335 204.645 135.332 205.863 135.332C211.066 135.332 215.163 129.456 215.163 121.918C215.163 114.379 211.066 108.503 205.863 108.503Z" fill="white" stroke="#090909" stroke-miterlimit="10"/>
<path d="M212.289 125.465C212.067 126.241 211.846 127.017 211.514 127.793" stroke="#090909" stroke-width="0.75" stroke-miterlimit="10" stroke-linecap="round" stroke-linejoin="round"/>
<path d="M199.667 116.374C199.667 116.374 201.328 110.387 206.199 110.72C210.074 110.942 213.285 116.707 212.731 122.804" stroke="#090909" stroke-width="0.75" stroke-miterlimit="10" stroke-linecap="round" stroke-linejoin="round"/>
<path d="M282.811 112.383C278.493 112.383 275.393 116.263 274.396 122.25L278.825 122.471C279.489 119.034 280.929 116.817 282.811 116.817C285.136 116.817 287.682 120.476 287.682 125.797C287.682 131.119 285.136 134.777 282.811 134.777C281.593 134.777 280.596 135.775 280.596 136.995C280.596 138.214 281.593 139.212 282.811 139.212C288.014 139.212 292.111 133.336 292.111 125.797C292.111 118.258 288.014 112.383 282.811 112.383Z" fill="white" stroke="#090909" stroke-miterlimit="10"/>
<path d="M289.233 129.345C289.012 130.122 288.79 130.898 288.458 131.674" stroke="#090909" stroke-width="0.75" stroke-miterlimit="10" stroke-linecap="round" stroke-linejoin="round"/>
<path d="M276.609 120.255C276.609 120.255 278.27 114.269 283.142 114.601C287.017 114.823 290.227 120.588 289.674 126.686" stroke="#090909" stroke-width="0.75" stroke-miterlimit="10" stroke-linecap="round" stroke-linejoin="round"/>
<path d="M322.003 114.046C317.685 114.046 314.585 117.927 313.589 123.913L318.017 124.135C318.682 120.698 320.121 118.481 322.003 118.481C324.328 118.481 326.875 122.14 326.875 127.461C326.875 132.783 324.328 136.441 322.003 136.441C320.785 136.441 319.789 137.439 319.789 138.658C319.789 139.878 320.785 140.876 322.003 140.876C327.207 140.876 331.303 135 331.303 127.461C331.303 119.922 327.207 114.046 322.003 114.046Z" fill="white" stroke="#090909" stroke-miterlimit="10"/>
<path d="M328.312 131.009C328.091 131.785 327.869 132.561 327.537 133.337" stroke="#090909" stroke-width="0.75" stroke-miterlimit="10" stroke-linecap="round" stroke-linejoin="round"/>
<path d="M315.691 121.919C315.691 121.919 317.352 115.932 322.224 116.265C326.099 116.487 329.309 122.252 328.756 128.349" stroke="#090909" stroke-width="0.75" stroke-miterlimit="10" stroke-linecap="round" stroke-linejoin="round"/>
<path d="M359.646 116.042C355.328 116.042 352.228 119.922 351.231 125.909L355.66 126.13C356.324 122.694 357.764 120.476 359.646 120.476C361.971 120.476 364.517 124.135 364.517 129.456C364.517 134.778 361.971 138.437 359.646 138.437C358.428 138.437 357.431 139.434 357.431 140.654C357.431 141.873 358.428 142.871 359.646 142.871C364.849 142.871 368.946 136.995 368.946 129.456C368.946 121.918 364.849 116.042 359.646 116.042Z" fill="white" stroke="#090909" stroke-miterlimit="10"/>
<path d="M365.957 133.005C365.735 133.781 365.514 134.557 365.182 135.333" stroke="#090909" stroke-width="0.75" stroke-miterlimit="10" stroke-linecap="round" stroke-linejoin="round"/>
<path d="M353.338 123.913C353.338 123.913 354.999 117.927 359.87 118.259C363.745 118.481 366.956 124.246 366.402 130.344" stroke="#090909" stroke-width="0.75" stroke-miterlimit="10" stroke-linecap="round" stroke-linejoin="round"/>
<path d="M411.567 237.995C395.514 210.722 378.685 167.595 372.707 151.631L164.232 143.205C164.121 297.418 210.732 361.166 210.732 361.166C210.732 361.166 263.874 357.064 325.099 334.115C383.889 312.163 454.082 275.134 454.082 275.134C454.082 275.134 431.496 272.03 411.567 237.995Z" fill="white" stroke="#2B4657" stroke-miterlimit="10" stroke-linecap="round" stroke-linejoin="round"/>
<path d="M372.596 151.631L164.231 143.205C164.231 158.393 164.674 172.695 165.449 186.11L385.549 184.003C379.903 170.478 375.253 158.504 372.596 151.631Z" fill="#2B4657" stroke="#2B4657" stroke-miterlimit="10" stroke-linecap="round" stroke-linejoin="round"/>
<path d="M376.363 197.64L386.217 197.308" stroke="#2B4657" stroke-width="3" stroke-miterlimit="10" stroke-linecap="round" stroke-linejoin="round"/>
<path d="M347.354 198.637L368.944 197.861" stroke="#2B4657" stroke-width="3" stroke-miterlimit="10" stroke-linecap="round" stroke-linejoin="round"/>
<path d="M312.371 199.857L340.05 198.859" stroke="#2B4657" stroke-width="3" stroke-miterlimit="10" stroke-linecap="round" stroke-linejoin="round"/>
<path d="M276.608 201.076L306.169 200.079" stroke="#2B4657" stroke-width="3" stroke-miterlimit="10" stroke-linecap="round" stroke-linejoin="round"/>
<path d="M242.176 202.186L269.301 201.299" stroke="#2B4657" stroke-width="3" stroke-miterlimit="10" stroke-linecap="round" stroke-linejoin="round"/>
<path d="M205.861 203.405L232.986 202.518" stroke="#2B4657" stroke-width="3" stroke-miterlimit="10" stroke-linecap="round" stroke-linejoin="round"/>
<path d="M173.867 204.513L199.11 203.626" stroke="#2B4657" stroke-width="3" stroke-miterlimit="10" stroke-linecap="round" stroke-linejoin="round"/>
<path d="M169.77 228.349L399.059 214.27" stroke="#2B4657" stroke-miterlimit="10" stroke-linecap="round" stroke-linejoin="round"/>
<path d="M205.974 226.354C205.974 226.354 209.738 287.44 249.927 355.179" stroke="#2B4657" stroke-miterlimit="10" stroke-linecap="round" stroke-linejoin="round"/>
<path d="M242.951 223.915C242.951 223.915 247.158 293.76 291.223 344.869" stroke="#2B4657" stroke-miterlimit="10" stroke-linecap="round" stroke-linejoin="round"/>
<path d="M276.499 221.808C276.499 221.808 278.713 286.11 328.203 332.341" stroke="#2B4657" stroke-miterlimit="10" stroke-linecap="round" stroke-linejoin="round"/>
<path d="M311.15 220.367C311.15 220.367 316.575 291.875 364.515 317.041" stroke="#2B4657" stroke-miterlimit="10" stroke-linecap="round" stroke-linejoin="round"/>
<path d="M347.578 217.484C347.578 217.484 351.453 271.587 400.5 301.188" stroke="#2B4657" stroke-miterlimit="10" stroke-linecap="round" stroke-linejoin="round"/>
<path d="M376.249 215.711C376.249 215.711 389.424 271.143 426.403 289.103" stroke="#2B4657" stroke-miterlimit="10" stroke-linecap="round" stroke-linejoin="round"/>
<path d="M174.751 259.835L409.022 234.003" stroke="#2B4657" stroke-miterlimit="10" stroke-linecap="round" stroke-linejoin="round"/>
<path d="M180.84 287.44C180.84 287.44 230.883 285.445 419.872 250.633" stroke="#2B4657" stroke-miterlimit="10" stroke-linecap="round" stroke-linejoin="round"/>
<path d="M189.699 316.598C189.699 316.598 238.413 322.141 429.285 261.276" stroke="#2B4657" stroke-miterlimit="10" stroke-linecap="round" stroke-linejoin="round"/>
<path d="M200.217 342.097C200.217 342.097 240.849 355.511 440.356 270.034" stroke="#2B4657" stroke-miterlimit="10" stroke-linecap="round" stroke-linejoin="round"/>
<path d="M254.242 173.36L179.178 172.362C177.96 172.362 176.853 171.364 176.742 170.145L176.078 164.047C175.967 162.606 177.074 161.276 178.624 161.276L252.803 162.606C253.91 162.606 254.906 163.382 255.128 164.491L256.678 170.256C257.121 171.808 255.903 173.36 254.242 173.36Z" fill="white"/>
<path d="M185.049 32.4501L138.296 26L134 56.6063L180.247 64.3211L185.049 32.4501ZM182.269 33.3354L159.398 44.3385L140.697 27.5177L182.269 33.3354ZM135.39 55.468L139.307 27.8971L159.145 45.8561L183.532 34.0942L179.11 62.8034L135.39 55.468Z" fill="#5793DB"/>
<path d="M457.413 93L419 126.642L468.532 186.337L468.911 186.842L509.346 152.315L457.413 93ZM506.692 151.051L463.731 139.415L458.297 95.7824L506.692 151.051ZM420.643 126.768L456.907 95.0236L462.593 140.301L507.198 152.315L469.038 184.945L420.643 126.768Z" fill="#5793DB"/>
<path d="M216.189 110.019H37.4775V223.317H216.189V110.019Z" fill="white" stroke="#4D5D71" stroke-miterlimit="10"/>
<path d="M93.4583 96.8813L89.9806 87H34V231.626H219.667V96.8813H93.4583ZM216.189 223.317H37.4778V110.019H216.189V223.317Z" fill="#BECFE3" stroke="#4D5D71" stroke-miterlimit="10" stroke-linecap="round" stroke-linejoin="round"/>
<path d="M41.7404 99.6885L39.1602 102.159L41.8526 105.078" fill="#BECFE3"/>
<path d="M41.7404 99.6885L39.1602 102.159L41.8526 105.078" stroke="#4D5D71" stroke-miterlimit="10" stroke-linecap="round" stroke-linejoin="round"/>
<path d="M39.1602 102.159H44.8816" stroke="#4D5D71" stroke-miterlimit="10" stroke-linecap="round" stroke-linejoin="round"/>
<path d="M56.3251 99.6885L58.7932 102.159L56.2129 105.078" fill="#BECFE3"/>
<path d="M56.3251 99.6885L58.7932 102.159L56.2129 105.078" stroke="#4D5D71" stroke-miterlimit="10" stroke-linecap="round" stroke-linejoin="round"/>
<path d="M58.7929 102.159H53.1836" stroke="#4D5D71" stroke-miterlimit="10" stroke-linecap="round" stroke-linejoin="round"/>
<path d="M71.0209 101.822C70.6843 100.699 69.5625 99.8008 68.4406 99.8008C66.9822 99.8008 65.8604 100.924 65.8604 102.383C65.8604 103.843 66.9822 104.966 68.4406 104.966C69.0016 104.966 69.5625 104.741 70.0112 104.405" fill="#BECFE3"/>
<path d="M71.0209 101.822C70.6843 100.699 69.5625 99.8008 68.4406 99.8008C66.9822 99.8008 65.8604 100.924 65.8604 102.383C65.8604 103.843 66.9822 104.966 68.4406 104.966C69.0016 104.966 69.5625 104.741 70.0112 104.405" stroke="#4D5D71" stroke-miterlimit="10" stroke-linecap="round" stroke-linejoin="round"/>
<path d="M69.3389 102.159H71.3582V99.8008" fill="#BECFE3"/>
<path d="M69.3389 102.159H71.3582V99.8008" stroke="#4D5D71" stroke-miterlimit="10" stroke-linecap="round" stroke-linejoin="round"/>
<path d="M83.8105 92.0527L87.4005 95.7582" stroke="#4D5D71" stroke-miterlimit="10" stroke-linecap="round" stroke-linejoin="round"/>
<path d="M87.4004 92.165L83.6982 95.7582" stroke="#4D5D71" stroke-miterlimit="10" stroke-linecap="round" stroke-linejoin="round"/>
<path d="M79 102.864L148.989 88.2603L165.985 97.6979L187.818 201.581L103.458 219.285L79 102.864Z" fill="white" stroke="#263238" stroke-width="1.30611" stroke-miterlimit="10" stroke-linecap="round" stroke-linejoin="round"/>
<path d="M96.7553 121.928L98.947 121.508L97.6149 114.534L95.4231 114.954L95.2402 113.997L100.811 112.929L100.994 113.887L98.8021 114.306L100.134 121.28L102.326 120.861L102.509 121.818L96.9381 122.885L96.7553 121.928Z" fill="#263238"/>
<path d="M103.228 112.468L104.46 112.232L108.362 117.296L109.578 118.953L109.624 118.944C109.413 118.087 109.13 117.101 108.947 116.144L108.068 111.541L109.163 111.331L110.861 120.219L109.628 120.455L105.727 115.391L104.511 113.734L104.465 113.743C104.685 114.646 104.959 115.585 105.133 116.497L106.021 121.146L104.925 121.356L103.228 112.468Z" fill="#263238"/>
<path d="M110.85 111.008L112.082 110.772L114.412 115.287C114.932 116.274 115.326 117.096 115.837 118.037L115.882 118.029C116.002 116.919 116.073 116.055 116.193 114.945L116.694 109.888L117.881 109.661L116.702 119.1L115.378 119.354L110.85 111.008Z" fill="#263238"/>
<path d="M119.908 113.856C119.359 110.984 120.453 109.026 122.462 108.642C124.471 108.257 126.208 109.672 126.757 112.543C127.314 115.461 126.229 117.464 124.22 117.849C122.211 118.234 120.456 116.727 119.908 113.856ZM125.57 112.771C125.143 110.538 123.977 109.391 122.653 109.644C121.329 109.898 120.668 111.395 121.095 113.628C121.53 115.907 122.705 117.1 124.029 116.846C125.353 116.592 125.996 115.004 125.57 112.771Z" fill="#263238"/>
<path d="M129.342 115.688L131.534 115.268L130.202 108.294L128.01 108.714L127.827 107.757L133.398 106.69L133.581 107.647L131.389 108.067L132.721 115.041L134.913 114.621L135.096 115.578L129.525 116.645L129.342 115.688Z" fill="#263238"/>
<path d="M136.434 110.693C135.886 107.822 137.244 105.766 139.527 105.329C140.577 105.128 141.541 105.463 142.202 105.95L141.702 106.802C141.149 106.388 140.495 106.183 139.764 106.323C138.075 106.646 137.195 108.233 137.621 110.466C138.048 112.699 139.414 113.903 141.149 113.57C141.971 113.413 142.54 112.926 142.975 112.228L143.745 112.789C143.217 113.741 142.39 114.372 141.249 114.59C139.012 115.019 136.991 113.611 136.434 110.693Z" fill="#263238"/>
<path d="M144.398 104.585L149.923 103.527L150.106 104.484L145.723 105.324L146.254 108.104L149.952 107.396L150.135 108.353L146.437 109.061L147.055 112.298L151.575 111.432L151.758 112.389L146.096 113.474L144.398 104.585Z" fill="#263238"/>
<path d="M163.36 178.847L116.724 188.629" stroke="#263238" stroke-width="1.30611" stroke-miterlimit="10" stroke-linecap="round" stroke-linejoin="round"/>
<path d="M160.39 164.795L113.754 174.508" stroke="#263238" stroke-width="1.30611" stroke-miterlimit="10" stroke-linecap="round" stroke-linejoin="round"/>
<path d="M157.42 150.672L110.784 160.454" stroke="#263238" stroke-width="1.30611" stroke-miterlimit="10" stroke-linecap="round" stroke-linejoin="round"/>
<path d="M154.518 136.552L107.813 146.334" stroke="#263238" stroke-width="1.30611" stroke-miterlimit="10" stroke-linecap="round" stroke-linejoin="round"/>
<path d="M151.544 122.498L104.839 132.28" stroke="#263238" stroke-width="1.30611" stroke-miterlimit="10" stroke-linecap="round" stroke-linejoin="round"/>
<path d="M151.131 102.038L164.603 99.2139L148.644 90.3962L151.131 102.038Z" fill="#D1D3D4"/>
<path d="M196.337 224.813L196.337 224.813C189.051 234.146 184.47 234.174 183.931 234.144L183.921 234.144L183.912 234.144H183.911L183.911 234.144H183.91H183.91H183.909H183.909H183.908H183.908H183.907H183.907H183.906H183.906H183.905L183.905 234.144H183.904H183.904H183.903H183.903H183.902H183.902H183.901H183.901H183.9H183.9H183.899H183.899H183.898H183.898H183.897H183.897L183.896 234.144H183.896H183.895H183.895H183.894H183.894H183.893H183.893H183.892H183.891L183.891 234.144H183.89H183.89H183.889H183.889H183.888H183.888H183.887H183.886H183.886H183.885H183.885H183.884H183.883H183.883H183.882L183.882 234.144H183.881H183.881H183.88H183.879H183.879H183.878H183.877L183.877 234.144H183.876H183.876H183.875H183.874H183.874H183.873H183.873H183.872H183.871H183.871H183.87H183.869H183.869L183.868 234.144H183.867H183.867H183.866H183.865H183.865H183.864H183.863H183.863L183.862 234.144H183.861H183.861H183.86H183.859H183.859H183.858H183.857H183.857H183.856H183.855H183.855H183.854L183.853 234.144H183.853H183.852H183.851H183.85H183.85H183.849L183.848 234.144H183.848H183.847H183.846H183.845H183.845H183.844H183.843H183.843H183.842H183.841H183.84L183.84 234.144H183.839H183.838H183.837H183.837H183.836H183.835H183.834L183.834 234.144H183.833H183.832H183.831H183.831H183.83H183.829H183.828H183.827H183.827H183.826L183.825 234.144H183.824H183.824H183.823H183.822H183.821H183.82L183.82 234.144H183.819H183.818H183.817H183.816H183.816H183.815H183.814H183.813H183.812H183.811L183.811 234.144H183.81H183.809H183.808H183.807H183.807L183.806 234.144H183.805H183.804H183.803H183.802H183.801H183.801H183.8H183.799H183.798H183.797L183.796 234.144H183.796H183.795H183.794H183.793H183.792L183.791 234.144H183.79H183.789H183.789H183.788H183.787H183.786H183.785H183.784H183.783L183.782 234.144H183.782H183.781H183.78H183.779H183.778L183.777 234.144H183.776H183.775H183.774H183.773H183.773H183.772H183.771H183.77H183.769L183.768 234.144H183.767H183.766H183.765H183.764H183.763L183.762 234.144H183.761H183.761H183.76H183.759H183.758H183.757H183.756H183.755L183.754 234.144H183.753H183.752H183.751H183.75H183.749L183.748 234.144H183.747H183.746H183.745H183.744H183.743H183.742H183.741H183.741L183.74 234.144H183.739H183.738H183.737H183.736L183.735 234.144H183.734H183.733H183.732H183.731H183.73H183.729H183.728H183.727L183.726 234.144H183.725H183.724H183.723H183.722H183.721L183.72 234.144H183.719H183.718H183.717H183.716H183.715H183.714H183.713L183.712 234.144H183.71H183.709H183.708H183.707L183.706 234.144H183.705H183.704H183.703H183.702H183.701H183.7H183.699H183.698L183.697 234.144H183.696H183.695H183.694H183.693L183.692 234.144H183.691H183.69H183.689H183.687H183.686H183.685H183.684L183.683 234.144H183.682H183.681H183.68H183.679L183.678 234.144H183.677H183.676H183.675H183.673H183.672H183.671H183.67L183.669 234.144H183.668H183.667H183.666H183.665L183.664 234.144H183.663H183.661H183.66H183.659H183.658H183.657H183.656L183.655 234.144H183.654H183.653H183.651H183.65L183.649 234.144H183.648H183.647H183.646H183.645H183.644H183.642H183.641L183.64 234.144H183.639H183.638H183.637H183.636L183.635 234.144H183.633H183.632H183.631H183.63H183.629H183.628L183.627 234.144H183.625H183.624H183.623H183.622L183.621 234.144H183.62H183.618H183.617H183.616H183.615H183.614H183.613L183.611 234.144H183.61H183.609H183.608L183.607 234.144H183.606H183.604H183.603H183.602H183.601H183.6H183.598L183.597 234.144H183.596H183.595H183.594L183.593 234.144H183.591H183.59H183.589H183.588H183.587H183.585H183.584L183.583 234.144H183.582H183.581H183.579L183.578 234.144H183.577H183.576H183.575H183.573H183.572H183.571H183.57L183.568 234.144H183.567H183.566H183.565L183.564 234.144H183.562H183.561H183.56H183.559H183.557H183.556L183.555 234.144H183.554H183.553H183.551L183.55 234.144H183.549H183.548H183.546H183.545H183.544H183.543H183.541L183.54 234.144H183.539H183.538H183.536L183.535 234.144H183.534H183.533H183.531H183.53H183.529H183.528L183.526 234.144H183.525H183.524H183.523L183.521 234.144H183.52H183.519H183.517H183.516H183.515H183.514L183.512 234.144H183.511H183.51H183.509L183.507 234.144H183.506H183.505H183.503H183.502H183.501H183.5L183.498 234.144H183.497H183.496H183.494L183.493 234.144H183.492H183.491H183.489H183.488H183.487H183.485L183.484 234.144H183.483H183.482H183.48L183.479 234.144H183.478H183.476H183.475H183.474H183.472H183.471L183.47 234.144H183.469H183.467H183.466L183.465 234.144H183.463H183.462H183.461H183.459H183.458H183.457L183.455 234.144H183.454H183.453H183.451L183.45 234.144H183.449H183.447H183.446H183.445H183.443H183.442L183.441 234.144H183.439H183.438H183.437L183.435 234.144H183.434H183.433H183.431H183.43H183.429L183.427 234.144H183.426C182.04 234.033 177.714 233.049 171.212 225.152C170.384 224.136 169.629 223.006 168.987 221.838C168.928 221.72 168.86 221.594 168.795 221.474L168.794 221.471C168.726 221.345 168.661 221.225 168.607 221.116L168.607 221.116L168.605 221.113C167.924 219.79 167.355 218.389 166.86 216.945C166.86 216.945 166.86 216.944 166.86 216.944L166.745 216.602C166.555 216.031 166.365 215.425 166.214 214.859L166.212 214.849L166.208 214.839C166.134 214.617 166.064 214.368 166.03 214.164L166.025 214.137L166.016 214.111C165.984 214.014 165.959 213.907 165.929 213.779L165.928 213.771C165.901 213.654 165.869 213.519 165.827 213.39C165.792 213.269 165.766 213.155 165.738 213.031L165.737 213.028C165.708 212.905 165.678 212.774 165.637 212.631L165.628 212.599L165.615 212.573C165.615 212.572 165.615 212.571 165.614 212.569C165.614 212.563 165.613 212.556 165.613 212.544C165.612 212.531 165.612 212.517 165.612 212.497L165.612 212.448L165.599 212.401C165.564 212.28 165.538 212.157 165.509 212.021L165.507 212.016C165.481 211.891 165.451 211.754 165.412 211.615C165.391 211.493 165.361 211.374 165.335 211.268L165.333 211.262C165.304 211.146 165.279 211.046 165.263 210.949C165.241 210.801 165.21 210.666 165.182 210.546L165.181 210.54C165.154 210.422 165.13 210.317 165.113 210.207C165.11 210.127 165.097 210.062 165.089 210.02L165.087 210.014C165.077 209.965 165.075 209.948 165.075 209.929L165.075 209.905L165.071 209.88C165.033 209.614 164.994 209.371 164.915 209.09C164.876 208.824 164.829 208.558 164.782 208.3L164.782 208.297C164.734 208.027 164.687 207.765 164.649 207.504L164.65 207.504L164.647 207.491C164.611 207.29 164.583 207.079 164.554 206.857L164.553 206.852C164.526 206.645 164.498 206.429 164.461 206.219V206.219V206.219V206.219V206.219V206.218V206.218V206.218V206.218V206.218V206.217V206.217V206.217V206.217V206.216V206.216V206.216V206.216V206.216V206.215V206.215V206.215V206.215V206.214L164.461 206.214V206.214V206.214V206.214V206.213V206.213V206.213V206.213V206.212V206.212V206.212V206.212V206.211V206.211V206.211V206.211V206.211V206.21V206.21V206.21V206.21V206.209V206.209V206.209V206.209V206.209V206.208V206.208V206.208V206.208V206.207V206.207V206.207V206.207L164.461 206.207V206.206V206.206V206.206V206.206V206.205V206.205V206.205V206.205V206.205V206.204V206.204V206.204V206.204V206.203V206.203V206.203V206.203V206.203V206.202V206.202V206.202V206.202V206.201V206.201V206.201V206.201V206.2V206.2V206.2V206.2V206.2V206.199L164.461 206.199V206.199V206.199V206.198V206.198V206.198V206.198V206.198V206.197V206.197V206.197V206.197V206.196V206.196V206.196V206.196V206.196V206.195V206.195V206.195V206.195V206.194V206.194V206.194V206.194V206.194V206.193V206.193V206.193V206.193V206.192V206.192V206.192L164.461 206.192V206.192V206.191V206.191V206.191V206.191V206.19V206.19V206.19V206.19V206.189V206.189V206.189V206.189V206.189V206.188V206.188V206.188V206.188V206.187V206.187V206.187V206.187V206.187V206.186V206.186V206.186V206.186V206.185V206.185V206.185V206.185V206.185V206.184L164.461 206.184V206.184V206.184V206.183V206.183V206.183V206.183V206.183V206.182V206.182V206.182V206.182V206.181V206.181V206.181V206.181V206.181V206.18V206.18V206.18V206.18V206.179V206.179V206.179V206.179V206.178V206.178V206.178V206.178V206.178V206.177V206.177V206.177L164.461 206.177V206.176V206.176V206.176V206.176V206.176V206.175V206.175V206.175V206.175V206.174V206.174V206.174V206.174V206.174V206.173V206.173V206.173V206.173V206.172V206.172V206.172V206.172V206.172V206.171V206.171V206.171V206.171V206.17V206.17V206.17V206.17V206.17V206.169L164.461 206.169V206.169V206.169V206.168V206.168V206.168V206.168V206.167V206.167V206.167V206.167V206.167V206.166V206.166V206.166V206.166V206.165V206.165V206.165V206.165V206.165V206.164V206.164V206.164V206.164V206.163V206.163V206.163V206.163V206.163V206.162V206.162V206.162L164.461 206.162V206.161V206.161V206.161V206.161V206.161V206.16V206.16V206.16V206.16V206.159V206.159V206.159V206.159V206.159V206.158V206.158V206.158V206.158V206.157V206.157V206.157V206.157V206.156V206.156V206.156V206.156V206.156V206.155V206.155V206.155V206.155V206.154V206.154L164.461 206.154V206.154V206.154V206.153V206.153V206.153V206.153V206.152V206.152V206.152V206.152V206.152V206.151V206.151V206.151V206.151V206.15V206.15V206.15V206.15V206.15V206.149V206.149V206.149V206.149V206.148V206.148V206.148V206.148V206.148V206.147V206.147V206.147L164.461 206.147V206.146V206.146V206.146V206.146V206.145V206.145V206.145V206.145V206.145V206.144V206.144V206.144V206.144V206.143V206.143V206.143V206.143V206.143V206.142V206.142V206.142V206.142V206.141V206.141V206.141V206.141V206.141V206.14V206.14V206.14V206.14V206.139L164.461 206.139V206.139V206.139V206.139V206.138V206.138V206.138V206.138V206.137V206.137V206.137V206.137V206.136V206.136V206.136V206.136V206.136L164.461 206.12L164.46 206.104C164.44 205.886 164.41 205.66 164.382 205.442L164.381 205.439C164.352 205.217 164.325 205.004 164.306 204.801L164.306 204.801L164.305 204.794C163.923 201.361 163.847 198.423 163.847 196.67C163.847 195.975 164.45 195.442 165.162 195.521C165.252 195.541 165.337 195.552 165.404 195.56L165.411 195.561C165.491 195.571 165.547 195.578 165.6 195.592C165.795 195.641 165.986 195.641 166.131 195.64C166.136 195.64 166.14 195.64 166.145 195.64C166.196 195.64 166.251 195.647 166.332 195.657L166.339 195.658C166.411 195.667 166.507 195.679 166.605 195.679C166.657 195.679 166.712 195.685 166.792 195.695L166.8 195.696C166.869 195.705 166.959 195.716 167.054 195.717C168.91 195.832 170.435 195.718 171.624 195.442C171.756 195.42 171.873 195.387 171.973 195.359C171.986 195.355 171.999 195.351 172.011 195.348C172.1 195.322 172.169 195.303 172.238 195.289L172.269 195.282L172.299 195.271C172.378 195.239 172.46 195.214 172.558 195.185L172.563 195.183C172.653 195.156 172.758 195.125 172.865 195.083L172.866 195.083C172.97 195.048 173.11 195.001 173.254 194.911C174.006 194.591 174.602 194.194 175.079 193.797L175.08 193.796C175.314 193.6 175.499 193.441 175.658 193.304C175.916 193.082 176.102 192.922 176.307 192.769C176.623 192.533 176.976 192.324 177.698 191.963L177.698 191.963L177.701 191.962C179.375 191.107 181.278 190.658 183.224 190.62H183.224H183.225H183.225H183.225H183.225H183.226H183.226H183.226H183.226H183.226H183.227H183.227H183.227H183.227H183.228H183.228H183.228H183.228H183.228H183.229H183.229H183.229H183.229L183.23 190.62H183.23H183.23H183.23H183.23H183.231H183.231H183.231H183.231H183.232H183.232H183.232H183.232H183.232H183.233H183.233H183.233H183.233H183.234H183.234H183.234H183.234H183.235H183.235H183.235H183.235H183.235H183.236H183.236H183.236H183.236H183.237L183.237 190.62H183.237H183.237H183.237H183.238H183.238H183.238H183.238H183.239H183.239H183.239H183.239H183.239H183.24H183.24H183.24H183.24H183.241H183.241H183.241H183.241H183.241H183.242H183.242H183.242H183.242H183.243H183.243H183.243H183.243H183.244H183.244L183.244 190.62H183.244H183.244H183.245H183.245H183.245H183.245H183.246H183.246H183.246H183.246H183.246H183.247H183.247H183.247H183.247H183.248H183.248H183.248H183.248H183.248H183.249H183.249H183.249H183.249H183.25H183.25H183.25H183.25H183.25H183.251L183.251 190.62H183.251H183.251H183.252H183.252H183.252H183.252H183.253H183.253H183.253H183.253H183.253H183.254H183.254H183.254H183.254H183.255H183.255H183.255H183.255H183.255H183.256H183.256H183.256H183.256H183.257H183.257H183.257H183.257H183.257H183.258H183.258L183.258 190.62H183.258H183.259H183.259H183.259H183.259H183.259H183.26H183.26H183.26H183.26H183.261H183.261H183.261H183.261H183.261H183.262H183.262H183.262H183.262H183.263H183.263H183.263H183.263H183.264H183.264H183.264H183.264H183.264H183.265H183.265L183.265 190.62H183.265H183.266H183.266H183.266H183.266H183.266H183.267H183.267H183.267H183.267H183.268H183.268H183.268H183.268H183.268H183.269H183.269H183.269H183.269H183.27H183.27H183.27H183.27H183.27H183.271H183.271H183.271H183.271H183.272H183.272H183.272L183.272 190.62H183.273H183.273H183.273H183.273H183.273H183.274H183.274H183.274H183.274H183.275H183.275H183.275H183.275H183.275H183.276H183.276H183.276H183.276H183.277H183.277H183.277H183.277H183.277H183.278H183.278H183.278H183.278H183.279H183.279H183.279H183.279L183.279 190.62H183.28H183.28H183.28H183.28H183.281H183.281H183.281H183.281H183.282H183.282H183.282H183.282H183.282H183.283H183.283H183.283H183.283H183.284H183.284H183.284H183.284H183.284H183.285H183.285H183.285H183.285H183.286H183.286H183.286H183.286L183.286 190.62H183.287H183.287H183.287H183.287H183.288H183.288H183.288H183.288H183.288H183.289H183.289H183.289H183.289H183.29H183.29H183.29H183.29H183.291H183.291H183.291H183.291H183.291H183.292H183.292H183.292H183.292H183.293H183.293H183.293H183.293H183.293L183.294 190.62H183.294H183.294H183.294H183.295H183.295H183.295H183.295H183.295H183.296H183.296H183.296H183.296H183.297H183.297H183.297H183.297H183.297H183.298H183.298H183.298H183.298H183.299H183.299H183.299H183.299H183.299H183.3H183.3H183.3H183.3L183.301 190.62H183.301H183.301H183.301H183.302H183.302H183.302H183.302H183.302H183.303H183.303H183.303H183.303H183.304H183.304H183.304H183.304H183.304H183.305H183.305H183.305H183.305H183.306H183.306H183.306H183.306H183.306H183.307H183.307H183.307H183.307H183.308L183.308 190.62H183.308H183.308H183.308H183.309H183.309H183.309H183.309H183.31H183.31H183.31H183.31H183.311H183.311H183.311H183.311H183.311H183.312H183.312H183.312H183.312H183.313H183.313H183.313H183.313H183.313H183.314H183.314H183.314H183.314H183.315H183.315L183.315 190.62H183.315H183.315H183.316H183.316H183.316H183.316H183.317H183.317H183.317H183.317H183.317H183.318H183.318H183.318H183.318H183.319H183.319H183.319H183.319H183.32H183.32H183.32H183.32H183.32H183.321H183.321H183.321H183.321H183.322H183.322L183.322 190.62H183.322H183.322H183.323H183.323H183.323H183.323H183.324H183.324H183.324H183.324H183.324H183.325H183.325H183.325H183.325H183.326H183.326H183.326H183.326H183.326H183.327H183.327H183.327H183.327H183.328H183.328H183.328H183.328H183.328H183.329H183.329L183.329 190.62H183.329H183.33H183.33H183.33H183.33H183.331H183.331H183.331H183.331H183.331H183.332H183.332H183.332H183.332H183.333H183.333H183.333H183.333H183.333H183.334H183.334H183.334H183.334H183.335H183.335H183.335H183.335H183.335H183.336H183.336C185.248 190.62 187.113 190.995 188.785 191.811L188.785 191.811L188.789 191.813C189.511 192.154 189.862 192.355 190.182 192.585C190.389 192.734 190.579 192.893 190.843 193.113C191.007 193.25 191.2 193.411 191.442 193.608L191.444 193.609C193.083 194.919 195.959 195.914 201.503 195.023L201.505 195.023C202.209 194.905 202.832 195.428 202.863 196.146C202.94 198.76 202.92 203.871 202.071 209.363C201.22 214.867 199.543 220.707 196.337 224.813Z" fill="#5793DB" stroke="#263238" stroke-width="0.7"/>
<mask id="path-83-inside-1_402_5009" fill="white">
<path d="M183.683 234.954C183.606 234.954 183.491 234.954 183.376 234.954C181.726 234.839 177.198 233.728 170.598 225.68C169.754 224.684 168.986 223.496 168.295 222.231C168.18 222.001 168.027 221.733 167.912 221.503C167.259 220.2 166.645 218.744 166.108 217.211L166.108 217.173C166.07 217.058 166.031 216.981 165.993 216.866C165.801 216.329 165.648 215.755 165.456 215.065C165.379 214.797 165.302 214.567 165.264 214.337L165.226 214.222C165.187 213.992 165.111 213.8 165.072 213.57C164.995 213.302 164.957 213.072 164.88 212.804C164.88 212.727 164.842 212.651 164.842 212.574L164.727 212.382C164.688 212.191 164.65 211.961 164.573 211.769C164.535 211.539 164.458 211.309 164.42 211.079C164.381 210.849 164.305 210.581 164.266 210.351L164.266 210.313L164.228 210.198C164.228 210.16 164.19 210.083 164.19 210.045C164.151 209.815 164.113 209.546 164.074 209.317L164.074 209.278C163.998 208.78 163.883 208.205 163.806 207.669C163.729 207.209 163.691 206.787 163.614 206.366C163.614 206.327 163.614 206.289 163.614 206.251C163.576 205.829 163.499 205.408 163.46 204.986C163.077 201.614 163 198.663 163 196.785C163 196.21 163.269 195.674 163.691 195.291C164.113 194.907 164.65 194.754 165.226 194.831L165.264 194.831L165.417 194.869C165.533 194.869 165.609 194.907 165.724 194.907L165.763 194.907C165.878 194.907 165.993 194.946 166.108 194.946L166.415 194.984C166.492 194.984 166.607 194.984 166.684 195.022C166.799 195.022 166.876 195.022 166.991 195.061L167.144 195.061C168.794 195.176 170.291 195.099 171.519 194.831C171.749 194.792 171.941 194.716 172.133 194.678C172.325 194.601 172.517 194.563 172.67 194.486C172.785 194.448 172.9 194.409 173.015 194.371C173.629 194.103 174.205 193.796 174.665 193.375C174.857 193.183 175.049 193.068 175.203 192.915C175.932 192.302 176.2 192.033 177.428 191.42C179.193 190.5 181.227 190.002 183.299 190.002L183.414 190.002C185.487 189.964 187.482 190.424 189.209 191.267C190.437 191.88 190.744 192.11 191.473 192.723C191.626 192.838 191.818 192.991 192.01 193.145C193.929 194.678 197.114 195.099 201.411 194.409C201.987 194.333 202.563 194.486 202.985 194.831C203.407 195.214 203.675 195.751 203.714 196.287C203.867 202.265 203.445 217.058 196.96 225.412C189.669 234.762 184.873 235.107 183.913 235.069C183.837 234.954 183.76 234.954 183.683 234.954ZM164.995 195.674C164.727 195.674 164.497 195.751 164.305 195.942C164.074 196.134 163.921 196.44 163.921 196.747C163.921 198.586 163.998 201.499 164.381 204.833C164.42 205.254 164.458 205.676 164.535 206.097C164.535 206.136 164.535 206.174 164.535 206.212C164.573 206.634 164.65 207.094 164.727 207.515C164.804 208.052 164.88 208.588 164.995 209.087L164.995 209.125C165.034 209.355 165.072 209.585 165.111 209.853L165.149 210.16C165.187 210.428 165.264 210.658 165.302 210.888C165.341 211.118 165.379 211.348 165.456 211.578C165.494 211.769 165.533 211.999 165.609 212.191L165.648 212.382C165.648 212.459 165.686 212.497 165.686 212.574C165.763 212.842 165.801 213.11 165.878 213.34C165.916 213.57 165.993 213.762 166.031 213.992L166.07 214.068C166.147 214.298 166.185 214.567 166.262 214.797C166.454 215.486 166.645 216.023 166.799 216.559C166.837 216.674 166.876 216.751 166.914 216.828L166.914 216.866C167.413 218.361 168.027 219.778 168.641 221.043C168.756 221.273 168.871 221.541 169.025 221.771C169.677 222.998 170.444 224.109 171.25 225.067C177.659 232.846 181.88 233.919 183.414 234.034C183.645 234.034 183.76 234.034 183.837 234.034C183.875 234.034 183.875 234.034 183.913 234.034C184.412 234.073 188.979 234.034 196.231 224.722C202.716 216.368 202.908 200.771 202.793 196.172C202.793 195.865 202.639 195.559 202.409 195.367C202.179 195.176 201.872 195.099 201.565 195.137C196.96 195.865 193.583 195.406 191.434 193.681C191.204 193.528 191.051 193.375 190.897 193.221C190.168 192.646 189.938 192.455 188.825 191.88C187.213 191.114 185.372 190.692 183.491 190.692C183.453 190.692 183.453 190.692 183.414 190.692L183.299 190.692C181.342 190.73 179.462 191.19 177.812 192.033C176.699 192.608 176.469 192.8 175.778 193.413C175.625 193.528 175.433 193.681 175.241 193.873C174.704 194.333 174.051 194.716 173.361 195.022C173.246 195.061 173.13 195.137 172.977 195.176C172.785 195.252 172.593 195.291 172.363 195.367C172.171 195.444 171.941 195.482 171.711 195.521C170.406 195.827 168.833 195.904 167.068 195.789L166.914 195.789C166.799 195.789 166.722 195.789 166.607 195.751C166.53 195.751 166.415 195.751 166.338 195.712L166.031 195.674C165.916 195.674 165.801 195.636 165.686 195.636L165.648 195.636C165.533 195.636 165.417 195.597 165.341 195.597L165.187 195.597C165.187 195.597 165.187 195.597 165.149 195.597C165.111 195.674 165.072 195.674 164.995 195.674Z"/>
</mask>
<path d="M183.683 234.954C183.606 234.954 183.491 234.954 183.376 234.954C181.726 234.839 177.198 233.728 170.598 225.68C169.754 224.684 168.986 223.496 168.295 222.231C168.18 222.001 168.027 221.733 167.912 221.503C167.259 220.2 166.645 218.744 166.108 217.211L166.108 217.173C166.07 217.058 166.031 216.981 165.993 216.866C165.801 216.329 165.648 215.755 165.456 215.065C165.379 214.797 165.302 214.567 165.264 214.337L165.226 214.222C165.187 213.992 165.111 213.8 165.072 213.57C164.995 213.302 164.957 213.072 164.88 212.804C164.88 212.727 164.842 212.651 164.842 212.574L164.727 212.382C164.688 212.191 164.65 211.961 164.573 211.769C164.535 211.539 164.458 211.309 164.42 211.079C164.381 210.849 164.305 210.581 164.266 210.351L164.266 210.313L164.228 210.198C164.228 210.16 164.19 210.083 164.19 210.045C164.151 209.815 164.113 209.546 164.074 209.317L164.074 209.278C163.998 208.78 163.883 208.205 163.806 207.669C163.729 207.209 163.691 206.787 163.614 206.366C163.614 206.327 163.614 206.289 163.614 206.251C163.576 205.829 163.499 205.408 163.46 204.986C163.077 201.614 163 198.663 163 196.785C163 196.21 163.269 195.674 163.691 195.291C164.113 194.907 164.65 194.754 165.226 194.831L165.264 194.831L165.417 194.869C165.533 194.869 165.609 194.907 165.724 194.907L165.763 194.907C165.878 194.907 165.993 194.946 166.108 194.946L166.415 194.984C166.492 194.984 166.607 194.984 166.684 195.022C166.799 195.022 166.876 195.022 166.991 195.061L167.144 195.061C168.794 195.176 170.291 195.099 171.519 194.831C171.749 194.792 171.941 194.716 172.133 194.678C172.325 194.601 172.517 194.563 172.67 194.486C172.785 194.448 172.9 194.409 173.015 194.371C173.629 194.103 174.205 193.796 174.665 193.375C174.857 193.183 175.049 193.068 175.203 192.915C175.932 192.302 176.2 192.033 177.428 191.42C179.193 190.5 181.227 190.002 183.299 190.002L183.414 190.002C185.487 189.964 187.482 190.424 189.209 191.267C190.437 191.88 190.744 192.11 191.473 192.723C191.626 192.838 191.818 192.991 192.01 193.145C193.929 194.678 197.114 195.099 201.411 194.409C201.987 194.333 202.563 194.486 202.985 194.831C203.407 195.214 203.675 195.751 203.714 196.287C203.867 202.265 203.445 217.058 196.96 225.412C189.669 234.762 184.873 235.107 183.913 235.069C183.837 234.954 183.76 234.954 183.683 234.954ZM164.995 195.674C164.727 195.674 164.497 195.751 164.305 195.942C164.074 196.134 163.921 196.44 163.921 196.747C163.921 198.586 163.998 201.499 164.381 204.833C164.42 205.254 164.458 205.676 164.535 206.097C164.535 206.136 164.535 206.174 164.535 206.212C164.573 206.634 164.65 207.094 164.727 207.515C164.804 208.052 164.88 208.588 164.995 209.087L164.995 209.125C165.034 209.355 165.072 209.585 165.111 209.853L165.149 210.16C165.187 210.428 165.264 210.658 165.302 210.888C165.341 211.118 165.379 211.348 165.456 211.578C165.494 211.769 165.533 211.999 165.609 212.191L165.648 212.382C165.648 212.459 165.686 212.497 165.686 212.574C165.763 212.842 165.801 213.11 165.878 213.34C165.916 213.57 165.993 213.762 166.031 213.992L166.07 214.068C166.147 214.298 166.185 214.567 166.262 214.797C166.454 215.486 166.645 216.023 166.799 216.559C166.837 216.674 166.876 216.751 166.914 216.828L166.914 216.866C167.413 218.361 168.027 219.778 168.641 221.043C168.756 221.273 168.871 221.541 169.025 221.771C169.677 222.998 170.444 224.109 171.25 225.067C177.659 232.846 181.88 233.919 183.414 234.034C183.645 234.034 183.76 234.034 183.837 234.034C183.875 234.034 183.875 234.034 183.913 234.034C184.412 234.073 188.979 234.034 196.231 224.722C202.716 216.368 202.908 200.771 202.793 196.172C202.793 195.865 202.639 195.559 202.409 195.367C202.179 195.176 201.872 195.099 201.565 195.137C196.96 195.865 193.583 195.406 191.434 193.681C191.204 193.528 191.051 193.375 190.897 193.221C190.168 192.646 189.938 192.455 188.825 191.88C187.213 191.114 185.372 190.692 183.491 190.692C183.453 190.692 183.453 190.692 183.414 190.692L183.299 190.692C181.342 190.73 179.462 191.19 177.812 192.033C176.699 192.608 176.469 192.8 175.778 193.413C175.625 193.528 175.433 193.681 175.241 193.873C174.704 194.333 174.051 194.716 173.361 195.022C173.246 195.061 173.13 195.137 172.977 195.176C172.785 195.252 172.593 195.291 172.363 195.367C172.171 195.444 171.941 195.482 171.711 195.521C170.406 195.827 168.833 195.904 167.068 195.789L166.914 195.789C166.799 195.789 166.722 195.789 166.607 195.751C166.53 195.751 166.415 195.751 166.338 195.712L166.031 195.674C165.916 195.674 165.801 195.636 165.686 195.636L165.648 195.636C165.533 195.636 165.417 195.597 165.341 195.597L165.187 195.597C165.187 195.597 165.187 195.597 165.149 195.597C165.111 195.674 165.072 195.674 164.995 195.674Z" fill="#5793DB" stroke="#263238" stroke-width="1.4" mask="url(#path-83-inside-1_402_5009)"/>
<path d="M184.101 221.963C183.41 221.963 182.758 221.695 182.297 221.235L173.663 212.727C172.666 211.731 172.666 210.121 173.625 209.125C174.623 208.129 176.234 208.129 177.232 209.087L183.755 215.486L194.231 201.039C195.037 199.889 196.649 199.659 197.8 200.464C198.951 201.269 199.181 202.879 198.376 204.028L186.173 220.852C185.751 221.465 185.06 221.848 184.331 221.886C184.216 221.963 184.139 221.963 184.101 221.963Z" fill="white"/>
<path d="M184.064 222.384C183.297 222.384 182.53 222.078 181.992 221.541L173.358 213.034C172.207 211.884 172.169 210.006 173.32 208.818C174.471 207.669 176.351 207.63 177.541 208.78L183.719 214.835L193.888 200.809C194.348 200.157 195.039 199.736 195.845 199.621C196.612 199.506 197.418 199.698 198.071 200.157C198.723 200.617 199.145 201.307 199.26 202.112C199.375 202.878 199.183 203.683 198.723 204.335L186.52 221.158C186.021 221.848 185.216 222.308 184.371 222.384C184.295 222.384 184.218 222.384 184.18 222.384C184.064 222.384 184.064 222.384 184.064 222.384ZM175.431 208.818C174.893 208.818 174.356 209.01 173.934 209.431C173.128 210.275 173.128 211.616 173.972 212.421L182.606 220.928C182.99 221.311 183.527 221.541 184.103 221.541C184.103 221.541 184.103 221.541 184.141 221.541C184.18 221.541 184.256 221.541 184.295 221.541C184.909 221.503 185.484 221.158 185.83 220.66L198.032 203.836C198.378 203.377 198.493 202.84 198.416 202.265C198.339 201.69 198.032 201.23 197.572 200.886C197.111 200.541 196.536 200.426 195.998 200.502C195.423 200.579 194.962 200.886 194.617 201.345L184.141 215.793C184.064 215.908 183.949 215.946 183.834 215.985C183.719 215.985 183.604 215.946 183.489 215.87L176.965 209.47C176.505 209.01 175.968 208.818 175.431 208.818Z" fill="#5793DB"/>
<path d="M190.734 326.02L159.65 265.439L69.9355 314.131L101.146 371.423L190.734 326.02Z" fill="white"/>
<path d="M153.079 281.881L135.136 326.779L70.3145 314.384L130.461 319.949L150.678 281.249L153.079 281.881Z" fill="#FFC01E"/>
<path d="M70.3145 314.005L101.146 371.423L190.733 326.02L159.27 265.819L70.3145 314.005Z" stroke="#263238" stroke-miterlimit="10" stroke-linecap="round" stroke-linejoin="round"/>
<path d="M70.3145 314.005L130.461 319.949L159.27 265.819" stroke="#263238" stroke-miterlimit="10" stroke-linecap="round" stroke-linejoin="round"/>
<path d="M156.111 281.628C163.439 281.628 169.379 275.682 169.379 268.348C169.379 261.014 163.439 255.069 156.111 255.069C148.784 255.069 142.844 261.014 142.844 268.348C142.844 275.682 148.784 281.628 156.111 281.628Z" fill="#FFC01E"/>
<path opacity="0.3" d="M156.111 281.628C163.439 281.628 169.379 275.682 169.379 268.348C169.379 261.014 163.439 255.069 156.111 255.069C148.784 255.069 142.844 261.014 142.844 268.348C142.844 275.682 148.784 281.628 156.111 281.628Z" fill="black"/>
<path d="M156.111 282.007C163.439 282.007 169.379 276.062 169.379 268.728C169.379 261.394 163.439 255.448 156.111 255.448C148.784 255.448 142.844 261.394 142.844 268.728C142.844 276.062 148.784 282.007 156.111 282.007Z" stroke="#263238" stroke-miterlimit="10" stroke-linecap="round" stroke-linejoin="round"/>
<path d="M156.111 278.34C163.439 278.34 169.379 272.394 169.379 265.06C169.379 257.726 163.439 251.781 156.111 251.781C148.784 251.781 142.844 257.726 142.844 265.06C142.844 272.394 148.784 278.34 156.111 278.34Z" fill="#FFC01E"/>
<path d="M156.111 278.34C163.439 278.34 169.379 272.394 169.379 265.06C169.379 257.726 163.439 251.781 156.111 251.781C148.784 251.781 142.844 257.726 142.844 265.06C142.844 272.394 148.784 278.34 156.111 278.34Z" stroke="#263238" stroke-miterlimit="10" stroke-linecap="round" stroke-linejoin="round"/>
<path d="M394.724 229.522H303.704C300.622 229.522 298.265 227.162 298.265 224.077V173.444C298.265 170.359 300.622 168 303.704 168H394.724C397.807 168 400.164 170.359 400.164 173.444V224.077C400.164 226.981 397.625 229.522 394.724 229.522Z" fill="white"/>
<path d="M394.724 229.522H303.704C300.622 229.522 298.265 227.162 298.265 224.077V173.444C298.265 170.359 300.622 168 303.704 168H394.724C397.807 168 400.164 170.359 400.164 173.444V224.077C400.164 226.981 397.625 229.522 394.724 229.522Z" stroke="#263238" stroke-miterlimit="10" stroke-linecap="round" stroke-linejoin="round"/>
<path d="M388.917 177.115H304.256V181.42H388.917V177.115Z" fill="#5793DB"/>
<path d="M380.307 187.16H304.256V191.465H380.307V187.16Z" fill="#5793DB"/>
<path d="M373.133 197.205H304.256V201.509H373.133V197.205Z" fill="#5793DB"/>
<path d="M384.612 205.814H304.256V210.119H384.612V205.814Z" fill="#5793DB"/>
<path d="M386.047 215.859H304.256V220.163H386.047V215.859Z" fill="#5793DB"/>
<path d="M294.347 221.427C284.238 226.992 274.762 233.442 266.675 241.536C247.721 260.381 238.37 286.56 224.977 309.578C211.204 333.102 192.755 353.97 171.022 370.538C148.656 387.612 122.121 400.259 93.9435 402.283C65.7657 404.306 36.0716 394.568 17.7497 373.194C-0.572139 351.82 -5.12102 318.431 10.421 294.908C23.1831 275.81 48.4547 265.566 71.1991 270.625C80.0441 272.648 88.3838 276.569 96.4707 280.616C100.64 282.64 104.81 284.663 109.106 286.813" stroke="#263238" stroke-miterlimit="10" stroke-linecap="round" stroke-linejoin="round" stroke-dasharray="2 5"/>
<path d="M371.5 46.9488C371.5 72.6063 350.901 93.3976 325.5 93.3976C300.099 93.3976 279.5 72.6063 279.5 46.9488C279.5 21.2913 300.099 0.5 325.5 0.5C350.901 0.5 371.5 21.2913 371.5 46.9488Z" fill="white" stroke="#090909"/>
<path d="M300.636 27.0676L325.152 46.4565L325.474 46.7114L325.787 46.4447L339.301 34.9132L339.529 35.1827L325.486 47.2208L300.415 27.3495L300.636 27.0676Z" fill="#090909" stroke="#090909"/>
</svg>
