<svg width="599" height="812" viewBox="0 0 599 812" fill="none" xmlns="http://www.w3.org/2000/svg">
<g clip-path="url(#clip0_714_4040)">
<rect width="599" height="812" fill="#E8DDCF"/>
<path d="M690.55 863.02V858.315L687.827 862.152C677.174 877.161 666.793 891.214 654 904.376C641.228 917.516 626.246 928.914 609.041 938.565C591.827 948.223 572.835 956.131 552.058 962.286C531.331 968.427 509.492 971.5 486.533 971.5C442.295 971.5 405.019 963.58 374.64 947.817C344.175 932.01 319.483 911.61 300.533 886.627C281.561 861.617 267.877 833.088 259.486 801.025C251.081 768.907 246.878 736.129 246.878 702.688V580.081C246.878 579.3 246.646 578.499 246.015 577.882C245.414 577.293 244.633 577.056 243.902 576.981C242.488 576.837 240.633 577.241 238.527 577.95C234.233 579.394 228.036 582.414 220.27 586.729C204.7 595.378 182.495 609.419 155.894 627.112C102.678 662.507 31.7375 712.607 -39.1876 763.667C-110.116 814.729 -181.044 866.762 -234.238 906.028C-260.835 925.662 -283 942.104 -298.515 953.638C-306.273 959.405 -312.369 963.945 -316.525 967.043C-318.153 968.257 -319.484 969.25 -320.5 970.008V691.704L245.846 299.5H463.715V652.336C463.715 670.959 465.053 688.705 467.731 705.573C470.421 722.516 475.582 737.708 483.231 751.133C490.901 764.595 501.071 775.165 513.737 782.813C526.483 790.509 543.212 794.292 563.809 794.292C602.432 794.292 632.004 779.967 652.303 751.256C672.44 722.773 685.221 689.35 685.221 651.011V299.5H888.5V963.238H690.55V863.02Z" stroke="#FDF9F3" stroke-width="3"/>
</g>
<defs>
<clipPath id="clip0_714_4040">
<rect width="599" height="812" fill="white"/>
</clipPath>
</defs>
</svg>
