<svg width="33" height="32" viewBox="0 0 33 32" fill="none" xmlns="http://www.w3.org/2000/svg">
<g clip-path="url(#clip0_3007_3855)">
<path d="M23.2316 25H21.9926C21.7449 25 21.4971 24.7554 21.4971 24.5107C21.4971 24.2661 21.7449 24.0215 21.9926 24.0215H23.2316C23.4794 24.0215 23.7272 24.2661 23.7272 24.5107C23.7272 24.8369 23.562 25 23.2316 25Z" fill="white"/>
<path d="M19.4321 25H16.7891C16.5413 25 16.2935 24.7554 16.2935 24.5107C16.2935 24.2661 16.5413 24.0215 16.7891 24.0215H19.4321C19.6799 24.0215 19.9277 24.2661 19.9277 24.5107C19.9277 24.8369 19.6799 25 19.4321 25ZM14.2286 25H11.5855C11.3378 25 11.09 24.7554 11.09 24.5107C11.09 24.2661 11.3378 24.0215 11.5855 24.0215H14.2286C14.4764 24.0215 14.7242 24.2661 14.7242 24.5107C14.7242 24.8369 14.4764 25 14.2286 25Z" fill="white"/>
<path d="M9.0251 25H7.78616C7.53838 25 7.29059 24.7554 7.29059 24.5107C7.29059 24.2661 7.53838 24.0215 7.78616 24.0215H9.0251C9.27289 24.0215 9.52068 24.2661 9.52068 24.5107C9.52068 24.8369 9.27289 25 9.0251 25Z" fill="white"/>
<path d="M30.0044 25H23.2316C22.9838 25 22.736 24.7554 22.736 24.5107C22.736 24.2661 22.9838 24.0215 23.2316 24.0215H29.5088V6.97854H3.49115V24.0215H7.70354C7.95133 24.0215 8.19911 24.2661 8.19911 24.5107C8.19911 24.7554 7.95133 25 7.70354 25H2.99558C2.74779 25 2.5 24.7554 2.5 24.5107V6.48927C2.5 6.24464 2.74779 6 2.99558 6H30.0044C30.2522 6 30.5 6.24464 30.5 6.48927V24.5107C30.5 24.8369 30.3348 25 30.0044 25Z" fill="white"/>
<path d="M16.5413 17.0086C16.4587 17.0086 16.2935 17.0086 16.2109 16.927L2.66519 6.89699C2.5 6.7339 2.41741 6.40772 2.5826 6.16309C2.74779 6 3.07817 5.91845 3.32596 6.08154L16.5413 15.867L29.7566 6.08154C30.0044 5.91845 30.2522 6 30.4174 6.16309C30.5826 6.40772 30.5826 6.7339 30.3348 6.89699L16.7891 16.927C16.7065 16.927 16.6239 17.0086 16.5413 17.0086Z" fill="white"/>
<path d="M2.9956 25C2.83041 25 2.74781 24.9185 2.66521 24.8369C2.50002 24.6738 2.50002 24.3476 2.66521 24.103L13.2375 13.9914C13.4027 13.8283 13.7331 13.8283 13.9808 13.9914C14.146 14.1545 14.146 14.4807 13.9808 14.7253L3.32598 24.9185C3.24339 25 3.16079 25 2.9956 25Z" fill="white"/>
<path d="M30.0045 25C29.8393 25 29.7567 24.9185 29.6741 24.8369L19.1018 14.6438C18.9366 14.4807 18.9366 14.1545 19.1018 13.9099C19.267 13.7468 19.5974 13.7468 19.8452 13.9099L30.4174 24.103C30.5826 24.2661 30.5826 24.5923 30.4174 24.8369C30.2522 25 30.1696 25 30.0045 25Z" fill="white"/>
</g>
<defs>
<clipPath id="clip0_3007_3855">
<rect width="28" height="19" fill="white" transform="translate(2.5 6)"/>
</clipPath>
</defs>
</svg>
