<svg>
    <symbol id="arrow2" xmlns="http://www.w3.org/2000/svg" width="18" height="16" viewBox="0 0 18 16" fill="none">
        <path
            d="M1 7C0.447715 7 0 7.44772 0 8C0 8.55228 0.447715 9 1 9V7ZM17.7071 8.70711C18.0976 8.31658 18.0976 7.68342 17.7071 7.29289L11.3431 0.928932C10.9526 0.538408 10.3195 0.538408 9.92893 0.928932C9.53841 1.31946 9.53841 1.95262 9.92893 2.34315L15.5858 8L9.92893 13.6569C9.53841 14.0474 9.53841 14.6805 9.92893 15.0711C10.3195 15.4616 10.9526 15.4616 11.3431 15.0711L17.7071 8.70711ZM1 9H17V7H1V9Z"
            fill="currentColor" />
    </symbol>
    <symbol id="arrow" width="18" height="8" viewBox="0 0 18 8" fill="none" xmlns="http://www.w3.org/2000/svg">
        <path d="M1 3.35498C0.723858 3.35498 0.5 3.57884 0.5 3.85498C0.5 4.13112 0.723858 4.35498 1 4.35498V3.35498ZM17.3536 4.20853C17.5488 4.01327 17.5488 3.69669 17.3536 3.50143L14.1716 0.319447C13.9763 0.124184 13.6597 0.124184 13.4645 0.319447C13.2692 0.514709 13.2692 0.831291 13.4645 1.02655L16.2929 3.85498L13.4645 6.68341C13.2692 6.87867 13.2692 7.19525 13.4645 7.39051C13.6597 7.58578 13.9763 7.58578 14.1716 7.39051L17.3536 4.20853ZM1 4.35498H17V3.35498H1V4.35498Z" fill="currentColor"/>
    </symbol>
    <symbol id="email" width="29" height="19" viewBox="0 0 29 19" fill="none" xmlns="http://www.w3.org/2000/svg">
            <path
                d="M21.2316 19H19.9926C19.7449 19 19.4971 18.7554 19.4971 18.5107C19.4971 18.2661 19.7449 18.0215 19.9926 18.0215H21.2316C21.4794 18.0215 21.7272 18.2661 21.7272 18.5107C21.7272 18.8369 21.562 19 21.2316 19Z"
                fill="currentColor" />
            <path
                d="M17.4321 19H14.7891C14.5413 19 14.2935 18.7554 14.2935 18.5107C14.2935 18.2661 14.5413 18.0215 14.7891 18.0215H17.4321C17.6799 18.0215 17.9277 18.2661 17.9277 18.5107C17.9277 18.8369 17.6799 19 17.4321 19ZM12.2286 19H9.58554C9.33775 19 9.08997 18.7554 9.08997 18.5107C9.08997 18.2661 9.33775 18.0215 9.58554 18.0215H12.2286C12.4764 18.0215 12.7242 18.2661 12.7242 18.5107C12.7242 18.8369 12.4764 19 12.2286 19Z"
                fill="currentColor" />
            <path
                d="M7.0251 19H5.78616C5.53838 19 5.29059 18.7554 5.29059 18.5107C5.29059 18.2661 5.53838 18.0215 5.78616 18.0215H7.0251C7.27289 18.0215 7.52068 18.2661 7.52068 18.5107C7.52068 18.8369 7.27289 19 7.0251 19Z"
                fill="currentColor" />
            <path
                d="M28.0044 19H21.2316C20.9838 19 20.736 18.7554 20.736 18.5107C20.736 18.2661 20.9838 18.0215 21.2316 18.0215H27.5088V0.978541H1.49115V18.0215H5.70354C5.95133 18.0215 6.19911 18.2661 6.19911 18.5107C6.19911 18.7554 5.95133 19 5.70354 19H0.995575C0.747788 19 0.5 18.7554 0.5 18.5107V0.48927C0.5 0.244635 0.747788 0 0.995575 0H28.0044C28.2522 0 28.5 0.244635 28.5 0.48927V18.5107C28.5 18.8369 28.3348 19 28.0044 19Z"
                fill="currentColor" />
            <path
                d="M14.5413 11.0086C14.4587 11.0086 14.2935 11.0086 14.2109 10.927L0.665193 0.896994C0.500001 0.733904 0.417406 0.407724 0.582597 0.163088C0.747789 -1.82539e-06 1.07817 -0.0815469 1.32596 0.0815433L14.5413 9.86695L27.7566 0.0815433C28.0044 -0.0815469 28.2522 -1.82539e-06 28.4174 0.163088C28.5826 0.407724 28.5826 0.733904 28.3348 0.896994L14.7891 10.927C14.7065 10.927 14.6239 11.0086 14.5413 11.0086Z"
                fill="currentColor" />
            <path
                d="M0.995598 19C0.830406 19 0.74781 18.9185 0.665215 18.8369C0.500023 18.6738 0.500023 18.3476 0.665215 18.103L11.2375 7.99141C11.4027 7.82832 11.7331 7.82832 11.9808 7.99141C12.146 8.1545 12.146 8.48068 11.9808 8.72532L1.32598 18.9185C1.24339 19 1.16079 19 0.995598 19Z"
                fill="currentColor" />
            <path
                d="M28.0045 19C27.8393 19 27.7567 18.9185 27.6741 18.8369L17.1018 8.64378C16.9366 8.48069 16.9366 8.1545 17.1018 7.90987C17.267 7.74678 17.5974 7.74678 17.8452 7.90987L28.4174 18.103C28.5826 18.2661 28.5826 18.5923 28.4174 18.8369C28.2522 19 28.1696 19 28.0045 19Z"
                fill="currentColor" />
    </symbol>
    <symbol id="calendar" width="32" height="32" viewBox="0 0 32 32" fill="none" xmlns="http://www.w3.org/2000/svg">
        <path
            d="M29.5733 11.3799H2.48659C2.24329 11.3799 2 11.2177 2 10.8933C2 10.65 2.24329 10.4067 2.48659 10.4067H29.5733C29.8166 10.4067 30.0599 10.65 30.0599 10.8933C30.0599 11.2177 29.8166 11.3799 29.5733 11.3799Z"
            fill="currentColor" />
        <path
            d="M10.1098 8.46039H6.94699C5.89272 8.46039 5.00064 7.56832 5.00064 6.51404V5.94635C5.00064 4.89208 5.89272 4 6.94699 4H10.1098C11.1641 4 12.0562 4.89208 12.0562 5.94635V6.51404C12.1373 7.56832 11.2452 8.46039 10.1098 8.46039ZM6.94699 4.97318C6.37931 4.97318 5.97382 5.37867 5.97382 5.94635V6.51404C5.97382 7.08173 6.37931 7.48722 6.94699 7.48722H10.1098C10.6775 7.48722 11.083 7.08173 11.083 6.51404V5.94635C11.083 5.37867 10.6775 4.97318 10.1098 4.97318H6.94699Z"
            fill="currentColor" />
        <path
            d="M25.1129 8.46039H21.9501C20.8958 8.46039 20.0038 7.56832 20.0038 6.51404V5.94635C20.0038 4.89208 20.8958 4 21.9501 4H25.1129C26.1672 4 27.0593 4.89208 27.0593 5.94635V6.51404C27.0593 7.56832 26.1672 8.46039 25.1129 8.46039ZM21.9501 4.97318C21.3824 4.97318 20.9769 5.37867 20.9769 5.94635V6.51404C20.9769 7.08173 21.3824 7.48722 21.9501 7.48722H25.1129C25.6806 7.48722 26.0861 7.08173 26.0861 6.51404V5.94635C26.0861 5.37867 25.6806 4.97318 25.1129 4.97318H21.9501Z"
            fill="currentColor" />
        <path
            d="M28.3569 28.086H3.70306C2.81098 28.086 2 27.3562 2 26.383V7.73042C2 6.83834 2.72988 6.02736 3.70306 6.02736H5.48722C5.73051 6.02736 5.97381 6.27065 5.97381 6.51395C5.97381 7.08163 6.3793 7.48712 6.94698 7.48712H10.1098C10.6775 7.48712 11.083 7.08163 11.083 6.51395C11.083 6.27065 11.3263 6.02736 11.5696 6.02736H20.4093C20.6526 6.02736 20.8959 6.27065 20.8959 6.51395C20.8959 7.08163 21.3013 7.48712 21.869 7.48712H25.0319C25.5995 7.48712 26.005 7.08163 26.005 6.51395C26.005 6.27065 26.2483 6.02736 26.4916 6.02736H28.2758C29.1679 6.02736 29.9788 6.75724 29.9788 7.73042V26.4641C30.0599 27.3562 29.3301 28.086 28.3569 28.086ZM3.70306 7.00054C3.29757 7.00054 2.97318 7.32493 2.97318 7.73042V26.4641C2.97318 26.8696 3.29757 27.194 3.70306 27.194H28.3569C28.7624 27.194 29.0868 26.8696 29.0868 26.4641V7.73042C29.0868 7.32493 28.7624 7.00054 28.3569 7.00054H26.9782C26.7349 7.81152 26.005 8.4603 25.113 8.4603H21.9501C21.0581 8.4603 20.2471 7.81152 20.0849 7.00054H12.1373C11.894 7.81152 11.1641 8.4603 10.272 8.4603H6.94698C6.0549 8.4603 5.24392 7.81152 5.00063 7.00054H3.70306Z"
            fill="currentColor" />
        <path
            d="M9.40612 17.8927H6.48659C6.24329 17.8927 6 17.6494 6 17.4061V14.4866C6 14.2433 6.24329 14 6.48659 14H9.40612C9.64941 14 9.89271 14.2433 9.89271 14.4866V17.4061C9.89271 17.6494 9.73051 17.8927 9.40612 17.8927ZM6.97318 16.9195H8.91953V14.9732H6.97318V16.9195Z"
            fill="currentColor" />
        <path
            d="M17.2988 17.8927H14.3793C14.136 17.8927 13.8927 17.6494 13.8927 17.4061V14.4866C13.8927 14.2433 14.136 14 14.3793 14H17.2988C17.5421 14 17.7854 14.2433 17.7854 14.4866V17.4061C17.7854 17.6494 17.5421 17.8927 17.2988 17.8927ZM14.8659 16.9195H16.8122V14.9732H14.8659V16.9195Z"
            fill="currentColor" />
        <path
            d="M25.1915 17.8927H22.272C22.0287 17.8927 21.7854 17.6494 21.7854 17.4061V14.4866C21.7854 14.2433 22.0287 14 22.272 14H25.1915C25.4348 14 25.6781 14.2433 25.6781 14.4866V17.4061C25.6781 17.6494 25.4348 17.8927 25.1915 17.8927ZM22.6775 16.9195H24.6238V14.9732H22.6775V16.9195Z"
            fill="currentColor" />
        <path
            d="M9.40612 23.8927H6.48659C6.24329 23.8927 6 23.6494 6 23.4061V20.4866C6 20.2433 6.24329 20 6.48659 20H9.40612C9.64941 20 9.89271 20.2433 9.89271 20.4866V23.4061C9.89271 23.6494 9.73051 23.8927 9.40612 23.8927ZM6.97318 22.9195H8.91953V20.9732H6.97318V22.9195Z"
            fill="currentColor" />
        <path
            d="M17.2988 23.8927H14.3793C14.136 23.8927 13.8927 23.6494 13.8927 23.4061V20.4866C13.8927 20.2433 14.136 20 14.3793 20H17.2988C17.5421 20 17.7854 20.2433 17.7854 20.4866V23.4061C17.7854 23.6494 17.5421 23.8927 17.2988 23.8927ZM14.8659 22.9195H16.8122V20.9732H14.8659V22.9195Z"
            fill="currentColor" />
        <path
            d="M25.1915 23.8927H22.272C22.0287 23.8927 21.7854 23.6494 21.7854 23.4061V20.4866C21.7854 20.2433 22.0287 20 22.272 20H25.1915C25.4348 20 25.6781 20.2433 25.6781 20.4866V23.4061C25.6781 23.6494 25.4348 23.8927 25.1915 23.8927ZM22.6775 22.9195H24.6238V20.9732H22.6775V22.9195Z"
            fill="currentColor" />
    </symbol>
    <symbol id="server" width="33" height="32" viewBox="0 0 33 32" fill="none" xmlns="http://www.w3.org/2000/svg">
        <path
            d="M23.5891 15.2026C22.797 15.2026 22.1634 15.825 22.1634 16.6029C22.1634 17.3809 22.797 18.0032 23.5891 18.0032C24.3812 18.0032 25.0148 17.3809 25.0148 16.6029C25.0545 15.825 24.4208 15.2026 23.5891 15.2026ZM23.5891 17.0697C23.3515 17.0697 23.1535 16.8752 23.1535 16.6418C23.1535 16.4084 23.3515 16.2139 23.5891 16.2139C23.8267 16.2139 24.0247 16.4084 24.0247 16.6418C24.104 16.8752 23.9059 17.0697 23.5891 17.0697Z"
            fill="currentColor" />
        <path
            d="M23.5891 26.0162C24.3812 26.0162 25.0148 25.3938 25.0148 24.6159C25.0148 23.8379 24.3812 23.2156 23.5891 23.2156C22.797 23.2156 22.1634 23.8379 22.1634 24.6159C22.1634 25.3549 22.797 26.0162 23.5891 26.0162ZM23.5891 24.1491C23.8267 24.1491 24.0247 24.3436 24.0247 24.577C24.0247 24.8104 23.8267 25.0049 23.5891 25.0049C23.3515 25.0049 23.1535 24.8104 23.1535 24.577C23.1535 24.3436 23.3515 24.1491 23.5891 24.1491Z"
            fill="currentColor" />
        <path
            d="M28.5 5.28363C28.5 4.97245 28.2228 4.77796 27.9455 4.81685C26.6386 5.01134 25.1733 4.97245 24.1832 4.11669C24.0248 3.9611 23.7871 3.9611 23.5891 4.07779C22.4406 4.81685 21.1337 5.05024 19.7871 4.81685C19.4307 4.77796 19.1535 4.97245 19.1535 5.28363V5.32253H5.01485C4.73762 5.32253 4.5 5.59481 4.5 5.8671V11.7407C4.5 12.013 4.73762 12.2464 5.01485 12.2464H14.0446V13.3355H5.01485C4.73762 13.3355 4.5 13.5689 4.5 13.8412V19.4425C4.5 19.7536 4.73762 19.9481 5.01485 19.9481H14.0446V21.3096H5.01485C4.73762 21.3096 4.5 21.5429 4.5 21.8152V27.4554C4.5 27.7277 4.73762 27.9611 5.01485 27.9611H26.4802C26.7574 27.9611 26.9951 27.7277 26.9951 27.4554V21.7763C26.9951 21.5041 26.7574 21.2707 26.4802 21.2707H16.8168V19.9092H26.4802C26.7574 19.9092 26.9951 19.7147 26.9951 19.4425V13.8023C26.9951 13.53 26.7574 13.2966 26.4802 13.2966H26.4406C27.5099 12.2075 28.0248 11.5851 28.2624 10.4182C28.5396 9.36791 28.5 8.00648 28.5 5.28363ZM20.2228 12.2075C20.4604 12.5575 20.7772 12.8687 21.1733 13.2966H16.7772V12.2075H20.2228ZM5.4901 6.33387H19.1535C19.1535 8.78444 19.1535 10.1459 19.5891 11.235H5.4901V6.33387ZM15.0347 12.2075H15.7871V13.2966H15.0347V12.2075ZM26.005 26.9498H5.4901V22.282H26.005V26.9498ZM15.8267 21.2707H15.0743V19.9092H15.8267V21.2707ZM26.005 18.9368H5.4901V14.3079H14.401C14.4802 14.3468 14.599 14.3468 14.6782 14.3079H16.104C16.1832 14.3468 16.302 14.3468 16.3812 14.3079H22.0842C22.1634 14.3857 22.2426 14.4635 22.3218 14.5413C22.401 14.6191 22.5594 14.6969 22.6782 14.6969H24.8564C24.9753 14.6969 25.1337 14.658 25.2129 14.5413C25.2921 14.4635 25.3713 14.3857 25.4505 14.3079H25.9257V18.9368H26.005ZM27.3119 10.2237C27.0743 11.3128 26.4802 11.8185 24.9356 13.4133C24.8564 13.4911 24.7772 13.5689 24.6584 13.6856H22.9554C22.8366 13.5689 22.7574 13.4522 22.6782 13.3744C22.0446 12.752 21.3713 12.0908 20.9752 11.5462C20.9356 11.4684 20.896 11.4295 20.8564 11.3906C20.6188 11.0405 20.5 10.7293 20.3812 10.2626C20.1832 9.32901 20.2228 7.6953 20.2228 5.906C21.5297 6.02269 22.7574 5.7893 23.8663 5.12804C24.9356 5.8671 26.2822 5.98379 27.5495 5.8671C27.4703 7.96758 27.5099 9.32901 27.3119 10.2237Z"
            fill="currentColor" />
    </symbol>
    <symbol id="webform" width="32" height="32" viewBox="0 0 32 32" fill="none" xmlns="http://www.w3.org/2000/svg">
        <path d="M28.1926 26.9715H3.80746C2.23689 26.9715 0.914307 25.711 0.914307 24.0303V23.274C0.914307 23.0219 1.16229 22.7698 1.41028 22.7698H30.5898C30.8378 22.7698 31.0857 23.0219 31.0857 23.274V24.0303C31.0857 25.6269 29.7632 26.9715 28.1926 26.9715ZM1.90624 23.7782V24.0303C1.90624 25.0387 2.73286 25.879 3.7248 25.879H28.1926C29.1845 25.879 30.0111 25.0387 30.0111 24.0303V23.7782H1.90624Z" fill="currentColor"/>
        <path d="M29.7631 23.7781H2.15417C1.90619 23.7781 1.6582 23.526 1.6582 23.2739V5.12266C1.6582 4.53443 2.15417 4.11426 2.65014 4.11426H29.2671C29.8458 4.11426 30.2591 4.53443 30.2591 5.12266V23.2739C30.2591 23.6101 30.0937 23.7781 29.7631 23.7781ZM2.65014 22.7697H29.2671V5.12266H2.65014V22.7697Z" fill="currentColor"/>
        <path d="M27.2005 21.6775H4.71655C4.13792 21.6775 3.72461 21.2573 3.72461 20.6691V7.30772C3.72461 6.71948 4.13792 6.29932 4.71655 6.29932H27.2005C27.7791 6.29932 28.1924 6.71948 28.1924 7.30772V20.6691C28.1924 21.1733 27.7791 21.6775 27.2005 21.6775ZM4.71655 7.30772V20.6691H27.2005V7.30772H4.71655Z" fill="currentColor"/>
        <path d="M7.0711 9.85754H17.4143C17.6575 9.85754 17.8543 9.66074 17.8543 9.41754C17.8543 9.17434 17.6575 8.97754 17.4143 8.97754H7.0711C6.8279 8.97754 6.6311 9.17434 6.6311 9.41754C6.6319 9.66074 6.8287 9.85754 7.0711 9.85754Z" fill="currentColor"/>
        <path d="M12.3575 12.0559H7.0711C6.8279 12.0559 6.6311 12.2527 6.6311 12.4959C6.6311 12.7391 6.8279 12.9359 7.0711 12.9359H12.3575C12.6007 12.9359 12.7975 12.7391 12.7975 12.4959C12.7975 12.2535 12.5999 12.0559 12.3575 12.0559Z" fill="currentColor"/>
        <path d="M12.3575 14.9143H7.0711C6.8279 14.9143 6.6311 15.1111 6.6311 15.3543C6.6311 15.5975 6.8279 15.7943 7.0711 15.7943H12.3575C12.6007 15.7943 12.7975 15.5975 12.7975 15.3543C12.7975 15.1111 12.5999 14.9143 12.3575 14.9143Z" fill="currentColor"/>
        <path d="M12.3575 17.7729H7.0711C6.8279 17.7729 6.6311 17.9697 6.6311 18.2129C6.6311 18.4561 6.8279 18.6529 7.0711 18.6529H12.3575C12.6007 18.6529 12.7975 18.4561 12.7975 18.2129C12.7975 17.9697 12.5999 17.7729 12.3575 17.7729Z" fill="currentColor"/>
    </symbol>
    <symbol id="invoice" width="32" height="32" viewBox="0 0 32 32" fill="none" xmlns="http://www.w3.org/2000/svg">
        <path
            d="M11.0713 12.8576H21.4145C21.6577 12.8576 21.8545 12.6608 21.8545 12.4176C21.8545 12.1744 21.6577 11.9776 21.4145 11.9776H11.0713C10.8281 11.9776 10.6313 12.1744 10.6313 12.4176C10.6321 12.6608 10.8289 12.8576 11.0713 12.8576Z"
            fill="currentColor" />
        <path
            d="M16.3577 15.056H11.0713C10.8281 15.056 10.6313 15.2528 10.6313 15.496C10.6313 15.7392 10.8281 15.936 11.0713 15.936H16.3577C16.6009 15.936 16.7977 15.7392 16.7977 15.496C16.7977 15.2536 16.6001 15.056 16.3577 15.056Z"
            fill="currentColor" />
        <path
            d="M16.3577 17.9144H11.0713C10.8281 17.9144 10.6313 18.1112 10.6313 18.3544C10.6313 18.5976 10.8281 18.7944 11.0713 18.7944H16.3577C16.6009 18.7944 16.7977 18.5976 16.7977 18.3544C16.7977 18.1112 16.6001 17.9144 16.3577 17.9144Z"
            fill="currentColor" />
        <path
            d="M16.3577 20.7728H11.0713C10.8281 20.7728 10.6313 20.9696 10.6313 21.2128C10.6313 21.456 10.8281 21.6528 11.0713 21.6528H16.3577C16.6009 21.6528 16.7977 21.456 16.7977 21.2128C16.7977 20.9696 16.6001 20.7728 16.3577 20.7728Z"
            fill="currentColor" />
        <path
            d="M28.2488 19.124C28.2488 17.5616 27.56 16.1576 26.472 15.196V9.34C26.472 9.3368 26.4712 9.3344 26.4712 9.3312C26.4704 9.2792 26.46 9.228 26.4408 9.1792C26.4384 9.1728 26.4352 9.1664 26.432 9.16C26.424 9.1424 26.4144 9.1248 26.404 9.108C26.4 9.1016 26.3968 9.096 26.3928 9.0896C26.3776 9.068 26.3616 9.0472 26.3432 9.0288L20.4432 3.1288C20.424 3.1096 20.404 3.0936 20.3824 3.0792C20.376 3.0752 20.3704 3.0712 20.364 3.0672C20.3472 3.0568 20.3304 3.048 20.3128 3.04C20.3064 3.0368 20.2992 3.0336 20.2928 3.0312C20.2688 3.0216 20.2448 3.0136 20.2192 3.0088C20.2192 3.0088 20.2192 3.0088 20.2184 3.0088C20.1928 3.004 20.1672 3.0016 20.1416 3.0008C20.1384 3.0008 20.136 3 20.1328 3H7.34243C7.09923 3 6.90243 3.1968 6.90243 3.44V25.0976H4.53923C4.52243 25.0976 4.50563 25.0984 4.48963 25.1008C4.47363 25.0992 4.45683 25.0976 4.44003 25.0976C4.19683 25.0976 4.00003 25.2944 4.00003 25.5376C4.00003 27.4464 5.55363 29 7.46323 29H23.0088C24.9184 29 26.472 27.4464 26.472 25.5368V23.052C27.56 22.0912 28.2488 20.6872 28.2488 19.124ZM27.3696 19.124C27.3696 21.5288 25.4136 23.4848 23.0088 23.4848C20.6048 23.4848 18.648 21.5288 18.648 19.124C18.648 16.7192 20.604 14.7632 23.0088 14.7632C25.4128 14.7632 27.3696 16.72 27.3696 19.124ZM20.572 4.5016L21.2448 5.1744L24.9704 8.9H20.572V4.5016ZM7.46323 28.1208C6.18883 28.1208 5.12723 27.1928 4.91763 25.9768H7.34243H19.5744C19.6824 26.8248 20.0976 27.5776 20.7056 28.1208H7.46323ZM25.592 25.5368C25.592 26.9616 24.4328 28.12 23.0088 28.12C21.5848 28.12 20.4256 26.9608 20.4256 25.5368C20.4256 25.2936 20.2288 25.0968 19.9856 25.0968H7.78243V3.8792H19.692V9.3392C19.692 9.5824 19.8888 9.7792 20.132 9.7792H25.592V14.568C24.8288 14.1336 23.9472 13.884 23.0088 13.884C20.1192 13.884 17.7688 16.2344 17.7688 19.124C17.7688 22.0136 20.1192 24.364 23.0088 24.364C23.948 24.364 24.8296 24.1144 25.592 23.68V25.5368Z"
            fill="currentColor" />
        <path
            d="M23.1944 18.7663C22.924 18.6527 22.7408 18.5463 22.6448 18.4471C22.5488 18.3479 22.5016 18.2167 22.5016 18.0511C22.5016 17.8727 22.5464 17.7311 22.6368 17.6255C22.7272 17.5207 22.8728 17.4679 23.0752 17.4679C23.2664 17.4679 23.4152 17.5311 23.5216 17.6559C23.628 17.7815 23.6808 17.9615 23.6808 18.1951H24.5992L24.6056 18.1791C24.612 17.7823 24.5056 17.4591 24.2864 17.2111C24.0672 16.9631 23.7648 16.8127 23.3784 16.7583V16.0591H22.8664V16.7487C22.4648 16.7895 22.1472 16.9255 21.9128 17.1559C21.6784 17.3871 21.5616 17.6831 21.5616 18.0463C21.5616 18.4391 21.6784 18.7439 21.9128 18.9607C22.1472 19.1775 22.5064 19.3679 22.9912 19.5303C23.2488 19.6287 23.428 19.7319 23.5296 19.8375C23.6304 19.9439 23.6808 20.0855 23.6808 20.2615C23.6808 20.4399 23.628 20.5807 23.5232 20.6831C23.4176 20.7863 23.26 20.8375 23.0496 20.8375C22.8352 20.8375 22.6608 20.7791 22.5264 20.6615C22.3928 20.5447 22.3256 20.3487 22.3256 20.0735H21.4112L21.4016 20.0927C21.3928 20.5519 21.5216 20.9007 21.7864 21.1375C22.052 21.3751 22.3904 21.5119 22.8032 21.5479V22.1823H23.3152V21.5479C23.7192 21.5071 24.0368 21.3743 24.2704 21.1503C24.5032 20.9263 24.62 20.6271 24.62 20.2535C24.62 19.8631 24.5016 19.5551 24.2656 19.3311C24.0272 19.1111 23.6712 18.9215 23.1944 18.7663Z"
            fill="currentColor" />
    </symbol>
    <symbol id="chat" width="33" height="32" viewBox="0 0 33 32" fill="none" xmlns="http://www.w3.org/2000/svg">
        <path
            d="M2.1424 19.6346C2.0565 19.6346 1.97059 19.6346 1.88469 19.5487C1.71288 19.4628 1.62697 19.2051 1.62697 19.0333L2.0565 14.9099C2.0565 14.5662 2.0565 14.1367 1.88469 13.7931C1.45516 13.02 1.28336 12.1609 1.28336 11.3019C1.28336 7.26437 5.75039 4 11.3342 4C16.918 4 21.385 7.26437 21.385 11.3019C21.385 15.3394 16.918 18.6038 11.3342 18.6038C9.61609 18.6038 7.898 18.2601 6.35172 17.6588C5.66448 17.4011 4.89134 17.487 4.29001 17.9165L2.48602 19.4628C2.40011 19.5487 2.2283 19.6346 2.1424 19.6346ZM11.3342 5.03085C6.35172 5.03085 2.31421 7.8657 2.31421 11.3019C2.31421 11.9891 2.48602 12.6764 2.82964 13.2777C3.08735 13.7931 3.17325 14.3944 3.17325 14.9958L2.82964 17.9165L3.77459 17.2293C4.63363 16.5421 5.83629 16.3702 6.86715 16.7998C8.24162 17.4011 9.7879 17.6588 11.4201 17.6588C16.4025 17.6588 20.4401 14.824 20.4401 11.3878C20.3541 7.8657 16.3166 5.03085 11.3342 5.03085Z"
            fill="currentColor" />
        <path
            d="M6.86709 12.5904C7.5313 12.5904 8.06975 12.0519 8.06975 11.3877C8.06975 10.7235 7.5313 10.1851 6.86709 10.1851C6.20288 10.1851 5.66443 10.7235 5.66443 11.3877C5.66443 12.0519 6.20288 12.5904 6.86709 12.5904Z"
            fill="currentColor" />
        <path
            d="M11.2483 12.5904C11.9125 12.5904 12.4509 12.0519 12.4509 11.3877C12.4509 10.7235 11.9125 10.1851 11.2483 10.1851C10.584 10.1851 10.0456 10.7235 10.0456 11.3877C10.0456 12.0519 10.584 12.5904 11.2483 12.5904Z"
            fill="currentColor" />
        <path
            d="M15.7153 12.5904C16.3795 12.5904 16.918 12.0519 16.918 11.3877C16.918 10.7235 16.3795 10.1851 15.7153 10.1851C15.0511 10.1851 14.5127 10.7235 14.5127 11.3877C14.5127 12.0519 15.0511 12.5904 15.7153 12.5904Z"
            fill="currentColor" />
        <path
            d="M25.8521 21.7822C26.5163 21.7822 27.0547 21.2437 27.0547 20.5795C27.0547 19.9153 26.5163 19.3768 25.8521 19.3768C25.1879 19.3768 24.6494 19.9153 24.6494 20.5795C24.6494 21.2437 25.1879 21.7822 25.8521 21.7822Z"
            fill="currentColor" />
        <path
            d="M21.4709 21.7822C22.1352 21.7822 22.6736 21.2437 22.6736 20.5795C22.6736 19.9153 22.1352 19.3768 21.4709 19.3768C20.8067 19.3768 20.2683 19.9153 20.2683 20.5795C20.2683 21.2437 20.8067 21.7822 21.4709 21.7822Z"
            fill="currentColor" />
        <path
            d="M17.0898 21.7822C17.754 21.7822 18.2925 21.2437 18.2925 20.5795C18.2925 19.9153 17.754 19.3768 17.0898 19.3768C16.4256 19.3768 15.8871 19.9153 15.8871 20.5795C15.8871 21.2437 16.4256 21.7822 17.0898 21.7822Z"
            fill="currentColor" />
        <path
            d="M30.5768 28.7404C30.4909 28.7404 30.3191 28.7404 30.2331 28.6545L28.3433 27.1941C27.7419 26.7646 26.9688 26.5928 26.2815 26.9364C24.7353 27.5377 23.1031 27.8813 21.2991 27.8813C15.7153 27.8813 11.2483 24.617 11.2483 20.5795C11.2483 19.7204 11.506 18.7755 11.9355 17.9164C12.0214 17.7446 12.1932 17.6587 12.365 17.6587C15.7153 17.401 18.5501 15.7688 19.6669 13.6212C19.7528 13.4494 19.9246 13.3635 20.0964 13.3635C20.5259 13.3635 20.9555 13.2776 21.2991 13.2776C26.8829 13.2776 31.3499 16.5419 31.3499 20.5795C31.3499 21.4385 31.1781 22.2116 30.7486 22.9848C30.5768 23.3284 30.4909 23.7579 30.5768 24.1015L31.0063 28.225C31.0063 28.3968 30.9204 28.6545 30.7486 28.7404C30.7486 28.7404 30.6627 28.7404 30.5768 28.7404ZM27.1406 25.6478C27.8278 25.6478 28.5151 25.9055 29.0305 26.3351L29.9754 27.0223L29.6318 24.1874C29.5459 23.5861 29.7177 23.0707 29.9754 22.4694C30.3191 21.7821 30.4909 21.1808 30.4909 20.4935C30.4909 17.0574 26.4534 14.2225 21.4709 14.2225C21.2132 14.2225 20.9555 14.2225 20.6118 14.2225C19.2374 16.5419 16.3166 18.1741 12.8804 18.6037C12.6227 19.205 12.4509 19.8922 12.4509 20.4935C12.4509 23.9297 16.4884 26.7646 21.4709 26.7646C23.1031 26.7646 24.6494 26.421 26.0238 25.9055C26.3674 25.7337 26.797 25.6478 27.1406 25.6478Z"
            fill="currentColor" />
        <path
            d="M30.9204 14.7382C30.8345 14.7382 30.6627 14.7382 30.5768 14.6523C30.3191 14.4805 30.0614 14.2228 29.8037 14.051C29.546 13.8792 29.4601 13.5355 29.6319 13.3637C29.8037 13.106 30.1473 13.0201 30.3191 13.1919C30.6627 13.3637 30.9204 13.6214 31.1781 13.7933C31.4359 13.9651 31.4359 14.3087 31.2641 14.5664C31.2641 14.6523 31.0922 14.7382 30.9204 14.7382Z"
            fill="currentColor" />
        <path
            d="M28.0856 13.0198C27.9997 13.0198 27.9138 13.0198 27.9138 12.9339C27.2265 12.6762 26.5393 12.4185 25.8521 12.2467C25.5944 12.1608 25.4226 11.9031 25.5085 11.6453C25.5944 11.3876 25.8521 11.2158 26.1098 11.3017C26.8829 11.4735 27.6561 11.7312 28.3433 12.0749C28.601 12.1608 28.6869 12.5044 28.601 12.7621C28.5151 12.9339 28.3433 13.0198 28.0856 13.0198Z"
            fill="currentColor" />
        <path
            d="M23.7045 11.8174C23.3608 11.8174 23.0172 11.7315 22.6736 11.7315C22.4159 11.7315 22.1582 11.4737 22.1582 11.216C22.1582 10.9583 22.4159 10.7006 22.6736 10.7006C23.0172 10.7006 23.3608 10.7865 23.7045 10.7865C23.9622 10.7865 24.2199 11.0442 24.134 11.3878C24.2199 11.6456 23.9622 11.8174 23.7045 11.8174Z"
            fill="currentColor" />
    </symbol>
    <symbol id="smallarrow" width="10" height="6" viewBox="0 0 10 6" fill="none" xmlns="http://www.w3.org/2000/svg">
        <path d="M1 1L5 5L9 1" stroke="currentColor" stroke-width="2" stroke-linecap="round" stroke-linejoin="round"/>
    </symbol>



    <symbol id="chat2" width="24" height="24" viewBox="0 0 24 24" fill="none" xmlns="http://www.w3.org/2000/svg">
        <path d="M21 15C21 15.5304 20.7893 16.0391 20.4142 16.4142C20.0391 16.7893 19.5304 17 19 17H7L3 21V5C3 4.46957 3.21071 3.96086 3.58579 3.58579C3.96086 3.21071 4.46957 3 5 3H19C19.5304 3 20.0391 3.21071 20.4142 3.58579C20.7893 3.96086 21 4.46957 21 5V15Z" stroke="currentColor" stroke-width="2" stroke-linecap="round" stroke-linejoin="round"/>
    </symbol>
    <symbol id="registration" width="24" height="24" viewBox="0 0 24 24" fill="none" xmlns="http://www.w3.org/2000/svg">
        <path d="M14 2H6C5.46957 2 4.96086 2.21071 4.58579 2.58579C4.21071 2.96086 4 3.46957 4 4V20C4 20.5304 4.21071 21.0391 4.58579 21.4142C4.96086 21.7893 5.46957 22 6 22H18C18.5304 22 19.0391 21.7893 19.4142 21.4142C19.7893 21.0391 20 20.5304 20 20V8L14 2Z" stroke="currentColor" stroke-width="2" stroke-linecap="round" stroke-linejoin="round"/>
        <path d="M14 2V8H20" stroke="currentColor" stroke-width="2" stroke-linecap="round" stroke-linejoin="round"/>
        <path d="M16 13H8" stroke="currentColor" stroke-width="2" stroke-linecap="round" stroke-linejoin="round"/>
        <path d="M16 17H8" stroke="currentColor" stroke-width="2" stroke-linecap="round" stroke-linejoin="round"/>
        <path d="M10 9H9H8" stroke="currentColor" stroke-width="2" stroke-linecap="round" stroke-linejoin="round"/>
    </symbol>
    <symbol id="booking" width="24" height="24" viewBox="0 0 24 24" fill="none" xmlns="http://www.w3.org/2000/svg">
        <path d="M19 4H5C3.89543 4 3 4.89543 3 6V20C3 21.1046 3.89543 22 5 22H19C20.1046 22 21 21.1046 21 20V6C21 4.89543 20.1046 4 19 4Z" stroke="currentColor" stroke-width="2" stroke-linecap="round" stroke-linejoin="round"/>
        <path d="M16 2V6" stroke="currentColor" stroke-width="2" stroke-linecap="round" stroke-linejoin="round"/>
        <path d="M8 2V6" stroke="currentColor" stroke-width="2" stroke-linecap="round" stroke-linejoin="round"/>
        <path d="M3 10H21" stroke="currentColor" stroke-width="2" stroke-linecap="round" stroke-linejoin="round"/>
    </symbol>
    <symbol id="settings" width="24" height="24" viewBox="0 0 24 24" fill="none" xmlns="http://www.w3.org/2000/svg">
        <g clip-path="url(#clip0_399_3818)">
        <path d="M12 15C13.6569 15 15 13.6569 15 12C15 10.3431 13.6569 9 12 9C10.3431 9 9 10.3431 9 12C9 13.6569 10.3431 15 12 15Z" stroke="currentColor" stroke-width="2" stroke-linecap="round" stroke-linejoin="round"/>
        <path d="M19.4 15C19.2669 15.3016 19.2272 15.6362 19.286 15.9606C19.3448 16.285 19.4995 16.5843 19.73 16.82L19.79 16.88C19.976 17.0657 20.1235 17.2863 20.2241 17.5291C20.3248 17.7719 20.3766 18.0322 20.3766 18.295C20.3766 18.5578 20.3248 18.8181 20.2241 19.0609C20.1235 19.3037 19.976 19.5243 19.79 19.71C19.6043 19.896 19.3837 20.0435 19.1409 20.1441C18.8981 20.2448 18.6378 20.2966 18.375 20.2966C18.1122 20.2966 17.8519 20.2448 17.6091 20.1441C17.3663 20.0435 17.1457 19.896 16.96 19.71L16.9 19.65C16.6643 19.4195 16.365 19.2648 16.0406 19.206C15.7162 19.1472 15.3816 19.1869 15.08 19.32C14.7842 19.4468 14.532 19.6572 14.3543 19.9255C14.1766 20.1938 14.0813 20.5082 14.08 20.83V21C14.08 21.5304 13.8693 22.0391 13.4942 22.4142C13.1191 22.7893 12.6104 23 12.08 23C11.5496 23 11.0409 22.7893 10.6658 22.4142C10.2907 22.0391 10.08 21.5304 10.08 21V20.91C10.0723 20.579 9.96512 20.258 9.77251 19.9887C9.5799 19.7194 9.31074 19.5143 9 19.4C8.69838 19.2669 8.36381 19.2272 8.03941 19.286C7.71502 19.3448 7.41568 19.4995 7.18 19.73L7.12 19.79C6.93425 19.976 6.71368 20.1235 6.47088 20.2241C6.22808 20.3248 5.96783 20.3766 5.705 20.3766C5.44217 20.3766 5.18192 20.3248 4.93912 20.2241C4.69632 20.1235 4.47575 19.976 4.29 19.79C4.10405 19.6043 3.95653 19.3837 3.85588 19.1409C3.75523 18.8981 3.70343 18.6378 3.70343 18.375C3.70343 18.1122 3.75523 17.8519 3.85588 17.6091C3.95653 17.3663 4.10405 17.1457 4.29 16.96L4.35 16.9C4.58054 16.6643 4.73519 16.365 4.794 16.0406C4.85282 15.7162 4.81312 15.3816 4.68 15.08C4.55324 14.7842 4.34276 14.532 4.07447 14.3543C3.80618 14.1766 3.49179 14.0813 3.17 14.08H3C2.46957 14.08 1.96086 13.8693 1.58579 13.4942C1.21071 13.1191 1 12.6104 1 12.08C1 11.5496 1.21071 11.0409 1.58579 10.6658C1.96086 10.2907 2.46957 10.08 3 10.08H3.09C3.42099 10.0723 3.742 9.96512 4.0113 9.77251C4.28059 9.5799 4.48572 9.31074 4.6 9C4.73312 8.69838 4.77282 8.36381 4.714 8.03941C4.65519 7.71502 4.50054 7.41568 4.27 7.18L4.21 7.12C4.02405 6.93425 3.87653 6.71368 3.77588 6.47088C3.67523 6.22808 3.62343 5.96783 3.62343 5.705C3.62343 5.44217 3.67523 5.18192 3.77588 4.93912C3.87653 4.69632 4.02405 4.47575 4.21 4.29C4.39575 4.10405 4.61632 3.95653 4.85912 3.85588C5.10192 3.75523 5.36217 3.70343 5.625 3.70343C5.88783 3.70343 6.14808 3.75523 6.39088 3.85588C6.63368 3.95653 6.85425 4.10405 7.04 4.29L7.1 4.35C7.33568 4.58054 7.63502 4.73519 7.95941 4.794C8.28381 4.85282 8.61838 4.81312 8.92 4.68H9C9.29577 4.55324 9.54802 4.34276 9.72569 4.07447C9.90337 3.80618 9.99872 3.49179 10 3.17V3C10 2.46957 10.2107 1.96086 10.5858 1.58579C10.9609 1.21071 11.4696 1 12 1C12.5304 1 13.0391 1.21071 13.4142 1.58579C13.7893 1.96086 14 2.46957 14 3V3.09C14.0013 3.41179 14.0966 3.72618 14.2743 3.99447C14.452 4.26276 14.7042 4.47324 15 4.6C15.3016 4.73312 15.6362 4.77282 15.9606 4.714C16.285 4.65519 16.5843 4.50054 16.82 4.27L16.88 4.21C17.0657 4.02405 17.2863 3.87653 17.5291 3.77588C17.7719 3.67523 18.0322 3.62343 18.295 3.62343C18.5578 3.62343 18.8181 3.67523 19.0609 3.77588C19.3037 3.87653 19.5243 4.02405 19.71 4.21C19.896 4.39575 20.0435 4.61632 20.1441 4.85912C20.2448 5.10192 20.2966 5.36217 20.2966 5.625C20.2966 5.88783 20.2448 6.14808 20.1441 6.39088C20.0435 6.63368 19.896 6.85425 19.71 7.04L19.65 7.1C19.4195 7.33568 19.2648 7.63502 19.206 7.95941C19.1472 8.28381 19.1869 8.61838 19.32 8.92V9C19.4468 9.29577 19.6572 9.54802 19.9255 9.72569C20.1938 9.90337 20.5082 9.99872 20.83 10H21C21.5304 10 22.0391 10.2107 22.4142 10.5858C22.7893 10.9609 23 11.4696 23 12C23 12.5304 22.7893 13.0391 22.4142 13.4142C22.0391 13.7893 21.5304 14 21 14H20.91C20.5882 14.0013 20.2738 14.0966 20.0055 14.2743C19.7372 14.452 19.5268 14.7042 19.4 15Z" stroke="currentColor" stroke-width="2" stroke-linecap="round" stroke-linejoin="round"/>
        </g>
        <defs>
        <clipPath id="clip0_399_3818">
        <rect width="24" height="24" fill="white"/>
        </clipPath>
        </defs>
    </symbol>
    <symbol id="card" width="24" height="24" viewBox="0 0 24 24" fill="none" xmlns="http://www.w3.org/2000/svg">
        <path d="M21 4H3C1.89543 4 1 4.89543 1 6V18C1 19.1046 1.89543 20 3 20H21C22.1046 20 23 19.1046 23 18V6C23 4.89543 22.1046 4 21 4Z" stroke="currentColor" stroke-width="2" stroke-linecap="round" stroke-linejoin="round"/>
        <path d="M1 10H23" stroke="currentColor" stroke-width="2" stroke-linecap="round" stroke-linejoin="round"/>
    </symbol>
    <symbol id="api" width="24" height="24" viewBox="0 0 24 24" fill="none" xmlns="http://www.w3.org/2000/svg">
        <path d="M18 8C19.6569 8 21 6.65685 21 5C21 3.34315 19.6569 2 18 2C16.3431 2 15 3.34315 15 5C15 6.65685 16.3431 8 18 8Z" stroke="currentColor" stroke-width="2" stroke-linecap="round" stroke-linejoin="round"/>
        <path d="M6 15C7.65685 15 9 13.6569 9 12C9 10.3431 7.65685 9 6 9C4.34315 9 3 10.3431 3 12C3 13.6569 4.34315 15 6 15Z" stroke="currentColor" stroke-width="2" stroke-linecap="round" stroke-linejoin="round"/>
        <path d="M18 22C19.6569 22 21 20.6569 21 19C21 17.3431 19.6569 16 18 16C16.3431 16 15 17.3431 15 19C15 20.6569 16.3431 22 18 22Z" stroke="currentColor" stroke-width="2" stroke-linecap="round" stroke-linejoin="round"/>
        <path d="M8.58997 13.51L15.42 17.49" stroke="currentColor" stroke-width="2" stroke-linecap="round" stroke-linejoin="round"/>
        <path d="M15.41 6.51001L8.58997 10.49" stroke="currentColor" stroke-width="2" stroke-linecap="round" stroke-linejoin="round"/>
    </symbol>







</svg>
