<svg width="64" height="78" viewBox="0 0 64 78" fill="none" xmlns="http://www.w3.org/2000/svg">
<path d="M10 0H33V63.6651L10 77.5L10 0Z" fill="#CFA434"/>
<path d="M24.8938 57.6158V55.3332C24.6245 55.6702 24.3608 55.9874 24.0353 56.2847C23.7099 56.5821 23.3283 56.8398 22.8906 57.0578C22.453 57.2759 21.9704 57.4543 21.443 57.593C20.9155 57.7318 20.36 57.8012 19.7764 57.8012C18.6542 57.8012 17.7059 57.6228 16.9316 57.2659C16.1572 56.9091 15.5288 56.4483 15.0462 55.8833C14.5636 55.3184 14.2158 54.6741 14.0025 53.9506C13.7893 53.2271 13.6827 52.4887 13.6827 51.7354V48.9842C13.6827 48.2867 0 57.6158 0 57.6158V51.2859L13.6827 42.6544H19.2378V50.6056C19.2378 51.0218 19.2714 51.4183 19.3388 51.7949C19.4061 52.1715 19.5352 52.5085 19.7259 52.8059C19.9167 53.1032 20.1692 53.3361 20.4834 53.5046C20.7977 53.6731 21.2129 53.7573 21.7291 53.7573C22.6943 53.7573 23.4293 53.4402 23.9343 52.8059C24.4393 52.1715 24.7592 51.4282 24.7592 50.5758V42.6544H29.9716V57.6158H24.8938ZM53.1742 49.9217C53.1742 50.9525 52.9946 51.9436 52.6355 52.8951C52.2764 53.8466 51.7545 54.684 51.07 55.4076C50.3854 56.1311 49.5493 56.7109 48.5618 57.147C47.5742 57.5831 46.452 57.8012 45.1951 57.8012C44.1626 57.8012 43.1863 57.6178 42.266 57.2511C41.3458 56.8844 40.6276 56.3838 40.1113 55.7495H40.044V64.521H34.5226V42.5774H39.7747V44.3912H39.8757C40.3919 43.7965 41.1045 43.2762 42.0135 42.8301C42.9225 42.3841 43.9943 42.1611 45.2287 42.1611C46.4408 42.1611 47.5405 42.3693 48.5281 42.7855C49.5157 43.2018 50.3517 43.7668 51.0363 44.4804C51.7209 45.194 52.2483 46.0216 52.6187 46.9632C52.989 47.9047 53.1742 48.8909 53.1742 49.9217ZM47.8211 49.9217C47.8211 49.4459 47.7369 48.9801 47.5686 48.5242C47.4003 48.0683 47.1534 47.6669 46.8279 47.32C46.5025 46.9731 46.0929 46.6906 45.5991 46.4725C45.1053 46.2545 44.533 46.1455 43.882 46.1455C43.2536 46.1455 42.6925 46.2545 42.1987 46.4725C41.7049 46.6906 41.2841 46.978 40.9362 47.3348C40.5883 47.6916 40.319 48.098 40.1282 48.5539C39.9374 49.0098 39.842 49.4757 39.842 49.9514C39.842 50.4272 39.9374 50.893 40.1282 51.3489C40.319 51.8048 40.5883 52.2112 40.9362 52.568C41.2841 52.9248 41.7049 53.2122 42.1987 53.4303C42.6925 53.6483 43.2536 53.7573 43.882 53.7573C44.533 53.7573 45.1053 53.6483 45.5991 53.4303C46.0929 53.2122 46.5025 52.9248 46.8279 52.568C47.1534 52.2112 47.4003 51.7999 47.5686 51.334C47.7369 50.8682 47.8211 50.3974 47.8211 49.9217Z" fill="white"/>
<path d="M63.0508 54.4139C63.0508 55.2465 62.7197 55.9403 62.0576 56.4953C61.3955 57.0503 60.6043 57.3278 59.6841 57.3278C59.2127 57.3278 58.7694 57.2535 58.3542 57.1048C57.939 56.9562 57.5743 56.753 57.26 56.4953C56.9458 56.2376 56.6989 55.9353 56.5194 55.5884C56.3398 55.2415 56.25 54.8599 56.25 54.4437C56.25 54.0472 56.3398 53.6706 56.5194 53.3138C56.6989 52.957 56.9458 52.6448 57.26 52.3772C57.5743 52.1095 57.939 51.8965 58.3542 51.7379C58.7694 51.5793 59.2127 51.5 59.6841 51.5C60.6043 51.5 61.3955 51.7775 62.0576 52.3325C62.7197 52.8876 63.0508 53.5814 63.0508 54.4139Z" fill="white"/>
</svg>
