<svg width="664" height="900" viewBox="0 0 664 900" fill="none" xmlns="http://www.w3.org/2000/svg">
<rect width="664" height="900" fill="#E8DDCF"/>
<g clip-path="url(#clip0_434_9571)">
<path d="M534.577 439.188L534.372 439.539V439.945L534.372 1967.5H125.628L125.628 441.036V440.618L125.412 440.26C105.476 407.237 95.5 370.355 95.5 329.578C95.5 299.836 101.318 271.341 112.954 244.079C116.616 235.5 120.771 227.292 125.418 219.453L125.628 219.099V218.688L125.628 1H534.372V219.211V219.618L534.577 219.969C538.633 226.903 542.377 234.119 545.806 241.618C558.266 268.862 564.5 298.176 564.5 329.578C564.5 360.981 558.266 390.295 545.806 417.538C542.377 425.037 538.633 432.254 534.577 439.188Z" stroke="#FDF9F3" stroke-width="3"/>
</g>
<path d="M292.015 629.913V559.266H371.91V629.913H292.015Z" fill="#E8DDCF" stroke="#2C3647" stroke-width="2"/>
<mask id="path-3-inside-1_434_9571" fill="white">
<path d="M373.383 631.386H290.542V557.793H373.383V631.386ZM291.567 630.44H372.437V558.818H291.567V630.44Z"/>
</mask>
<path d="M373.383 631.386H290.542V557.793H373.383V631.386ZM291.567 630.44H372.437V558.818H291.567V630.44Z" fill="#E8DDCF"/>
<path d="M373.383 631.386V633.386H375.383V631.386H373.383ZM290.542 631.386H288.542V633.386H290.542V631.386ZM290.542 557.793V555.793H288.542V557.793H290.542ZM373.383 557.793H375.383V555.793H373.383V557.793ZM291.567 630.44H289.567V632.44H291.567V630.44ZM372.437 630.44V632.44H374.437V630.44H372.437ZM372.437 558.818H374.437V556.818H372.437V558.818ZM291.567 558.818V556.818H289.567V558.818H291.567ZM373.383 629.386H290.542V633.386H373.383V629.386ZM292.542 631.386V557.793H288.542V631.386H292.542ZM290.542 559.793H373.383V555.793H290.542V559.793ZM371.383 557.793V631.386H375.383V557.793H371.383ZM291.567 632.44H372.437V628.44H291.567V632.44ZM374.437 630.44V558.818H370.437V630.44H374.437ZM372.437 556.818H291.567V560.818H372.437V556.818ZM289.567 558.818V630.44H293.567V558.818H289.567Z" fill="#2C3647" mask="url(#path-3-inside-1_434_9571)"/>
<path d="M476.973 574.994H187.027C164.934 574.994 147 557.082 147 535.022V360.497C147 338.437 164.934 320.525 187.027 320.525H476.973C499.066 320.525 517 338.437 517 360.497V534.944C517 557.083 499.065 574.994 476.973 574.994Z" fill="#E8DDCF" stroke="#2C3647" stroke-width="2"/>
<path d="M509.427 368.376V542.926H161.496C157.63 542.926 154.496 539.792 154.496 535.926V368.376C154.496 346.316 172.43 328.404 194.523 328.404H469.4C491.493 328.404 509.427 346.316 509.427 368.376Z" fill="#EEE9E2" stroke="#2C3647" stroke-width="2"/>
<path d="M202.739 381.578C194.889 381.578 186.718 381.418 179.028 381.418C179.349 389.263 178.868 404.152 178.868 404.152L202.419 404.632C202.419 404.472 202.419 388.943 202.739 381.578Z" fill="#EEE9E2"/>
<path d="M202.419 405.112L178.868 404.632C178.708 404.632 178.388 404.472 178.388 404.311C178.228 404.151 178.228 403.991 178.228 403.671C178.228 403.511 178.708 388.622 178.388 381.098C178.388 380.938 178.388 380.618 178.548 380.458C178.708 380.297 178.868 380.297 179.189 380.297C184.155 380.297 189.282 380.297 194.408 380.458C197.292 380.458 200.016 380.458 202.899 380.618C203.06 380.618 203.38 380.778 203.38 380.778C203.54 380.938 203.54 381.098 203.54 381.418C203.22 388.942 203.22 404.311 203.22 404.472C203.22 404.632 203.06 404.952 203.06 404.952C202.899 405.112 202.579 405.112 202.419 405.112ZM179.669 403.191L201.618 403.671C201.618 400.469 201.618 388.942 201.778 382.379C199.215 382.379 196.651 382.379 194.088 382.219C189.282 382.219 184.476 382.058 179.669 382.058C180.15 388.942 179.83 400.149 179.669 403.191Z" fill="#2C3647"/>
<path d="M190.242 399.509C189.922 399.509 189.602 399.349 189.602 399.029C188.48 396.787 187.199 394.706 185.757 392.785C185.436 392.465 185.596 391.984 185.917 391.664C186.237 391.344 186.718 391.504 187.038 391.824C188.32 393.425 189.441 395.186 190.403 396.947L194.728 388.783C194.888 388.462 195.369 388.302 195.85 388.462C196.17 388.622 196.33 389.103 196.17 389.583L191.204 399.029C190.883 399.349 190.563 399.509 190.242 399.509Z" fill="#2C3647"/>
<path d="M202.739 430.567C194.889 430.567 186.718 430.407 179.028 430.407C179.349 438.252 178.868 453.14 178.868 453.14L202.419 453.621C202.419 453.461 202.419 437.932 202.739 430.567Z" fill="#EEE9E2"/>
<path d="M202.419 454.261L178.868 453.781C178.708 453.781 178.388 453.621 178.388 453.46C178.228 453.3 178.228 453.14 178.228 452.82C178.228 452.66 178.708 437.771 178.388 430.247C178.388 430.087 178.388 429.767 178.548 429.606C178.708 429.446 178.868 429.446 179.189 429.446C184.155 429.446 189.442 429.446 194.408 429.606C197.132 429.606 200.016 429.606 202.739 429.767C202.899 429.767 203.22 429.927 203.22 430.087C203.38 430.247 203.38 430.407 203.38 430.727C203.22 437.931 203.22 453.3 203.22 453.46C203.22 453.621 203.06 453.941 203.06 453.941C202.899 454.101 202.579 454.261 202.419 454.261ZM179.669 452.18L201.618 452.66C201.618 449.458 201.618 437.931 201.778 431.368C199.215 431.368 196.651 431.368 194.248 431.207C189.442 431.207 184.476 431.047 179.83 431.047C180.15 437.931 179.83 449.138 179.669 452.18Z" fill="#2C3647"/>
<path d="M190.242 448.658C189.922 448.658 189.602 448.498 189.602 448.177C188.48 445.936 187.199 443.855 185.757 441.934C185.436 441.614 185.596 441.133 185.917 440.813C186.237 440.493 186.718 440.653 187.038 440.973C188.32 442.574 189.441 444.335 190.403 446.096L194.728 437.931C194.888 437.611 195.369 437.451 195.85 437.611C196.17 437.771 196.33 438.252 196.17 438.732L191.204 448.177C190.883 448.498 190.563 448.658 190.242 448.658Z" fill="#2C3647"/>
<path d="M204.18 478.115C196.33 478.115 188.159 477.954 180.469 477.954C180.79 485.799 180.309 500.688 180.309 500.688L203.859 501.168C204.02 501.008 204.02 485.639 204.18 478.115Z" fill="#EEE9E2"/>
<path d="M204.019 501.809L180.469 501.329C180.309 501.329 179.988 501.169 179.988 501.008C179.828 500.848 179.828 500.688 179.828 500.368C179.828 500.208 180.309 485.319 179.988 477.795C179.988 477.635 179.988 477.315 180.149 477.154C180.309 476.994 180.469 476.994 180.789 476.994C185.756 476.994 191.043 476.994 196.009 477.154C198.732 477.154 201.616 477.154 204.34 477.315C204.5 477.315 204.82 477.475 204.82 477.475C204.981 477.635 204.981 477.795 204.981 478.115C204.82 485.479 204.82 500.848 204.82 501.008C204.82 501.169 204.66 501.489 204.66 501.489C204.34 501.649 204.18 501.809 204.019 501.809ZM181.27 499.728L203.218 500.208C203.218 497.006 203.218 485.479 203.378 478.915C200.815 478.915 198.252 478.915 195.849 478.755C191.043 478.755 186.076 478.595 181.43 478.595C181.59 485.479 181.27 496.686 181.27 499.728Z" fill="#2C3647"/>
<path d="M191.842 496.205C191.521 496.205 191.201 496.045 191.201 495.725C190.079 493.483 188.798 491.402 187.356 489.481C187.035 489.161 187.196 488.681 187.516 488.36C187.836 488.04 188.317 488.2 188.637 488.521C189.919 490.121 191.041 491.883 192.002 493.644L196.327 485.479C196.488 485.159 196.968 484.998 197.449 485.159C197.769 485.319 197.929 485.799 197.769 486.279L192.803 495.725C192.322 496.045 192.002 496.205 191.842 496.205Z" fill="#2C3647"/>
<path d="M251.441 399.028C250.8 399.028 250.32 398.868 249.679 398.548C248.557 398.068 247.756 397.107 247.116 396.307C246.795 395.827 246.315 395.346 245.994 395.026C243.751 392.945 241.348 394.066 238.144 396.147C237.343 396.627 236.542 397.107 235.901 397.588C233.498 398.708 231.576 399.028 229.973 398.388C228.692 397.908 228.051 396.787 227.41 395.987C226.93 395.346 226.449 394.706 225.808 394.226C223.245 392.625 220.041 393.745 216.196 397.748C215.875 398.068 215.395 398.068 215.074 397.748C214.754 397.428 214.754 396.947 215.074 396.627C219.4 392.144 223.405 390.864 226.609 392.785C227.57 393.425 228.211 394.226 228.692 395.026C229.172 395.827 229.653 396.627 230.614 396.947C231.736 397.428 233.338 397.107 235.26 396.147C235.901 395.827 236.702 395.346 237.503 394.866C240.387 393.105 243.751 390.864 247.116 393.905C247.596 394.386 248.077 394.866 248.397 395.346C249.038 396.147 249.679 396.787 250.48 397.267C251.601 397.748 252.883 397.588 254.485 396.307C254.806 396.147 255.126 395.827 255.446 395.506C258.33 393.425 260.893 391.344 265.059 392.785C266.34 393.265 267.302 394.226 268.263 395.026C269.865 396.627 270.826 397.267 272.588 396.307C273.069 395.987 273.55 395.666 274.03 395.186C275.793 393.745 278.035 391.824 280.919 393.905C281.56 394.386 282.201 394.866 282.842 395.506C284.604 397.107 285.725 398.068 287.808 397.107C288.769 396.627 289.731 395.987 290.692 395.186C292.454 393.745 294.216 392.305 296.619 392.465C298.542 392.465 299.984 393.585 301.426 394.546C303.188 395.827 304.63 396.787 306.712 395.987C307.193 395.827 307.513 395.987 307.674 396.467C307.834 396.947 307.674 397.267 307.193 397.428C304.309 398.548 302.227 397.107 300.464 395.827C299.183 394.866 297.901 394.066 296.459 394.066C294.537 394.066 293.095 395.186 291.493 396.467C290.532 397.267 289.41 398.068 288.128 398.708C285.085 399.989 283.162 398.228 281.4 396.787C280.919 396.307 280.278 395.827 279.638 395.346C277.875 394.066 276.594 395.026 274.671 396.627C274.19 397.107 273.71 397.428 273.069 397.748C270.346 399.509 268.423 397.748 266.821 396.307C266.02 395.506 265.059 394.706 264.097 394.386C260.733 393.265 258.65 394.866 255.927 396.947C255.607 397.267 255.286 397.428 254.966 397.748C254.645 398.068 253.203 399.028 251.441 399.028Z" fill="#2C3647"/>
<path d="M222.764 445.296C221.001 445.296 219.399 444.335 218.118 443.535C217.797 443.215 217.637 442.734 217.957 442.414C218.278 442.094 218.758 441.934 219.079 442.254C221.642 444.175 223.404 444.175 225.327 442.734C225.647 442.414 225.968 442.094 226.288 441.774C228.05 440.173 229.973 438.412 233.017 440.013C233.658 440.333 234.138 440.973 234.779 441.454C235.9 442.414 237.022 443.535 238.143 443.215C238.784 443.054 239.425 442.414 239.906 441.774C240.226 441.293 240.546 440.973 241.027 440.653C242.309 439.692 243.751 439.052 245.513 438.732C248.877 438.412 251.12 440.013 253.363 441.934L253.844 442.414C256.247 444.335 258.009 444.175 259.931 442.094C262.495 439.212 264.898 437.771 268.903 439.692C269.704 440.173 270.665 440.653 271.466 441.133C273.389 442.414 275.151 443.535 277.394 443.375C278.676 443.215 279.477 442.254 280.278 441.133C281.239 440.013 282.36 438.572 284.283 438.252C287.968 437.611 291.012 440.173 293.575 442.894C293.895 443.215 293.895 443.695 293.575 444.015C293.254 444.335 292.774 444.335 292.453 444.015C290.05 441.614 287.487 439.372 284.443 439.853C283.001 440.013 282.36 440.973 281.399 442.094C280.438 443.215 279.316 444.655 277.394 444.815C274.67 445.136 272.428 443.695 270.505 442.414C269.704 441.934 268.903 441.454 268.102 440.973C265.058 439.532 263.296 440.493 261.053 442.894C258.49 445.616 255.926 445.776 252.882 443.375L252.402 442.894C250.319 441.133 248.397 439.692 245.673 440.013C244.391 440.173 243.11 440.653 241.988 441.454C241.668 441.774 241.348 442.094 241.027 442.414C240.386 443.215 239.585 444.175 238.304 444.335C236.381 444.655 234.939 443.375 233.658 442.094C233.177 441.614 232.536 441.133 232.056 440.813C230.133 439.692 229.012 440.653 227.249 442.254C226.929 442.574 226.609 442.894 226.128 443.215C225.167 444.815 223.885 445.296 222.764 445.296Z" fill="#2C3647"/>
<path d="M254.646 491.723C254.165 491.723 253.685 491.723 253.204 491.403C251.922 490.922 250.961 489.962 250.16 489.001C249.84 488.521 249.519 488.201 249.199 487.881C246.796 485.639 244.553 486.76 241.189 488.841C240.548 489.321 239.907 489.642 239.106 490.122C236.703 491.403 234.62 491.723 232.858 491.082C231.576 490.602 230.935 489.642 230.294 488.681C229.814 488.041 229.493 487.4 228.853 487.08C226.289 485.319 222.925 486.44 219.08 490.602C218.76 490.922 218.279 490.922 217.959 490.602C217.638 490.282 217.638 489.802 217.959 489.481C222.444 484.839 226.45 483.558 229.814 485.799C230.615 486.28 231.096 487.08 231.576 487.881C232.057 488.681 232.537 489.321 233.338 489.642C234.62 490.122 236.222 489.802 238.145 488.841C238.785 488.521 239.426 488.041 240.067 487.72C242.951 485.959 246.475 483.718 250 486.92C250.48 487.24 250.801 487.72 251.121 488.201C251.922 489.001 252.563 489.802 253.524 490.282C254.966 490.762 256.248 489.962 257.53 489.001H257.69C260.734 486.6 263.938 484.198 268.424 485.959C269.705 486.44 270.506 487.4 271.468 488.041C273.07 489.642 274.031 490.282 275.793 489.001C276.114 488.681 276.434 488.521 276.754 488.201C278.837 486.6 281.24 484.679 284.284 487.08C284.765 487.4 285.085 487.72 285.406 488.041C287.328 489.642 288.77 490.922 291.173 489.642C291.974 489.161 292.775 488.521 293.576 487.881C295.499 486.44 297.741 484.679 300.465 485.159C302.067 485.479 303.509 486.44 304.63 487.24C306.553 488.521 307.995 489.642 310.558 488.201C310.878 488.041 311.359 488.201 311.679 488.521C311.84 488.841 311.679 489.321 311.359 489.642C307.995 491.403 305.752 489.962 303.829 488.521C302.708 487.72 301.586 486.92 300.305 486.76C298.222 486.28 296.46 487.72 294.697 489.161C293.896 489.802 292.935 490.602 291.974 491.082C288.61 492.843 286.527 491.082 284.444 489.321C284.124 489.001 283.643 488.681 283.323 488.361C281.4 486.76 279.958 487.72 277.716 489.481C277.395 489.802 277.075 490.122 276.594 490.282C273.71 492.363 271.788 490.602 270.346 489.321C269.545 488.681 268.744 487.881 267.783 487.56C264.098 486.119 261.535 488.041 258.651 490.282H258.491C257.53 490.762 256.248 491.723 254.646 491.723Z" fill="#2C3647"/>
<path d="M483.503 353.55C485.175 353.55 486.531 352.247 486.531 350.641C486.531 349.034 485.175 347.731 483.503 347.731C481.83 347.731 480.475 349.034 480.475 350.641C480.475 352.247 481.83 353.55 483.503 353.55Z" fill="#5793DB"/>
<path d="M483.503 354.132C481.523 354.132 479.892 352.503 479.892 350.64C479.892 348.778 481.523 347.149 483.503 347.149C485.482 347.149 487.113 348.778 487.113 350.64C487.113 352.503 485.482 354.132 483.503 354.132ZM483.503 348.196C482.105 348.196 481.057 349.244 481.057 350.64C481.057 352.037 482.221 353.084 483.503 353.084C484.784 353.084 485.948 352.037 485.948 350.64C485.948 349.244 484.9 348.196 483.503 348.196Z" fill="#2C3647"/>
<path d="M464.402 353.55C466.075 353.55 467.43 352.248 467.43 350.641C467.43 349.034 466.075 347.731 464.402 347.731C462.73 347.731 461.374 349.034 461.374 350.641C461.374 352.248 462.73 353.55 464.402 353.55Z" fill="#EEE9E2"/>
<path d="M464.402 354.132C462.422 354.132 460.792 352.503 460.792 350.64C460.792 348.778 462.422 347.149 464.402 347.149C466.382 347.149 468.012 348.778 468.012 350.64C468.012 352.503 466.382 354.132 464.402 354.132ZM464.402 348.196C463.004 348.196 461.956 349.244 461.956 350.64C461.956 352.037 463.121 353.084 464.402 353.084C465.8 353.084 466.848 352.037 466.848 350.64C466.848 349.244 465.683 348.196 464.402 348.196Z" fill="#2C3647"/>
<path d="M445.185 353.55C446.857 353.55 448.213 352.247 448.213 350.641C448.213 349.034 446.857 347.731 445.185 347.731C443.512 347.731 442.157 349.034 442.157 350.641C442.157 352.247 443.512 353.55 445.185 353.55Z" fill="#EEE9E2"/>
<path d="M445.185 354.132C443.205 354.132 441.574 352.503 441.574 350.64C441.574 348.778 443.205 347.149 445.185 347.149C447.165 347.149 448.795 348.778 448.795 350.64C448.795 352.503 447.281 354.132 445.185 354.132ZM445.185 348.196C443.787 348.196 442.739 349.244 442.739 350.64C442.739 352.037 443.904 353.084 445.185 353.084C446.466 353.084 447.63 352.037 447.63 350.64C447.63 349.244 446.582 348.196 445.185 348.196Z" fill="#2C3647"/>
<path d="M240.439 632.513C240.964 620.141 251.188 610.324 263.639 610.324H402.498C415.024 610.324 425.177 620.139 425.699 632.513H240.439Z" fill="#E8DDCF" stroke="#2C3647" stroke-width="2"/>
<mask id="path-26-inside-2_434_9571" fill="white">
<path d="M427.273 633.986H238.945V633.513C238.945 619.882 250.07 608.851 263.64 608.851H402.499C416.148 608.851 427.194 619.961 427.194 633.513V633.986H427.273ZM239.892 633.04H426.247C426.01 620.197 415.438 609.797 402.499 609.797H263.64C250.701 609.797 240.208 620.118 239.892 633.04Z"/>
</mask>
<path d="M427.273 633.986H238.945V633.513C238.945 619.882 250.07 608.851 263.64 608.851H402.499C416.148 608.851 427.194 619.961 427.194 633.513V633.986H427.273ZM239.892 633.04H426.247C426.01 620.197 415.438 609.797 402.499 609.797H263.64C250.701 609.797 240.208 620.118 239.892 633.04Z" fill="#E8DDCF"/>
<path d="M238.945 633.986H236.945V635.986H238.945V633.986ZM427.194 633.986H425.194V635.986H427.194V633.986ZM239.892 633.04L237.893 632.992L237.843 635.04H239.892V633.04ZM426.247 633.04V635.04H428.284L428.247 633.004L426.247 633.04ZM427.273 631.986H238.945V635.986H427.273V631.986ZM240.945 633.986V633.513H236.945V633.986H240.945ZM240.945 633.513C240.945 620.993 251.168 610.851 263.64 610.851V606.851C248.972 606.851 236.945 618.771 236.945 633.513H240.945ZM263.64 610.851H402.499V606.851H263.64V610.851ZM402.499 610.851C415.042 610.851 425.194 621.064 425.194 633.513H429.194C429.194 618.858 417.255 606.851 402.499 606.851V610.851ZM425.194 633.513V633.986H429.194V633.513H425.194ZM427.194 635.986H427.273V631.986H427.194V635.986ZM239.892 635.04H426.247V631.04H239.892V635.04ZM428.247 633.004C427.99 619.068 416.526 607.797 402.499 607.797V611.797C414.351 611.797 424.031 621.327 424.248 633.077L428.247 633.004ZM402.499 607.797H263.64V611.797H402.499V607.797ZM263.64 607.797C249.607 607.797 238.235 618.993 237.893 632.992L241.891 633.089C242.181 621.244 251.795 611.797 263.64 611.797V607.797Z" fill="#2C3647" mask="url(#path-26-inside-2_434_9571)"/>
<path d="M207.588 261.294C207.588 278.577 193.577 292.588 176.294 292.588C159.011 292.588 145 278.577 145 261.294C145 244.011 159.011 230 176.294 230C193.577 230 207.588 244.011 207.588 261.294Z" fill="#EEE9E2" stroke="#2C3647" stroke-width="2"/>
<path d="M285.58 261.294C285.58 278.577 271.57 292.588 254.286 292.588C237.003 292.588 222.993 278.577 222.993 261.294C222.993 244.011 237.003 230 254.286 230C271.57 230 285.58 244.011 285.58 261.294Z" fill="#EEE9E2" stroke="#2C3647" stroke-width="2"/>
<path d="M363.572 261.294C363.572 278.577 349.562 292.588 332.279 292.588C314.996 292.588 300.985 278.577 300.985 261.294C300.985 244.011 314.996 230 332.279 230C349.562 230 363.572 244.011 363.572 261.294Z" fill="#EEE9E2" stroke="#2C3647" stroke-width="2"/>
<path d="M325.901 278.701C326.76 278.701 327.456 278.005 327.456 277.146C327.456 276.287 326.76 275.59 325.901 275.59C325.042 275.59 324.345 276.287 324.345 277.146C324.345 278.005 325.042 278.701 325.901 278.701Z" stroke="#2C3647" stroke-width="1.83333" stroke-linecap="round" stroke-linejoin="round"/>
<path d="M343.013 278.701C343.872 278.701 344.568 278.005 344.568 277.146C344.568 276.287 343.872 275.59 343.013 275.59C342.153 275.59 341.457 276.287 341.457 277.146C341.457 278.005 342.153 278.701 343.013 278.701Z" stroke="#2C3647" stroke-width="1.83333" stroke-linecap="round" stroke-linejoin="round"/>
<path d="M313.456 246.034H319.678L323.847 266.863C323.99 267.58 324.379 268.223 324.948 268.681C325.517 269.139 326.229 269.382 326.959 269.368H342.079C342.809 269.382 343.521 269.139 344.09 268.681C344.659 268.223 345.048 267.58 345.19 266.863L347.679 253.812H321.234" stroke="#2C3647" stroke-width="1.83333" stroke-linecap="round" stroke-linejoin="round"/>
<path d="M441.565 261.294C441.565 278.577 427.554 292.588 410.271 292.588C392.988 292.588 378.978 278.577 378.978 261.294C378.978 244.011 392.988 230 410.271 230C427.554 230 441.565 244.011 441.565 261.294Z" fill="#EEE9E2" stroke="#2C3647" stroke-width="2"/>
<path d="M519.558 261.294C519.558 278.577 505.547 292.588 488.264 292.588C470.981 292.588 456.97 278.577 456.97 261.294C456.97 244.011 470.981 230 488.264 230C505.547 230 519.558 244.011 519.558 261.294Z" fill="#EEE9E2" stroke="#2C3647" stroke-width="2"/>
<path d="M487.995 242.689V280.335" stroke="#2B4657" stroke-width="1.83333" stroke-linecap="round" stroke-linejoin="round"/>
<path d="M496.551 249.534H483.717C482.129 249.534 480.605 250.165 479.482 251.288C478.359 252.411 477.728 253.935 477.728 255.523C477.728 257.111 478.359 258.635 479.482 259.758C480.605 260.881 482.129 261.512 483.717 261.512H492.273C493.861 261.512 495.385 262.143 496.508 263.266C497.631 264.389 498.262 265.913 498.262 267.501C498.262 269.09 497.631 270.613 496.508 271.736C495.385 272.859 493.861 273.49 492.273 273.49H477.728" stroke="#2B4657" stroke-width="1.83333" stroke-linecap="round" stroke-linejoin="round"/>
<path d="M418.692 257.06L403.292 248.179" stroke="#2C3647" stroke-width="1.83333" stroke-linecap="round" stroke-linejoin="round"/>
<path d="M426.393 268.353V254.664C426.392 254.064 426.234 253.474 425.933 252.955C425.633 252.435 425.201 252.004 424.682 251.704L412.703 244.859C412.183 244.559 411.593 244.401 410.992 244.401C410.392 244.401 409.801 244.559 409.281 244.859L397.303 251.704C396.783 252.004 396.352 252.435 396.051 252.955C395.751 253.474 395.592 254.064 395.592 254.664V268.353C395.592 268.953 395.751 269.543 396.051 270.062C396.352 270.582 396.783 271.014 397.303 271.314L409.281 278.158C409.801 278.459 410.392 278.617 410.992 278.617C411.593 278.617 412.183 278.459 412.703 278.158L424.682 271.314C425.201 271.014 425.633 270.582 425.933 270.062C426.234 269.543 426.392 268.953 426.393 268.353Z" stroke="#2C3647" stroke-width="1.83333" stroke-linecap="round" stroke-linejoin="round"/>
<path d="M396.054 252.885L410.992 261.526L425.931 252.885" stroke="#2C3647" stroke-width="1.83333" stroke-linecap="round" stroke-linejoin="round"/>
<path d="M410.992 278.757V261.509" stroke="#2C3647" stroke-width="1.83333" stroke-linecap="round" stroke-linejoin="round"/>
<path d="M161.163 247.823H170.859C172.574 247.823 174.218 248.504 175.43 249.716C176.643 250.928 177.324 252.573 177.324 254.287V276.913C177.324 275.627 176.813 274.394 175.904 273.484C174.994 272.575 173.761 272.064 172.475 272.064H161.163V247.823Z" stroke="#2C3647" stroke-width="1.83333" stroke-linecap="round" stroke-linejoin="round"/>
<path d="M193.485 247.823H183.788C182.074 247.823 180.429 248.504 179.217 249.716C178.005 250.928 177.324 252.573 177.324 254.287V276.912C177.324 275.627 177.835 274.393 178.744 273.484C179.653 272.575 180.886 272.064 182.172 272.064H193.485V247.823Z" stroke="#2C3647" stroke-width="1.83333" stroke-linecap="round" stroke-linejoin="round"/>
<path d="M239.876 256.759L253.565 246.112L267.255 256.759V273.49C267.255 274.297 266.934 275.071 266.364 275.641C265.793 276.212 265.019 276.532 264.213 276.532H242.918C242.111 276.532 241.337 276.212 240.767 275.641C240.196 275.071 239.876 274.297 239.876 273.49V256.759Z" stroke="#2C3647" stroke-width="1.83333" stroke-linecap="round" stroke-linejoin="round"/>
<path d="M249.002 276.532V261.322H258.129V276.532" stroke="#2C3647" stroke-width="1.83333" stroke-linecap="round" stroke-linejoin="round"/>
<path d="M327.617 302C327.617 302 314.5 393.5 384.5 472" stroke="#5793DB" stroke-width="2" stroke-linecap="round" stroke-linejoin="round" stroke-dasharray="8 8"/>
<path d="M383.212 455H475.788C482.079 455 487 459.774 487 465.523V660.565C487 666.311 482.023 671.088 475.788 671.088H383.212C376.977 671.088 372 666.311 372 660.565V465.523C372 459.777 376.977 455 383.212 455Z" fill="#FDF9F3" stroke="#2C3647" stroke-width="2"/>
<path d="M444.014 460.498H415.213C414.559 460.498 414.023 461.034 414.023 461.69C414.023 462.346 414.559 462.882 415.213 462.882H444.014C444.669 462.882 445.204 462.346 445.204 461.69C445.145 461.034 444.669 460.498 444.014 460.498Z" fill="#2C3647"/>
<path d="M462.7 459.127H464.128V464.253H463.176V460.081H462.104L462.7 459.127Z" fill="#2C3647"/>
<path d="M466.746 460.796H465.794C465.794 460.259 465.972 459.782 466.33 459.484C466.627 459.186 467.044 459.008 467.579 459.008C467.877 459.008 468.174 459.067 468.412 459.186C468.65 459.306 468.829 459.484 469.007 459.782C469.126 460.021 469.245 460.259 469.245 460.557C469.245 460.855 469.186 461.213 469.007 461.511C468.829 461.869 468.531 462.286 468.055 462.763L467.46 463.359H469.305V464.253H465.794V463.776L467.401 462.167C467.758 461.809 468.055 461.452 468.174 461.213C468.293 460.975 468.353 460.736 468.353 460.557C468.353 460.379 468.293 460.2 468.174 460.081C468.055 459.961 467.877 459.902 467.698 459.902C467.52 459.902 467.341 459.961 467.163 460.14C466.865 460.319 466.746 460.498 466.746 460.796Z" fill="#2C3647"/>
<path d="M470.495 460.379C470.674 460.379 470.793 460.438 470.852 460.557C470.971 460.677 471.031 460.796 471.031 460.915C471.031 461.034 470.971 461.213 470.852 461.273C470.733 461.392 470.614 461.452 470.495 461.452C470.317 461.452 470.197 461.392 470.138 461.273C470.019 461.154 469.959 461.034 469.959 460.915C469.959 460.736 470.019 460.617 470.138 460.557C470.197 460.438 470.317 460.379 470.495 460.379ZM470.495 463.24C470.674 463.24 470.793 463.3 470.852 463.419C470.971 463.538 471.031 463.657 471.031 463.776C471.031 463.955 470.971 464.075 470.852 464.134C470.733 464.253 470.614 464.313 470.495 464.313C470.317 464.313 470.197 464.253 470.138 464.134C470.019 464.015 469.959 463.896 469.959 463.776C469.959 463.598 470.019 463.478 470.138 463.419C470.197 463.3 470.317 463.24 470.495 463.24Z" fill="#2C3647"/>
<path d="M473.47 459.008C473.827 459.008 474.184 459.127 474.422 459.306C474.72 459.484 474.898 459.782 475.017 460.14C475.136 460.498 475.255 461.034 475.255 461.69C475.255 462.346 475.196 462.882 475.017 463.3C474.839 463.657 474.66 463.955 474.422 464.134C474.184 464.313 473.827 464.373 473.47 464.373C473.113 464.373 472.756 464.313 472.518 464.134C472.28 463.955 472.042 463.657 471.923 463.3C471.804 462.942 471.685 462.405 471.685 461.75C471.685 460.796 471.804 460.14 472.102 459.723C472.459 459.246 472.875 459.008 473.47 459.008ZM473.47 459.902C473.292 459.902 473.173 459.961 473.054 460.081C472.935 460.2 472.816 460.379 472.756 460.617C472.697 460.855 472.637 461.273 472.637 461.75C472.637 462.405 472.697 462.823 472.875 463.061C473.054 463.3 473.232 463.419 473.47 463.419C473.708 463.419 473.887 463.3 474.006 463.061C474.184 462.763 474.244 462.286 474.244 461.63C474.244 460.975 474.184 460.498 474.006 460.259C473.887 460.081 473.708 459.902 473.47 459.902Z" fill="#2C3647"/>
<path d="M477.457 459.008C477.814 459.008 478.171 459.127 478.409 459.306C478.707 459.484 478.885 459.782 479.004 460.14C479.123 460.498 479.242 461.034 479.242 461.69C479.242 462.346 479.183 462.882 479.004 463.3C478.826 463.657 478.647 463.955 478.409 464.134C478.171 464.313 477.814 464.373 477.457 464.373C477.1 464.373 476.743 464.313 476.505 464.134C476.267 463.955 476.029 463.657 475.91 463.3C475.791 462.942 475.672 462.405 475.672 461.75C475.672 460.796 475.791 460.14 476.088 459.723C476.386 459.246 476.862 459.008 477.457 459.008ZM477.457 459.902C477.279 459.902 477.16 459.961 477.041 460.081C476.922 460.2 476.803 460.379 476.743 460.617C476.683 460.855 476.624 461.273 476.624 461.75C476.624 462.405 476.683 462.823 476.862 463.061C477.041 463.3 477.219 463.419 477.457 463.419C477.695 463.419 477.874 463.3 477.993 463.061C478.171 462.763 478.231 462.286 478.231 461.63C478.231 460.975 478.171 460.498 477.993 460.259C477.874 460.081 477.695 459.902 477.457 459.902Z" fill="#2C3647"/>
<path d="M470.083 528.088C470.083 549.121 453.033 566.171 432 566.171C410.967 566.171 393.917 549.121 393.917 528.088C393.917 507.055 410.967 490.005 432 490.005C453.033 490.005 470.083 507.055 470.083 528.088Z" fill="white" stroke="#2C3647" stroke-width="1.83333"/>
<path d="M445.964 509.979L452.466 515.268L432.079 546.356L413.795 525.481L419.516 519.683L429.838 531.295L430.687 532.25L431.41 531.196L445.964 509.979Z" fill="#FFC01E" stroke="#2C3647" stroke-width="2"/>
<path d="M420.216 594.762C419.758 594.762 419.3 594.762 418.841 594.457C417.619 593.999 416.702 593.083 415.938 592.167C415.633 591.709 415.327 591.403 415.022 591.098C412.73 588.96 410.591 590.029 407.383 592.014C406.771 592.472 406.16 592.777 405.396 593.235C403.105 594.457 401.119 594.762 399.438 594.151C398.216 593.693 397.605 592.777 396.993 591.861C396.535 591.251 396.229 590.64 395.618 590.335C393.174 588.655 389.965 589.724 386.299 593.693C385.993 593.999 385.535 593.999 385.229 593.693C384.924 593.388 384.924 592.93 385.229 592.625C389.507 588.197 393.327 586.976 396.535 589.113C397.299 589.571 397.757 590.335 398.216 591.098C398.674 591.861 399.132 592.472 399.896 592.777C401.119 593.235 402.646 592.93 404.48 592.014C405.091 591.709 405.702 591.251 406.313 590.945C409.063 589.266 412.424 587.128 415.786 590.182C416.244 590.487 416.549 590.945 416.855 591.403C417.619 592.167 418.23 592.93 419.147 593.388C420.522 593.846 421.744 593.083 422.966 592.167H423.119C426.022 589.877 429.078 587.586 433.356 589.266C434.578 589.724 435.342 590.64 436.258 591.251C437.786 592.777 438.703 593.388 440.383 592.167C440.689 591.861 440.995 591.709 441.3 591.403C443.286 589.877 445.578 588.044 448.481 590.335C448.939 590.64 449.245 590.945 449.55 591.251C451.384 592.777 452.759 593.999 455.051 592.777C455.814 592.319 456.578 591.709 457.342 591.098C459.176 589.724 461.315 588.044 463.912 588.502C465.44 588.808 466.815 589.724 467.884 590.487C469.718 591.709 471.093 592.777 473.537 591.403C473.843 591.251 474.301 591.403 474.607 591.709C474.759 592.014 474.607 592.472 474.301 592.777C471.093 594.457 468.954 593.083 467.12 591.709C466.051 590.945 464.981 590.182 463.759 590.029C461.773 589.571 460.092 590.945 458.412 592.319C457.648 592.93 456.731 593.693 455.814 594.151C452.606 595.831 450.62 594.151 448.634 592.472C448.328 592.167 447.87 591.861 447.564 591.556C445.731 590.029 444.356 590.945 442.217 592.625C441.911 592.93 441.606 593.235 441.147 593.388C438.397 595.373 436.564 593.693 435.189 592.472C434.425 591.861 433.661 591.098 432.744 590.793C429.23 589.418 426.786 591.251 424.036 593.388H423.883C422.966 593.846 421.744 594.762 420.216 594.762Z" fill="#2C3647"/>
<path d="M420.216 621.762C419.758 621.762 419.3 621.762 418.841 621.457C417.619 620.999 416.702 620.083 415.938 619.167C415.633 618.709 415.327 618.403 415.022 618.098C412.73 615.96 410.591 617.029 407.383 619.014C406.771 619.472 406.16 619.777 405.396 620.235C403.105 621.457 401.119 621.762 399.438 621.151C398.216 620.693 397.605 619.777 396.993 618.861C396.535 618.251 396.229 617.64 395.618 617.335C393.174 615.655 389.965 616.724 386.299 620.693C385.993 620.999 385.535 620.999 385.229 620.693C384.924 620.388 384.924 619.93 385.229 619.625C389.507 615.197 393.327 613.976 396.535 616.113C397.299 616.571 397.757 617.335 398.216 618.098C398.674 618.861 399.132 619.472 399.896 619.777C401.119 620.235 402.646 619.93 404.48 619.014C405.091 618.709 405.702 618.251 406.313 617.945C409.063 616.266 412.424 614.128 415.786 617.182C416.244 617.487 416.549 617.945 416.855 618.403C417.619 619.167 418.23 619.93 419.147 620.388C420.522 620.846 421.744 620.083 422.966 619.167H423.119C426.022 616.877 429.078 614.586 433.356 616.266C434.578 616.724 435.342 617.64 436.258 618.251C437.786 619.777 438.703 620.388 440.383 619.167C440.689 618.861 440.995 618.709 441.3 618.403C443.286 616.877 445.578 615.044 448.481 617.335C448.939 617.64 449.245 617.945 449.55 618.251C451.384 619.777 452.759 620.999 455.051 619.777C455.814 619.319 456.578 618.709 457.342 618.098C459.176 616.724 461.315 615.044 463.912 615.502C465.44 615.808 466.815 616.724 467.884 617.487C469.718 618.709 471.093 619.777 473.537 618.403C473.843 618.251 474.301 618.403 474.607 618.709C474.759 619.014 474.607 619.472 474.301 619.777C471.093 621.457 468.954 620.083 467.12 618.709C466.051 617.945 464.981 617.182 463.759 617.029C461.773 616.571 460.092 617.945 458.412 619.319C457.648 619.93 456.731 620.693 455.814 621.151C452.606 622.831 450.62 621.151 448.634 619.472C448.328 619.167 447.87 618.861 447.564 618.556C445.731 617.029 444.356 617.945 442.217 619.625C441.911 619.93 441.606 620.235 441.147 620.388C438.397 622.373 436.564 620.693 435.189 619.472C434.425 618.861 433.661 618.098 432.744 617.793C429.23 616.418 426.786 618.251 424.036 620.388H423.883C422.966 620.846 421.744 621.762 420.216 621.762Z" fill="#2C3647"/>
<defs>
<clipPath id="clip0_434_9571">
<rect width="660" height="900" fill="white"/>
</clipPath>
</defs>
</svg>
