<svg width="664" height="900" viewBox="0 0 664 900" fill="none" xmlns="http://www.w3.org/2000/svg">
<rect width="664" height="900" fill="#E8DDCF"/>
<g clip-path="url(#clip0_432_9242)">
<path d="M169.043 138.37H169.781L170.231 137.785C195.544 104.949 230.522 76.1706 275.22 51.4738C319.797 26.8437 372.402 14.5 433.087 14.5C492.672 14.5 546.696 26.0215 595.187 49.0386C643.715 72.0735 684.783 103.326 718.407 142.797C752.046 182.286 777.973 228.09 796.183 280.227C814.393 332.364 823.5 386.974 823.5 444.066C823.5 501.165 814.668 556.056 797.007 608.75C779.35 661.434 753.699 707.785 720.061 747.821C686.432 787.846 645.358 819.926 596.823 844.061C548.345 868.168 493.225 880.239 431.426 880.239C380.706 880.239 332.757 870.098 287.564 849.816C242.377 829.539 207.172 801.892 181.884 766.901L181.435 766.279H180.668H177.346H175.846V767.779V1253.5H-93.5V-52H162.561V136.87V138.37H164.061H169.043Z" stroke="#FDF9F3" stroke-width="3"/>
</g>
<path d="M367.015 531.235V466.618H439.987V531.235H367.015Z" fill="#E8DDCF" stroke="#2C3647" stroke-width="1.01415"/>
<mask id="path-3-inside-1_432_9242" fill="white">
<path d="M440.921 532.169H366.08V465.684H440.921V532.169ZM367.007 531.315H440.066V466.609H367.007V531.315Z"/>
</mask>
<path d="M440.921 532.169H366.08V465.684H440.921V532.169ZM367.007 531.315H440.066V466.609H367.007V531.315Z" fill="#E8DDCF"/>
<path d="M440.921 532.169V533.183H441.936V532.169H440.921ZM366.08 532.169H365.066V533.183H366.08V532.169ZM366.08 465.684V464.67H365.066V465.684H366.08ZM440.921 465.684H441.936V464.67H440.921V465.684ZM367.007 531.315H365.993V532.329H367.007V531.315ZM440.066 531.315V532.329H441.08V531.315H440.066ZM440.066 466.609H441.08V465.595H440.066V466.609ZM367.007 466.609V465.595H365.993V466.609H367.007ZM440.921 531.155H366.08V533.183H440.921V531.155ZM367.094 532.169V465.684H365.066V532.169H367.094ZM366.08 466.698H440.921V464.67H366.08V466.698ZM439.907 465.684V532.169H441.936V465.684H439.907ZM367.007 532.329H440.066V530.3H367.007V532.329ZM441.08 531.315V466.609H439.052V531.315H441.08ZM440.066 465.595H367.007V467.623H440.066V465.595ZM365.993 466.609V531.315H368.021V466.609H365.993Z" fill="#2C3647" mask="url(#path-3-inside-1_432_9242)"/>
<path d="M534.507 481.127H272.562C252.657 481.127 236.498 464.988 236.498 445.112V287.442C236.498 267.566 252.657 251.427 272.562 251.427H534.507C554.413 251.427 570.571 267.566 570.571 287.442V445.041C570.571 464.989 554.412 481.127 534.507 481.127Z" fill="#E8DDCF" stroke="#2C3647" stroke-width="2"/>
<path d="M563.73 294.56V452.156H250.271C246.405 452.156 243.271 449.022 243.271 445.156V294.56C243.271 274.684 259.429 258.545 279.335 258.545H527.666C547.571 258.545 563.73 274.684 563.73 294.56Z" fill="#E8DDCF" stroke="#2C3647" stroke-width="2"/>
<path d="M320.407 533.584C320.677 522 330.177 512.745 341.776 512.745H467.224C478.892 512.745 488.325 521.999 488.593 533.584H320.407Z" fill="#E8DDCF" stroke="#2C3647" stroke-width="1.01415"/>
<mask id="path-8-inside-2_432_9242" fill="white">
<path d="M489.606 534.518H319.467V534.091C319.467 521.776 329.517 511.811 341.777 511.811H467.225C479.556 511.811 489.535 521.847 489.535 534.091V534.518H489.606ZM320.322 533.664H488.68C488.466 522.061 478.915 512.665 467.225 512.665H341.777C330.087 512.665 320.607 521.99 320.322 533.664Z"/>
</mask>
<path d="M489.606 534.518H319.467V534.091C319.467 521.776 329.517 511.811 341.777 511.811H467.225C479.556 511.811 489.535 521.847 489.535 534.091V534.518H489.606ZM320.322 533.664H488.68C488.466 522.061 478.915 512.665 467.225 512.665H341.777C330.087 512.665 320.607 521.99 320.322 533.664Z" fill="#E8DDCF"/>
<path d="M319.467 534.518H318.453V535.532H319.467V534.518ZM489.535 534.518H488.521V535.532H489.535V534.518ZM320.322 533.664L319.308 533.639L319.283 534.678H320.322V533.664ZM488.68 533.664V534.678H489.713L489.694 533.645L488.68 533.664ZM489.606 533.504H319.467V535.532H489.606V533.504ZM320.481 534.518V534.091H318.453V534.518H320.481ZM320.481 534.091C320.481 522.34 330.074 512.825 341.777 512.825V510.797C328.96 510.797 318.453 521.213 318.453 534.091H320.481ZM341.777 512.825H467.225V510.797H341.777V512.825ZM467.225 512.825C478.995 512.825 488.521 522.407 488.521 534.091H490.549C490.549 521.288 480.117 510.797 467.225 510.797V512.825ZM488.521 534.091V534.518H490.549V534.091H488.521ZM489.535 535.532H489.606V533.504H489.535V535.532ZM320.322 534.678H488.68V532.65H320.322V534.678ZM489.694 533.645C489.47 521.488 479.466 511.651 467.225 511.651V513.679C478.363 513.679 487.462 522.634 487.666 533.682L489.694 533.645ZM467.225 511.651H341.777V513.679H467.225V511.651ZM341.777 511.651C329.532 511.651 319.607 521.419 319.308 533.639L321.336 533.689C321.608 522.561 330.642 513.679 341.777 513.679V511.651Z" fill="#2C3647" mask="url(#path-8-inside-2_432_9242)"/>
<path d="M474.714 457.335H464.643V484.299H474.714V457.335Z" fill="#2C3647" stroke="#2C3647" stroke-width="2" stroke-miterlimit="10"/>
<path d="M474.714 615.911H464.643V642.876H474.714V615.911Z" fill="#2C3647" stroke="#2C3647" stroke-width="2" stroke-miterlimit="10"/>
<path d="M201.071 301.754H191V328.719H201.071V301.754Z" fill="#2C3647" stroke="#2C3647" stroke-width="2" stroke-miterlimit="10"/>
<path d="M201.071 537.586H191V564.551H201.071V537.586Z" fill="#2C3647" stroke="#2C3647" stroke-width="2" stroke-miterlimit="10"/>
<path d="M490.857 286.704H223V344.699H490.857V286.704Z" fill="#FDF9F3" stroke="#2C3647" stroke-width="2" stroke-miterlimit="10"/>
<path d="M420.572 301.47H235.857V329.933H420.572V301.47Z" fill="#EEE9E2" stroke="#2C3647" stroke-width="2" stroke-miterlimit="10"/>
<path d="M404.857 211H137V268.995H404.857V211Z" fill="#FDF9F3" stroke="#2C3647" stroke-width="2" stroke-miterlimit="10"/>
<path d="M334.572 225.766H149.857V254.229H334.572V225.766Z" fill="#EEE9E2" stroke="#2C3647" stroke-width="2" stroke-miterlimit="10"/>
<path d="M404.857 211H137V268.995H404.857V211Z" fill="#FDF9F3" stroke="#2C3647" stroke-width="2" stroke-miterlimit="10"/>
<path d="M334.572 225.766H149.857V254.229H334.572V225.766Z" fill="#EEE9E2" stroke="#2C3647" stroke-width="2" stroke-miterlimit="10"/>
<path d="M445.429 321.587C449.334 321.587 452.5 318.425 452.5 314.525C452.5 310.624 449.334 307.462 445.429 307.462C441.523 307.462 438.357 310.624 438.357 314.525C438.357 318.425 441.523 321.587 445.429 321.587Z" fill="#FDF9F3" stroke="#2C3647" stroke-width="2" stroke-miterlimit="10"/>
<path d="M473.5 321.587C477.406 321.587 480.572 318.425 480.572 314.525C480.572 310.624 477.406 307.462 473.5 307.462C469.595 307.462 466.429 310.624 466.429 314.525C466.429 318.425 469.595 321.587 473.5 321.587Z" fill="#EEE9E2" stroke="#2C3647" stroke-width="2" stroke-miterlimit="10"/>
<path d="M403.643 321.587C407.548 321.587 410.714 318.425 410.714 314.525C410.714 310.624 407.548 307.462 403.643 307.462C399.737 307.462 396.571 310.624 396.571 314.525C396.571 318.425 399.737 321.587 403.643 321.587Z" fill="#FDF9F3" stroke="#2C3647" stroke-width="2" stroke-miterlimit="10"/>
<path d="M480.571 344.699H233.071V364.601H480.571V344.699Z" fill="#E8DDCF" stroke="#2C3647" stroke-width="2" stroke-miterlimit="10"/>
<path d="M468.071 364.671H200.214V422.666H468.071V364.671Z" fill="#FDF9F3" stroke="#2C3647" stroke-width="2" stroke-miterlimit="10"/>
<path d="M397.786 379.438H213.071V407.9H397.786V379.438Z" fill="#EEE9E2" stroke="#2C3647" stroke-width="2" stroke-miterlimit="10"/>
<path d="M422.643 399.554C426.548 399.554 429.714 396.392 429.714 392.492C429.714 388.592 426.548 385.43 422.643 385.43C418.737 385.43 415.571 388.592 415.571 392.492C415.571 396.392 418.737 399.554 422.643 399.554Z" fill="#EEE9E2" stroke="#2C3647" stroke-width="2" stroke-miterlimit="10"/>
<path d="M450.714 399.554C454.619 399.554 457.785 396.392 457.785 392.492C457.785 388.592 454.619 385.43 450.714 385.43C446.809 385.43 443.643 388.592 443.643 392.492C443.643 396.392 446.809 399.554 450.714 399.554Z" fill="#FDF9F3" stroke="#2C3647" stroke-width="2" stroke-miterlimit="10"/>
<path d="M380.858 399.554C384.763 399.554 387.929 396.392 387.929 392.492C387.929 388.592 384.763 385.43 380.858 385.43C376.952 385.43 373.786 388.592 373.786 392.492C373.786 396.392 376.952 399.554 380.858 399.554Z" fill="#FDF9F3" stroke="#2C3647" stroke-width="2" stroke-miterlimit="10"/>
<path d="M457.786 422.666H210.286V442.569H457.786V422.666Z" fill="#E8DDCF" stroke="#2C3647" stroke-width="2" stroke-miterlimit="10"/>
<path d="M468.071 442.355H200.214V500.35H468.071V442.355Z" fill="#FDF9F3" stroke="#2C3647" stroke-width="2" stroke-miterlimit="10"/>
<path d="M397.786 457.335H213.071V485.797H397.786V457.335Z" fill="#EEE9E2" stroke="#2C3647" stroke-width="2" stroke-miterlimit="10"/>
<path d="M422.643 477.237C426.548 477.237 429.714 474.075 429.714 470.175C429.714 466.275 426.548 463.113 422.643 463.113C418.737 463.113 415.571 466.275 415.571 470.175C415.571 474.075 418.737 477.237 422.643 477.237Z" fill="#FDF9F3" stroke="#2C3647" stroke-width="2" stroke-miterlimit="10"/>
<path d="M450.714 477.237C454.619 477.237 457.785 474.075 457.785 470.175C457.785 466.275 454.619 463.113 450.714 463.113C446.809 463.113 443.643 466.275 443.643 470.175C443.643 474.075 446.809 477.237 450.714 477.237Z" fill="#EEE9E2" stroke="#2C3647" stroke-width="2" stroke-miterlimit="10"/>
<path d="M380.858 477.237C384.763 477.237 387.929 474.075 387.929 470.175C387.929 466.275 384.763 463.113 380.858 463.113C376.952 463.113 373.786 466.275 373.786 470.175C373.786 474.075 376.952 477.237 380.858 477.237Z" fill="#FDF9F3" stroke="#2C3647" stroke-width="2" stroke-miterlimit="10"/>
<path d="M457.786 500.35H210.286V520.252H457.786V500.35Z" fill="#E8DDCF" stroke="#2C3647" stroke-width="2" stroke-miterlimit="10"/>
<path d="M468.071 520.252H200.214V578.247H468.071V520.252Z" fill="#FDF9F3" stroke="#2C3647" stroke-width="2" stroke-miterlimit="10"/>
<path d="M397.786 535.018H213.071V563.481H397.786V535.018Z" fill="#EEE9E2" stroke="#2C3647" stroke-width="2" stroke-miterlimit="10"/>
<path d="M422.643 555.134C426.548 555.134 429.714 551.973 429.714 548.072C429.714 544.172 426.548 541.01 422.643 541.01C418.737 541.01 415.571 544.172 415.571 548.072C415.571 551.973 418.737 555.134 422.643 555.134Z" fill="#EEE9E2" stroke="#2C3647" stroke-width="2" stroke-miterlimit="10"/>
<path d="M450.714 555.134C454.619 555.134 457.785 551.973 457.785 548.072C457.785 544.172 454.619 541.01 450.714 541.01C446.809 541.01 443.643 544.172 443.643 548.072C443.643 551.973 446.809 555.134 450.714 555.134Z" fill="#FDF9F3" stroke="#2C3647" stroke-width="2" stroke-miterlimit="10"/>
<path d="M380.858 555.134C384.763 555.134 387.929 551.973 387.929 548.072C387.929 544.172 384.763 541.01 380.858 541.01C376.952 541.01 373.786 544.172 373.786 548.072C373.786 551.973 376.952 555.134 380.858 555.134Z" fill="#FDF9F3" stroke="#2C3647" stroke-width="2" stroke-miterlimit="10"/>
<path d="M457.786 578.247H210.286V598.149H457.786V578.247Z" fill="#E8DDCF" stroke="#2C3647" stroke-width="2" stroke-miterlimit="10"/>
<path d="M468.071 598.149H200.214V656.144H468.071V598.149Z" fill="#FDF9F3" stroke="#2C3647" stroke-width="2" stroke-miterlimit="10"/>
<path d="M397.786 612.915H213.071V641.378H397.786V612.915Z" fill="#EEE9E2" stroke="#2C3647" stroke-width="2" stroke-miterlimit="10"/>
<path d="M422.643 632.818C426.548 632.818 429.714 629.656 429.714 625.756C429.714 621.855 426.548 618.693 422.643 618.693C418.737 618.693 415.571 621.855 415.571 625.756C415.571 629.656 418.737 632.818 422.643 632.818Z" fill="#FDF9F3" stroke="#2C3647" stroke-width="2" stroke-miterlimit="10"/>
<path d="M450.714 632.818C454.619 632.818 457.785 629.656 457.785 625.756C457.785 621.855 454.619 618.693 450.714 618.693C446.809 618.693 443.643 621.855 443.643 625.756C443.643 629.656 446.809 632.818 450.714 632.818Z" fill="#EEE9E2" stroke="#2C3647" stroke-width="2" stroke-miterlimit="10"/>
<path d="M380.858 632.818C384.763 632.818 387.929 629.656 387.929 625.756C387.929 621.855 384.763 618.693 380.858 618.693C376.952 618.693 373.786 621.855 373.786 625.756C373.786 629.656 376.952 632.818 380.858 632.818Z" fill="#FDF9F3" stroke="#2C3647" stroke-width="2" stroke-miterlimit="10"/>
<path d="M374.714 279H389.714" stroke="#2C3647" stroke-width="2" stroke-miterlimit="10" stroke-linecap="round" stroke-linejoin="round"/>
<path d="M270.786 279H357.572" stroke="#2C3647" stroke-width="2" stroke-miterlimit="10" stroke-linecap="round" stroke-linejoin="round"/>
<path d="M189.071 631.106V641.806" stroke="#2C3647" stroke-width="2" stroke-miterlimit="10" stroke-linecap="round" stroke-linejoin="round"/>
<path d="M189.071 597.935V620.405" stroke="#2C3647" stroke-width="2" stroke-miterlimit="10" stroke-linecap="round" stroke-linejoin="round"/>
<path d="M220.645 312.182C217.72 312.182 214.928 312.979 212.402 314.441C212.668 313.245 212.801 311.916 212.801 310.587C212.801 298.098 202.695 288 190.197 288C179.161 288 169.986 295.972 167.992 306.469C165.731 305.671 163.471 305.14 160.945 305.14C149.909 305.14 141 314.042 141 325.07C141 336.098 149.909 345 160.945 345H220.645C229.687 345 237 337.692 237 328.657C237 319.622 229.687 312.182 220.645 312.182Z" fill="white" stroke="#263238" stroke-width="2" stroke-miterlimit="10"/>
<path d="M567.204 441.428C563.21 441.428 559.55 442.424 556.222 444.417C556.554 442.756 556.721 441.096 556.721 439.269C556.721 422.661 543.243 409.209 526.603 409.209C511.793 409.209 499.646 419.838 496.984 433.788C493.989 432.626 490.827 432.127 487.666 432.127C473.023 432.127 461.042 444.085 461.042 458.7C461.042 473.315 473.023 485.272 487.666 485.272H567.204C579.351 485.272 589.002 475.474 589.002 463.516C589.002 451.558 579.351 441.428 567.204 441.428Z" fill="white" stroke="#263238" stroke-width="2" stroke-miterlimit="10"/>
<path d="M553.227 490.753H559.882" stroke="#263238" stroke-width="2" stroke-miterlimit="10" stroke-linecap="round" stroke-linejoin="round"/>
<path d="M520.779 490.753H544.075" stroke="#263238" stroke-width="2" stroke-miterlimit="10" stroke-linecap="round" stroke-linejoin="round"/>
<path d="M498.814 410.537C501.976 408.046 504.805 406.385 510.795 405.555" stroke="#263238" stroke-width="2" stroke-miterlimit="10" stroke-linecap="round" stroke-linejoin="round"/>
<path d="M490.827 422.661C490.827 422.661 491.326 419.173 494.155 415.353" stroke="#263238" stroke-width="2" stroke-miterlimit="10" stroke-linecap="round" stroke-linejoin="round"/>
<path d="M238.069 542.569C232.078 542.569 226.587 544.23 221.595 546.887C222.095 544.396 222.261 541.739 222.261 539.081C222.261 514.17 201.96 493.908 177.001 493.908C154.87 493.908 136.4 509.852 132.572 530.777C128.246 529.117 123.421 528.12 118.429 528.12C96.2977 528.12 78.4932 546.057 78.4932 567.979C78.4932 590.067 96.4641 607.838 118.429 607.838H237.902C256.04 607.838 270.849 593.223 270.849 574.954C271.016 557.35 256.373 542.569 238.069 542.569Z" fill="white" stroke="#263238" stroke-width="2" stroke-miterlimit="10"/>
<path d="M87.9775 604.848C89.4751 605.845 91.3055 606.841 93.1359 607.838" stroke="#263238" stroke-width="2" stroke-miterlimit="10" stroke-linecap="round" stroke-linejoin="round"/>
<path d="M74.832 589.569C74.832 589.569 76.496 594.385 81.6543 599.7" stroke="#263238" stroke-width="2" stroke-miterlimit="10" stroke-linecap="round" stroke-linejoin="round"/>
<path d="M148.546 491.583C153.704 488.096 161.525 484.608 172.174 484.94" stroke="#263238" stroke-width="2" stroke-miterlimit="10" stroke-linecap="round" stroke-linejoin="round"/>
<path d="M141.392 498.226C141.392 498.226 142.723 496.399 145.385 494.074" stroke="#263238" stroke-width="2" stroke-miterlimit="10" stroke-linecap="round" stroke-linejoin="round"/>
<path d="M461.667 501.4H462.667V500.4V493.3C462.667 487.917 464.809 482.753 468.622 478.946C472.435 475.139 477.607 473 483 473C488.393 473 493.565 475.139 497.378 478.946C501.191 482.753 503.333 487.917 503.333 493.3V500.4V501.4H504.333H507.889C509.51 501.4 511.065 502.043 512.211 503.187C513.357 504.331 514 505.883 514 507.5V535.9C514 537.517 513.357 539.069 512.211 540.213C511.065 541.357 509.51 542 507.889 542H458.111C456.49 542 454.935 541.357 453.789 540.213C452.643 539.069 452 537.517 452 535.9V507.5C452 504.149 454.751 501.4 458.111 501.4H461.667ZM478.444 532.35V533.35H479.444H486.556H487.556V532.35V524.844C488.862 523.959 489.886 522.708 490.493 521.243C491.177 519.595 491.297 517.769 490.835 516.046C490.372 514.323 489.354 512.801 487.937 511.716C486.521 510.631 484.785 510.043 483 510.043C481.215 510.043 479.479 510.631 478.063 511.716C476.646 512.801 475.628 514.323 475.165 516.046C474.703 517.769 474.823 519.595 475.507 521.243C476.114 522.708 477.138 523.959 478.444 524.844V532.35ZM471.333 500.4V501.4H472.333H493.667H494.667V500.4V493.3C494.667 490.21 493.437 487.246 491.249 485.062C489.061 482.877 486.094 481.65 483 481.65C479.906 481.65 476.939 482.877 474.751 485.062C472.563 487.246 471.333 490.21 471.333 493.3V500.4Z" fill="#FFC01E" stroke="#2C3647" stroke-width="2"/>
<path d="M243.23 418.006C241.061 414.679 240.193 410.485 241.35 406.724C242.218 403.542 244.387 400.649 246.991 398.335C243.953 393.851 240.627 389.511 236.866 385.606C236.577 385.317 236.143 384.883 235.853 384.594C235.275 384.16 234.407 383.87 233.684 383.292C230.357 386.908 225.439 388.788 220.377 388.788C213.868 388.065 208.082 383.292 205.913 377.217C199.693 378.229 193.473 379.965 187.832 382.424C188.99 384.304 189.279 386.763 189.279 388.933C189.279 391.392 188.845 393.851 187.688 396.02C186.675 398.19 184.795 400.07 182.481 401.083C181.179 401.661 179.732 401.806 178.286 401.951C175.827 402.24 173.368 402.095 170.909 401.951C170.909 401.951 166.136 419.163 166.715 419.163C168.306 419.597 169.752 419.886 171.343 420.465C173.079 420.899 174.67 421.477 176.116 422.49C177.563 423.502 178.865 424.804 179.298 426.54C179.588 427.697 179.443 428.854 179.298 430.011C178.575 434.061 176.406 437.966 173.224 440.715C173.224 440.715 184.94 452.141 185.084 451.997C186.386 450.116 188.556 448.959 190.725 447.802C191.593 447.368 192.461 446.934 193.473 446.645C196.945 445.488 200.85 446.645 203.598 449.104C206.202 451.563 207.648 455.179 207.793 458.795C211.988 458.506 216.038 458.216 220.232 457.927C222.112 457.782 223.848 457.493 225.584 456.191C225.439 452.575 226.307 448.959 227.898 445.632C228.621 444.041 229.634 442.595 230.936 441.438C232.961 439.702 235.709 439.124 238.312 439.268C240.916 439.413 243.519 440.281 246.123 441.293C248.871 436.231 251.619 431.168 252.487 425.238C248.871 423.792 245.4 421.333 243.23 418.006Z" fill="white"/>
<path d="M222.98 402.096C219.22 399.637 214.302 398.769 210.686 399.058C204.321 399.781 199.548 402.964 196.221 408.315C192.895 413.667 192.316 420.755 194.92 426.396C197.523 432.181 203.309 436.376 209.673 437.244C215.025 437.822 220.521 436.087 224.571 432.615C228.621 429.144 230.212 424.081 230.791 418.874C231.08 416.271 230.068 406.724 222.98 402.096ZM215.748 429.722C210.686 431.458 204.611 429.433 201.429 425.238C200.416 423.937 199.837 422.49 199.548 421.044C199.259 419.453 199.548 417.862 199.838 416.415C200.705 412.655 202.875 409.183 206.202 407.158C209.384 404.989 213.868 404.555 217.339 406.29C221.678 408.46 224.282 413.088 224.427 417.717C224.571 422.779 220.955 427.987 215.748 429.722Z" fill="#FFC01E"/>
<g opacity="0.1294">
<path opacity="0.1294" d="M232.093 416.849C231.948 416.271 231.659 415.547 231.514 414.969C231.08 413.812 230.646 412.655 230.212 411.498C230.068 411.498 230.068 411.498 229.923 411.498C228.621 412.076 229.345 412.944 229.345 414.246C229.489 415.403 229.779 416.56 229.923 417.717C230.068 418.874 230.068 420.031 230.068 421.189C230.068 421.189 230.068 421.189 230.068 421.333C229.923 421.912 229.634 422.635 229.489 423.214C228.766 425.962 228.332 426.685 226.886 428.855C226.741 428.999 226.596 429.144 226.596 429.288C226.452 429.433 226.018 430.156 225.873 430.301C225.873 430.301 225.873 430.446 225.729 430.446C225.729 430.59 225.584 430.59 225.584 430.735C225.439 431.024 224.427 431.892 224.427 432.037C223.125 433.049 223.27 433.049 221.823 434.062C220.811 434.785 219.654 435.363 218.496 435.942C217.05 436.521 215.314 437.388 213 437.533C211.264 437.533 209.529 437.533 207.793 437.388C205.189 436.954 204.466 436.376 202.297 435.219C201.573 434.785 200.995 434.062 200.127 434.206C200.706 434.929 201.429 435.508 202.007 436.087C202.875 436.954 203.598 437.678 204.466 438.546C207.07 439.558 209.963 440.137 212.855 439.992C214.446 439.992 216.038 439.847 217.629 439.413C220.377 438.69 222.98 437.388 225.15 435.508C226.741 434.062 228.477 432.76 229.923 431.024C231.803 427.987 232.671 424.371 232.671 421.622C232.382 420.321 232.382 418.585 232.093 416.849Z" fill="#2C3647"/>
</g>
<g opacity="0.1294">
<path opacity="0.1294" d="M253.21 425.383C253.066 424.515 251.764 424.371 251.33 425.094C249.45 428.276 247.714 431.313 245.834 434.495C244.966 435.797 243.953 436.81 243.375 438.256C243.23 438.545 242.941 438.979 242.941 439.269C242.652 440.426 244.098 441.294 245.11 440.715C245.544 440.57 245.689 440.137 245.834 439.847C245.978 439.703 246.123 439.558 246.268 439.269C248.148 436.52 249.016 433.338 250.607 430.59C251.33 429.144 252.198 427.553 252.921 426.106C253.21 425.962 253.21 425.672 253.21 425.383Z" fill="#2C3647"/>
</g>
<g opacity="0.1294">
<path opacity="0.1294" d="M223.559 453.009C222.836 452.72 222.113 453.154 221.389 453.299C216.761 454.6 213.579 454.6 208.227 454.456C205.768 454.456 205.768 458.072 208.227 458.072C212.277 458.217 216.472 458.217 220.377 457.204C221.245 457.059 222.257 456.77 223.125 456.481C223.704 456.336 224.282 456.047 224.572 455.613C225.295 454.745 224.716 453.299 223.559 453.009Z" fill="#2C3647"/>
</g>
<path d="M207.504 459.284L207.509 459.284C213.447 459.139 219.383 458.416 225.751 457.114C225.952 457.107 226.136 457.007 226.268 456.875C226.404 456.739 226.507 456.546 226.507 456.336C226.507 456.061 226.542 455.785 226.578 455.493L226.579 455.487C226.614 455.207 226.651 454.913 226.652 454.616C226.725 454.151 226.794 453.691 226.863 453.236C227.199 450.998 227.518 448.881 228.23 446.861C229.517 443.718 231.649 441.459 234.181 440.615L234.186 440.614C237.715 439.343 241.545 440.748 245.605 442.488C245.807 442.586 246.042 442.58 246.241 442.514C246.438 442.448 246.63 442.312 246.732 442.113C249.769 437.051 252.373 431.267 254.113 425.337C254.204 425.224 254.242 425.08 254.242 424.949C254.242 424.801 254.193 424.636 254.075 424.518L254.07 424.513C254.001 424.444 253.921 424.364 253.837 424.301C253.759 424.242 253.654 424.18 253.529 424.171C247.964 422.736 243.551 418.311 242.413 413.189C241.274 408.063 243.554 402.213 247.975 399.076L247.988 399.067L248 399.055L248.005 399.05C248.074 398.981 248.155 398.9 248.218 398.816C248.281 398.733 248.348 398.617 248.348 398.479C248.348 398.468 248.348 398.458 248.348 398.447C248.348 398.193 248.349 397.973 248.158 397.773C244.393 392.416 240.049 387.204 234.837 382.137C234.72 382.021 234.562 381.976 234.44 381.956C234.315 381.935 234.193 381.935 234.121 381.935H234.118C233.746 381.935 233.55 382.131 233.404 382.277L233.398 382.283L233.39 382.291L233.383 382.299C232.528 383.368 230.457 385.546 227.3 386.794C224.153 388.039 219.91 388.367 214.682 385.717L214.681 385.717C212.405 384.579 210.548 382.654 209.295 380.863C208.669 379.969 208.197 379.113 207.9 378.414C207.752 378.064 207.649 377.757 207.592 377.506C207.537 377.264 207.529 377.094 207.549 376.994C207.729 376.604 207.528 376.236 207.356 376.063C207.183 375.89 206.813 375.689 206.423 375.871C205.408 376.125 204.383 376.432 203.392 376.728C202.698 376.935 202.021 377.138 201.376 377.313L201.376 377.313L201.372 377.315C200.892 377.457 200.414 377.599 199.94 377.739C195.133 379.164 190.672 380.485 187.891 381.81L187.891 381.81L187.888 381.811C187.685 381.913 187.547 382.106 187.48 382.307C187.414 382.505 187.408 382.74 187.506 382.942C188.372 384.964 190.921 392.085 185.656 398.204L185.655 398.206C184.113 400.028 181.391 400.959 178.624 401.282C175.867 401.604 173.121 401.317 171.566 400.754C171.338 400.646 171.087 400.715 170.903 400.818C170.71 400.925 170.534 401.097 170.441 401.283L170.437 401.29L170.434 401.298C168.116 407.095 166.376 413.039 165.361 418.839L165.358 418.857V418.874C165.358 418.885 165.358 418.896 165.358 418.906C165.357 419.166 165.357 419.39 165.561 419.594L165.566 419.599C165.635 419.668 165.715 419.748 165.799 419.811C165.879 419.871 165.988 419.936 166.118 419.941C168.846 420.373 171.426 421.091 173.86 422.236C176.445 423.529 177.977 424.944 178.53 426.603C178.804 427.424 178.81 428.686 178.524 430.117L178.523 430.12C177.809 433.978 175.664 437.552 172.664 439.981L172.656 439.987L172.648 439.995C172.483 440.16 172.35 440.375 172.304 440.603C172.258 440.835 172.303 441.083 172.494 441.281C175.542 445.197 179.455 448.964 184.521 452.728C184.636 452.836 184.788 452.88 184.907 452.899C185.032 452.92 185.154 452.92 185.225 452.92H185.229C185.366 452.92 185.482 452.853 185.566 452.79C185.65 452.727 185.73 452.646 185.799 452.577L185.804 452.572L185.819 452.557L185.831 452.539C187.382 450.142 189.925 449.003 192.529 447.99C194.27 447.41 195.962 446.85 197.646 446.989C199.614 447.272 201.31 448.4 202.3 449.39L202.3 449.39L202.308 449.398C204.871 451.676 206.437 454.95 206.581 458.365C206.581 458.626 206.67 458.859 206.838 459.027C207.007 459.196 207.241 459.284 207.504 459.284ZM197.828 445.289L197.82 445.288H197.813H197.811H197.809H197.808H197.806H197.804H197.803H197.801H197.799H197.798H197.796H197.794H197.793H197.791H197.789H197.788H197.786H197.784H197.783H197.781H197.779H197.778H197.776H197.775H197.773H197.771H197.77H197.768H197.767H197.765H197.763H197.762H197.76H197.759H197.757H197.755H197.754H197.752H197.751H197.749H197.747H197.746H197.744H197.743H197.741H197.74H197.738H197.737H197.735H197.733H197.732H197.73H197.729H197.727H197.726H197.724H197.723H197.721H197.72H197.718H197.717H197.715H197.713H197.712H197.71H197.709H197.707H197.706H197.704H197.703H197.701H197.7H197.698H197.697H197.695H197.694H197.693H197.691H197.69H197.688H197.687H197.685H197.684H197.682H197.681H197.679H197.678H197.676H197.675H197.673H197.672H197.671H197.669H197.668H197.666H197.665H197.663H197.662H197.66H197.659H197.658H197.656H197.655H197.653H197.652H197.651H197.649H197.648H197.646H197.645H197.643H197.642H197.641H197.639H197.638H197.636H197.635H197.634H197.632H197.631H197.629H197.628H197.627H197.625H197.624H197.623H197.621H197.62H197.618H197.617H197.616H197.614H197.613H197.612H197.61H197.609H197.607H197.606H197.605H197.603H197.602H197.601H197.599H197.598H197.597H197.595H197.594H197.592H197.591H197.59H197.588H197.587H197.586H197.584H197.583H197.582H197.58H197.579H197.578H197.576H197.575H197.574H197.572H197.571H197.57H197.568H197.567H197.566H197.564H197.563H197.562H197.561H197.559H197.558H197.557H197.555H197.554H197.553H197.551H197.55H197.549H197.547H197.546H197.545H197.543H197.542H197.541H197.54H197.538H197.537H197.536H197.534H197.533H197.532H197.53H197.529H197.528H197.527H197.525H197.524H197.523H197.521H197.52H197.519H197.518H197.516H197.515H197.514H197.512H197.511H197.51H197.509H197.507H197.506H197.505H197.503H197.502H197.501H197.5H197.498H197.497H197.496H197.494H197.493H197.492H197.491H197.489H197.488H197.487H197.486H197.484H197.483H197.482H197.48H197.479H197.478H197.477H197.475H197.474H197.473H197.471H197.47H197.469H197.468H197.466H197.465H197.464H197.463H197.461H197.46H197.459H197.457H197.456H197.455H197.454H197.452H197.451H197.45H197.449H197.447H197.446H197.445H197.444H197.442H197.441H197.44H197.438H197.437H197.436H197.435H197.433H197.432H197.431H197.43H197.428H197.427H197.426H197.424H197.423H197.422H197.421H197.419H197.418H197.417H197.415H197.414H197.413H197.412H197.41H197.409H197.408H197.407H197.405H197.404H197.403H197.401H197.4H197.399H197.398H197.396H197.395H197.394H197.392H197.391H197.39H197.389H197.387H197.386H197.385H197.383H197.382H197.381H197.38H197.378H197.377H197.376H197.374H197.373H197.372H197.371H197.369H197.368H197.367H197.365H197.364H197.363H197.361H197.36H197.359H197.357H197.356H197.355H197.354H197.352H197.351H197.35H197.348H197.347H197.346H197.344H197.343H197.342H197.34H197.339H197.338H197.336H197.335H197.334H197.332H197.331H197.33H197.329H197.327H197.326H197.325H197.323H197.322H197.321H197.319H197.318H197.316H197.315H197.314H197.312H197.311H197.31H197.308H197.307H197.306H197.304H197.303H197.302H197.3H197.299H197.298H197.296H197.295H197.293H197.292H197.291H197.289H197.288H197.287H197.285H197.284H197.283H197.281H197.28H197.278H197.277H197.276H197.274H197.273H197.271H197.27H197.269H197.267H197.266H197.264H197.263H197.262H197.26H197.259H197.257H197.256H197.255H197.253H197.252H197.25H197.249H197.247H197.246H197.245H197.243H197.242H197.24H197.239H197.237H197.236H197.235H197.233H197.232H197.23H197.229H197.227H197.226H197.224H197.223H197.222H197.22H197.219H197.217H197.216H197.214H197.213H197.211H197.21H197.208H197.207H197.205H197.204H197.202H197.201H197.199H197.198H197.196H197.195H197.193H197.192H197.19H197.189H197.187H197.186H197.184H197.183H197.181H197.18H197.178H197.177H197.175H197.173H197.172H197.17H197.169H197.167H197.166H197.164H197.163H197.161H197.16H197.158H197.156H197.155H197.153H197.152H197.15H197.149H197.147H197.145H197.144H197.142H197.141H197.139H197.137H197.136H197.134H197.133H197.131H197.129H197.128H197.126H197.124H197.123H197.121H197.12H197.118H197.116H197.115H197.113H197.111H197.11H197.108H197.106H197.105H197.103H197.101H197.1H197.098H197.096H197.095H197.093H197.091H197.09C195.587 445.288 194.085 445.713 192.702 446.104C192.456 446.174 192.213 446.243 191.974 446.308L191.964 446.31L191.955 446.314C189.405 447.306 186.811 448.45 184.905 450.849C180.563 447.476 177.052 444.242 174.364 440.881C177.36 438.117 179.498 434.373 180.218 430.482L180.218 430.482L180.219 430.478C180.51 428.732 180.517 427.245 180.066 426.039C179.317 423.797 177.381 422.03 174.322 420.574L174.322 420.574L174.316 420.571C172.051 419.58 169.506 418.725 166.95 418.277C167.951 413.201 169.502 407.986 171.467 402.767C173.444 403.248 176.313 403.442 179.128 403.035C182.024 402.616 184.901 401.556 186.682 399.478C192.142 393.156 190.415 386.131 189.246 383.108C191.671 382.044 195.342 380.976 199.313 379.821C200.073 379.6 200.845 379.375 201.621 379.147C202.801 378.911 203.887 378.579 205.02 378.232C205.216 378.172 205.414 378.111 205.613 378.051C205.901 379.38 206.835 381.15 208.179 382.838C209.602 384.626 211.504 386.348 213.635 387.377C219.036 390.077 223.575 389.862 227.06 388.652C230.402 387.491 232.76 385.419 233.977 384.157C238.625 388.82 242.449 393.349 245.99 398.15C241.405 401.69 239.127 407.911 240.431 413.565C241.593 419.079 246.191 423.859 251.95 425.66C250.382 430.872 248.129 435.942 245.46 440.465C241.606 438.902 237.406 437.479 233.476 438.789C230.374 439.823 227.729 442.476 226.409 446.141C225.386 448.773 225.095 451.401 224.806 454.291L224.805 454.301V454.311C224.805 454.509 224.772 454.709 224.736 454.929L224.735 454.937C224.708 455.098 224.679 455.271 224.667 455.448C219.011 456.572 213.635 457.279 208.403 457.433C207.928 453.839 206.184 450.54 203.591 448.091L203.589 448.089C201.831 446.477 199.765 445.438 197.828 445.289Z" fill="#2C3647" stroke="#2C3647" stroke-width="0.4"/>
<path d="M211.265 431.024C207.07 431.024 202.731 428.999 200.272 425.672C199.26 424.226 198.536 422.635 198.247 421.044C197.958 419.597 198.103 418.006 198.536 416.126C199.549 411.931 202.008 408.46 205.19 406.435C208.806 404.12 213.435 403.686 216.906 405.567C221.245 407.736 224.138 412.51 224.427 417.572C224.717 423.068 220.811 428.71 215.46 430.445C214.013 430.735 212.711 431.024 211.265 431.024ZM211.988 405.711C209.963 405.711 207.794 406.29 205.913 407.592C203.02 409.472 200.851 412.654 199.838 416.56C199.404 418.295 199.26 419.597 199.549 420.899C199.838 422.201 200.417 423.647 201.285 424.804C204.322 428.854 210.108 430.59 214.881 428.999C219.654 427.408 223.126 422.49 222.981 417.427C222.836 412.799 220.088 408.604 216.183 406.579C215.026 406.001 213.435 405.711 211.988 405.711Z" fill="#2C3647"/>
<path d="M211.265 438.111C210.541 438.111 209.818 438.111 209.095 437.967C202.586 437.243 196.511 432.76 193.763 426.829C191.015 420.899 191.593 413.667 195.065 408.026C198.536 402.385 203.599 399.058 209.963 398.479C214.157 398.045 219.22 399.203 222.691 401.517C230.357 406.435 231.08 416.704 230.936 419.019C230.357 425.383 228.188 430.156 224.427 433.338C220.811 436.376 216.038 438.111 211.265 438.111ZM211.698 399.781C211.12 399.781 210.541 399.781 210.107 399.926C204.032 400.504 199.549 403.542 196.222 408.894C192.895 414.101 192.461 420.899 195.065 426.395C197.668 432.036 203.165 436.086 209.24 436.809C214.302 437.388 219.654 435.797 223.559 432.326C227.031 429.433 228.911 425.094 229.489 419.019C229.779 416.27 228.477 407.158 221.968 402.963C219.075 400.794 215.315 399.781 211.698 399.781Z" fill="#2C3647"/>
<g opacity="0.1294">
<path opacity="0.1294" d="M207.792 458.65C207.648 457.638 207.214 454.311 206.635 452.865C205.189 448.091 200.416 444.042 195.353 446.211C193.183 447.079 191.303 448.381 189.712 449.683C189.423 449.538 189.133 449.538 188.7 449.683C187.542 450.116 186.53 450.55 185.228 450.84C185.228 450.84 185.228 450.84 185.083 450.84H184.939C184.216 450.406 183.492 449.972 182.769 449.393C182.48 449.249 182.335 448.959 182.046 448.815C181.612 448.381 181.178 448.091 180.744 447.947C180.31 447.658 179.732 447.079 178.719 446.066C177.562 444.909 176.405 443.752 175.248 442.74C174.525 442.161 173.801 441.293 172.934 441.149C172.066 441.004 171.198 441.583 170.909 442.45C170.619 443.318 171.053 444.186 171.921 444.62C172.5 445.054 172.934 445.633 173.367 446.066C175.248 448.091 176.984 450.406 179.298 451.852C180.455 452.865 181.612 454.022 182.914 455.034C183.926 455.757 185.228 456.481 186.53 456.481C188.266 456.481 189.567 455.179 190.869 454.022C194.051 451.274 197.667 449.393 199.114 450.261C200.56 450.984 200.849 451.418 201.428 452.141C202.585 454.022 202.296 455.034 202.874 458.216C203.019 458.795 203.019 459.374 203.308 459.952C203.453 460.531 203.742 461.254 204.321 461.688C204.755 462.122 205.333 462.411 205.912 462.411C206.346 462.556 206.924 462.556 207.358 462.556C207.937 462.556 208.371 462.7 208.949 462.411C209.673 462.122 210.107 461.543 209.962 460.82C210.107 459.084 208.949 458.65 207.792 458.65Z" fill="#2C3647"/>
</g>
<g opacity="0.1294">
<path opacity="0.1294" d="M176.984 423.358C174.525 421.333 171.488 420.32 168.45 419.452H168.306C168.306 419.452 168.161 419.308 168.161 419.163C167.004 417.283 164.111 418.874 165.268 420.899C166.136 422.779 168.306 423.068 170.186 423.647C173.079 424.66 175.827 425.672 177.273 426.829C177.997 427.552 179.443 426.974 179.298 425.961C179.154 424.66 177.852 424.081 176.984 423.358Z" fill="#2C3647"/>
</g>
<defs>
<clipPath id="clip0_432_9242">
<rect width="660" height="900" fill="white"/>
</clipPath>
</defs>
</svg>
