<svg width="664" height="900" viewBox="0 0 664 900" fill="none" xmlns="http://www.w3.org/2000/svg">
<rect width="664" height="900" fill="#E8DDCF"/>
<g clip-path="url(#clip0_434_9947)">
<path d="M1098.5 444.57V993.5H806.505V508.906C806.505 483.815 804.702 459.612 801.091 436.299C797.472 412.923 790.826 392.783 781.123 375.912C771.408 359.021 758.344 345.437 741.945 335.178C725.443 324.855 703.854 319.76 677.294 319.76C651.894 319.76 629.742 325.169 610.89 336.044C592.11 346.878 576.36 361.325 563.645 379.37C550.94 397.403 541.575 418.124 535.538 441.515C529.51 464.875 526.497 489.127 526.497 514.268V993.5H234.503V487.461C234.503 436.05 224.276 395.209 203.661 365.09C182.93 334.8 150.027 319.76 105.291 319.76C58.0555 319.76 21.3116 338.448 -4.76373 375.802C-30.7531 413.032 -43.7063 458.62 -43.7063 512.48V993.5H-337.5V106.52H-54.4987V228.33V232.807L-51.8015 229.234C-49.9912 226.836 -48.1962 224.448 -46.4092 222.072C-33.9718 205.531 -21.9239 189.508 -7.8183 173.937C8.26236 156.185 27.6319 140.49 50.303 126.857C72.9677 113.227 98.3311 102.256 126.402 93.9481C154.427 85.6544 185.159 81.5 218.612 81.5C283.166 81.5 337.753 94.5637 382.443 120.612C427.151 146.671 462.032 183.983 487.092 232.592L488.28 234.896L489.685 232.718C519.54 186.446 557.742 149.679 604.303 122.398C650.792 95.1586 707.476 81.5 774.426 81.5C835.411 81.5 886.415 92.4897 927.514 114.385C968.699 136.327 1001.79 164.773 1026.83 199.716C1051.9 234.708 1070.11 273.856 1081.46 317.172C1092.82 360.544 1098.5 403.009 1098.5 444.57Z" stroke="#FDF9F3" stroke-width="3"/>
</g>
<g clip-path="url(#clip1_434_9947)">
<path d="M487.054 645.65H98.8403C94.2624 645.65 90.5288 641.929 90.5288 637.322V403.906C90.5288 399.316 94.245 395.579 98.8403 395.579H487.054C491.632 395.579 495.365 399.299 495.365 403.906V637.318C495.347 641.913 491.627 645.65 487.054 645.65Z" fill="#E8DDCF" stroke="#2C3647" stroke-width="2"/>
<path d="M102.243 630.353V408.751H483.629V630.353H102.243Z" fill="#E8DDCF" stroke="#2C3647" stroke-width="2"/>
<path d="M510.969 664.579H74.9054C63.9887 664.579 55.1031 655.762 55.0009 644.828H530.873C530.771 655.763 521.905 664.579 510.969 664.579Z" fill="#E8DDCF" stroke="#2C3647" stroke-width="2"/>
<path d="M510.723 631.11C509.095 628.613 508.443 625.464 509.312 622.642C509.963 620.253 511.592 618.081 513.546 616.344C511.266 612.978 508.769 609.721 505.946 606.79C505.729 606.572 505.403 606.247 505.186 606.03C504.752 605.704 504.1 605.487 503.557 605.052C501.06 607.767 497.369 609.178 493.568 609.178C488.683 608.635 484.34 605.052 482.711 600.492C478.042 601.252 473.373 602.555 469.139 604.401C470.008 605.812 470.225 607.658 470.225 609.287C470.225 611.133 469.899 612.978 469.03 614.607C468.27 616.236 466.859 617.647 465.122 618.407C464.145 618.841 463.059 618.95 461.973 619.059C460.127 619.276 458.281 619.167 456.436 619.059C456.436 619.059 452.853 631.979 453.287 631.979C454.481 632.305 455.567 632.522 456.761 632.956C458.064 633.282 459.259 633.716 460.344 634.476C461.43 635.236 462.407 636.213 462.733 637.516C462.95 638.385 462.842 639.254 462.733 640.122C462.19 643.162 460.562 646.094 458.173 648.157C458.173 648.157 466.967 656.734 467.076 656.626C468.053 655.214 469.682 654.345 471.31 653.477C471.962 653.151 472.613 652.825 473.373 652.608C475.979 651.74 478.911 652.608 480.974 654.454C482.928 656.3 484.014 659.014 484.122 661.729C487.271 661.511 490.311 661.294 493.46 661.077C494.871 660.969 496.174 660.751 497.477 659.774C497.369 657.06 498.02 654.345 499.214 651.848C499.757 650.654 500.517 649.568 501.494 648.7C503.014 647.397 505.077 646.962 507.032 647.071C508.986 647.18 510.94 647.831 512.895 648.591C514.958 644.791 517.021 640.991 517.672 636.539C514.958 635.453 512.352 633.608 510.723 631.11Z" fill="#EEE9E2"/>
<path d="M495.522 619.167C492.699 617.322 489.007 616.67 486.293 616.887C481.516 617.43 477.933 619.819 475.436 623.836C472.938 627.854 472.504 633.174 474.458 637.408C476.413 641.751 480.756 644.9 485.533 645.551C489.55 645.986 493.676 644.683 496.716 642.077C499.756 639.471 500.951 635.671 501.385 631.762C501.602 629.808 500.842 622.642 495.522 619.167ZM490.093 639.905C486.293 641.208 481.733 639.688 479.344 636.54C478.584 635.562 478.15 634.477 477.933 633.391C477.716 632.197 477.933 631.002 478.15 629.916C478.801 627.093 480.43 624.488 482.927 622.968C485.316 621.339 488.682 621.013 491.288 622.316C494.545 623.945 496.499 627.419 496.608 630.894C496.716 634.694 494.002 638.602 490.093 639.905Z" fill="#FFC01E"/>
<g opacity="0.1294">
<path opacity="0.1294" d="M502.362 630.242C502.254 629.808 502.037 629.265 501.928 628.831C501.602 627.962 501.277 627.094 500.951 626.225C500.842 626.225 500.842 626.225 500.734 626.225C499.756 626.659 500.299 627.311 500.299 628.288C500.408 629.156 500.625 630.025 500.734 630.894C500.842 631.762 500.842 632.631 500.842 633.499C500.842 633.499 500.842 633.499 500.842 633.608C500.734 634.042 500.517 634.585 500.408 635.02C499.865 637.082 499.539 637.625 498.454 639.254C498.345 639.363 498.236 639.471 498.236 639.58C498.128 639.688 497.802 640.231 497.694 640.34C497.694 640.34 497.694 640.448 497.585 640.448C497.585 640.557 497.476 640.557 497.476 640.665C497.368 640.883 496.608 641.534 496.608 641.643C495.631 642.403 495.739 642.403 494.653 643.163C493.893 643.706 493.025 644.14 492.156 644.574C491.07 645.008 489.768 645.66 488.03 645.768C486.727 645.768 485.425 645.768 484.122 645.66C482.167 645.334 481.624 644.9 479.996 644.031C479.453 643.706 479.019 643.163 478.367 643.271C478.801 643.814 479.344 644.248 479.779 644.683C480.43 645.334 480.973 645.877 481.624 646.528C483.579 647.288 485.75 647.723 487.922 647.614C489.116 647.614 490.31 647.506 491.505 647.18C493.568 646.637 495.522 645.66 497.151 644.248C498.345 643.163 499.648 642.185 500.734 640.883C502.145 638.602 502.797 635.888 502.797 633.825C502.579 632.848 502.579 631.545 502.362 630.242Z" fill="#2C3647"/>
</g>
<g opacity="0.1294">
<path opacity="0.1294" d="M518.215 636.648C518.106 635.997 517.129 635.888 516.803 636.431C515.392 638.82 514.089 641.1 512.677 643.488C512.026 644.465 511.266 645.225 510.831 646.311C510.723 646.528 510.506 646.854 510.506 647.071C510.289 647.94 511.374 648.591 512.134 648.157C512.46 648.048 512.569 647.723 512.677 647.506C512.786 647.397 512.894 647.288 513.003 647.071C514.414 645.008 515.066 642.62 516.26 640.557C516.803 639.471 517.455 638.277 517.997 637.191C518.215 637.082 518.215 636.865 518.215 636.648Z" fill="#2C3647"/>
</g>
<g opacity="0.1294">
<path opacity="0.1294" d="M495.957 657.386C495.414 657.169 494.871 657.494 494.328 657.603C490.854 658.58 488.465 658.58 484.448 658.471C482.602 658.471 482.602 661.186 484.448 661.186C487.488 661.294 490.637 661.294 493.568 660.534C494.22 660.426 494.98 660.209 495.631 659.992C496.065 659.883 496.5 659.666 496.717 659.34C497.26 658.689 496.825 657.603 495.957 657.386Z" fill="#2C3647"/>
</g>
<path d="M483.91 662.146L483.905 662.146C483.696 662.146 483.507 662.076 483.37 661.938C483.233 661.801 483.163 661.614 483.162 661.407C483.055 658.858 481.885 656.413 479.972 654.712L479.963 654.704L479.963 654.704C479.226 653.967 477.963 653.127 476.499 652.916C475.248 652.813 473.989 653.229 472.681 653.665C470.726 654.426 468.832 655.276 467.678 657.06L467.666 657.078L467.651 657.093L467.647 657.098C467.596 657.148 467.533 657.211 467.467 657.261C467.401 657.31 467.304 657.369 467.184 657.369H467.181C467.127 657.369 467.032 657.369 466.934 657.352C466.843 657.337 466.718 657.303 466.621 657.213C462.817 654.387 459.877 651.557 457.587 648.614C457.432 648.452 457.396 648.25 457.433 648.063C457.47 647.88 457.576 647.711 457.705 647.581L457.713 647.574L457.721 647.567C459.964 645.751 461.567 643.079 462.102 640.194L462.102 640.192C462.316 639.121 462.31 638.184 462.109 637.58C461.7 636.353 460.565 635.299 458.628 634.331C456.807 633.474 454.876 632.936 452.834 632.613C452.723 632.607 452.632 632.552 452.569 632.506C452.504 632.456 452.441 632.393 452.39 632.342L452.385 632.338L452.385 632.338C452.217 632.17 452.218 631.982 452.218 631.79C452.218 631.781 452.218 631.771 452.218 631.762V631.745L452.221 631.727C452.984 627.369 454.291 622.905 456.032 618.55L456.035 618.542L456.039 618.535C456.114 618.385 456.254 618.249 456.406 618.165C456.55 618.084 456.756 618.025 456.947 618.114C458.106 618.533 460.158 618.748 462.221 618.507C464.293 618.265 466.321 617.568 467.466 616.215L467.467 616.214C471.398 611.645 469.498 606.328 468.848 604.81C468.768 604.645 468.774 604.455 468.827 604.297C468.88 604.137 468.991 603.98 469.158 603.896L469.161 603.895L469.161 603.895C471.252 602.899 474.605 601.906 478.211 600.837C478.568 600.731 478.927 600.625 479.288 600.518L479.292 600.516L479.292 600.517C479.773 600.385 480.28 600.234 480.802 600.078C481.545 599.856 482.317 599.625 483.077 599.435C483.395 599.289 483.692 599.454 483.829 599.591V599.591M483.91 662.146L483.829 599.591M483.91 662.146C488.369 662.037 492.827 661.494 497.608 660.517C497.772 660.51 497.92 660.428 498.025 660.323C498.135 660.213 498.22 660.057 498.22 659.883C498.22 659.68 498.245 659.476 498.272 659.256L498.273 659.25C498.299 659.042 498.327 658.82 498.328 658.596C498.383 658.247 498.435 657.902 498.486 657.562C498.739 655.882 498.977 654.299 499.509 652.788C500.472 650.439 502.063 648.757 503.946 648.129L503.946 648.129L503.95 648.128C506.578 647.182 509.434 648.226 512.485 649.533C512.65 649.613 512.84 649.607 512.998 649.554C513.156 649.502 513.311 649.394 513.395 649.231C515.675 645.43 517.63 641.089 518.937 636.637C519.009 636.543 519.039 636.426 519.039 636.322C519.039 636.201 518.999 636.064 518.899 635.964L518.894 635.959C518.843 635.908 518.78 635.845 518.715 635.796C518.654 635.751 518.568 635.698 518.462 635.689C514.303 634.615 511.008 631.307 510.158 627.484C509.307 623.656 511.011 619.285 514.313 616.942L514.327 616.932L514.339 616.92L514.343 616.915C514.394 616.864 514.457 616.802 514.507 616.736C514.556 616.67 514.614 616.572 514.614 616.453C514.614 616.443 514.614 616.434 514.614 616.424C514.615 616.238 514.615 616.055 514.46 615.891C511.633 611.869 508.371 607.955 504.457 604.15C504.359 604.052 504.228 604.016 504.133 604C504.035 603.984 503.94 603.984 503.886 603.984H503.883C503.582 603.984 503.423 604.144 503.312 604.254L503.307 604.26L503.299 604.267L503.292 604.276C502.653 605.075 501.105 606.702 498.747 607.635C496.397 608.564 493.227 608.811 489.315 606.828L489.314 606.828C487.616 605.979 486.228 604.54 485.29 603.201C484.822 602.532 484.469 601.892 484.248 601.371C484.138 601.11 484.062 600.883 484.02 600.698C483.98 600.523 483.975 600.406 483.987 600.34C484.129 600.023 483.965 599.727 483.829 599.591M483.91 662.146L483.829 599.591M476.646 651.54L476.638 651.54H476.63H476.629H476.628H476.626H476.625H476.624H476.623H476.621H476.62H476.619H476.618H476.616H476.615H476.614H476.613H476.611H476.61H476.609H476.608H476.606H476.605H476.604H476.603H476.602H476.6H476.599H476.598H476.597H476.596H476.594H476.593H476.592H476.591H476.59H476.588H476.587H476.586H476.585H476.584H476.582H476.581H476.58H476.579H476.578H476.577H476.575H476.574H476.573H476.572H476.571H476.57H476.568H476.567H476.566H476.565H476.564H476.563H476.561H476.56H476.559H476.558H476.557H476.556H476.555H476.553H476.552H476.551H476.55H476.549H476.548H476.547H476.546H476.544H476.543H476.542H476.541H476.54H476.539H476.538H476.537H476.536H476.534H476.533H476.532H476.531H476.53H476.529H476.528H476.527H476.526H476.525H476.524H476.522H476.521H476.52H476.519H476.518H476.517H476.516H476.515H476.514H476.513H476.512H476.511H476.51H476.508H476.507H476.506H476.505H476.504H476.503H476.502H476.501H476.5H476.499H476.498H476.497H476.496H476.495H476.494H476.493H476.492H476.491H476.49H476.488H476.487H476.486H476.485H476.484H476.483H476.482H476.481H476.48H476.479H476.478H476.477H476.476H476.475H476.474H476.473H476.472H476.471H476.47H476.469H476.468H476.467H476.466H476.465H476.464H476.463H476.462H476.461H476.46H476.459H476.458H476.457H476.456H476.455H476.454H476.453H476.452H476.451H476.45H476.449H476.448H476.447H476.446H476.445H476.444H476.443H476.442H476.441H476.44H476.439H476.438H476.437H476.436H476.435H476.434H476.433H476.432H476.431H476.43H476.429H476.428H476.427H476.426H476.425H476.424H476.423H476.422H476.421H476.42H476.419H476.418H476.417H476.416H476.415H476.414H476.413H476.413H476.412H476.411H476.41H476.409H476.408H476.407H476.406H476.405H476.404H476.403H476.402H476.401H476.4H476.399H476.398H476.397H476.396H476.395H476.394H476.393H476.392H476.391H476.39H476.389H476.388H476.387H476.387H476.386H476.385H476.384H476.383H476.382H476.381H476.38H476.379H476.378H476.377H476.376H476.375H476.374H476.373H476.372H476.371H476.37H476.369H476.368H476.367H476.366H476.365H476.365H476.364H476.363H476.362H476.361H476.36H476.359H476.358H476.357H476.356H476.355H476.354H476.353H476.352H476.351H476.35H476.349H476.348H476.347H476.346H476.345H476.344H476.344H476.343H476.342H476.341H476.34H476.339H476.338H476.337H476.336H476.335H476.334H476.333H476.332H476.331H476.33H476.329H476.328H476.327H476.326H476.325H476.324H476.323H476.322H476.321H476.321H476.32H476.319H476.318H476.317H476.316H476.315H476.314H476.313H476.312H476.311H476.31H476.309H476.308H476.307H476.306H476.305H476.304H476.303H476.302H476.301H476.3H476.299H476.298H476.297H476.296H476.295H476.294H476.293H476.292H476.291H476.29H476.289H476.288H476.288H476.287H476.286H476.285H476.284H476.283H476.282H476.281H476.28H476.279H476.278H476.277H476.276H476.275H476.274H476.273H476.272H476.271H476.27H476.269H476.268H476.267H476.266H476.265H476.264H476.263H476.262H476.261H476.26H476.259H476.258H476.257H476.256H476.255H476.254H476.253H476.252H476.251H476.25H476.249H476.248H476.247H476.246H476.245H476.244H476.243H476.241H476.24H476.239H476.238H476.237H476.236H476.235H476.234H476.233H476.232H476.231H476.23H476.229H476.228H476.227H476.226H476.225H476.224H476.223H476.222H476.221H476.22H476.219H476.218H476.217H476.215H476.214H476.213H476.212H476.211H476.21H476.209H476.208H476.207H476.206H476.205H476.204H476.203H476.202H476.201H476.199H476.198H476.197H476.196H476.195H476.194H476.193H476.192H476.191H476.19H476.189H476.188H476.186H476.185H476.184H476.183H476.182H476.181H476.18H476.179H476.178H476.176H476.175H476.174H476.173H476.172H476.171H476.17H476.169H476.168H476.166H476.165H476.164H476.163H476.162H476.161H476.16H476.158H476.157H476.156H476.155H476.154H476.153H476.152H476.15H476.149H476.148H476.147H476.146H476.145H476.143H476.142H476.141H476.14H476.139H476.138H476.136H476.135H476.134H476.133H476.132H476.13H476.129H476.128H476.127H476.126H476.124H476.123H476.122H476.121H476.12H476.118H476.117H476.116H476.115H476.114H476.112H476.111H476.11H476.109H476.107H476.106H476.105H476.104H476.102H476.101H476.1H476.099H476.097H476.096H476.095H476.094H476.092H476.091H476.09H476.089H476.087C474.952 651.54 473.817 651.861 472.779 652.155C472.594 652.207 472.413 652.258 472.235 652.307L472.224 652.31L472.215 652.313C470.314 653.053 468.37 653.909 466.933 655.694C463.709 653.186 461.099 650.782 459.097 648.287C461.335 646.208 462.932 643.402 463.472 640.484L463.472 640.484L463.473 640.481C463.692 639.167 463.698 638.041 463.355 637.124C462.787 635.423 461.32 634.089 459.018 632.993L459.019 632.993L459.013 632.99C457.324 632.252 455.429 631.613 453.522 631.274C454.271 627.495 455.424 623.614 456.885 619.73C458.374 620.085 460.513 620.225 462.612 619.922C464.791 619.606 466.964 618.808 468.313 617.235C472.402 612.499 471.143 607.241 470.263 604.941C472.081 604.15 474.812 603.355 477.769 602.495C478.34 602.329 478.919 602.161 479.501 601.99C480.388 601.812 481.206 601.562 482.056 601.301C482.186 601.262 482.317 601.222 482.449 601.182C482.68 602.184 483.379 603.495 484.373 604.743C485.444 606.089 486.877 607.387 488.485 608.163C492.552 610.196 495.973 610.036 498.601 609.123C501.088 608.259 502.851 606.727 503.777 605.773C507.236 609.246 510.086 612.621 512.725 616.196C509.294 618.87 507.594 623.54 508.573 627.788C509.446 631.931 512.89 635.521 517.206 636.889C516.036 640.766 514.36 644.538 512.376 647.907C509.494 646.74 506.341 645.679 503.385 646.664C501.04 647.446 499.045 649.449 498.049 652.213C497.279 654.195 497.06 656.174 496.843 658.343L496.842 658.353V658.363C496.842 658.506 496.818 658.653 496.791 658.819L496.79 658.826C496.771 658.935 496.752 659.053 496.741 659.174C492.528 660.011 488.522 660.537 484.623 660.655C484.256 657.963 482.946 655.493 481.002 653.657L481 653.655C479.674 652.44 478.114 651.653 476.646 651.54Z" fill="#2C3647" stroke="#2C3647" stroke-width="0.4"/>
<path d="M486.728 640.882C483.579 640.882 480.322 639.362 478.476 636.865C477.716 635.779 477.173 634.585 476.956 633.391C476.739 632.305 476.848 631.111 477.173 629.699C477.933 626.55 479.779 623.945 482.168 622.424C484.882 620.687 488.357 620.362 490.962 621.773C494.22 623.402 496.391 626.985 496.608 630.785C496.825 634.911 493.894 639.145 489.877 640.448C488.791 640.665 487.814 640.882 486.728 640.882ZM487.271 621.882C485.751 621.882 484.122 622.316 482.711 623.293C480.539 624.705 478.911 627.093 478.151 630.025C477.825 631.328 477.716 632.305 477.933 633.282C478.151 634.259 478.585 635.345 479.236 636.214C481.516 639.254 485.859 640.557 489.442 639.362C493.025 638.168 495.631 634.476 495.523 630.676C495.414 627.202 493.351 624.053 490.42 622.533C489.551 622.099 488.357 621.882 487.271 621.882Z" fill="#2C3647"/>
<path d="M486.728 646.202C486.185 646.202 485.642 646.202 485.099 646.094C480.213 645.551 475.653 642.185 473.59 637.734C471.527 633.282 471.962 627.853 474.567 623.619C477.173 619.384 480.973 616.887 485.751 616.453C488.899 616.127 492.699 616.996 495.305 618.733C501.06 622.425 501.603 630.133 501.494 631.871C501.06 636.648 499.431 640.231 496.608 642.619C493.894 644.9 490.311 646.202 486.728 646.202ZM487.053 617.43C486.619 617.43 486.185 617.43 485.859 617.539C481.299 617.973 477.933 620.253 475.436 624.27C472.939 628.179 472.613 633.282 474.567 637.408C476.522 641.642 480.648 644.682 485.208 645.225C489.008 645.66 493.025 644.465 495.957 641.859C498.562 639.688 499.974 636.431 500.408 631.871C500.625 629.808 499.648 622.967 494.762 619.819C492.591 618.19 489.768 617.43 487.053 617.43Z" fill="#2C3647"/>
<g opacity="0.1294">
<path opacity="0.1294" d="M484.122 661.62C484.014 660.86 483.688 658.363 483.254 657.277C482.168 653.694 478.585 650.654 474.785 652.283C473.156 652.934 471.745 653.911 470.55 654.888C470.333 654.78 470.116 654.78 469.79 654.888C468.922 655.214 468.162 655.54 467.185 655.757C467.185 655.757 467.185 655.757 467.076 655.757H466.967C466.425 655.431 465.882 655.106 465.339 654.671C465.122 654.563 465.013 654.345 464.796 654.237C464.47 653.911 464.144 653.694 463.819 653.585C463.493 653.368 463.059 652.934 462.299 652.174C461.43 651.305 460.562 650.437 459.693 649.677C459.15 649.242 458.607 648.591 457.956 648.482C457.304 648.374 456.653 648.808 456.436 649.46C456.218 650.111 456.544 650.763 457.196 651.088C457.63 651.414 457.956 651.848 458.281 652.174C459.693 653.694 460.996 655.431 462.733 656.517C463.602 657.277 464.47 658.146 465.447 658.906C466.207 659.449 467.185 659.991 468.162 659.991C469.465 659.991 470.442 659.014 471.419 658.146C473.808 656.083 476.522 654.671 477.608 655.323C478.694 655.866 478.911 656.191 479.345 656.734C480.214 658.146 479.996 658.906 480.431 661.294C480.539 661.729 480.539 662.163 480.756 662.597C480.865 663.032 481.082 663.574 481.516 663.9C481.842 664.226 482.277 664.443 482.711 664.443C483.037 664.552 483.471 664.552 483.797 664.552C484.231 664.552 484.557 664.66 484.991 664.443C485.534 664.226 485.86 663.792 485.751 663.249C485.86 661.946 484.991 661.62 484.122 661.62Z" fill="#2C3647"/>
</g>
<g opacity="0.1294">
<path opacity="0.1294" d="M460.996 635.128C459.15 633.608 456.87 632.848 454.59 632.196H454.481C454.481 632.196 454.373 632.088 454.373 631.979C453.504 630.568 451.333 631.762 452.201 633.282C452.853 634.693 454.481 634.911 455.893 635.345C458.064 636.105 460.127 636.865 461.213 637.734C461.756 638.276 462.842 637.842 462.733 637.082C462.624 636.105 461.647 635.671 460.996 635.128Z" fill="#2C3647"/>
</g>
</g>
<path d="M404.503 682.157H181.497C172.937 682.157 166 675.215 166 666.644V232.513C166 223.942 172.937 217 181.497 217H404.503C413.063 217 420 223.942 420 232.513V666.644C420 675.215 413.063 682.157 404.503 682.157Z" fill="#EEE9E2" stroke="#2C3647" stroke-width="2"/>
<path d="M182.497 669.469V669.443H181.497C179.954 669.443 178.676 668.181 178.676 666.618V253.265C178.676 251.719 179.937 250.44 181.497 250.44H404.503C406.045 250.44 407.324 251.702 407.324 253.265V666.644C407.324 668.19 406.062 669.469 404.503 669.469H182.497Z" fill="#EEE9E2" stroke="#2C3647" stroke-width="2"/>
<path d="M255.607 298.687C254.966 298.687 254.486 298.527 253.845 298.207C252.723 297.726 251.922 296.766 251.282 295.965C250.961 295.485 250.481 295.005 250.16 294.685C247.917 292.603 245.514 293.724 242.31 295.805C241.509 296.285 240.708 296.766 240.067 297.246C237.664 298.367 235.742 298.687 234.14 298.047C232.858 297.566 232.217 296.446 231.576 295.645C231.096 295.005 230.615 294.364 229.974 293.884C227.411 292.283 224.207 293.404 220.362 297.406C220.041 297.726 219.561 297.726 219.24 297.406C218.92 297.086 218.92 296.606 219.24 296.285C223.566 291.803 227.571 290.522 230.775 292.443C231.736 293.084 232.377 293.884 232.858 294.685C233.338 295.485 233.819 296.285 234.78 296.606C235.902 297.086 237.504 296.766 239.426 295.805C240.067 295.485 240.868 295.005 241.669 294.524C244.553 292.763 247.917 290.522 251.282 293.564C251.762 294.044 252.243 294.524 252.563 295.005C253.204 295.805 253.845 296.446 254.646 296.926C255.767 297.406 257.049 297.246 258.651 295.965C258.972 295.805 259.292 295.485 259.612 295.165C262.496 293.084 265.059 291.002 269.225 292.443C270.506 292.924 271.468 293.884 272.429 294.685C274.031 296.285 274.992 296.926 276.754 295.965C277.235 295.645 277.716 295.325 278.196 294.845C279.959 293.404 282.201 291.483 285.085 293.564C285.726 294.044 286.367 294.524 287.008 295.165C288.77 296.766 289.891 297.726 291.974 296.766C292.935 296.285 293.897 295.645 294.858 294.845C296.62 293.404 298.382 291.963 300.785 292.123C302.708 292.123 304.15 293.244 305.592 294.204C307.354 295.485 308.796 296.446 310.878 295.645C311.359 295.485 311.679 295.645 311.84 296.125C312 296.606 311.84 296.926 311.359 297.086C308.475 298.207 306.393 296.766 304.63 295.485C303.349 294.524 302.067 293.724 300.625 293.724C298.703 293.724 297.261 294.845 295.659 296.125C294.698 296.926 293.576 297.726 292.294 298.367C289.251 299.647 287.328 297.886 285.566 296.446C285.085 295.965 284.444 295.485 283.804 295.005C282.041 293.724 280.76 294.685 278.837 296.285C278.357 296.766 277.876 297.086 277.235 297.406C274.512 299.167 272.589 297.406 270.987 295.965C270.186 295.165 269.225 294.364 268.263 294.044C264.899 292.924 262.816 294.524 260.093 296.606C259.773 296.926 259.452 297.086 259.132 297.406C258.811 297.726 257.369 298.687 255.607 298.687Z" fill="#2C3647"/>
<path d="M254.607 325.687C253.966 325.687 253.486 325.527 252.845 325.207C251.723 324.726 250.922 323.766 250.282 322.965C249.961 322.485 249.481 322.005 249.16 321.685C246.917 319.603 244.514 320.724 241.31 322.805C240.509 323.285 239.708 323.766 239.067 324.246C236.664 325.367 234.742 325.687 233.14 325.047C231.858 324.566 231.217 323.446 230.576 322.645C230.096 322.005 229.615 321.364 228.974 320.884C226.411 319.283 223.207 320.404 219.362 324.406C219.041 324.726 218.561 324.726 218.24 324.406C217.92 324.086 217.92 323.606 218.24 323.285C222.566 318.803 226.571 317.522 229.775 319.443C230.736 320.084 231.377 320.884 231.858 321.685C232.338 322.485 232.819 323.285 233.78 323.606C234.902 324.086 236.504 323.766 238.426 322.805C239.067 322.485 239.868 322.005 240.669 321.524C243.553 319.763 246.917 317.522 250.282 320.564C250.762 321.044 251.243 321.524 251.563 322.005C252.204 322.805 252.845 323.446 253.646 323.926C254.767 324.406 256.049 324.246 257.651 322.965C257.972 322.805 258.292 322.485 258.612 322.165C261.496 320.084 264.059 318.002 268.225 319.443C269.506 319.924 270.468 320.884 271.429 321.685C273.031 323.285 273.992 323.926 275.754 322.965C276.235 322.645 276.716 322.325 277.196 321.845C278.959 320.404 281.201 318.483 284.085 320.564C284.726 321.044 285.367 321.524 286.008 322.165C287.77 323.766 288.891 324.726 290.974 323.766C291.935 323.285 292.897 322.645 293.858 321.845C295.62 320.404 297.382 318.963 299.785 319.123C301.708 319.123 303.15 320.244 304.592 321.204C306.354 322.485 307.796 323.446 309.878 322.645C310.359 322.485 310.679 322.645 310.84 323.125C311 323.606 310.84 323.926 310.359 324.086C307.475 325.207 305.393 323.766 303.63 322.485C302.349 321.524 301.067 320.724 299.625 320.724C297.703 320.724 296.261 321.845 294.659 323.125C293.698 323.926 292.576 324.726 291.294 325.367C288.251 326.647 286.328 324.886 284.566 323.446C284.085 322.965 283.444 322.485 282.804 322.005C281.041 320.724 279.76 321.685 277.837 323.285C277.357 323.766 276.876 324.086 276.235 324.406C273.512 326.167 271.589 324.406 269.987 322.965C269.186 322.165 268.225 321.364 267.263 321.044C263.899 319.924 261.816 321.524 259.093 323.606C258.773 323.926 258.452 324.086 258.132 324.406C257.811 324.726 256.369 325.687 254.607 325.687Z" fill="#2C3647"/>
<path d="M255.607 354.687C254.966 354.687 254.486 354.527 253.845 354.207C252.723 353.726 251.922 352.766 251.282 351.965C250.961 351.485 250.481 351.005 250.16 350.685C247.917 348.603 245.514 349.724 242.31 351.805C241.509 352.285 240.708 352.766 240.067 353.246C237.664 354.367 235.742 354.687 234.14 354.047C232.858 353.566 232.217 352.446 231.576 351.645C231.096 351.005 230.615 350.364 229.974 349.884C227.411 348.283 224.207 349.404 220.362 353.406C220.041 353.726 219.561 353.726 219.24 353.406C218.92 353.086 218.92 352.606 219.24 352.285C223.566 347.803 227.571 346.522 230.775 348.443C231.736 349.084 232.377 349.884 232.858 350.685C233.338 351.485 233.819 352.285 234.78 352.606C235.902 353.086 237.504 352.766 239.426 351.805C240.067 351.485 240.868 351.005 241.669 350.524C244.553 348.763 247.917 346.522 251.282 349.564C251.762 350.044 252.243 350.524 252.563 351.005C253.204 351.805 253.845 352.446 254.646 352.926C255.767 353.406 257.049 353.246 258.651 351.965C258.972 351.805 259.292 351.485 259.612 351.165C262.496 349.084 265.059 347.002 269.225 348.443C270.506 348.924 271.468 349.884 272.429 350.685C274.031 352.285 274.992 352.926 276.754 351.965C277.235 351.645 277.716 351.325 278.196 350.845C279.959 349.404 282.201 347.483 285.085 349.564C285.726 350.044 286.367 350.524 287.008 351.165C288.77 352.766 289.891 353.726 291.974 352.766C292.935 352.285 293.897 351.645 294.858 350.845C296.62 349.404 298.382 347.963 300.785 348.123C302.708 348.123 304.15 349.244 305.592 350.204C307.354 351.485 308.796 352.446 310.878 351.645C311.359 351.485 311.679 351.645 311.84 352.125C312 352.606 311.84 352.926 311.359 353.086C308.475 354.207 306.393 352.766 304.63 351.485C303.349 350.524 302.067 349.724 300.625 349.724C298.703 349.724 297.261 350.845 295.659 352.125C294.698 352.926 293.576 353.726 292.294 354.367C289.251 355.647 287.328 353.886 285.566 352.446C285.085 351.965 284.444 351.485 283.804 351.005C282.041 349.724 280.76 350.685 278.837 352.285C278.357 352.766 277.876 353.086 277.235 353.406C274.512 355.167 272.589 353.406 270.987 351.965C270.186 351.165 269.225 350.364 268.263 350.044C264.899 348.924 262.816 350.524 260.093 352.606C259.773 352.926 259.452 353.086 259.132 353.406C258.811 353.726 257.369 354.687 255.607 354.687Z" fill="#2C3647"/>
<path d="M285.75 231.531C285.75 235.572 289.038 238.836 293.048 238.836C297.086 238.836 300.347 235.545 300.347 231.531C300.347 227.491 297.059 224.226 293.048 224.226C289.011 224.226 285.75 227.518 285.75 231.531ZM287.386 231.531C287.386 228.413 289.934 225.863 293.048 225.863C296.163 225.863 298.711 228.413 298.711 231.531C298.711 234.65 296.163 237.199 293.048 237.199C289.934 237.199 287.386 234.65 287.386 231.531Z" fill="#2C3647" stroke="#2C3647" stroke-width="0.5"/>
<path d="M209.852 529.353L230.918 656.792L464.122 597.735L435.663 502.773L209.852 529.353Z" fill="#FDF9F3"/>
<path d="M178.796 394.598L405.77 391.489C405.77 391.489 432.269 456.014 456.71 491.836C481.151 527.659 517.17 522.727 517.17 522.727C517.17 522.727 437.357 573.736 374.466 602.315C308.956 632.044 251.064 640.515 251.064 640.515C251.064 640.515 192.979 571.547 178.796 394.598Z" fill="white" stroke="#2C3647" stroke-width="2" stroke-miterlimit="10" stroke-linecap="round" stroke-linejoin="round"/>
<path d="M203.875 381.12C199.687 381.405 196.937 385.373 196.365 391.245L200.674 391.168C201.092 387.791 202.342 385.545 204.167 385.421C206.422 385.268 209.133 388.649 209.484 393.81C209.835 398.971 207.606 402.687 205.351 402.84C204.17 402.921 203.269 403.954 203.35 405.137C203.43 406.32 204.462 407.222 205.643 407.141C210.69 406.799 214.276 400.83 213.779 393.518C213.175 386.213 208.922 380.777 203.875 381.12Z" fill="white" stroke="#2C3647" stroke-width="2" stroke-miterlimit="10"/>
<path d="M241.268 380.523C237.08 380.808 234.329 384.775 233.757 390.648L238.067 390.571C238.485 387.194 239.735 384.948 241.56 384.824C243.815 384.671 246.526 388.051 246.877 393.213C247.227 398.374 244.999 402.09 242.744 402.243C241.563 402.324 240.662 403.357 240.742 404.54C240.823 405.723 241.855 406.625 243.036 406.544C248.083 406.201 251.669 400.233 251.172 392.921C250.675 385.609 246.315 380.18 241.268 380.523Z" fill="white" stroke="#2C3647" stroke-width="2" stroke-miterlimit="10"/>
<path d="M316.153 379.214C311.966 379.499 309.215 383.467 308.643 389.339L312.953 389.262C313.371 385.885 314.62 383.639 316.446 383.515C318.701 383.362 321.412 386.743 321.762 391.904C322.113 397.065 319.884 400.781 317.63 400.935C316.448 401.015 315.548 402.048 315.628 403.231C315.708 404.414 316.741 405.316 317.922 405.236C322.969 404.893 326.554 398.924 326.058 391.612C325.561 384.3 321.2 378.871 316.153 379.214Z" fill="white" stroke="#2C3647" stroke-width="2" stroke-miterlimit="10"/>
<path d="M354.275 378.245C350.087 378.53 347.336 382.497 346.765 388.37L351.074 388.293C351.492 384.916 352.742 382.67 354.567 382.546C356.822 382.393 359.533 385.773 359.884 390.935C360.235 396.096 358.006 399.812 355.751 399.965C354.57 400.046 353.669 401.079 353.75 402.262C353.83 403.445 354.862 404.347 356.043 404.266C361.09 403.923 364.676 397.955 364.179 390.643C363.682 383.331 359.322 377.902 354.275 378.245Z" fill="white" stroke="#2C3647" stroke-width="2" stroke-miterlimit="10"/>
<path d="M390.915 377.699C386.727 377.984 383.977 381.952 383.405 387.824L387.715 387.747C388.132 384.37 389.382 382.124 391.208 382C393.462 381.847 396.173 385.228 396.524 390.389C396.875 395.55 394.646 399.266 392.391 399.419C391.21 399.5 390.309 400.533 390.39 401.716C390.47 402.899 391.502 403.801 392.684 403.72C397.73 403.377 401.316 397.409 400.819 390.097C400.322 382.785 395.962 377.356 390.915 377.699Z" fill="white" stroke="#2C3647" stroke-width="2" stroke-miterlimit="10"/>
<path d="M449.311 492.556C431.943 467.163 412.779 426.445 405.928 411.355L203.178 416.924C213.235 566.499 262.643 625.254 262.643 625.254C262.643 625.254 313.915 617.773 371.783 591.48C427.354 566.315 492.992 525.775 492.992 525.775C492.992 525.775 470.882 524.253 449.311 492.556Z" fill="white" stroke="#2C3647" stroke-width="2" stroke-miterlimit="10" stroke-linecap="round" stroke-linejoin="round"/>
<path d="M405.821 411.362L203.178 416.924C204.179 431.655 205.551 445.496 207.187 458.456L420.518 441.906C414.15 429.16 408.851 417.854 405.821 411.362Z" fill="#EEE9E2" stroke="#2C3647" stroke-width="2" stroke-miterlimit="10" stroke-linecap="round" stroke-linejoin="round"/>
<path d="M412.507 455.738L422.042 454.766" stroke="#2C3647" stroke-width="2" stroke-miterlimit="10" stroke-linecap="round" stroke-linejoin="round"/>
<path d="M384.438 458.616L405.326 456.441" stroke="#2C3647" stroke-width="2" stroke-miterlimit="10" stroke-linecap="round" stroke-linejoin="round"/>
<path d="M350.589 462.105L377.368 459.313" stroke="#2C3647" stroke-width="2" stroke-miterlimit="10" stroke-linecap="round" stroke-linejoin="round"/>
<path d="M315.984 465.645L344.588 462.729" stroke="#2C3647" stroke-width="2" stroke-miterlimit="10" stroke-linecap="round" stroke-linejoin="round"/>
<path d="M282.661 468.991L308.911 466.343" stroke="#2C3647" stroke-width="2" stroke-miterlimit="10" stroke-linecap="round" stroke-linejoin="round"/>
<path d="M247.521 472.566L273.771 469.918" stroke="#2C3647" stroke-width="2" stroke-miterlimit="10" stroke-linecap="round" stroke-linejoin="round"/>
<path d="M216.564 475.75L240.988 473.226" stroke="#2C3647" stroke-width="2" stroke-miterlimit="10" stroke-linecap="round" stroke-linejoin="round"/>
<path d="M214.16 499.139L435.615 470.371" stroke="#2C3647" stroke-width="2" stroke-miterlimit="10" stroke-linecap="round" stroke-linejoin="round"/>
<path d="M249.143 494.816C249.143 494.816 256.82 553.815 300.263 616.864" stroke="#2C3647" stroke-width="2" stroke-miterlimit="10" stroke-linecap="round" stroke-linejoin="round"/>
<path d="M284.846 490.014C284.846 490.014 293.53 557.478 339.635 604.143" stroke="#2C3647" stroke-width="2" stroke-miterlimit="10" stroke-linecap="round" stroke-linejoin="round"/>
<path d="M317.244 485.759C317.244 485.759 323.63 547.978 374.675 589.555" stroke="#2C3647" stroke-width="2" stroke-miterlimit="10" stroke-linecap="round" stroke-linejoin="round"/>
<path d="M350.757 482.078C350.757 482.078 360.731 551.075 408.885 572.324" stroke="#2C3647" stroke-width="2" stroke-miterlimit="10" stroke-linecap="round" stroke-linejoin="round"/>
<path d="M385.897 476.882C385.897 476.882 393.221 529.099 442.741 554.575" stroke="#2C3647" stroke-width="2" stroke-miterlimit="10" stroke-linecap="round" stroke-linejoin="round"/>
<path d="M413.587 473.271C413.587 473.271 430.019 526.166 467.067 541.148" stroke="#2C3647" stroke-width="2" stroke-miterlimit="10" stroke-linecap="round" stroke-linejoin="round"/>
<path d="M221.068 529.347L446.58 488.853" stroke="#2C3647" stroke-width="2" stroke-miterlimit="10" stroke-linecap="round" stroke-linejoin="round"/>
<path d="M228.792 555.72C228.792 555.72 277.196 550.486 458.198 504.267" stroke="#2C3647" stroke-width="2" stroke-miterlimit="10" stroke-linecap="round" stroke-linejoin="round"/>
<path d="M239.306 583.415C239.306 583.415 286.919 585.58 468.029 513.969" stroke="#2C3647" stroke-width="2" stroke-miterlimit="10" stroke-linecap="round" stroke-linejoin="round"/>
<path d="M251.188 607.453C251.188 607.453 291.48 617.785 479.344 521.733" stroke="#2C3647" stroke-width="2" stroke-miterlimit="10" stroke-linecap="round" stroke-linejoin="round"/>
<path d="M292.465 440.238L219.596 444.217C218.415 444.298 217.275 443.403 217.087 442.227L216.041 436.357C215.839 434.967 216.825 433.603 218.328 433.501L290.36 429.903C291.434 429.83 292.451 430.517 292.739 431.577L294.622 437.066C295.154 438.543 294.075 440.128 292.465 440.238Z" fill="white"/>
<path d="M189.951 291.445H146.482C139.506 291.445 133.871 297.041 133.871 303.97V347.138C133.871 354.066 139.506 359.728 146.549 359.728H177.541L190.89 378.048V359.662C197.464 359.195 202.629 353.799 202.629 347.138V303.97C202.629 297.041 196.927 291.445 189.951 291.445Z" fill="white"/>
<path d="M191.696 380.579L177.072 360.527H146.483C139.037 360.527 133 354.531 133 347.137V303.969C133 296.574 139.037 290.579 146.483 290.579H189.952C197.398 290.579 203.435 296.574 203.435 303.969V347.137C203.435 353.865 198.337 359.528 191.696 360.394V380.579ZM146.483 292.244C139.976 292.244 134.677 297.507 134.677 303.969V347.137C134.677 353.599 139.976 358.861 146.483 358.861H177.944L190.019 375.449V358.861L190.824 358.795C196.995 358.329 201.758 353.199 201.758 347.07V303.969C201.758 297.507 196.458 292.244 189.952 292.244H146.483Z" fill="#2C3647"/>
<path d="M167.345 347.737L149.971 322.822L154.063 319.957L166.875 338.344L186.127 304.102L190.555 306.501L167.345 347.737Z" fill="#FFC01E"/>
<path d="M413.6 414.33C413.6 421.57 407.598 427.476 400.148 427.476C392.699 427.476 386.697 421.57 386.697 414.33C386.697 407.09 392.699 401.185 400.148 401.185C407.598 401.185 413.6 407.09 413.6 414.33Z" fill="white" stroke="#263238" stroke-width="2"/>
<path d="M439.49 398.796L426.694 416.512L439.49 398.796ZM439.49 398.796C446.337 389.358 445.196 376.826 437.371 368.626L439.49 398.796ZM425.739 416.808L429.212 428.001C429.284 429.021 428.727 429.833 427.806 430.267C426.846 430.719 425.516 430.726 424.294 429.978L415.258 424.106L415.257 424.105L380.702 401.596L380.7 401.594L372.552 396.258L372.549 396.256C371.403 395.51 370.947 394.431 371.005 393.511C371.06 392.63 371.584 391.803 372.649 391.417L384.292 389.729L384.709 389.668L384.957 389.327L397.753 371.69C404.401 362.559 416.717 359.264 427.167 363.067L427.868 363.322L428.312 362.723L429.861 360.634L429.868 360.624L429.876 360.613C431.347 358.519 434.565 357.911 436.819 359.403L436.828 359.408L436.836 359.414C439.051 360.815 439.635 363.796 438.114 365.868L438.114 365.868L438.106 365.878L436.558 368.044L436.076 368.717L436.648 369.316C444.15 377.178 445.235 389.174 438.681 398.209L438.68 398.211L425.883 415.926L425.591 416.331L425.739 416.808Z" fill="#FFC01E" stroke="#263238" stroke-width="2"/>
<path d="M429.297 389.664C429.297 396.904 423.295 402.809 415.845 402.809C408.396 402.809 402.394 396.904 402.394 389.664C402.394 382.424 408.396 376.518 415.845 376.518C423.295 376.518 429.297 382.424 429.297 389.664Z" fill="white" stroke="#263238" stroke-width="2"/>
<path d="M418.595 398.289H415.211V385.868C414.013 386.972 412.532 387.8 410.84 388.352V385.385C411.686 385.109 412.673 384.557 413.731 383.798C414.788 383.039 415.493 382.073 415.846 381.038H418.595V398.289Z" fill="#263238"/>
<g clip-path="url(#clip2_434_9947)">
<path d="M347.685 210.409L350.114 204.233L341.626 196.816L313.819 198.424L347.685 210.409ZM349.074 204.488L347.172 209.321L318.11 199.024L341.31 197.697L349.074 204.488Z" fill="#2C3647"/>
<path d="M312.965 198.649L353.794 195.26L383.116 209.595L312.965 198.649Z" fill="white"/>
<path d="M345.096 188.939L312.964 198.649L343.908 171.384L345.096 188.939Z" fill="white"/>
<path d="M345.097 188.939L341.894 196.243L312.964 198.649L345.097 188.939Z" fill="#2C3647"/>
</g>
<path d="M449.053 360.177C449.172 360.195 449.295 360.192 449.413 360.143C451.474 359.479 453.864 358.687 456.2 357.821C456.61 357.672 456.812 357.214 456.664 356.804C456.516 356.393 456.059 356.191 455.649 356.339C453.338 357.187 450.96 357.97 448.921 358.637C448.512 358.775 448.279 359.217 448.417 359.626C448.515 359.929 448.772 360.135 449.053 360.177ZM464.509 353.998C464.672 354.023 464.853 353.995 465.011 353.908C467.308 352.636 469.282 351.304 471.037 349.806C471.368 349.523 471.409 349.03 471.127 348.699C470.845 348.368 470.353 348.326 470.022 348.609C468.345 350.03 466.457 351.309 464.256 352.529C463.87 352.736 463.731 353.215 463.949 353.603C464.059 353.83 464.271 353.962 464.509 353.998ZM463.605 349.956C463.962 350.01 464.325 349.81 464.456 349.452C464.607 349.042 464.41 348.591 464 348.44C463.236 348.147 462.48 347.799 461.764 347.413C460.517 346.725 459.33 345.857 458.267 344.831C457.959 344.529 457.458 344.542 457.157 344.851C456.855 345.161 456.868 345.662 457.176 345.964C458.345 347.095 459.63 348.044 461.011 348.797C461.788 349.226 462.607 349.594 463.433 349.919C463.496 349.939 463.551 349.947 463.605 349.956ZM472.964 351.196C473.029 351.206 473.085 351.203 473.151 351.202C475.586 350.994 477.987 350.426 480.297 349.511C480.698 349.35 480.9 348.893 480.739 348.491C480.578 348.089 480.122 347.887 479.721 348.048C477.553 348.907 475.301 349.442 473.024 349.63C472.587 349.663 472.274 350.049 472.307 350.486C472.329 350.856 472.607 351.142 472.964 351.196ZM487.891 344.493C488.118 344.528 488.36 344.464 488.541 344.292C490.29 342.693 491.901 340.829 493.321 338.77C493.564 338.407 493.472 337.916 493.121 337.674C492.76 337.431 492.269 337.523 492.028 337.875C490.677 339.845 489.147 341.61 487.477 343.132C487.155 343.427 487.135 343.924 487.43 344.246C487.552 344.386 487.717 344.467 487.891 344.493ZM476.333 342.631C476.668 342.682 477.005 342.511 477.164 342.191C478.058 340.307 478.677 338.271 478.997 336.156C479.052 335.798 479.095 335.438 479.138 335.079C479.183 334.642 478.864 334.26 478.438 334.218C478.002 334.174 477.621 334.494 477.579 334.92C477.551 335.249 477.5 335.585 477.449 335.921C477.15 337.895 476.578 339.772 475.748 341.522C475.555 341.914 475.728 342.384 476.12 342.576C476.183 342.597 476.257 342.619 476.333 342.631ZM452.727 338.122C452.835 338.139 452.947 338.133 453.063 338.096C453.481 337.97 453.723 337.541 453.598 337.123C452.956 334.928 452.799 332.752 453.119 330.637C453.131 330.561 453.142 330.485 453.154 330.409C453.23 329.977 452.936 329.578 452.505 329.501L452.494 329.499C452.072 329.435 451.674 329.719 451.598 330.151C451.585 330.238 451.571 330.325 451.558 330.412C451.203 332.754 451.381 335.167 452.089 337.582C452.179 337.862 452.435 338.078 452.727 338.122ZM496.869 330.631C497.237 330.687 497.601 330.476 497.722 330.117C498.541 327.856 499.175 325.5 499.617 323.092C499.694 322.66 499.412 322.251 498.981 322.175C498.549 322.098 498.141 322.381 498.065 322.813C497.646 325.135 497.036 327.406 496.242 329.582C496.091 329.992 496.299 330.445 496.708 330.596C496.761 330.615 496.815 330.623 496.869 330.631ZM476.869 326.447C477.01 326.468 477.168 326.448 477.311 326.381C477.704 326.196 477.885 325.735 477.701 325.341C476.589 322.887 474.962 320.977 472.861 319.638C472.498 319.405 472.006 319.508 471.772 319.883C471.539 320.247 471.642 320.74 472.016 320.974C473.854 322.151 475.292 323.845 476.272 326.001C476.378 326.25 476.609 326.408 476.869 326.447ZM456.888 322.942C457.104 322.975 457.336 322.91 457.524 322.761C459.258 321.26 461.315 320.185 463.475 319.669C463.901 319.567 464.154 319.139 464.063 318.715C463.961 318.289 463.535 318.036 463.111 318.127C460.708 318.706 458.424 319.891 456.499 321.563C456.168 321.846 456.136 322.351 456.419 322.672C456.54 322.823 456.715 322.916 456.888 322.942ZM499.484 314.252C499.527 314.258 499.57 314.265 499.604 314.259C500.036 314.258 500.39 313.901 500.389 313.468C500.372 311.169 500.219 308.738 499.931 306.253C499.885 305.825 499.49 305.51 499.061 305.567C498.633 305.613 498.318 306.009 498.375 306.439C498.66 308.868 498.81 311.243 498.824 313.486C498.821 313.874 499.105 314.194 499.484 314.252ZM497.424 297.73C497.521 297.744 497.611 297.736 497.713 297.718C498.137 297.627 498.412 297.203 498.31 296.777C497.83 294.607 497.268 292.325 496.587 289.803C496.473 289.386 496.046 289.133 495.619 289.246C495.203 289.36 494.95 289.788 495.062 290.216C495.736 292.714 496.291 294.973 496.763 297.119C496.845 297.453 497.11 297.682 497.424 297.73ZM493.073 281.637C493.181 281.654 493.303 281.65 493.42 281.612C493.838 281.487 494.071 281.045 493.946 280.627C493.414 278.871 492.866 277.079 492.341 275.358L491.859 273.787C491.734 273.368 491.293 273.135 490.875 273.26C490.457 273.386 490.224 273.828 490.349 274.246L490.831 275.817C491.357 277.538 491.905 279.33 492.438 281.075C492.534 281.389 492.78 281.593 493.073 281.637ZM488.259 265.674C488.367 265.691 488.479 265.686 488.595 265.648C489.013 265.522 489.255 265.093 489.13 264.675C489.024 264.281 488.905 263.897 488.807 263.516C489.684 263.727 490.563 263.916 491.435 264.081C491.865 264.168 492.273 263.886 492.361 263.456C492.448 263.025 492.167 262.616 491.737 262.529C490.607 262.313 489.461 262.051 488.319 261.767C487.943 260.379 487.589 259.06 487.271 257.792C487.17 257.366 486.732 257.111 486.316 257.225C485.891 257.327 485.636 257.766 485.75 258.182C486.006 259.198 486.282 260.227 486.561 261.312C486.008 261.162 485.447 260.988 484.895 260.827C484.483 260.698 484.038 260.93 483.907 261.354C483.778 261.767 484.01 262.212 484.433 262.343C485.301 262.608 486.171 262.862 487.044 263.094C487.232 263.755 487.418 264.426 487.622 265.123C487.711 265.414 487.967 265.63 488.259 265.674ZM500.901 265.205C500.933 265.209 500.955 265.213 500.988 265.218C503.421 265.309 505.855 265.256 508.213 265.048C508.65 265.014 508.963 264.629 508.929 264.191C508.896 263.753 508.512 263.44 508.075 263.473C505.773 263.679 503.406 263.731 501.039 263.639C500.61 263.618 500.237 263.961 500.227 264.392C500.22 264.802 500.511 265.145 500.901 265.205ZM475.662 258.973C475.998 259.024 476.346 258.843 476.495 258.522C476.676 258.128 476.504 257.658 476.111 257.476C473.986 256.511 471.88 255.426 469.832 254.251C469.454 254.038 468.97 254.164 468.758 254.543C468.545 254.921 468.671 255.406 469.049 255.619C471.139 256.812 473.296 257.926 475.46 258.92C475.523 258.941 475.586 258.961 475.662 258.973ZM517.394 263.365C517.503 263.382 517.614 263.377 517.718 263.348C520.019 262.709 522.317 261.87 524.53 260.863C524.923 260.678 525.104 260.218 524.92 259.824C524.736 259.43 524.276 259.249 523.882 259.433C521.73 260.405 519.515 261.212 517.295 261.83C516.879 261.945 516.635 262.385 516.749 262.802C516.836 263.103 517.091 263.319 517.394 263.365ZM461.365 250.482C461.647 250.525 461.94 250.414 462.121 250.175C462.384 249.827 462.305 249.327 461.955 249.074C460.164 247.737 458.346 246.286 456.424 244.641C456.091 244.358 455.598 244.394 455.315 244.728C455.032 245.063 455.067 245.556 455.401 245.84C457.354 247.5 459.19 248.977 461.012 250.329C461.121 250.412 461.235 250.463 461.365 250.482ZM484.347 249.46C484.434 249.473 484.522 249.475 484.603 249.454C485.036 249.376 485.319 248.964 485.239 248.541C484.807 246.135 484.456 243.774 484.209 241.528C484.163 241.1 483.768 240.785 483.34 240.831C482.912 240.877 482.597 241.273 482.643 241.702C482.896 243.981 483.24 246.385 483.69 248.828C483.749 249.17 484.022 249.411 484.347 249.46ZM532.338 256.188C532.533 256.217 532.739 256.171 532.912 256.053C534.885 254.654 536.771 253.098 538.506 251.442C538.817 251.145 538.837 250.649 538.531 250.325C538.235 250.014 537.74 249.994 537.416 250.3C535.733 251.909 533.911 253.408 531.989 254.759C531.629 255.015 531.555 255.503 531.8 255.862C531.949 256.051 532.132 256.157 532.338 256.188ZM448.732 239.637C448.981 239.674 449.237 239.591 449.422 239.397C449.725 239.077 449.7 238.585 449.391 238.283C447.86 236.842 446.324 235.355 444.834 233.931L444.235 233.352C443.926 233.05 443.426 233.063 443.124 233.373C442.823 233.682 442.835 234.183 443.144 234.485L443.743 235.064C445.231 236.499 446.778 237.987 448.309 239.429C448.425 239.546 448.58 239.614 448.732 239.637ZM544.053 244.438C544.334 244.481 544.641 244.361 544.812 244.109C546.214 242.091 547.442 239.981 548.466 237.828C548.647 237.434 548.486 236.966 548.094 236.773C547.7 236.592 547.233 236.754 547.041 237.146C546.05 239.226 544.866 241.266 543.52 243.203C543.266 243.564 543.358 244.055 543.72 244.299C543.818 244.38 543.934 244.42 544.053 244.438ZM436.648 228.164C436.897 228.202 437.164 228.12 437.35 227.916C437.642 227.594 437.619 227.091 437.298 226.798C435.362 225.029 433.591 223.485 431.9 222.075C431.564 221.802 431.072 221.838 430.788 222.173C430.516 222.509 430.552 223.002 430.885 223.286C432.568 224.684 434.308 226.212 436.224 227.967C436.351 228.075 436.496 228.141 436.648 228.164ZM482.816 232.885C482.848 232.89 482.892 232.896 482.926 232.891C483.358 232.889 483.72 232.545 483.719 232.112C483.727 231.625 483.734 231.138 483.751 230.663C483.807 228.83 483.969 226.957 484.228 225.099C484.292 224.676 483.987 224.275 483.565 224.211L483.554 224.21C483.121 224.144 482.721 224.449 482.666 224.885C482.396 226.808 482.226 228.735 482.173 230.624C482.155 231.109 482.144 231.618 482.147 232.107C482.144 232.495 482.437 232.828 482.816 232.885ZM423.673 217.744C423.966 217.788 424.272 217.668 424.446 217.395C424.689 217.032 424.587 216.54 424.223 216.307C422.189 214.967 420.095 213.729 418 212.646C417.609 212.443 417.144 212.594 416.94 212.985C416.737 213.376 416.888 213.842 417.278 214.046C419.322 215.099 421.366 216.307 423.36 217.619C423.449 217.688 423.565 217.728 423.673 217.744ZM385.381 209.945C385.5 209.963 385.624 209.949 385.752 209.912C387.923 209.176 390.212 208.691 392.54 208.456C392.968 208.41 393.292 208.026 393.246 207.597C393.2 207.169 392.817 206.845 392.39 206.891C389.937 207.14 387.534 207.653 385.256 208.428C384.848 208.566 384.626 209.009 384.761 209.429C384.852 209.709 385.1 209.902 385.381 209.945ZM408.752 210.446C409.131 210.504 409.497 210.282 409.62 209.912C409.749 209.499 409.528 209.055 409.116 208.926C406.74 208.155 404.379 207.587 402.063 207.225C401.63 207.159 401.231 207.454 401.167 207.877C401.101 208.31 401.395 208.71 401.818 208.774C404.046 209.123 406.332 209.68 408.635 210.417C408.678 210.424 408.72 210.441 408.752 210.446ZM550.671 229.264C551.083 229.327 551.479 229.054 551.563 228.645C551.691 228.021 551.798 227.382 551.894 226.753C552.071 225.582 552.196 224.392 552.264 223.215C552.3 222.61 552.316 221.991 552.309 221.38C552.308 220.947 551.952 220.593 551.52 220.594C551.088 220.596 550.735 220.953 550.735 221.385C550.737 221.962 550.725 222.549 550.692 223.132C550.633 224.255 550.515 225.402 550.345 226.519C550.253 227.126 550.15 227.732 550.026 228.334C549.939 228.765 550.209 229.172 550.639 229.259C550.639 229.259 550.65 229.261 550.671 229.264ZM485.479 216.48C485.858 216.537 486.224 216.315 486.346 215.945C487.073 213.703 487.951 211.495 488.943 209.404C489.136 209.012 488.963 208.542 488.571 208.349C488.18 208.157 487.71 208.33 487.518 208.722C486.492 210.886 485.596 213.147 484.846 215.463C484.717 215.876 484.938 216.32 485.349 216.46C485.392 216.466 485.435 216.473 485.479 216.48ZM550.004 212.765C550.112 212.781 550.234 212.777 550.34 212.738C550.758 212.613 550.991 212.171 550.877 211.754C550.197 209.443 549.278 207.174 548.146 204.994C547.95 204.609 547.474 204.46 547.09 204.656C546.706 204.853 546.556 205.33 546.752 205.715C547.843 207.8 548.721 209.974 549.371 212.192C549.455 212.515 549.711 212.72 550.004 212.765ZM492.985 201.662C493.266 201.705 493.56 201.594 493.74 201.355C495.162 199.429 496.715 197.656 498.36 196.086C498.67 195.789 498.681 195.28 498.385 194.969C498.089 194.658 497.581 194.648 497.27 194.944C495.572 196.573 493.953 198.414 492.477 200.409C492.214 200.758 492.293 201.258 492.642 201.51C492.739 201.603 492.866 201.644 492.985 201.662ZM541.923 198.337C542.15 198.372 542.381 198.307 542.561 198.145C542.882 197.85 542.913 197.356 542.619 197.033C540.98 195.199 539.183 193.539 537.264 192.095C536.916 191.831 536.419 191.9 536.166 192.25C535.903 192.599 535.971 193.097 536.321 193.35C538.15 194.726 539.88 196.319 541.452 198.077C541.584 198.23 541.749 198.311 541.923 198.337ZM505.356 190.7C505.518 190.724 505.689 190.695 505.845 190.618C507.917 189.512 510.093 188.677 512.305 188.113C512.73 188.011 512.985 187.573 512.871 187.156C512.769 186.73 512.331 186.475 511.915 186.59C509.578 187.179 507.293 188.075 505.102 189.23C504.717 189.438 504.567 189.914 504.774 190.301C504.907 190.521 505.118 190.664 505.356 190.7ZM528.371 188.95C528.739 189.006 529.103 188.795 529.224 188.436C529.375 188.026 529.166 187.573 528.757 187.422C526.92 186.755 525.044 186.271 523.16 185.986C522.651 185.909 522.141 185.842 521.627 185.798C521.19 185.754 520.81 186.074 520.766 186.511C520.722 186.948 521.04 187.329 521.477 187.373C521.956 187.423 522.447 187.475 522.923 187.548C524.699 187.817 526.479 188.275 528.222 188.905C528.262 188.934 528.316 188.942 528.371 188.95Z" fill="#263238"/>
<defs>
<clipPath id="clip0_434_9947">
<rect width="660" height="900" fill="white"/>
</clipPath>
<clipPath id="clip1_434_9947">
<rect width="354" height="271" fill="white" transform="translate(178 394.579)"/>
</clipPath>
<clipPath id="clip2_434_9947">
<rect width="71" height="38" fill="white" transform="matrix(-0.988425 -0.151709 -0.151709 0.988425 387.943 178.143)"/>
</clipPath>
</defs>
</svg>
