<svg width="80" height="55" viewBox="0 0 80 55" fill="none" xmlns="http://www.w3.org/2000/svg">
<g id="Icon">
<g id="Group">
<path id="Vector" d="M32.5938 7.19727H49.636" stroke="#2B4657" stroke-width="2" stroke-miterlimit="10" stroke-linecap="round" stroke-linejoin="round"/>
<path id="Vector_2" d="M63.5775 7.19727H66.6761V53.6761H14V7.19727H17.0986" stroke="#2B4657" stroke-width="2" stroke-miterlimit="10" stroke-linecap="round" stroke-linejoin="round"/>
<path id="Vector_3" d="M25.394 1H22.7461C22.1938 1 21.7461 1.44772 21.7461 2V10.8451C21.7461 11.3974 22.1938 11.8451 22.7461 11.8451H25.394C25.9463 11.8451 26.394 11.3974 26.394 10.8451V2C26.394 1.44772 25.9463 1 25.394 1Z" stroke="#2B4657" stroke-width="2" stroke-miterlimit="10" stroke-linecap="round" stroke-linejoin="round"/>
<path id="Vector_4" d="M57.9291 1H55.2812C54.729 1 54.2812 1.44772 54.2812 2V10.8451C54.2812 11.3974 54.729 11.8451 55.2813 11.8451H57.9291C58.4814 11.8451 58.9291 11.3974 58.9291 10.8451V2C58.9291 1.44772 58.4814 1 57.9291 1Z" stroke="#2B4657" stroke-width="2" stroke-miterlimit="10" stroke-linecap="round" stroke-linejoin="round"/>
<path id="Vector_5" d="M66.6761 19.5916H14" stroke="#2B4657" stroke-width="2" stroke-miterlimit="10" stroke-linecap="round" stroke-linejoin="round"/>
<path id="Vector_6" d="M28.4926 27.3381H22.7461C22.1938 27.3381 21.7461 27.7858 21.7461 28.3381V32.5353C21.7461 33.0876 22.1938 33.5353 22.7461 33.5353H28.4926C29.0449 33.5353 29.4926 33.0876 29.4926 32.5353V28.3381C29.4926 27.7859 29.0449 27.3381 28.4926 27.3381Z" stroke="#2B4657" stroke-width="2" stroke-miterlimit="10" stroke-linecap="round" stroke-linejoin="round"/>
<path id="Vector_7" d="M43.9887 27.3381H38.2422C37.6899 27.3381 37.2422 27.7858 37.2422 28.3381V32.5353C37.2422 33.0876 37.6899 33.5353 38.2422 33.5353H43.9887C44.5409 33.5353 44.9887 33.0876 44.9887 32.5353V28.3381C44.9887 27.7859 44.5409 27.3381 43.9887 27.3381Z" stroke="#2B4657" stroke-width="2" stroke-miterlimit="10" stroke-linecap="round" stroke-linejoin="round"/>
<path id="Vector_8" d="M57.9301 27.3381H52.1836C51.6313 27.3381 51.1836 27.7858 51.1836 28.3381V32.5353C51.1836 33.0876 51.6313 33.5353 52.1836 33.5353H57.9301C58.4824 33.5353 58.9301 33.0876 58.9301 32.5353V28.3381C58.9301 27.7859 58.4824 27.3381 57.9301 27.3381Z" stroke="#2B4657" stroke-width="2" stroke-miterlimit="10" stroke-linecap="round" stroke-linejoin="round"/>
<path id="Vector_9" d="M28.4926 39.7324H22.7461C22.1938 39.7324 21.7461 40.1801 21.7461 40.7324V44.9296C21.7461 45.4819 22.1938 45.9296 22.7461 45.9296H28.4926C29.0449 45.9296 29.4926 45.4819 29.4926 44.9296V40.7324C29.4926 40.1801 29.0449 39.7324 28.4926 39.7324Z" stroke="#2B4657" stroke-width="2" stroke-miterlimit="10" stroke-linecap="round" stroke-linejoin="round"/>
<path id="Vector_10" d="M43.9887 39.7324H38.2422C37.6899 39.7324 37.2422 40.1801 37.2422 40.7324V44.9296C37.2422 45.4819 37.6899 45.9296 38.2422 45.9296H43.9887C44.5409 45.9296 44.9887 45.4819 44.9887 44.9296V40.7324C44.9887 40.1801 44.5409 39.7324 43.9887 39.7324Z" stroke="#2B4657" stroke-width="2" stroke-miterlimit="10" stroke-linecap="round" stroke-linejoin="round"/>
<path id="Vector_11" d="M57.9301 39.7324H52.1836C51.6313 39.7324 51.1836 40.1801 51.1836 40.7324V44.9296C51.1836 45.4819 51.6313 45.9296 52.1836 45.9296H57.9301C58.4824 45.9296 58.9301 45.4819 58.9301 44.9296V40.7324C58.9301 40.1801 58.4824 39.7324 57.9301 39.7324Z" stroke="#2B4657" stroke-width="2" stroke-miterlimit="10" stroke-linecap="round" stroke-linejoin="round"/>
</g>
</g>
</svg>
