<svg width="80" height="49" viewBox="0 0 80 49" fill="none" xmlns="http://www.w3.org/2000/svg">
<g id="Icon" clip-path="url(#clip0_363_3801)">
<g id="Group">
<path id="Vector" d="M36.2776 42.7722V34.4178L26.3916 24.5317C25.2776 23.4178 23.6068 23.4178 22.4928 24.5317L22.2143 24.8102C21.1004 25.9241 21.1004 27.595 22.2143 28.7089L28.6194 35.114" stroke="#2B4657" stroke-width="2" stroke-miterlimit="10" stroke-linecap="round" stroke-linejoin="round"/>
<path id="Vector_2" d="M19.5696 21.886V9.35439C19.5696 7.82274 18.3165 6.56958 16.7848 6.56958C15.2532 6.56958 14 7.82274 14 9.35439V24.9493C14 28.2911 15.2532 31.4936 17.6203 33.8607L25.1392 41.3797V42.7721" stroke="#2B4657" stroke-width="2" stroke-miterlimit="10" stroke-linecap="round" stroke-linejoin="round"/>
<path id="Vector_3" d="M44.6328 42.7722V34.4178L54.5189 24.5317C55.6328 23.4178 57.3037 23.4178 58.4176 24.5317L58.6961 24.8102C59.81 25.9241 59.81 27.595 58.6961 28.7089L52.291 35.114" stroke="#2B4657" stroke-width="2" stroke-miterlimit="10" stroke-linecap="round" stroke-linejoin="round"/>
<path id="Vector_4" d="M61.3431 21.886V9.35439C61.3431 7.82274 62.5962 6.56958 64.1279 6.56958C65.6595 6.56958 66.9127 7.82274 66.9127 9.35439V24.9493C66.9127 28.2911 65.6595 31.4936 63.2924 33.8607L55.7734 41.3797V42.7721" stroke="#2B4657" stroke-width="2" stroke-miterlimit="10" stroke-linecap="round" stroke-linejoin="round"/>
<path id="Vector_5" d="M40.4574 26.0633C47.3785 26.0633 52.9891 20.4527 52.9891 13.5316C52.9891 6.61061 47.3785 1 40.4574 1C33.5364 1 27.9258 6.61061 27.9258 13.5316C27.9258 20.4527 33.5364 26.0633 40.4574 26.0633Z" stroke="#2B4657" stroke-width="2" stroke-miterlimit="10" stroke-linecap="round" stroke-linejoin="round"/>
<path id="Vector_6" d="M36.2812 19.1012H41.8509C43.3825 19.1012 44.6357 17.848 44.6357 16.3163C44.6357 14.7847 43.3825 13.5315 41.8509 13.5315H39.0661C37.5344 13.5315 36.2812 12.2784 36.2812 10.7467C36.2812 9.21508 37.5344 7.96191 39.0661 7.96191H44.6357" stroke="#2B4657" stroke-width="2" stroke-miterlimit="10" stroke-linecap="round" stroke-linejoin="round"/>
<path id="Vector_7" d="M40.4531 5.17725V7.96206" stroke="#2B4657" stroke-width="2" stroke-miterlimit="10" stroke-linecap="round" stroke-linejoin="round"/>
<path id="Vector_8" d="M40.4531 19.1013V21.8861" stroke="#2B4657" stroke-width="2" stroke-miterlimit="10" stroke-linecap="round" stroke-linejoin="round"/>
<path id="Vector_9" d="M23.7461 48.3417V45.5569H37.6701V48.3417" stroke="#2B4657" stroke-width="2" stroke-miterlimit="10" stroke-linecap="round" stroke-linejoin="round"/>
<path id="Vector_10" d="M43.2422 48.3417V45.5569H57.1662V48.3417" stroke="#2B4657" stroke-width="2" stroke-miterlimit="10" stroke-linecap="round" stroke-linejoin="round"/>
</g>
</g>
<defs>
<clipPath id="clip0_363_3801">
<rect width="80" height="49" fill="white"/>
</clipPath>
</defs>
</svg>
