<svg width="510" height="418" fill="none" xmlns="http://www.w3.org/2000/svg"><path d="M133.014 115.378L101.018 387.33a2.065 2.065 0 003.211 1.996l20.592-12.639c2.547-1.552 5.868-.887 7.529 1.663l25.796 38.47 10.74-161.641-35.872-139.801z" fill="#fff" stroke="#090909" stroke-miterlimit="10" stroke-linecap="round" stroke-linejoin="round"/><path d="M132.792 122.139l-28.896 258.316c-.333 2.55 2.546 4.102 4.539 2.661l15.057-11.086c3.321-2.439 7.971-1.553 10.186 1.884l17.603 26.83c.886 1.33 2.989.665 2.879-.998l-20.482-277.607c0-.554-.886-.554-.886 0z" fill="#fff" stroke="#090909" stroke-miterlimit="10" stroke-linecap="round" stroke-linejoin="round"/><path opacity=".6" d="M133.235 118.481l-29.339 261.975c-.333 2.549 2.546 4.102 4.539 2.66l15.057-11.086c3.321-2.439 7.971-1.552 10.186 1.884l17.603 26.83c.886 1.33 2.989.665 2.879-.998l-20.704-281.265c0-.222-.221-.222-.221 0z" fill="#fff"/><path d="M127.812 370.589c2.325 0 4.539 1.108 5.868 3.215l17.603 26.829c.886 1.33 2.99.665 2.879-.998l-2.546-33.925-24.247 4.768c.222 0 .332.111.443.111z" fill="#EEE9E2" stroke="#090909" stroke-miterlimit="10" stroke-linecap="round" stroke-linejoin="round"/><path d="M127.812 370.589c2.325 0 4.539 1.108 5.868 3.215l17.603 26.829c.886 1.33 2.99.665 2.879-.998l-2.546-33.925-24.247 4.768c.222 0 .332.111.443.111z" fill="#fff"/><path d="M133.677 115.155l24.468 301.554 284.867-54.324-66.982-235.256-242.353-11.974z" fill="#fff" stroke="#090909" stroke-miterlimit="10" stroke-linecap="round" stroke-linejoin="round"/><path d="M146.853 121.696l16.828 279.048 267.929-48.781-56.465-216.853-228.292-13.414z" fill="#fff" stroke="#090909" stroke-miterlimit="10" stroke-linecap="round" stroke-linejoin="round"/><path d="M163.24 259.059l12.732 132.262 243.461-44.346-22.586-99.446-233.607 11.53z" fill="#fff" stroke="#090909" stroke-miterlimit="10" stroke-linecap="round" stroke-linejoin="round"/><path d="M210.181 384.777l-3.986-42.572m41.294 35.921l-3.875-35.366m40.412 28.27l-4.54-28.27m42.185 21.841l-5.425-33.814m38.526 27.827l-4.65-32.927m36.426 27.051l-6.864-39.69" stroke="#090909" stroke-miterlimit="10" stroke-linecap="round" stroke-linejoin="round"/><path d="M140.766 118.592L373.93 131.23s22.696 68.072 45.282 106.542c22.586 38.47 59.896 35.92 59.896 35.92s-85.471 46.785-152.01 71.73c-69.307 25.943-129.315 30.599-129.315 30.599s-54.803-74.834-57.017-257.429z" fill="#EEE9E2" stroke="#090909" stroke-miterlimit="10" stroke-linecap="round" stroke-linejoin="round"/><path d="M167.445 106.508c-4.318 0-7.418 3.88-8.415 9.867l4.429.222c.664-3.437 2.103-5.655 3.986-5.655 2.325 0 4.871 3.659 4.871 8.981 0 5.321-2.546 8.98-4.871 8.98a2.222 2.222 0 00-2.215 2.217c0 1.219.997 2.217 2.215 2.217 5.203 0 9.3-5.876 9.3-13.414-.111-7.539-4.097-13.415-9.3-13.415z" fill="#fff" stroke="#090909" stroke-miterlimit="10"/><path d="M173.759 123.47c-.221.776-.442 1.552-.775 2.328m-11.846-11.419s1.66-5.987 6.532-5.654c3.875.221 7.086 5.986 6.532 12.084" stroke="#090909" stroke-width=".75" stroke-miterlimit="10" stroke-linecap="round" stroke-linejoin="round"/><path d="M205.863 108.503c-4.318 0-7.418 3.88-8.415 9.867l4.429.222c.664-3.437 2.103-5.654 3.986-5.654 2.325 0 4.871 3.658 4.871 8.98 0 5.321-2.546 8.98-4.871 8.98a2.222 2.222 0 00-2.215 2.217c0 1.22.997 2.217 2.215 2.217 5.203 0 9.3-5.876 9.3-13.414 0-7.539-4.097-13.415-9.3-13.415z" fill="#fff" stroke="#090909" stroke-miterlimit="10"/><path d="M212.289 125.465c-.222.776-.443 1.552-.775 2.328m-11.847-11.419s1.661-5.987 6.532-5.654c3.875.222 7.086 5.987 6.532 12.084" stroke="#090909" stroke-width=".75" stroke-miterlimit="10" stroke-linecap="round" stroke-linejoin="round"/><path d="M282.811 112.383c-4.318 0-7.418 3.88-8.415 9.867l4.429.221c.664-3.437 2.104-5.654 3.986-5.654 2.325 0 4.871 3.659 4.871 8.98 0 5.322-2.546 8.98-4.871 8.98a2.223 2.223 0 00-2.215 2.218c0 1.219.997 2.217 2.215 2.217 5.203 0 9.3-5.876 9.3-13.415 0-7.539-4.097-13.414-9.3-13.414z" fill="#fff" stroke="#090909" stroke-miterlimit="10"/><path d="M289.233 129.345c-.221.777-.443 1.553-.775 2.329m-11.849-11.419s1.661-5.986 6.533-5.654c3.875.222 7.085 5.987 6.532 12.085" stroke="#090909" stroke-width=".75" stroke-miterlimit="10" stroke-linecap="round" stroke-linejoin="round"/><path d="M322.003 114.046c-4.318 0-7.418 3.881-8.414 9.867l4.428.222c.665-3.437 2.104-5.654 3.986-5.654 2.325 0 4.872 3.659 4.872 8.98 0 5.322-2.547 8.98-4.872 8.98a2.222 2.222 0 00-2.214 2.217c0 1.22.996 2.218 2.214 2.218 5.204 0 9.3-5.876 9.3-13.415 0-7.539-4.096-13.415-9.3-13.415z" fill="#fff" stroke="#090909" stroke-miterlimit="10"/><path d="M328.312 131.009c-.221.776-.443 1.552-.775 2.328m-11.846-11.418s1.661-5.987 6.533-5.654c3.875.222 7.085 5.987 6.532 12.084" stroke="#090909" stroke-width=".75" stroke-miterlimit="10" stroke-linecap="round" stroke-linejoin="round"/><path d="M359.646 116.042c-4.318 0-7.418 3.88-8.415 9.867l4.429.221c.664-3.436 2.104-5.654 3.986-5.654 2.325 0 4.871 3.659 4.871 8.98 0 5.322-2.546 8.981-4.871 8.981a2.222 2.222 0 00-2.215 2.217c0 1.219.997 2.217 2.215 2.217 5.203 0 9.3-5.876 9.3-13.415 0-7.538-4.097-13.414-9.3-13.414z" fill="#fff" stroke="#090909" stroke-miterlimit="10"/><path d="M365.957 133.005c-.222.776-.443 1.552-.775 2.328m-11.844-11.42s1.661-5.986 6.532-5.654c3.875.222 7.086 5.987 6.532 12.085" stroke="#090909" stroke-width=".75" stroke-miterlimit="10" stroke-linecap="round" stroke-linejoin="round"/><path d="M411.567 237.995c-16.053-27.273-32.882-70.4-38.86-86.364l-208.475-8.426c-.111 154.213 46.5 217.961 46.5 217.961s53.142-4.102 114.367-27.051c58.79-21.952 128.983-58.981 128.983-58.981s-22.586-3.104-42.515-37.139z" fill="#fff" stroke="#2B4657" stroke-miterlimit="10" stroke-linecap="round" stroke-linejoin="round"/><path d="M372.596 151.631l-208.365-8.426c0 15.188.443 29.49 1.218 42.905l220.1-2.107c-5.646-13.525-10.296-25.499-12.953-32.372z" fill="#2B4657" stroke="#2B4657" stroke-miterlimit="10" stroke-linecap="round" stroke-linejoin="round"/><path d="M376.363 197.64l9.854-.332m-38.863 1.329l21.59-.776m-56.573 1.996l27.679-.998m-63.442 2.217l29.561-.997m-63.993 2.107l27.125-.887m-63.44 2.106l27.125-.887m-59.119 1.995l25.243-.887" stroke="#2B4657" stroke-width="3" stroke-miterlimit="10" stroke-linecap="round" stroke-linejoin="round"/><path d="M169.77 228.349l229.289-14.079m-193.085 12.084s3.764 61.086 43.953 128.825m-6.976-131.264s4.207 69.845 48.272 120.954m-14.724-123.061s2.214 64.302 51.704 110.533M311.15 220.367s5.425 71.508 53.365 96.674m-16.937-99.557s3.875 54.103 52.922 83.704m-24.251-85.477s13.175 55.432 50.154 73.392m-251.652-29.268l234.271-25.832M180.84 287.44s50.043-1.995 239.032-36.807m-230.173 65.965s48.714 5.543 239.586-55.322m-229.068 80.821s40.632 13.414 240.139-72.063" stroke="#2B4657" stroke-miterlimit="10" stroke-linecap="round" stroke-linejoin="round"/><path d="M254.242 173.36l-75.064-.998c-1.218 0-2.325-.998-2.436-2.217l-.664-6.098c-.111-1.441.996-2.771 2.546-2.771l74.179 1.33c1.107 0 2.103.776 2.325 1.885l1.55 5.765c.443 1.552-.775 3.104-2.436 3.104z" fill="#fff"/><path d="M185.049 32.45L138.296 26 134 56.606l46.247 7.715 4.802-31.87zm-2.78.885L159.398 44.34l-18.701-16.821 41.572 5.817zM135.39 55.468l3.917-27.57 19.838 17.958 24.387-11.762-4.422 28.71-43.72-7.336zM457.413 93L419 126.642l49.532 59.695.379.505 40.435-34.527L457.413 93zm49.279 58.051l-42.961-11.636-5.434-43.633 48.395 55.269zm-86.049-24.283l36.264-31.744 5.686 45.277 44.605 12.014-38.16 32.63-48.395-58.177z" fill="#5793DB"/><path d="M216.189 110.019H37.477v113.298H216.19V110.019z" fill="#fff" stroke="#4D5D71" stroke-miterlimit="10"/><path d="M93.458 96.881L89.981 87H34v144.626h185.667V96.881H93.458zM216.19 223.317H37.478V110.019h178.711v113.298z" fill="#BECFE3" stroke="#4D5D71" stroke-miterlimit="10" stroke-linecap="round" stroke-linejoin="round"/><path d="M41.74 99.689l-2.58 2.47 2.693 2.919" fill="#BECFE3"/><path d="M41.74 99.689l-2.58 2.47 2.693 2.919m-2.693-2.919h5.722" stroke="#4D5D71" stroke-miterlimit="10" stroke-linecap="round" stroke-linejoin="round"/><path d="M56.325 99.689l2.468 2.47-2.58 2.919" fill="#BECFE3"/><path d="M56.325 99.689l2.468 2.47-2.58 2.919m2.58-2.919h-5.61" stroke="#4D5D71" stroke-miterlimit="10" stroke-linecap="round" stroke-linejoin="round"/><path d="M71.02 101.822c-.336-1.123-1.457-2.021-2.58-2.021-1.458 0-2.58 1.123-2.58 2.582 0 1.46 1.122 2.583 2.58 2.583.562 0 1.123-.225 1.571-.561" fill="#BECFE3"/><path d="M71.02 101.822c-.336-1.123-1.457-2.021-2.58-2.021-1.458 0-2.58 1.123-2.58 2.582 0 1.46 1.122 2.583 2.58 2.583.562 0 1.123-.225 1.571-.561" stroke="#4D5D71" stroke-miterlimit="10" stroke-linecap="round" stroke-linejoin="round"/><path d="M69.339 102.159h2.02v-2.358" fill="#BECFE3"/><path d="M69.339 102.159h2.02v-2.358m12.451-7.748l3.59 3.705m0-3.593l-3.702 3.593" stroke="#4D5D71" stroke-miterlimit="10" stroke-linecap="round" stroke-linejoin="round"/><path d="M79 102.864l69.989-14.604 16.996 9.438 21.833 103.883-84.36 17.704L79 102.864z" fill="#fff" stroke="#263238" stroke-width="1.306" stroke-miterlimit="10" stroke-linecap="round" stroke-linejoin="round"/><path d="M96.755 121.928l2.192-.42-1.332-6.974-2.192.42-.183-.957 5.571-1.068.183.958-2.192.419 1.332 6.974 2.192-.419.183.957-5.57 1.067-.184-.957zm6.473-9.46l1.232-.236 3.902 5.064 1.216 1.657.046-.009c-.211-.857-.494-1.843-.677-2.8l-.879-4.603 1.095-.21 1.698 8.888-1.233.236-3.901-5.064-1.216-1.657-.046.009c.22.903.494 1.842.668 2.754l.888 4.649-1.096.21-1.697-8.888zm7.622-1.46l1.232-.236 2.33 4.515c.52.987.914 1.809 1.425 2.75l.045-.008c.12-1.11.191-1.974.311-3.084l.501-5.057 1.187-.227-1.179 9.439-1.324.254-4.528-8.346zm9.058 2.848c-.549-2.872.545-4.83 2.554-5.214 2.009-.385 3.746 1.03 4.295 3.901.557 2.918-.528 4.921-2.537 5.306-2.009.385-3.764-1.122-4.312-3.993zm5.662-1.085c-.427-2.233-1.593-3.38-2.917-3.127-1.324.254-1.985 1.751-1.558 3.984.435 2.279 1.61 3.472 2.934 3.218s1.967-1.842 1.541-4.075zm3.772 2.917l2.192-.42-1.332-6.974-2.192.42-.183-.957 5.571-1.067.183.957-2.192.42 1.332 6.974 2.192-.42.183.957-5.571 1.067-.183-.957zm7.092-4.995c-.548-2.871.81-4.927 3.093-5.364 1.05-.201 2.014.134 2.675.621l-.5.852c-.553-.414-1.207-.619-1.938-.479-1.689.323-2.569 1.91-2.143 4.143.427 2.233 1.793 3.437 3.528 3.104.822-.157 1.391-.644 1.826-1.342l.77.561c-.528.952-1.355 1.583-2.496 1.801-2.237.429-4.258-.979-4.815-3.897zm7.964-6.108l5.525-1.058.183.957-4.383.84.531 2.78 3.698-.708.183.957-3.698.708.618 3.237 4.52-.866.183.957-5.662 1.085-1.698-8.889z" fill="#263238"/><path d="M163.36 178.847l-46.636 9.782m43.666-23.834l-46.636 9.713m43.666-23.836l-46.636 9.782m43.734-23.902l-46.705 9.782m43.731-23.836l-46.705 9.782" stroke="#263238" stroke-width="1.306" stroke-miterlimit="10" stroke-linecap="round" stroke-linejoin="round"/><path d="M151.131 102.038l13.472-2.824-15.959-8.818 2.487 11.642z" fill="#D1D3D4"/><path d="M196.337 224.813h0c-7.286 9.333-11.867 9.361-12.406 9.331h-.02 0-.001 0-.001 0-.001 0-.001 0-.001 0-.001 0-.001 0-.001 0-.001 0-.001 0-.001 0-.001 0-.001 0-.001 0-.001 0-.001 0-.001 0-.001 0-.002 0-.001 0-.001 0-.001 0-.002 0-.001 0-.002 0-.001 0-.001 0-.002 0-.002 0-.001 0-.002 0-.001 0-.002 0-.002 0-.002 0-.002 0-.002 0-.002 0-.002 0-.002 0-.002 0-.002 0-.003 0-.002 0-.003 0-.002 0-.003 0-.003 0-.003 0-.003 0-.004 0-.003 0-.004 0-.004 0-.005 0-.004 0-.006 0-.005 0-.007 0-.007 0-.009 0-.012 0-.02 0-.315c-1.386-.111-5.712-1.095-12.214-8.992a22.253 22.253 0 01-2.225-3.314 12.907 12.907 0 00-.192-.364l-.001-.003c-.068-.126-.133-.246-.187-.355h0l-.002-.003c-.681-1.323-1.25-2.724-1.745-4.168v-.001l-.115-.342c-.19-.571-.38-1.177-.531-1.743l-.002-.01-.004-.01a4.767 4.767 0 01-.178-.675l-.005-.027-.009-.026c-.032-.097-.057-.204-.087-.332l-.001-.008a4.531 4.531 0 00-.101-.381 6.068 6.068 0 01-.089-.359l-.001-.003c-.029-.123-.059-.254-.1-.397l-.009-.032-.013-.026-.001-.004-.001-.025-.001-.047v-.049l-.013-.047c-.035-.121-.061-.244-.09-.38l-.002-.005a6.004 6.004 0 00-.095-.401c-.021-.122-.051-.241-.077-.347l-.002-.006a4.007 4.007 0 01-.07-.313 4.932 4.932 0 00-.081-.403l-.001-.006a4.697 4.697 0 01-.068-.333c-.003-.08-.016-.145-.024-.187l-.002-.006a.4.4 0 01-.012-.085v-.024l-.004-.025a5.797 5.797 0 00-.156-.79 23.21 23.21 0 00-.133-.79v-.003c-.048-.27-.095-.532-.133-.793h.001l-.003-.013a13.717 13.717 0 01-.093-.634l-.001-.005c-.027-.207-.055-.423-.092-.633v0-.001 0-.001 0-.001 0-.001 0-.001h0v0-.001 0-.001 0-.001 0-.001 0-.001 0-.001 0-.001 0h0v-.001 0-.001 0-.001 0-.001 0-.001 0-.001 0-.001 0-.001h0v0-.001 0-.001 0-.001 0-.001 0-.001 0-.001 0-.001 0h0v0-.001 0-.001 0-.001 0-.001 0-.001 0-.001 0-.001 0-.001h0v0-.001 0-.001 0-.001 0-.001 0-.001 0-.001 0-.001 0h0v-.001 0-.001 0-.001 0-.001 0-.001 0-.001 0-.001 0-.001h0v0-.001 0-.001 0-.001 0-.001 0-.001 0-.001 0-.001 0h0v-.001 0-.001 0-.001 0-.001 0-.001 0-.001 0-.001 0-.001 0h0v0-.001 0-.001 0-.001 0-.001 0-.001 0-.001 0-.001 0h0v-.001 0-.001 0-.001 0-.001 0-.001 0-.001 0-.001 0-.001h0v0-.001 0-.001 0-.001 0-.016l-.001-.016c-.02-.218-.05-.444-.078-.662l-.001-.003a17.825 17.825 0 01-.075-.638h0l-.001-.007a75.113 75.113 0 01-.458-8.124c0-.695.603-1.228 1.315-1.149.09.02.175.031.242.039l.007.001c.08.01.136.017.189.031.195.049.386.049.531.048h.014c.051 0 .106.007.187.017l.007.001c.072.009.168.021.266.021.052 0 .107.006.187.016l.008.001c.069.009.159.02.254.021 1.856.115 3.381.001 4.57-.275.132-.022.249-.055.349-.083a2.772 2.772 0 01.265-.07l.031-.007.03-.011c.079-.032.161-.057.259-.086l.005-.002c.09-.027.195-.058.302-.1h.001c.104-.035.244-.082.388-.172a7.297 7.297 0 001.825-1.114l.001-.001c.234-.196.419-.355.578-.492.258-.222.444-.382.649-.535.316-.236.669-.445 1.391-.806h0l.003-.001c1.674-.855 3.577-1.304 5.523-1.342h.112c1.912 0 3.777.375 5.449 1.191h0l.004.002c.722.341 1.073.542 1.393.772.207.149.397.308.661.528.164.137.357.298.599.495l.002.001c1.639 1.31 4.515 2.305 10.059 1.414h.002c.704-.118 1.327.405 1.358 1.123.077 2.614.057 7.725-.792 13.217-.851 5.504-2.528 11.344-5.734 15.45z" fill="#5793DB" stroke="#263238" stroke-width=".7"/><mask id="path-83-inside-1_402_5009" fill="#fff"><path d="M183.683 234.954h-.307c-1.65-.115-6.178-1.226-12.778-9.274-.844-.996-1.612-2.184-2.303-3.449-.115-.23-.268-.498-.383-.728a36.863 36.863 0 01-1.804-4.292v-.038c-.038-.115-.077-.192-.115-.307-.192-.537-.345-1.111-.537-1.801-.077-.268-.154-.498-.192-.728l-.038-.115c-.039-.23-.115-.422-.154-.652-.077-.268-.115-.498-.192-.766 0-.077-.038-.153-.038-.23l-.115-.192c-.039-.191-.077-.421-.154-.613-.038-.23-.115-.46-.153-.69-.039-.23-.115-.498-.154-.728v-.038l-.038-.115c0-.038-.038-.115-.038-.153-.039-.23-.077-.499-.116-.728v-.039c-.076-.498-.191-1.073-.268-1.609-.077-.46-.115-.882-.192-1.303v-.115c-.038-.422-.115-.843-.154-1.265a73.904 73.904 0 01-.46-8.201c0-.575.269-1.111.691-1.494.422-.384.959-.537 1.535-.46h.038l.153.038c.116 0 .192.038.307.038h.039c.115 0 .23.039.345.039l.307.038a.66.66 0 01.269.038c.115 0 .192 0 .307.039h.153c1.65.115 3.147.038 4.375-.23.23-.039.422-.115.614-.153.192-.077.384-.115.537-.192l.345-.115c.614-.268 1.19-.575 1.65-.996.192-.192.384-.307.538-.46.729-.613.997-.882 2.225-1.495a12.763 12.763 0 015.871-1.418h.115a12.72 12.72 0 015.795 1.265c1.228.613 1.535.843 2.264 1.456.153.115.345.268.537.422 1.919 1.533 5.104 1.954 9.401 1.264.576-.076 1.152.077 1.574.422.422.383.69.92.729 1.456.153 5.978-.269 20.771-6.754 29.125-7.291 9.35-12.087 9.695-13.047 9.657-.076-.115-.153-.115-.23-.115zm-18.688-39.28a.927.927 0 00-.69.268 1.076 1.076 0 00-.384.805c0 1.839.077 4.752.46 8.086.039.421.077.843.154 1.264v.115c.038.422.115.882.192 1.303.077.537.153 1.073.268 1.572v.038c.039.23.077.46.116.728l.038.307c.038.268.115.498.153.728.039.23.077.46.154.69.038.191.077.421.153.613l.039.191c0 .077.038.115.038.192.077.268.115.536.192.766.038.23.115.422.153.652l.039.076c.077.23.115.499.192.729.192.689.383 1.226.537 1.762.038.115.077.192.115.269v.038a35.084 35.084 0 001.727 4.177c.115.23.23.498.384.728a18.992 18.992 0 002.225 3.296c6.409 7.779 10.63 8.852 12.164 8.967h.499c.499.039 5.066 0 12.318-9.312 6.485-8.354 6.677-23.951 6.562-28.55a1.08 1.08 0 00-.384-.805 1.103 1.103 0 00-.844-.23c-4.605.728-7.982.269-10.131-1.456a3.317 3.317 0 01-.537-.46c-.729-.575-.959-.766-2.072-1.341a12.497 12.497 0 00-5.334-1.188h-.192c-1.957.038-3.837.498-5.487 1.341-1.113.575-1.343.767-2.034 1.38a5.004 5.004 0 00-.537.46c-.537.46-1.19.843-1.88 1.149-.115.039-.231.115-.384.154-.192.076-.384.115-.614.191-.192.077-.422.115-.652.154-1.305.306-2.878.383-4.643.268h-.154c-.115 0-.192 0-.307-.038-.077 0-.192 0-.269-.039l-.307-.038c-.115 0-.23-.038-.345-.038h-.038c-.115 0-.231-.039-.307-.039h-.192c-.038.077-.077.077-.154.077z"/></mask><path d="M183.683 234.954h-.307c-1.65-.115-6.178-1.226-12.778-9.274-.844-.996-1.612-2.184-2.303-3.449-.115-.23-.268-.498-.383-.728a36.863 36.863 0 01-1.804-4.292v-.038c-.038-.115-.077-.192-.115-.307-.192-.537-.345-1.111-.537-1.801-.077-.268-.154-.498-.192-.728l-.038-.115c-.039-.23-.115-.422-.154-.652-.077-.268-.115-.498-.192-.766 0-.077-.038-.153-.038-.23l-.115-.192c-.039-.191-.077-.421-.154-.613-.038-.23-.115-.46-.153-.69-.039-.23-.115-.498-.154-.728v-.038l-.038-.115c0-.038-.038-.115-.038-.153-.039-.23-.077-.499-.116-.728v-.039c-.076-.498-.191-1.073-.268-1.609-.077-.46-.115-.882-.192-1.303v-.115c-.038-.422-.115-.843-.154-1.265a73.904 73.904 0 01-.46-8.201c0-.575.269-1.111.691-1.494.422-.384.959-.537 1.535-.46h.038l.153.038c.116 0 .192.038.307.038h.039c.115 0 .23.039.345.039l.307.038a.66.66 0 01.269.038c.115 0 .192 0 .307.039h.153c1.65.115 3.147.038 4.375-.23.23-.039.422-.115.614-.153.192-.077.384-.115.537-.192l.345-.115c.614-.268 1.19-.575 1.65-.996.192-.192.384-.307.538-.46.729-.613.997-.882 2.225-1.495a12.763 12.763 0 015.871-1.418h.115a12.72 12.72 0 015.795 1.265c1.228.613 1.535.843 2.264 1.456.153.115.345.268.537.422 1.919 1.533 5.104 1.954 9.401 1.264.576-.076 1.152.077 1.574.422.422.383.69.92.729 1.456.153 5.978-.269 20.771-6.754 29.125-7.291 9.35-12.087 9.695-13.047 9.657-.076-.115-.153-.115-.23-.115zm-18.688-39.28a.927.927 0 00-.69.268 1.076 1.076 0 00-.384.805c0 1.839.077 4.752.46 8.086.039.421.077.843.154 1.264v.115c.038.422.115.882.192 1.303.077.537.153 1.073.268 1.572v.038c.039.23.077.46.116.728l.038.307c.038.268.115.498.153.728.039.23.077.46.154.69.038.191.077.421.153.613l.039.191c0 .077.038.115.038.192.077.268.115.536.192.766.038.23.115.422.153.652l.039.076c.077.23.115.499.192.729.192.689.383 1.226.537 1.762.038.115.077.192.115.269v.038a35.084 35.084 0 001.727 4.177c.115.23.23.498.384.728a18.992 18.992 0 002.225 3.296c6.409 7.779 10.63 8.852 12.164 8.967h.499c.499.039 5.066 0 12.318-9.312 6.485-8.354 6.677-23.951 6.562-28.55a1.08 1.08 0 00-.384-.805 1.103 1.103 0 00-.844-.23c-4.605.728-7.982.269-10.131-1.456a3.317 3.317 0 01-.537-.46c-.729-.575-.959-.766-2.072-1.341a12.497 12.497 0 00-5.334-1.188h-.192c-1.957.038-3.837.498-5.487 1.341-1.113.575-1.343.767-2.034 1.38a5.004 5.004 0 00-.537.46c-.537.46-1.19.843-1.88 1.149-.115.039-.231.115-.384.154-.192.076-.384.115-.614.191-.192.077-.422.115-.652.154-1.305.306-2.878.383-4.643.268h-.154c-.115 0-.192 0-.307-.038-.077 0-.192 0-.269-.039l-.307-.038c-.115 0-.23-.038-.345-.038h-.038c-.115 0-.231-.039-.307-.039h-.192c-.038.077-.077.077-.154.077z" fill="#5793DB" stroke="#263238" stroke-width="1.4" mask="url(#path-83-inside-1_402_5009)"/><path d="M184.101 221.963a2.556 2.556 0 01-1.804-.728l-8.634-8.508a2.578 2.578 0 01-.038-3.602 2.586 2.586 0 013.607-.038l6.523 6.399 10.476-14.447c.806-1.15 2.418-1.38 3.569-.575 1.151.805 1.381 2.415.576 3.564l-12.203 16.824a2.405 2.405 0 01-1.842 1.034c-.115.077-.192.077-.23.077z" fill="#fff"/><path d="M184.064 222.384a2.967 2.967 0 01-2.072-.843l-8.634-8.507a3.005 3.005 0 01-.038-4.216 3.014 3.014 0 014.221-.038l6.178 6.055 10.169-14.026a2.855 2.855 0 011.957-1.188 3.098 3.098 0 012.226.536 2.855 2.855 0 011.189 1.955 3.086 3.086 0 01-.537 2.223l-12.203 16.823a3.027 3.027 0 01-2.149 1.226h-.307zm-8.633-13.566c-.538 0-1.075.192-1.497.613-.806.844-.806 2.185.038 2.99l8.634 8.507c.384.383.921.613 1.497.613h.192a2.061 2.061 0 001.535-.881l12.202-16.824c.346-.459.461-.996.384-1.571-.077-.575-.384-1.035-.844-1.379a2.128 2.128 0 00-1.574-.384c-.575.077-1.036.384-1.381.843l-10.476 14.448c-.077.115-.192.153-.307.192a.624.624 0 01-.345-.115l-6.524-6.4a2.123 2.123 0 00-1.534-.652z" fill="#5793DB"/><path d="M190.734 326.02l-31.084-60.581-89.715 48.692 31.211 57.292 89.588-45.403z" fill="#fff"/><path d="M153.079 281.881l-17.943 44.898-64.822-12.395 60.147 5.565 20.217-38.7 2.401.632z" fill="#FFC01E"/><path d="M70.314 314.005l30.832 57.418 89.587-45.403-31.463-60.201-88.956 48.186z" stroke="#263238" stroke-miterlimit="10" stroke-linecap="round" stroke-linejoin="round"/><path d="M70.314 314.005l60.147 5.944 28.809-54.13" stroke="#263238" stroke-miterlimit="10" stroke-linecap="round" stroke-linejoin="round"/><path d="M156.111 281.628c7.328 0 13.268-5.946 13.268-13.28s-5.94-13.279-13.268-13.279c-7.327 0-13.267 5.945-13.267 13.279s5.94 13.28 13.267 13.28z" fill="#FFC01E"/><path opacity=".3" d="M156.111 281.628c7.328 0 13.268-5.946 13.268-13.28s-5.94-13.279-13.268-13.279c-7.327 0-13.267 5.945-13.267 13.279s5.94 13.28 13.267 13.28z" fill="#000"/><path d="M156.111 282.007c7.328 0 13.268-5.945 13.268-13.279s-5.94-13.28-13.268-13.28c-7.327 0-13.267 5.946-13.267 13.28s5.94 13.279 13.267 13.279z" stroke="#263238" stroke-miterlimit="10" stroke-linecap="round" stroke-linejoin="round"/><path d="M156.111 278.34c7.328 0 13.268-5.946 13.268-13.28s-5.94-13.279-13.268-13.279c-7.327 0-13.267 5.945-13.267 13.279s5.94 13.28 13.267 13.28z" fill="#FFC01E"/><path d="M156.111 278.34c7.328 0 13.268-5.946 13.268-13.28s-5.94-13.279-13.268-13.279c-7.327 0-13.267 5.945-13.267 13.279s5.94 13.28 13.267 13.28z" stroke="#263238" stroke-miterlimit="10" stroke-linecap="round" stroke-linejoin="round"/><path d="M394.724 229.522h-91.02c-3.082 0-5.439-2.36-5.439-5.445v-50.633c0-3.085 2.357-5.444 5.439-5.444h91.02c3.083 0 5.44 2.359 5.44 5.444v50.633c0 2.904-2.539 5.445-5.44 5.445z" fill="#fff"/><path d="M394.724 229.522h-91.02c-3.082 0-5.439-2.36-5.439-5.445v-50.633c0-3.085 2.357-5.444 5.439-5.444h91.02c3.083 0 5.44 2.359 5.44 5.444v50.633c0 2.904-2.539 5.445-5.44 5.445z" stroke="#263238" stroke-miterlimit="10" stroke-linecap="round" stroke-linejoin="round"/><path d="M388.917 177.115h-84.661v4.305h84.661v-4.305zm-8.61 10.045h-76.051v4.305h76.051v-4.305zm-7.174 10.045h-68.877v4.304h68.877v-4.304zm11.479 8.609h-80.356v4.305h80.356v-4.305zm1.435 10.045h-81.791v4.304h81.791v-4.304z" fill="#5793DB"/><path d="M294.347 221.427c-10.109 5.565-19.585 12.015-27.672 20.109-18.954 18.845-28.305 45.024-41.698 68.042-13.773 23.524-32.222 44.392-53.955 60.96-22.366 17.074-48.901 29.721-77.078 31.745-28.178 2.023-57.872-7.715-76.194-29.089-18.322-21.374-22.871-54.763-7.329-78.286 12.762-19.098 38.034-29.342 60.778-24.283 8.845 2.023 17.185 5.944 25.272 9.991 4.169 2.024 8.339 4.047 12.635 6.197" stroke="#263238" stroke-miterlimit="10" stroke-linecap="round" stroke-linejoin="round" stroke-dasharray="2 5"/><path d="M371.5 46.949c0 25.657-20.599 46.449-46 46.449s-46-20.792-46-46.45C279.5 21.292 300.099.5 325.5.5s46 20.791 46 46.449z" fill="#fff" stroke="#090909"/><path d="M300.636 27.068l24.516 19.388.322.255.313-.266 13.514-11.532.228.27-14.043 12.038-25.071-19.871.221-.282z" fill="#090909" stroke="#090909"/></svg>