<svg width="164" height="24" fill="none" xmlns="http://www.w3.org/2000/svg"><path fill="#fff" d="M0 0h32v24H0z"/><path d="M19.604 5.76h-7.21v12.958h7.21V5.761z" fill="#FF5F00"/><path d="M12.853 12.24A8.227 8.227 0 0116 5.763a8.241 8.241 0 100 12.957 8.225 8.225 0 01-3.147-6.478z" fill="#EB001B"/><path d="M29.333 12.24A8.24 8.24 0 0116 18.72a8.241 8.241 0 000-12.958 8.24 8.24 0 0113.333 6.479z" fill="#F79E1B"/><path fill="#fff" d="M44 0h32v24H44z"/><path d="M59.893 8.126l-1.47 6.871h-1.778l1.47-6.871h1.778zm7.479 4.437l.936-2.58.538 2.58h-1.474zm1.984 2.434H71l-1.436-6.871h-1.516a.81.81 0 00-.758.503l-2.667 6.368h1.867l.37-1.026h2.28l.216 1.026zm-4.64-2.243c.007-1.814-2.507-1.914-2.49-2.725.005-.246.24-.508.753-.575.255-.033.957-.06 1.753.307l.312-1.457A4.79 4.79 0 0063.38 8c-1.758 0-2.994.933-3.004 2.271-.01.99.883 1.541 1.556 1.87.693.338.925.553.922.854-.005.461-.553.666-1.063.673-.894.014-1.413-.241-1.826-.434l-.322 1.506c.416.19 1.182.356 1.976.365 1.868 0 3.09-.923 3.096-2.351zm-7.363-4.628l-2.88 6.871h-1.88l-1.417-5.484c-.086-.337-.161-.461-.422-.604-.428-.232-1.133-.449-1.754-.584l.042-.2h3.025c.385 0 .732.257.82.7l.749 3.977 1.85-4.676h1.867z" fill="#1434CB"/><path fill="#fff" d="M88 0h32v24H88z"/><path d="M117.334 17.731a4.147 4.147 0 01-4.141 4.14H90.667V5.473a4.146 4.146 0 014.14-4.14h22.527v16.398z" fill="#fff"/><path d="M111.514 2.719a2.966 2.966 0 00-2.966 2.966v3.081h4.189c.097 0 .212 0 .293.016.945.05 1.646.538 1.646 1.386 0 .668-.472 1.239-1.353 1.353v.032c.962.065 1.696.603 1.696 1.435 0 .896-.815 1.483-1.891 1.483h-4.597v6.031h4.352c1.63 0 2.967-1.32 2.967-2.967V2.72h-4.336z" fill="#05A551"/><path d="M109.998 13.526h1.712c.024 0 .065-.005.106-.009a1.31 1.31 0 01.106-.008.764.764 0 00.603-.766.791.791 0 00-.603-.766c-.049-.016-.147-.016-.212-.016h-1.712v1.565zm1.712-3.863c.326.048.603.31.603.7a.693.693 0 01-.603.701c-.017.017-.114.017-.163.017h-1.549V9.646h1.549c.027 0 .063.005.097.01.027.003.051.007.066.007z" fill="#05A551"/><path d="M95.116 2.719a2.967 2.967 0 00-2.967 2.966v7.319c.831.408 1.695.668 2.56.668 1.026 0 1.58-.62 1.58-1.467V8.75h2.543v3.439c0 1.337-.831 2.429-3.651 2.429-1.712 0-3.048-.375-3.048-.375v6.243h4.352c1.63 0 2.966-1.32 2.966-2.967V2.72h-4.335z" fill="#0A4EA1"/><path d="M103.316 2.719a2.966 2.966 0 00-2.966 2.966v3.88c.749-.636 2.053-1.043 4.156-.946 1.125.05 2.331.359 2.331.359v1.255c-.603-.31-1.32-.587-2.249-.652-1.598-.114-2.559.668-2.559 2.037 0 1.386.961 2.168 2.559 2.038.929-.065 1.646-.359 2.249-.652v1.255s-1.19.31-2.331.359c-2.103.098-3.407-.31-4.156-.946v6.846h4.352c1.63 0 2.966-1.32 2.966-2.966V2.719h-4.352z" fill="#EE1C24"/><path fill="#fff" d="M132 0h32v24h-32z"/><path d="M137.702 9.063l.461 1.151h-.92l.459-1.151zm10.633.693c-.093.057-.203.06-.334.06h-.819v-.642h.83c.118 0 .24.005.32.052.088.042.142.132.142.255 0 .126-.052.228-.139.275zm5.379-.693l.467 1.151h-.931l.464-1.151z" fill="#006FCF"/><path fill-rule="evenodd" clip-rule="evenodd" d="M136 12.027h1.153l.26-.641h.581l.26.641h2.267v-.49l.203.492h1.177l.202-.5v.498h5.636l-.002-1.052h.109c.076.002.098.01.098.138v.914h2.915v-.245c.235.13.601.245 1.082.245h1.226l.263-.641h.582l.256.641h2.363v-.609l.358.61h1.894V8h-1.874v.476L156.746 8h-1.923v.476L154.582 8h-2.597c-.435 0-.817.062-1.126.235V8h-1.792v.235c-.197-.178-.465-.235-.762-.235h-6.549l-.439 1.04-.452-1.04h-2.062v.476L138.576 8h-1.759L136 9.915v2.112zm10.04-.567h-2.254V8.573h2.254v.6h-1.579v.521h1.541v.592h-1.541v.577h1.579v.597zm-3.448 0h.691V8.573h-1.123l-.811 1.958-.883-1.958h-1.101v2.733l-1.147-2.733h-1.002l-1.208 2.887h.733l.261-.644h1.405l.259.644h1.372V9.197l.981 2.263h.592l.978-2.261.003 2.261zm6.625-2.11c0 .46-.3.699-.476.77a.782.782 0 01.334.243c.095.144.112.272.112.53v.567h-.681l-.002-.364v-.055c.002-.168.004-.383-.107-.508-.098-.101-.248-.123-.491-.123h-.724v1.05h-.675V8.573h1.552c.344 0 .598.009.816.138.214.129.342.317.342.64zm1.079 2.11h-.688V8.573h.688v2.887zm7.986 0h-.956l-1.279-2.167v2.167h-1.374l-.262-.644h-1.402l-.254.644h-.79c-.328 0-.743-.074-.978-.32-.237-.245-.36-.577-.36-1.102 0-.428.074-.82.363-1.129.219-.23.56-.336 1.025-.336h.653v.618h-.639c-.247 0-.386.038-.519.171-.115.122-.194.352-.194.654 0 .31.06.533.185.678.104.115.293.15.47.15h.303l.951-2.271h1.011l1.142 2.73v-2.73h1.027l1.186 2.01v-2.01h.691v2.887z" fill="#006FCF"/><path d="M150.889 14.789c.131 0 .243-.005.333-.06.088-.054.14-.153.14-.277 0-.124-.052-.213-.14-.26-.081-.05-.202-.052-.322-.052h-.83v.649h.819zm-5.538.203l1.036 1.176v-2.316l-1.036 1.14zm-3.297.837h1.658l.771-.848-.738-.841h-1.691v.525h1.481v.59h-1.481v.574zm5.005-.954h.872c.259 0 .42-.131.42-.381 0-.252-.169-.354-.413-.354h-.879v.735z" fill="#006FCF"/><path fill-rule="evenodd" clip-rule="evenodd" d="M160 16.061c-.164.245-.483.37-.915.37h-1.303v-.62h1.297c.129 0 .219-.017.273-.071a.257.257 0 00.08-.188.241.241 0 00-.082-.191c-.049-.045-.121-.065-.238-.065l-.126-.003c-.607-.017-1.298-.036-1.298-.89 0-.42.26-.86.968-.86H160v-.575h-1.248c-.377 0-.651.092-.845.236v-.236h-1.846c-.296 0-.642.075-.806.236v-.236h-3.298v.236c-.262-.194-.705-.236-.909-.236h-2.175v.236c-.208-.206-.67-.236-.951-.236h-2.434l-.557.617-.522-.617h-3.636v4.03h3.567l.574-.627.541.627 2.199.002v-.948h.217c.291.005.636-.007.939-.142v1.088h1.814v-1.05h.088c.111 0 .122.004.122.118v.932h5.511c.35 0 .715-.092.918-.258v.258h1.748c.364 0 .719-.052.989-.186v-.75zm-2.691-1.153c.132.139.202.314.202.611 0 .622-.379.912-1.06.912h-1.314v-.62h1.309c.128 0 .219-.017.276-.071a.26.26 0 00.079-.188.251.251 0 00-.082-.191c-.052-.045-.123-.065-.24-.065a26.496 26.496 0 00-.126-.003c-.605-.017-1.295-.036-1.295-.89 0-.42.257-.86.964-.86h1.353v.614h-1.238c-.123 0-.202.005-.27.053-.074.046-.101.116-.101.207a.22.22 0 00.147.215.76.76 0 00.263.033l.363.01c.366.01.617.074.77.232zm-5.679.18c.15.057.273.159.33.243.095.141.109.273.112.527v.573h-.677v-.416c.001-.17.003-.39-.109-.51-.099-.104-.249-.13-.495-.13h-.721v1.056h-.678v-2.889h1.557c.342 0 .591.016.812.137.213.131.347.312.347.641a.81.81 0 01-.478.768zm.852-1.545h2.251v.597h-1.579v.525h1.541v.59h-1.541v.574l1.579.002v.6h-2.251v-2.889zm-3.407.951c0 .802-.585.968-1.175.968h-.841v.969h-1.311l-.831-.956-.863.956h-2.672v-2.889h2.713l.83.947.858-.947h2.155c.536 0 1.137.152 1.137.952z" fill="#006FCF"/><path d="M158.771 14.157H160v.822l-.003-.004-.004-.005-.002-.003a.29.29 0 00-.054-.06c-.15-.158-.396-.223-.765-.232l-.366-.01a.746.746 0 01-.259-.033.217.217 0 01-.148-.215c0-.091.027-.16.099-.208.068-.047.15-.052.273-.052z" fill="#006FCF"/></svg>