<svg width="242" height="199" fill="none" xmlns="http://www.w3.org/2000/svg"><path d="M21.32 6.63L1.012 179.25a1.31 1.31 0 002.038 1.267l13.071-8.023c1.617-.985 3.725-.562 4.779 1.056l16.374 24.419 6.817-102.6L21.32 6.63z" fill="#EEE9E2" stroke="#2C3647" stroke-miterlimit="10" stroke-linecap="round" stroke-linejoin="round"/><path d="M21.18 10.922L2.838 174.885c-.21 1.619 1.616 2.604 2.881 1.689l9.558-7.037a4.509 4.509 0 016.465 1.196l11.173 17.03c.563.844 1.898.422 1.828-.633L21.742 10.922c0-.352-.563-.352-.563 0z" fill="#EEE9E2" stroke="#2C3647" stroke-miterlimit="10" stroke-linecap="round" stroke-linejoin="round"/><path d="M18.019 168.622c1.475 0 2.88.704 3.724 2.041l11.174 17.03c.562.844 1.897.422 1.827-.634l-1.616-21.533-15.39 3.026c.14 0 .21.07.28.07zM21.741 6.489l15.53 191.407 180.817-34.481-42.516-149.326-153.83-7.6z" fill="#EEE9E2" stroke="#2C3647" stroke-miterlimit="10" stroke-linecap="round" stroke-linejoin="round"/><path d="M30.104 10.64l10.682 177.123L210.851 156.8l-35.84-137.645-144.907-8.514z" fill="#fff" stroke="#2C3647" stroke-miterlimit="10" stroke-linecap="round" stroke-linejoin="round"/><path d="M40.506 97.83l8.082 83.952 154.534-28.148-14.336-63.123-148.28 7.319z" fill="#fff" stroke="#2C3647" stroke-miterlimit="10" stroke-linecap="round" stroke-linejoin="round"/><path d="M70.301 177.628l-2.53-27.022m26.211 22.8l-2.46-22.448m25.651 17.944l-2.881-17.944m26.776 13.863l-3.443-21.463m24.454 17.664l-2.952-20.9m23.121 17.17l-4.357-25.193" stroke="#2C3647" stroke-miterlimit="10" stroke-linecap="round" stroke-linejoin="round"/><path d="M26.24 8.67l147.999 8.023s14.406 43.207 28.742 67.626c14.336 24.418 38.019 22.8 38.019 22.8s-54.252 29.696-96.487 45.529c-43.992 16.467-82.08 19.423-82.08 19.423s-34.787-47.5-36.192-163.4z" fill="#fff" stroke="#2C3647" stroke-miterlimit="10" stroke-linecap="round" stroke-linejoin="round"/><path d="M43.175 1c-2.74 0-4.708 2.463-5.341 6.263l2.811.14c.422-2.18 1.335-3.588 2.53-3.588 1.476 0 3.092 2.322 3.092 5.7s-1.616 5.7-3.092 5.7a1.41 1.41 0 00-1.406 1.407 1.41 1.41 0 001.406 1.408c3.303 0 5.903-3.73 5.903-8.515C49.008 4.73 46.478 1 43.175 1z" fill="#fff" stroke="#2C3647" stroke-miterlimit="10"/><path d="M47.183 11.767c-.14.492-.28.985-.492 1.477m-7.519-7.248s1.054-3.8 4.146-3.59c2.46.142 4.498 3.8 4.146 7.671" stroke="#2C3647" stroke-width=".75" stroke-miterlimit="10" stroke-linecap="round" stroke-linejoin="round"/><path d="M67.56 2.266c-2.74 0-4.708 2.463-5.34 6.263l2.81.14c.422-2.18 1.336-3.588 2.53-3.588 1.476 0 3.092 2.322 3.092 5.7s-1.616 5.7-3.092 5.7a1.41 1.41 0 00-1.405 1.407 1.41 1.41 0 001.405 1.408c3.303 0 5.903-3.73 5.903-8.515s-2.6-8.515-5.903-8.515z" fill="#fff" stroke="#2C3647" stroke-miterlimit="10"/><path d="M71.64 13.033c-.141.492-.282.985-.493 1.478m-7.519-7.249s1.054-3.8 4.146-3.588c2.46.14 4.498 3.8 4.146 7.67" stroke="#2C3647" stroke-width=".75" stroke-miterlimit="10" stroke-linecap="round" stroke-linejoin="round"/><path d="M116.402 4.729c-2.74 0-4.708 2.463-5.341 6.263l2.811.14c.422-2.18 1.336-3.588 2.53-3.588 1.476 0 3.092 2.322 3.092 5.7s-1.616 5.7-3.092 5.7a1.41 1.41 0 00-1.405 1.407 1.41 1.41 0 001.405 1.408c3.303 0 5.903-3.73 5.903-8.515s-2.6-8.515-5.903-8.515z" fill="#fff" stroke="#2C3647" stroke-miterlimit="10"/><path d="M120.479 15.496c-.141.493-.281.985-.492 1.478m-7.521-7.248s1.054-3.8 4.146-3.589c2.46.141 4.498 3.8 4.146 7.67" stroke="#2C3647" stroke-width=".75" stroke-miterlimit="10" stroke-linecap="round" stroke-linejoin="round"/><path d="M141.279 5.785c-2.74 0-4.708 2.463-5.341 6.263l2.811.14c.422-2.18 1.336-3.588 2.53-3.588 1.476 0 3.092 2.322 3.092 5.7s-1.616 5.7-3.092 5.7a1.41 1.41 0 00-1.405 1.407 1.41 1.41 0 001.405 1.408c3.303 0 5.903-3.73 5.903-8.515s-2.6-8.515-5.903-8.515z" fill="#fff" stroke="#2C3647" stroke-miterlimit="10"/><path d="M145.284 16.552c-.141.492-.281.985-.492 1.477m-7.519-7.247s1.054-3.8 4.146-3.589c2.46.14 4.498 3.8 4.146 7.67" stroke="#2C3647" stroke-width=".75" stroke-miterlimit="10" stroke-linecap="round" stroke-linejoin="round"/><path d="M165.172 7.052c-2.74 0-4.708 2.463-5.34 6.263l2.811.14c.421-2.181 1.335-3.588 2.529-3.588 1.476 0 3.092 2.322 3.092 5.7 0 3.377-1.616 5.7-3.092 5.7a1.41 1.41 0 00-1.405 1.407 1.41 1.41 0 001.405 1.407c3.303 0 5.903-3.73 5.903-8.514 0-4.786-2.6-8.515-5.903-8.515z" fill="#fff" stroke="#2C3647" stroke-miterlimit="10"/><path d="M169.178 17.818c-.14.493-.281.985-.492 1.478m-7.517-7.248s1.054-3.8 4.146-3.59c2.459.141 4.497 3.8 4.146 7.671" stroke="#2C3647" stroke-width=".75" stroke-miterlimit="10" stroke-linecap="round" stroke-linejoin="round"/><path d="M198.129 84.46c-10.19-17.311-20.872-44.685-24.666-54.819L41.136 24.293c-.07 97.885 29.515 138.348 29.515 138.348s33.732-2.603 72.594-17.17c37.315-13.933 81.87-37.437 81.87-37.437s-14.337-1.971-26.986-23.574z" fill="#fff" stroke="#2C3647" stroke-miterlimit="10" stroke-linecap="round" stroke-linejoin="round"/><path d="M173.392 29.641L41.135 24.293c0 9.64.282 18.718.773 27.233l139.706-1.337c-3.584-8.585-6.535-16.185-8.222-20.548z" fill="#EEE9E2" stroke="#2C3647" stroke-miterlimit="10" stroke-linecap="round" stroke-linejoin="round"/><path d="M175.784 58.845l6.254-.21m-24.667.843l13.703-.493" stroke="#2C3647" stroke-width="3" stroke-miterlimit="10" stroke-linecap="round" stroke-linejoin="round"/><path d="M135.165 60.252l17.569-.633m-40.269 1.407l18.764-.633M90.61 61.73l17.217-.562M67.56 62.504l17.217-.563m-37.525 1.267l16.022-.563M44.65 78.337L190.19 69.4M67.63 77.07s2.39 38.775 27.9 81.771m-4.428-83.318s2.67 44.333 30.64 76.774m-9.346-78.111s1.406 40.814 32.818 70.159m-10.823-71.074s3.443 45.389 33.872 61.363m-10.75-63.193s2.459 34.341 33.591 53.13m-15.393-54.256s8.363 35.186 31.835 46.586M47.813 98.323l148.701-16.397M51.677 115.844s31.765-1.266 151.723-23.363M57.3 134.352s30.922 3.519 152.075-35.115m-145.398 51.3s25.79 8.515 152.425-45.741" stroke="#2C3647" stroke-miterlimit="10" stroke-linecap="round" stroke-linejoin="round"/><path d="M98.269 43.434L50.622 42.8c-.773 0-1.475-.633-1.545-1.407l-.422-3.87c-.07-.915.632-1.76 1.616-1.76l47.084.845c.703 0 1.335.492 1.476 1.196l.984 3.66c.281.984-.492 1.97-1.546 1.97z" fill="#fff"/></svg>