<svg width="16" height="16" fill="none" xmlns="http://www.w3.org/2000/svg"><path fill="#FFC01E" d="M0 0h16v16H0z"/><path d="M12.182 10.472v1.105h2.485V4.333h-2.551v3.835c0 .413-.157.773-.404 1.08-.247.307-.607.46-1.079.46-.252 0-.456-.04-.61-.122a.984.984 0 01-.37-.338 1.32 1.32 0 01-.19-.49 3.235 3.235 0 01-.049-.575v-3.85H6.696L0 8.513v3.064s6.696-4.517 6.696-4.18V8.73c0 .365.052.722.156 1.072.105.35.275.662.51.936.237.274.545.497.923.67.38.172.843.259 1.393.259.285 0 .557-.034.815-.101.258-.067.494-.154.709-.26.214-.105.4-.23.56-.374.159-.144.288-.297.42-.46z" fill="#090909"/></svg>