<svg width="33" height="32" fill="none" xmlns="http://www.w3.org/2000/svg"><g clip-path="url(#clip0_3007_3855)" fill="#fff"><path d="M23.232 25h-1.24c-.247 0-.495-.245-.495-.49 0-.244.248-.489.496-.489h1.239c.247 0 .495.245.495.49 0 .326-.165.489-.495.489zm-3.8 0H16.79c-.248 0-.495-.245-.495-.49 0-.244.247-.489.495-.489h2.643c.248 0 .496.245.496.49 0 .326-.248.489-.496.489zm-5.203 0h-2.643c-.248 0-.496-.245-.496-.49 0-.244.248-.489.495-.489h2.644c.247 0 .495.245.495.49 0 .326-.248.489-.495.489zm-5.204 0H7.786c-.248 0-.495-.245-.495-.49 0-.244.247-.489.495-.489h1.24c.247 0 .495.245.495.49 0 .326-.248.489-.496.489z"/><path d="M30.004 25h-6.772c-.248 0-.496-.245-.496-.49 0-.244.248-.489.496-.489h6.277V6.98H3.49v17.043h4.213c.247 0 .495.244.495.489 0 .244-.248.489-.495.489H2.996c-.248 0-.496-.245-.496-.49V6.49c0-.245.248-.49.496-.49h27.008c.248 0 .496.245.496.49v18.02c0 .327-.165.49-.496.49z"/><path d="M16.541 17.009c-.082 0-.247 0-.33-.082L2.665 6.897c-.165-.163-.248-.49-.082-.734.165-.163.495-.245.743-.081l13.215 9.785 13.216-9.785c.247-.164.495-.082.66.081.166.245.166.57-.082.734l-13.546 10.03c-.083 0-.165.082-.248.082z"/><path d="M2.996 25c-.166 0-.248-.081-.33-.163-.166-.163-.166-.49 0-.734l10.572-10.112c.165-.163.495-.163.743 0 .165.164.165.49 0 .734L3.326 24.92c-.083.081-.165.081-.33.081zm27.009 0c-.166 0-.248-.081-.33-.163L19.101 14.644c-.165-.163-.165-.49 0-.734.165-.163.495-.163.743 0l10.572 10.193c.166.163.166.49 0 .734-.165.163-.247.163-.413.163z"/></g><defs><clipPath id="clip0_3007_3855"><path fill="#fff" transform="translate(2.5 6)" d="M0 0h28v19H0z"/></clipPath></defs></svg>