<svg><symbol id="arrow2" xmlns="http://www.w3.org/2000/svg" viewBox="0 0 18 16" fill="none"><path d="M1 7a1 1 0 000 2V7zm16.707 1.707a1 1 0 000-1.414L11.343.929A1 1 0 109.93 2.343L15.586 8l-5.657 5.657a1 1 0 001.414 1.414l6.364-6.364zM1 9h16V7H1v2z" fill="currentColor"/></symbol><symbol id="arrow" viewBox="0 0 18 8" fill="none" xmlns="http://www.w3.org/2000/svg"><path d="M1 3.355a.5.5 0 000 1v-1zm16.354.854a.5.5 0 000-.708L14.172.32a.5.5 0 10-.708.708l2.829 2.828-2.829 2.828a.5.5 0 10.708.708l3.182-3.182zM1 4.355h16v-1H1v1z" fill="currentColor"/></symbol><symbol id="email" viewBox="0 0 29 19" fill="none" xmlns="http://www.w3.org/2000/svg"><path d="M21.232 19h-1.24c-.247 0-.495-.245-.495-.49 0-.244.248-.489.496-.489h1.239c.247 0 .495.245.495.49 0 .326-.165.489-.495.489zm-3.8 0H14.79c-.248 0-.495-.245-.495-.49 0-.244.247-.489.495-.489h2.643c.248 0 .496.245.496.49 0 .326-.248.489-.496.489zm-5.203 0H9.586c-.248 0-.496-.245-.496-.49 0-.244.248-.489.496-.489h2.643c.247 0 .495.245.495.49 0 .326-.248.489-.495.489zm-5.204 0H5.786c-.248 0-.495-.245-.495-.49 0-.244.247-.489.495-.489h1.24c.247 0 .495.245.495.49 0 .326-.248.489-.496.489z" fill="currentColor"/><path d="M28.004 19h-6.772c-.248 0-.496-.245-.496-.49 0-.244.248-.489.496-.489h6.277V.98H1.49v17.043h4.213c.247 0 .495.244.495.489 0 .244-.248.489-.495.489H.996C.748 19 .5 18.755.5 18.51V.49C.5.244.748 0 .996 0h27.008c.248 0 .496.245.496.49v18.02c0 .327-.165.49-.496.49z" fill="currentColor"/><path d="M14.541 11.009c-.082 0-.248 0-.33-.082L.665.897C.5.734.417.407.583.163c.165-.163.495-.245.743-.081l13.215 9.785L27.757.082c.247-.164.495-.082.66.081.166.245.166.57-.082.734l-13.546 10.03c-.082 0-.165.082-.248.082z" fill="currentColor"/><path d="M.996 19c-.166 0-.248-.081-.33-.163-.166-.163-.166-.49 0-.734L11.237 7.991c.165-.163.495-.163.743 0 .165.164.165.49 0 .734L1.326 18.92c-.083.08-.165.08-.33.08zm27.009 0c-.166 0-.248-.081-.33-.163L17.101 8.644c-.165-.163-.165-.49 0-.734.165-.163.495-.163.743 0l10.572 10.193c.166.163.166.49 0 .734-.165.163-.247.163-.413.163z" fill="currentColor"/></symbol><symbol id="calendar" viewBox="0 0 32 32" fill="none" xmlns="http://www.w3.org/2000/svg"><path d="M29.573 11.38H2.487c-.244 0-.487-.162-.487-.487 0-.243.243-.486.487-.486h27.086c.244 0 .487.243.487.486 0 .325-.243.487-.487.487zM10.11 8.46H6.947c-1.054 0-1.946-.892-1.946-1.946v-.568C5 4.892 5.893 4 6.947 4h3.163c1.054 0 1.946.892 1.946 1.946v.568c.081 1.054-.81 1.946-1.946 1.946zM6.947 4.973c-.568 0-.973.406-.973.973v.568c0 .568.405.973.973.973h3.163c.568 0 .973-.405.973-.973v-.568c0-.567-.405-.973-.973-.973H6.947zM25.113 8.46H21.95c-1.054 0-1.946-.892-1.946-1.946v-.568c0-1.054.892-1.946 1.946-1.946h3.163c1.054 0 1.946.892 1.946 1.946v.568c0 1.054-.892 1.946-1.946 1.946zM21.95 4.973c-.568 0-.973.406-.973.973v.568c0 .568.405.973.973.973h3.163c.568 0 .973-.405.973-.973v-.568c0-.567-.405-.973-.973-.973H21.95z" fill="currentColor"/><path d="M28.357 28.086H3.703c-.892 0-1.703-.73-1.703-1.703V7.73c0-.892.73-1.703 1.703-1.703h1.784c.244 0 .487.244.487.487 0 .568.405.973.973.973h3.163c.568 0 .973-.405.973-.973 0-.243.243-.487.487-.487h8.84c.243 0 .486.244.486.487 0 .568.405.973.973.973h3.163c.567 0 .973-.405.973-.973 0-.243.243-.487.487-.487h1.784c.892 0 1.703.73 1.703 1.703v18.734c.08.892-.649 1.622-1.622 1.622zM3.703 7.001a.727.727 0 00-.73.73v18.733c0 .406.325.73.73.73h24.654c.405 0 .73-.324.73-.73V7.73a.727.727 0 00-.73-.73h-1.379c-.243.812-.973 1.46-1.865 1.46H21.95c-.892 0-1.703-.648-1.865-1.46h-7.948c-.243.812-.973 1.46-1.865 1.46H6.947c-.892 0-1.703-.648-1.946-1.46H3.703z" fill="currentColor"/><path d="M9.406 17.893h-2.92c-.243 0-.486-.244-.486-.487v-2.92c0-.243.243-.486.487-.486h2.92c.242 0 .486.243.486.487v2.92c0 .242-.162.486-.487.486zm-2.433-.974H8.92v-1.946H6.973v1.946zm10.326.974h-2.92c-.243 0-.486-.244-.486-.487v-2.92c0-.243.243-.486.486-.486h2.92c.243 0 .486.243.486.487v2.92c0 .242-.243.486-.486.486zm-2.433-.974h1.946v-1.946h-1.946v1.946zm10.326.974h-2.92c-.243 0-.487-.244-.487-.487v-2.92c0-.243.244-.486.487-.486h2.92c.243 0 .486.243.486.487v2.92c0 .242-.243.486-.486.486zm-2.515-.974h1.947v-1.946h-1.947v1.946zM9.406 23.893h-2.92c-.243 0-.486-.244-.486-.487v-2.92c0-.243.243-.486.487-.486h2.92c.242 0 .486.243.486.487v2.92c0 .242-.162.486-.487.486zm-2.433-.974H8.92v-1.946H6.973v1.947zm10.326.974h-2.92c-.243 0-.486-.244-.486-.487v-2.92c0-.243.243-.486.486-.486h2.92c.243 0 .486.243.486.487v2.92c0 .242-.243.486-.486.486zm-2.433-.974h1.946v-1.946h-1.946v1.947zm10.326.974h-2.92c-.243 0-.487-.244-.487-.487v-2.92c0-.243.244-.486.487-.486h2.92c.243 0 .486.243.486.487v2.92c0 .242-.243.486-.486.486zm-2.515-.974h1.947v-1.946h-1.947v1.947z" fill="currentColor"/></symbol><symbol id="server" viewBox="0 0 33 32" fill="none" xmlns="http://www.w3.org/2000/svg"><path d="M23.59 15.203c-.793 0-1.427.622-1.427 1.4 0 .778.634 1.4 1.426 1.4.792 0 1.426-.622 1.426-1.4.04-.778-.594-1.4-1.426-1.4zm0 1.867a.436.436 0 01-.436-.428.436.436 0 01.87 0c.08.233-.118.428-.435.428zm0 8.946c.791 0 1.425-.622 1.425-1.4 0-.778-.634-1.4-1.426-1.4-.792 0-1.426.622-1.426 1.4 0 .739.634 1.4 1.426 1.4zm0-1.867c.237 0 .435.195.435.428a.436.436 0 01-.871 0c0-.233.198-.428.435-.428z" fill="currentColor"/><path d="M28.5 5.284c0-.312-.277-.506-.555-.467-1.306.194-2.772.155-3.762-.7-.158-.156-.396-.156-.594-.04-1.148.74-2.455.973-3.802.74-.356-.039-.633.155-.633.467v.039H5.014c-.276 0-.514.272-.514.544v5.874a.52.52 0 00.515.505h9.03v1.09h-9.03a.52.52 0 00-.515.505v5.601c0 .312.238.506.515.506h9.03v1.362h-9.03a.52.52 0 00-.515.505v5.64a.52.52 0 00.515.506H26.48a.52.52 0 00.515-.506v-5.679a.52.52 0 00-.515-.505h-9.663v-1.362h9.663c.277 0 .515-.194.515-.466v-5.64a.52.52 0 00-.515-.506h-.04c1.07-1.09 1.585-1.712 1.822-2.879.278-1.05.238-2.412.238-5.134zm-8.277 6.923c.237.35.554.662.95 1.09h-4.396v-1.09h3.446zM5.49 6.334h13.664c0 2.45 0 3.812.435 4.901H5.49V6.334zm9.545 5.873h.752v1.09h-.752v-1.09zm10.97 14.743H5.49v-4.668h20.515v4.668zm-10.178-5.68h-.753v-1.36h.753v1.36zm10.178-2.333H5.49v-4.63h8.911c.08.04.198.04.277 0h1.426c.08.04.198.04.277 0h5.703l.238.234a.592.592 0 00.356.156h2.178c.12 0 .278-.039.357-.156l.238-.233h.475v4.629h.079zm1.307-8.713c-.238 1.089-.832 1.595-2.376 3.19l-.278.272h-1.703c-.118-.117-.198-.234-.277-.312-.633-.622-1.307-1.283-1.703-1.828-.04-.078-.079-.116-.119-.155-.237-.35-.356-.662-.475-1.128-.198-.934-.158-2.568-.158-4.357 1.307.117 2.534-.117 3.643-.778 1.07.74 2.416.856 3.683.74-.079 2.1-.04 3.461-.237 4.356z" fill="currentColor"/></symbol><symbol id="webform" viewBox="0 0 32 32" fill="none" xmlns="http://www.w3.org/2000/svg"><path d="M28.193 26.971H3.807c-1.57 0-2.893-1.26-2.893-2.94v-.757c0-.252.248-.504.496-.504h29.18c.248 0 .496.252.496.504v.756c0 1.597-1.323 2.941-2.893 2.941zM1.906 23.778v.252c0 1.009.827 1.849 1.819 1.849h24.468c.991 0 1.818-.84 1.818-1.849v-.252H1.906z" fill="currentColor"/><path d="M29.763 23.778H2.154c-.248 0-.496-.252-.496-.504V5.123c0-.589.496-1.009.992-1.009h26.617c.579 0 .992.42.992 1.009v18.15c0 .337-.165.505-.496.505zM2.65 22.77h26.617V5.123H2.65V22.77z" fill="currentColor"/><path d="M27.2 21.677H4.718c-.58 0-.992-.42-.992-1.008V7.308c0-.589.413-1.009.992-1.009H27.2c.58 0 .992.42.992 1.009v13.361c0 .504-.413 1.008-.991 1.008zM4.718 7.307V20.67H27.2V7.308H4.716z" fill="currentColor"/><path d="M7.071 9.858h10.343a.44.44 0 100-.88H7.071a.44.44 0 100 .88zm5.286 2.198H7.072a.44.44 0 100 .88h5.287a.44.44 0 100-.88zm0 2.858H7.072a.44.44 0 100 .88h5.287a.44.44 0 100-.88zm0 2.859H7.072a.44.44 0 100 .88h5.287a.44.44 0 100-.88z" fill="currentColor"/></symbol><symbol id="invoice" viewBox="0 0 32 32" fill="none" xmlns="http://www.w3.org/2000/svg"><path d="M11.071 12.858h10.344a.44.44 0 100-.88H11.07a.44.44 0 100 .88zm5.287 2.198H11.07a.44.44 0 100 .88h5.287a.44.44 0 100-.88zm0 2.858H11.07a.44.44 0 100 .88h5.287a.44.44 0 100-.88zm0 2.859H11.07a.44.44 0 100 .88h5.287a.44.44 0 100-.88z" fill="currentColor"/><path d="M28.249 19.124a5.232 5.232 0 00-1.777-3.928V9.331a.432.432 0 00-.031-.152l-.009-.019a.467.467 0 00-.028-.052l-.011-.018a.457.457 0 00-.05-.061l-5.9-5.9a.393.393 0 00-.06-.05l-.019-.012a.45.45 0 00-.145-.058.5.5 0 00-.077-.008L20.132 3H7.343a.44.44 0 00-.44.44v21.658H4.54c-.017 0-.033 0-.05.003a.44.44 0 00-.49.437A3.467 3.467 0 007.464 29H23.01a3.467 3.467 0 003.463-3.463v-2.485a5.229 5.229 0 001.777-3.928zm-.88 0a4.365 4.365 0 01-4.36 4.36 4.366 4.366 0 01-4.361-4.36 4.365 4.365 0 014.36-4.36 4.366 4.366 0 014.362 4.36zM20.573 4.502l.673.672L24.97 8.9h-4.398V4.502zM7.463 28.12a2.588 2.588 0 01-2.545-2.144h14.656a3.46 3.46 0 001.132 2.144H7.463zm18.129-2.584a2.586 2.586 0 01-2.583 2.583 2.587 2.587 0 01-2.583-2.583.44.44 0 00-.44-.44H7.782V3.879h11.91v5.46c0 .243.197.44.44.44h5.46v4.789a5.207 5.207 0 00-2.583-.684c-2.89 0-5.24 2.35-5.24 5.24s2.35 5.24 5.24 5.24c.939 0 1.82-.25 2.583-.684v1.857z" fill="currentColor"/><path d="M23.194 18.766c-.27-.113-.453-.22-.55-.319a.544.544 0 01-.142-.396c0-.178.044-.32.135-.425.09-.105.236-.158.438-.158.191 0 .34.063.447.188.106.126.159.306.159.54h.918l.007-.017c.006-.397-.1-.72-.32-.968-.219-.248-.521-.398-.908-.453v-.699h-.512v.69c-.401.04-.719.177-.953.407-.235.231-.351.527-.351.89 0 .393.116.698.35.915.235.216.594.407 1.08.57.257.098.436.2.538.306.1.107.15.248.15.425a.56.56 0 01-.157.421c-.105.103-.263.154-.473.154a.765.765 0 01-.524-.175c-.133-.117-.2-.313-.2-.588h-.915l-.01.019c-.008.459.12.808.385 1.044.266.238.604.375 1.017.41v.635h.512v-.634c.404-.04.722-.174.955-.398.233-.224.35-.523.35-.896 0-.39-.118-.699-.354-.923-.239-.22-.595-.41-1.072-.565z" fill="currentColor"/></symbol><symbol id="chat" viewBox="0 0 33 32" fill="none" xmlns="http://www.w3.org/2000/svg"><path d="M2.142 19.635c-.085 0-.171 0-.257-.086-.172-.086-.258-.344-.258-.516l.43-4.123c0-.344 0-.773-.172-1.117-.43-.773-.602-1.632-.602-2.491C1.283 7.264 5.75 4 11.334 4c5.584 0 10.051 3.264 10.051 7.302 0 4.037-4.467 7.302-10.05 7.302a13.88 13.88 0 01-4.983-.945 2.208 2.208 0 00-2.062.258l-1.804 1.546c-.086.086-.258.172-.344.172zM11.334 5.03c-4.982 0-9.02 2.835-9.02 6.27 0 .688.172 1.375.516 1.977.257.515.343 1.116.343 1.718l-.343 2.92.945-.687a3.088 3.088 0 013.092-.43c1.375.602 2.92.86 4.553.86 4.982 0 9.02-2.835 9.02-6.271-.086-3.522-4.123-6.357-9.106-6.357z" fill="currentColor"/><path d="M6.867 12.59a1.203 1.203 0 100-2.405 1.203 1.203 0 000 2.405zm4.381 0a1.203 1.203 0 100-2.405 1.203 1.203 0 000 2.405zm4.467 0a1.203 1.203 0 100-2.405 1.203 1.203 0 000 2.405zm10.137 9.192a1.203 1.203 0 100-2.405 1.203 1.203 0 000 2.405zm-4.382 0a1.203 1.203 0 100-2.405 1.203 1.203 0 000 2.405zm-4.38 0a1.203 1.203 0 100-2.405 1.203 1.203 0 000 2.405z" fill="currentColor"/><path d="M30.577 28.74c-.086 0-.258 0-.344-.085l-1.89-1.46c-.601-.43-1.374-.602-2.061-.259a13.533 13.533 0 01-4.983.945c-5.584 0-10.05-3.264-10.05-7.302 0-.859.257-1.803.686-2.663a.472.472 0 01.43-.257c3.35-.258 6.185-1.89 7.302-4.038a.472.472 0 01.43-.258c.429 0 .858-.085 1.202-.085 5.584 0 10.05 3.264 10.05 7.301 0 .86-.17 1.633-.6 2.406-.172.343-.258.773-.172 1.117l.43 4.123c0 .172-.087.43-.258.515h-.172zm-3.436-3.092c.687 0 1.374.258 1.89.687l.944.687-.343-2.835c-.086-.6.086-1.116.343-1.718.344-.687.516-1.288.516-1.976 0-3.436-4.038-6.27-9.02-6.27h-.86c-1.374 2.319-4.294 3.951-7.73 4.38-.258.602-.43 1.29-.43 1.89 0 3.437 4.037 6.272 9.02 6.272 1.632 0 3.178-.344 4.553-.86a2.646 2.646 0 011.117-.257zm3.779-10.91c-.086 0-.257 0-.343-.086-.258-.171-.516-.43-.773-.601-.258-.172-.344-.515-.172-.687.172-.258.515-.344.687-.172.344.172.601.43.86.601.257.172.257.516.085.773 0 .086-.172.172-.344.172zm-2.834-1.718c-.086 0-.172 0-.172-.086-.688-.258-1.375-.515-2.062-.687-.258-.086-.43-.344-.343-.602.085-.257.343-.43.6-.343.774.171 1.547.43 2.234.773.258.086.344.43.258.687-.086.172-.258.258-.515.258zm-4.382-1.203c-.343 0-.687-.085-1.03-.085-.258 0-.516-.258-.516-.516s.258-.515.516-.515c.343 0 .687.085 1.03.085.258 0 .516.258.43.602.086.258-.172.43-.43.43z" fill="currentColor"/></symbol><symbol id="smallarrow" viewBox="0 0 10 6" fill="none" xmlns="http://www.w3.org/2000/svg"><path d="M1 1l4 4 4-4" stroke="currentColor" stroke-width="2" stroke-linecap="round" stroke-linejoin="round"/></symbol><symbol id="chat2" viewBox="0 0 24 24" fill="none" xmlns="http://www.w3.org/2000/svg"><path d="M21 15a2 2 0 01-2 2H7l-4 4V5a2 2 0 012-2h14a2 2 0 012 2v10z" stroke="currentColor" stroke-width="2" stroke-linecap="round" stroke-linejoin="round"/></symbol><symbol id="registration" viewBox="0 0 24 24" fill="none" xmlns="http://www.w3.org/2000/svg"><path d="M14 2H6a2 2 0 00-2 2v16a2 2 0 002 2h12a2 2 0 002-2V8l-6-6z" stroke="currentColor" stroke-width="2" stroke-linecap="round" stroke-linejoin="round"/><path d="M14 2v6h6m-4 5H8m8 4H8m2-8H8" stroke="currentColor" stroke-width="2" stroke-linecap="round" stroke-linejoin="round"/></symbol><symbol id="booking" viewBox="0 0 24 24" fill="none" xmlns="http://www.w3.org/2000/svg"><path d="M19 4H5a2 2 0 00-2 2v14a2 2 0 002 2h14a2 2 0 002-2V6a2 2 0 00-2-2zm-3-2v4M8 2v4m-5 4h18" stroke="currentColor" stroke-width="2" stroke-linecap="round" stroke-linejoin="round"/></symbol><symbol id="settings" viewBox="0 0 24 24" fill="none" xmlns="http://www.w3.org/2000/svg"><g clip-path="url(#clip0_399_3818)" stroke="currentColor" stroke-width="2" stroke-linecap="round" stroke-linejoin="round"><path d="M12 15a3 3 0 100-6 3 3 0 000 6z"/><path d="M19.4 15a1.65 1.65 0 00.33 1.82l.06.06a1.998 1.998 0 010 2.83 1.998 1.998 0 01-2.83 0l-.06-.06a1.65 1.65 0 00-1.82-.33 1.65 1.65 0 00-1 1.51V21a2 2 0 01-4 0v-.09A1.65 1.65 0 009 19.4a1.65 1.65 0 00-1.82.33l-.06.06a1.998 1.998 0 01-2.83 0 2 2 0 010-2.83l.06-.06a1.65 1.65 0 00.33-1.82 1.65 1.65 0 00-1.51-1H3a2 2 0 110-4h.09A1.65 1.65 0 004.6 9a1.65 1.65 0 00-.33-1.82l-.06-.06a2 2 0 112.83-2.83l.06.06a1.65 1.65 0 001.82.33H9a1.65 1.65 0 001-1.51V3a2 2 0 114 0v.09a1.65 1.65 0 001 1.51 1.65 1.65 0 001.82-.33l.06-.06a2 2 0 013.417 1.415 2 2 0 01-.587 1.415l-.06.06a1.65 1.65 0 00-.33 1.82V9a1.65 1.65 0 001.51 1H21a2 2 0 010 4h-.09a1.65 1.65 0 00-1.51 1z"/></g><defs><clipPath id="clip0_399_3818"><path fill="#fff" d="M0 0h24v24H0z"/></clipPath></defs></symbol><symbol id="card" viewBox="0 0 24 24" fill="none" xmlns="http://www.w3.org/2000/svg"><path d="M21 4H3a2 2 0 00-2 2v12a2 2 0 002 2h18a2 2 0 002-2V6a2 2 0 00-2-2zM1 10h22" stroke="currentColor" stroke-width="2" stroke-linecap="round" stroke-linejoin="round"/></symbol><symbol id="api" viewBox="0 0 24 24" fill="none" xmlns="http://www.w3.org/2000/svg"><path d="M18 8a3 3 0 100-6 3 3 0 000 6zM6 15a3 3 0 100-6 3 3 0 000 6zm12 7a3 3 0 100-6 3 3 0 000 6zm-9.41-8.49l6.83 3.98m-.01-10.98l-6.82 3.98" stroke="currentColor" stroke-width="2" stroke-linecap="round" stroke-linejoin="round"/></symbol></svg>