<svg width="168" height="63" fill="none" xmlns="http://www.w3.org/2000/svg"><g id="Logo"><g id="Page 1"><g id="logo up"><path id="Path 2" d="M8.077 0h15.346v51.619L8.077 62.269V0z" fill="#FFC01E"/><path id="uppointment. copy copy" d="M17.872 51.863v-1.844a6.304 6.304 0 01-.616.769 3.57 3.57 0 01-.822.624 5.05 5.05 0 01-1.04.432 4.197 4.197 0 01-1.196.168c-.805 0-1.486-.144-2.042-.432a3.951 3.951 0 01-1.354-1.117 4.394 4.394 0 01-.749-1.56 7.031 7.031 0 01-.23-1.79v-2.222c0-.563-9.823 6.972-9.823 6.972V46.75l9.823-6.972h3.989V46.2c0 .337.024.657.072.961.049.304.141.577.278.817.137.24.318.428.544.564.226.136.524.204.894.204.693 0 1.221-.256 1.584-.768a3.073 3.073 0 00.592-1.802v-6.398h3.742v12.085h-3.646zm20.304-6.215a7.5 7.5 0 01-.386 2.402 6.163 6.163 0 01-1.124 2.03 5.546 5.546 0 01-1.801 1.404c-.71.352-1.515.528-2.417.528a5.082 5.082 0 01-2.103-.444c-.66-.296-1.176-.7-1.547-1.213h-.048v7.085h-3.965V39.716h3.771v1.465h.073c.37-.48.882-.9 1.535-1.26.652-.36 1.422-.541 2.308-.541.87 0 1.66.168 2.369.504a5.34 5.34 0 011.8 1.37c.492.576.87 1.244 1.137 2.005.265.76.398 1.557.398 2.39zm-3.843 0a3.6 3.6 0 00-.181-1.129 2.925 2.925 0 00-.532-.972 2.687 2.687 0 00-.882-.685c-.355-.176-.766-.264-1.233-.264a2.68 2.68 0 00-1.208.264 2.883 2.883 0 00-.907.697c-.25.288-.443.616-.58.985a3.213 3.213 0 000 2.257c.137.368.33.696.58.985.25.288.552.52.907.696a2.68 2.68 0 001.208.264c.467 0 .878-.088 1.233-.264.354-.176.648-.408.882-.696.234-.289.411-.62.532-.997.12-.376.181-.757.181-1.14zm19.724 0a7.5 7.5 0 01-.387 2.402 6.163 6.163 0 01-1.124 2.03 5.546 5.546 0 01-1.8 1.404c-.71.352-1.515.528-2.418.528a5.082 5.082 0 01-2.103-.444c-.66-.296-1.176-.7-1.547-1.213h-.048v7.085h-3.964V39.716h3.77v1.465h.073c.37-.48.882-.9 1.535-1.26.653-.36 1.422-.541 2.308-.541.87 0 1.66.168 2.37.504a5.35 5.35 0 011.8 1.37 6.22 6.22 0 011.136 2.005c.266.76.399 1.557.399 2.39zm-3.843 0c0-.384-.06-.76-.182-1.129a2.925 2.925 0 00-.531-.972 2.687 2.687 0 00-.883-.685c-.354-.176-.765-.264-1.232-.264a2.68 2.68 0 00-1.209.264 2.883 2.883 0 00-.906.697c-.25.288-.444.616-.58.985a3.213 3.213 0 000 2.257c.136.368.33.696.58.985.25.288.551.52.906.696a2.68 2.68 0 001.209.264c.467 0 .878-.088 1.232-.264.355-.176.649-.408.883-.696.233-.289.41-.62.531-.997.121-.376.182-.757.182-1.14zm19.095 0c0 .977-.177 1.861-.532 2.654a5.95 5.95 0 01-1.45 2.017 6.647 6.647 0 01-2.127 1.285 7.262 7.262 0 01-2.587.456c-.902 0-1.76-.152-2.574-.456a6.478 6.478 0 01-2.127-1.285 6.032 6.032 0 01-1.438-2.017c-.355-.793-.532-1.677-.532-2.654 0-.977.177-1.857.532-2.642a5.935 5.935 0 011.438-1.993 6.263 6.263 0 012.127-1.249 7.654 7.654 0 012.574-.432 7.63 7.63 0 012.587.432 6.42 6.42 0 012.127 1.25 5.855 5.855 0 011.45 1.992c.355.785.532 1.666.532 2.642zm-3.82 0c0-.384-.064-.76-.193-1.129a2.825 2.825 0 00-1.45-1.657c-.354-.176-.765-.264-1.233-.264-.467 0-.878.088-1.232.264a2.687 2.687 0 00-.883.685c-.233.28-.41.604-.531.972a3.597 3.597 0 000 2.258c.12.368.302.7.544.997.241.296.54.532.894.708.354.176.765.264 1.233.264.467 0 .878-.088 1.232-.264.355-.176.653-.412.895-.708a3.09 3.09 0 00.543-.997c.121-.368.182-.745.182-1.129zm10.636-9.75c0 .304-.06.588-.181.852a2.2 2.2 0 01-.484.685 2.369 2.369 0 01-1.607.624c-.644 0-1.184-.212-1.62-.636a2.055 2.055 0 01-.652-1.525c0-.288.056-.565.17-.829.112-.264.273-.492.483-.684.21-.192.45-.349.725-.469a2.369 2.369 0 012.502.444 2.2 2.2 0 01.483.685c.12.264.181.549.181.853zm-4.254 15.778v-11.96h3.964v11.96h-3.964zm15.01 0v-6.532c0-.336-.028-.657-.084-.96a2.639 2.639 0 00-.278-.805 1.436 1.436 0 00-.544-.553c-.234-.136-.528-.204-.882-.204a2.01 2.01 0 00-.93.204 1.879 1.879 0 00-.666.565c-.177.24-.31.516-.398.828a3.546 3.546 0 00-.133.973v6.484h-3.989v-11.96h3.844v1.657h.048a3.95 3.95 0 01.568-.756c.234-.248.508-.46.822-.637.314-.176.656-.32 1.027-.432.37-.112.766-.168 1.184-.168.806 0 1.491.144 2.055.432.564.288 1.02.66 1.366 1.117.346.456.596.98.749 1.573.153.592.23 1.185.23 1.777v7.397h-3.99zM98.17 42.67v4.563c0 .56.11.98.327 1.261.217.28.608.42 1.172.42.193 0 .399-.016.616-.048.218-.032.399-.08.544-.144l.048 2.882a6.55 6.55 0 01-1.039.252 7.408 7.408 0 01-1.257.108c-.805 0-1.482-.1-2.03-.3-.548-.2-.987-.488-1.317-.864a3.383 3.383 0 01-.714-1.345 6.478 6.478 0 01-.217-1.741V42.67h-1.934v-2.954h1.91V36.57h3.891v3.146h2.828v2.954H98.17zm20.062 9.006v-6.532c0-.336-.024-.66-.072-.973a2.302 2.302 0 00-.266-.804 1.52 1.52 0 00-.52-.54c-.217-.137-.503-.205-.858-.205-.338 0-.632.072-.882.216-.25.144-.459.337-.628.577-.17.24-.295.516-.375.828a3.857 3.857 0 00-.121.973v6.46h-3.964v-6.82c0-.689-.137-1.233-.411-1.633-.274-.4-.709-.6-1.305-.6-.629 0-1.116.247-1.463.744-.346.496-.519 1.104-.519 1.825v6.484h-3.988v-11.96h3.843v1.657c.193-.256.374-.504.592-.744a3.42 3.42 0 01.786-.636 4.366 4.366 0 012.272-.612c.87-.001 1.607.175 2.211.527a3.624 3.624 0 011.414 1.513 4.576 4.576 0 011.547-1.489c.629-.368 1.394-.552 2.297-.552.821 0 1.51.148 2.066.444.556.297 1.003.68 1.342 1.153.338.472.584 1 .737 1.585a6.77 6.77 0 01.23 1.717v7.397h-3.965zm15.252-7.349c0-.624-.197-1.16-.592-1.609-.395-.448-.987-.672-1.776-.672-.387 0-.742.06-1.064.18-.322.12-.604.284-.846.492a2.433 2.433 0 00-.58.733 2.13 2.13 0 00-.242.876h5.1zm3.65 1.513v.48c0 .16-.008.313-.024.457h-8.726c.033.336.133.64.302.913.17.272.387.508.653.708.266.2.564.356.894.468a3.18 3.18 0 001.028.168c.628 0 1.16-.116 1.595-.348.435-.232.79-.532 1.064-.9l2.755 1.729a5.563 5.563 0 01-2.236 1.885c-.926.44-2.002.66-3.227.66-.902 0-1.756-.14-2.562-.42a6.244 6.244 0 01-2.115-1.225 5.683 5.683 0 01-1.426-1.981c-.346-.784-.52-1.681-.52-2.69 0-.976.17-1.861.508-2.654a5.994 5.994 0 011.378-2.017 6.15 6.15 0 012.054-1.285 7.07 7.07 0 012.563-.456c.886 0 1.7.148 2.441.444a5.31 5.31 0 011.909 1.285c.532.56.947 1.241 1.245 2.041.298.801.447 1.714.447 2.738zm10.37 5.836v-6.532a5.21 5.21 0 00-.085-.96 2.623 2.623 0 00-.278-.805 1.435 1.435 0 00-.544-.553c-.233-.136-.527-.204-.882-.204-.354 0-.665.068-.93.204a1.877 1.877 0 00-.665.565c-.177.24-.31.516-.399.828a3.53 3.53 0 00-.133.973v6.484H139.6v-11.96h3.843v1.657h.048c.145-.256.335-.508.568-.756.234-.248.508-.46.822-.637a5.12 5.12 0 011.028-.432c.37-.112.765-.168 1.184-.168.806 0 1.49.144 2.054.432.564.288 1.02.66 1.366 1.117.347.456.596.98.749 1.573.154.592.23 1.185.23 1.777v7.397h-3.988zm11.288-9.006v4.563c0 .56.109.98.326 1.261.218.28.608.42 1.172.42.194 0 .399-.016.617-.048.217-.032.399-.08.544-.144l.048 2.882c-.274.096-.62.18-1.039.252a7.41 7.41 0 01-1.257.108c-.806 0-1.483-.1-2.031-.3-.548-.2-.987-.488-1.317-.864a3.387 3.387 0 01-.713-1.345 6.482 6.482 0 01-.218-1.741V42.67h-1.933v-2.954h1.909V36.57h3.892v3.146h2.828v2.954h-2.828zM168 49.563c0 .672-.238 1.233-.713 1.68a2.396 2.396 0 01-1.704.673 2.546 2.546 0 01-1.74-.672 2.284 2.284 0 01-.532-.733 2.185 2.185 0 01-.194-.924c0-.32.065-.625.194-.913.129-.288.306-.54.532-.756.225-.216.487-.389.785-.517.298-.128.616-.192.955-.192.661 0 1.229.224 1.704.673.475.448.713 1.008.713 1.68z" fill="#2C3647"/></g></g></g></svg>