<svg width="250" height="338" viewBox="0 0 250 338" fill="none" xmlns="http://www.w3.org/2000/svg">
<rect x="2" width="248" height="338" rx="4" fill="#EEE9E2"/>
<g clip-path="url(#clip0_434_10859)">
<path d="M201.078 164.939L201.001 165.071V165.224L201.001 738.906H47.4952L47.4953 165.633V165.477L47.4142 165.342C39.9271 152.94 36.1805 139.089 36.1805 123.775C36.1805 112.605 38.3654 101.904 42.7356 91.6652C44.1108 88.4433 45.6712 85.3606 47.4165 82.4168L47.4953 82.2839V82.1295L47.4953 0.375559H201.001V82.3261V82.4788L201.078 82.6105C202.602 85.2146 204.007 87.9248 205.296 90.7412C209.975 100.973 212.316 111.982 212.316 123.775C212.316 135.568 209.975 146.577 205.296 156.809C204.007 159.625 202.602 162.335 201.078 164.939Z" stroke="#FDF9F3" stroke-width="1.12667"/>
</g>
<path d="M109.983 236.567V210.036H139.988V236.567H109.983Z" fill="#E8DDCF" stroke="#2C3647" stroke-width="0.751111"/>
<mask id="path-4-inside-1_434_10859" fill="white">
<path d="M140.541 237.12H109.43V209.482H140.541V237.12ZM109.815 236.765H140.186V209.867H109.815V236.765Z"/>
</mask>
<path d="M140.541 237.12H109.43V209.482H140.541V237.12ZM109.815 236.765H140.186V209.867H109.815V236.765Z" fill="#E8DDCF"/>
<path d="M140.541 237.12V237.871H141.293V237.12H140.541ZM109.43 237.12H108.679V237.871H109.43V237.12ZM109.43 209.482V208.731H108.679V209.482H109.43ZM140.541 209.482H141.293V208.731H140.541V209.482ZM109.815 236.765H109.064V237.516H109.815V236.765ZM140.186 236.765V237.516H140.937V236.765H140.186ZM140.186 209.867H140.937V209.116H140.186V209.867ZM109.815 209.867V209.116H109.064V209.867H109.815ZM140.541 236.369H109.43V237.871H140.541V236.369ZM110.181 237.12V209.482H108.679V237.12H110.181ZM109.43 210.234H140.541V208.731H109.43V210.234ZM139.79 209.482V237.12H141.293V209.482H139.79ZM109.815 237.516H140.186V236.014H109.815V237.516ZM140.937 236.765V209.867H139.435V236.765H140.937ZM140.186 209.116H109.815V210.618H140.186V209.116ZM109.064 209.867V236.765H110.566V209.867H109.064Z" fill="#2C3647" mask="url(#path-4-inside-1_434_10859)"/>
<path d="M179.445 215.942H70.5542C62.2573 215.942 55.522 209.215 55.522 200.931V135.387C55.522 127.102 62.2573 120.375 70.5542 120.375H179.445C187.742 120.375 194.478 127.102 194.478 135.387V200.901C194.478 209.216 187.742 215.942 179.445 215.942Z" fill="#E8DDCF" stroke="#2C3647" stroke-width="0.751111"/>
<path d="M191.634 138.346V203.899H60.9664C59.5145 203.899 58.3375 202.722 58.3375 201.27V138.346C58.3375 130.061 65.0727 123.334 73.3696 123.334H176.601C184.898 123.334 191.634 130.061 191.634 138.346Z" fill="#EEE9E2" stroke="#2C3647" stroke-width="0.751111"/>
<path d="M76.455 143.304C73.5069 143.304 70.4384 143.244 67.5504 143.244C67.6707 146.19 67.4902 151.781 67.4902 151.781L76.3347 151.962C76.3347 151.902 76.3347 146.07 76.455 143.304Z" fill="#EEE9E2"/>
<path d="M76.3351 152.142L67.4907 151.962C67.4305 151.962 67.3102 151.902 67.3102 151.841C67.25 151.781 67.25 151.721 67.25 151.601C67.25 151.541 67.4305 145.949 67.3102 143.123C67.3102 143.063 67.3102 142.943 67.3703 142.883C67.4305 142.823 67.4907 142.823 67.611 142.823C69.4762 142.823 71.4015 142.823 73.3268 142.883C74.4098 142.883 75.4326 142.883 76.5156 142.943C76.5758 142.943 76.6961 143.003 76.6961 143.003C76.7563 143.063 76.7563 143.123 76.7563 143.244C76.636 146.07 76.636 151.841 76.636 151.902C76.636 151.962 76.5758 152.082 76.5758 152.082C76.5156 152.142 76.3953 152.142 76.3351 152.142ZM67.7915 151.421L76.0343 151.601C76.0343 150.398 76.0343 146.07 76.0945 143.604C75.1318 143.604 74.1691 143.604 73.2065 143.544C71.4015 143.544 69.5965 143.484 67.7915 143.484C67.972 146.07 67.8517 150.278 67.7915 151.421Z" fill="#2C3647"/>
<path d="M71.762 150.038C71.6416 150.038 71.5213 149.978 71.5213 149.857C71.1001 149.016 70.6188 148.234 70.0773 147.513C69.957 147.392 70.0171 147.212 70.1375 147.092C70.2578 146.971 70.4383 147.032 70.5586 147.152C71.04 147.753 71.4611 148.414 71.8221 149.076L73.4466 146.009C73.5068 145.889 73.6873 145.829 73.8678 145.889C73.9881 145.949 74.0483 146.13 73.9881 146.31L72.123 149.857C72.0026 149.978 71.8823 150.038 71.762 150.038Z" fill="#2C3647"/>
<path d="M76.455 161.702C73.5069 161.702 70.4384 161.642 67.5504 161.642C67.6707 164.588 67.4902 170.179 67.4902 170.179L76.3347 170.36C76.3347 170.3 76.3347 164.468 76.455 161.702Z" fill="#EEE9E2"/>
<path d="M76.3351 170.6L67.4907 170.42C67.4305 170.42 67.3102 170.36 67.3102 170.3C67.25 170.239 67.25 170.179 67.25 170.059C67.25 169.999 67.4305 164.407 67.3102 161.582C67.3102 161.521 67.3102 161.401 67.3703 161.341C67.4305 161.281 67.4907 161.281 67.611 161.281C69.4762 161.281 71.4616 161.281 73.3268 161.341C74.3496 161.341 75.4326 161.341 76.4555 161.401C76.5156 161.401 76.636 161.461 76.636 161.521C76.6961 161.582 76.6961 161.642 76.6961 161.762C76.636 164.468 76.636 170.239 76.636 170.3C76.636 170.36 76.5758 170.48 76.5758 170.48C76.5156 170.54 76.3953 170.6 76.3351 170.6ZM67.7915 169.819L76.0343 169.999C76.0343 168.796 76.0343 164.468 76.0945 162.002C75.1318 162.002 74.1691 162.002 73.2666 161.942C71.4616 161.942 69.5965 161.882 67.8517 161.882C67.972 164.468 67.8517 168.676 67.7915 169.819Z" fill="#2C3647"/>
<path d="M71.762 168.496C71.6416 168.496 71.5213 168.436 71.5213 168.316C71.1001 167.474 70.6188 166.692 70.0773 165.971C69.957 165.85 70.0171 165.67 70.1375 165.55C70.2578 165.43 70.4383 165.49 70.5586 165.61C71.04 166.211 71.4611 166.873 71.8221 167.534L73.4466 164.468C73.5068 164.347 73.6873 164.287 73.8678 164.347C73.9881 164.407 74.0483 164.588 73.9881 164.768L72.123 168.316C72.0026 168.436 71.8823 168.496 71.762 168.496Z" fill="#2C3647"/>
<path d="M76.997 179.559C74.0489 179.559 70.9804 179.498 68.0924 179.498C68.2127 182.445 68.0322 188.036 68.0322 188.036L76.8767 188.216C76.9369 188.156 76.9369 182.384 76.997 179.559Z" fill="#EEE9E2"/>
<path d="M76.9367 188.457L68.0922 188.277C68.0321 188.277 67.9117 188.217 67.9117 188.156C67.8516 188.096 67.8516 188.036 67.8516 187.916C67.8516 187.856 68.0321 182.264 67.9117 179.438C67.9117 179.378 67.9117 179.258 67.9719 179.198C68.0321 179.138 68.0922 179.138 68.2126 179.138C70.0777 179.138 72.0632 179.138 73.9284 179.198C74.9512 179.198 76.0342 179.198 77.057 179.258C77.1172 179.258 77.2375 179.318 77.2375 179.318C77.2977 179.378 77.2977 179.438 77.2977 179.559C77.2375 182.324 77.2375 188.096 77.2375 188.156C77.2375 188.217 77.1774 188.337 77.1774 188.337C77.057 188.397 76.9969 188.457 76.9367 188.457ZM68.3931 187.675L76.6359 187.856C76.6359 186.653 76.6359 182.324 76.696 179.859C75.7334 179.859 74.7707 179.859 73.8682 179.799C72.0632 179.799 70.1981 179.739 68.4532 179.739C68.5134 182.324 68.3931 186.533 68.3931 187.675Z" fill="#2C3647"/>
<path d="M72.3635 186.353C72.2432 186.353 72.1229 186.292 72.1229 186.172C71.7017 185.33 71.2204 184.549 70.6789 183.827C70.5585 183.707 70.6187 183.527 70.739 183.406C70.8594 183.286 71.0399 183.346 71.1602 183.467C71.6415 184.068 72.0627 184.729 72.4237 185.391L74.0482 182.324C74.1084 182.204 74.2889 182.144 74.4694 182.204C74.5897 182.264 74.6499 182.444 74.5897 182.625L72.7245 186.172C72.544 186.292 72.4237 186.353 72.3635 186.353Z" fill="#2C3647"/>
<path d="M94.7461 149.857C94.5054 149.857 94.3249 149.797 94.0842 149.677C93.6631 149.497 93.3623 149.136 93.1216 148.835C93.0013 148.655 92.8208 148.474 92.7004 148.354C91.8581 147.573 90.9556 147.993 89.7523 148.775C89.4514 148.955 89.1506 149.136 88.9099 149.316C88.0074 149.737 87.2854 149.857 86.6838 149.617C86.2024 149.436 85.9618 149.016 85.7211 148.715C85.5406 148.474 85.3601 148.234 85.1194 148.054C84.1568 147.452 82.9535 147.873 81.5095 149.376C81.3891 149.497 81.2086 149.497 81.0883 149.376C80.968 149.256 80.968 149.076 81.0883 148.955C82.7128 147.272 84.2169 146.791 85.4203 147.513C85.7813 147.753 86.0219 148.054 86.2024 148.354C86.3829 148.655 86.5634 148.955 86.9244 149.076C87.3456 149.256 87.9473 149.136 88.6693 148.775C88.9099 148.655 89.2108 148.474 89.5116 148.294C90.5946 147.633 91.8581 146.791 93.1216 147.933C93.3021 148.114 93.4826 148.294 93.6029 148.474C93.8436 148.775 94.0842 149.016 94.3851 149.196C94.8062 149.376 95.2876 149.316 95.8892 148.835C96.0096 148.775 96.1299 148.655 96.2502 148.535C97.3332 147.753 98.2959 146.971 99.8602 147.513C100.342 147.693 100.703 148.054 101.064 148.354C101.665 148.955 102.026 149.196 102.688 148.835C102.869 148.715 103.049 148.595 103.23 148.414C103.891 147.873 104.734 147.152 105.817 147.933C106.057 148.114 106.298 148.294 106.539 148.535C107.201 149.136 107.622 149.497 108.404 149.136C108.765 148.955 109.126 148.715 109.487 148.414C110.149 147.873 110.811 147.332 111.713 147.392C112.435 147.392 112.977 147.813 113.518 148.174C114.18 148.655 114.721 149.016 115.504 148.715C115.684 148.655 115.804 148.715 115.864 148.895C115.925 149.076 115.865 149.196 115.684 149.256C114.601 149.677 113.819 149.136 113.157 148.655C112.676 148.294 112.194 147.993 111.653 147.993C110.931 147.993 110.389 148.414 109.788 148.895C109.427 149.196 109.006 149.497 108.524 149.737C107.381 150.218 106.659 149.557 105.997 149.016C105.817 148.835 105.576 148.655 105.335 148.474C104.674 147.993 104.192 148.354 103.47 148.955C103.29 149.136 103.109 149.256 102.869 149.376C101.846 150.038 101.124 149.376 100.522 148.835C100.221 148.535 99.8602 148.234 99.4992 148.114C98.2357 147.693 97.4536 148.294 96.4307 149.076C96.3104 149.196 96.1901 149.256 96.0697 149.376C95.9494 149.497 95.4079 149.857 94.7461 149.857Z" fill="#2C3647"/>
<path d="M83.9761 167.233C83.3142 167.233 82.7126 166.873 82.2312 166.572C82.1109 166.452 82.0507 166.271 82.1711 166.151C82.2914 166.031 82.4719 165.971 82.5922 166.091C83.5549 166.812 84.2167 166.812 84.9387 166.271C85.0591 166.151 85.1794 166.031 85.2997 165.911C85.9615 165.309 86.6835 164.648 87.8267 165.249C88.0674 165.369 88.2479 165.61 88.4885 165.79C88.9097 166.151 89.3309 166.572 89.752 166.452C89.9927 166.392 90.2334 166.151 90.4139 165.911C90.5342 165.73 90.6545 165.61 90.835 165.49C91.3164 165.129 91.8579 164.888 92.5197 164.768C93.7832 164.648 94.6255 165.249 95.4678 165.971L95.6483 166.151C96.5508 166.873 97.2127 166.812 97.9347 166.031C98.8973 164.949 99.7998 164.407 101.304 165.129C101.605 165.309 101.966 165.49 102.267 165.67C102.989 166.151 103.65 166.572 104.493 166.512C104.974 166.452 105.275 166.091 105.576 165.67C105.937 165.249 106.358 164.708 107.08 164.588C108.464 164.347 109.607 165.309 110.57 166.331C110.69 166.452 110.69 166.632 110.57 166.752C110.449 166.873 110.269 166.873 110.148 166.752C109.246 165.85 108.283 165.009 107.14 165.189C106.599 165.249 106.358 165.61 105.997 166.031C105.636 166.452 105.215 166.993 104.493 167.053C103.47 167.173 102.628 166.632 101.906 166.151C101.605 165.971 101.304 165.79 101.003 165.61C99.86 165.069 99.1982 165.43 98.3558 166.331C97.3932 167.354 96.4305 167.414 95.2873 166.512L95.1068 166.331C94.3247 165.67 93.6027 165.129 92.5799 165.249C92.0985 165.309 91.6172 165.49 91.196 165.79C91.0757 165.911 90.9554 166.031 90.835 166.151C90.5944 166.452 90.2935 166.812 89.8122 166.873C89.0902 166.993 88.5487 166.512 88.0674 166.031C87.8869 165.85 87.6462 165.67 87.4657 165.55C86.7437 165.129 86.3225 165.49 85.6607 166.091C85.5404 166.211 85.4201 166.331 85.2396 166.452C84.8786 167.053 84.3972 167.233 83.9761 167.233Z" fill="#2C3647"/>
<path d="M95.9494 184.669C95.7689 184.669 95.5884 184.669 95.4079 184.549C94.9266 184.369 94.5656 184.008 94.2648 183.647C94.1444 183.467 94.0241 183.346 93.9038 183.226C93.0013 182.384 92.1589 182.805 90.8954 183.587C90.6548 183.767 90.4141 183.888 90.1133 184.068C89.2108 184.549 88.4286 184.669 87.7668 184.429C87.2855 184.248 87.0448 183.888 86.8041 183.527C86.6236 183.286 86.5033 183.046 86.2626 182.926C85.3 182.264 84.0365 182.685 82.5925 184.248C82.4721 184.369 82.2916 184.369 82.1713 184.248C82.051 184.128 82.051 183.948 82.1713 183.827C83.856 182.084 85.3601 181.603 86.6236 182.445C86.9245 182.625 87.105 182.926 87.2855 183.226C87.466 183.527 87.6465 183.767 87.9473 183.888C88.4286 184.068 89.0303 183.948 89.7523 183.587C89.9929 183.467 90.2336 183.286 90.4743 183.166C91.5573 182.505 92.8809 181.663 94.2046 182.865C94.3851 182.986 94.5054 183.166 94.6258 183.346C94.9266 183.647 95.1673 183.948 95.5283 184.128C96.0698 184.308 96.5511 184.008 97.0324 183.647H97.0926C98.2357 182.745 99.4391 181.843 101.124 182.505C101.605 182.685 101.906 183.046 102.267 183.286C102.869 183.888 103.23 184.128 103.891 183.647C104.012 183.527 104.132 183.467 104.252 183.346C105.035 182.745 105.937 182.024 107.08 182.926C107.261 183.046 107.381 183.166 107.501 183.286C108.223 183.888 108.765 184.369 109.667 183.888C109.968 183.707 110.269 183.467 110.57 183.226C111.292 182.685 112.134 182.024 113.157 182.204C113.759 182.324 114.3 182.685 114.721 182.986C115.443 183.467 115.985 183.888 116.948 183.346C117.068 183.286 117.248 183.346 117.369 183.467C117.429 183.587 117.369 183.767 117.248 183.888C115.985 184.549 115.143 184.008 114.421 183.467C113.999 183.166 113.578 182.865 113.097 182.805C112.315 182.625 111.653 183.166 110.991 183.707C110.69 183.948 110.329 184.248 109.968 184.429C108.705 185.09 107.923 184.429 107.14 183.767C107.02 183.647 106.84 183.527 106.719 183.407C105.997 182.805 105.456 183.166 104.613 183.827C104.493 183.948 104.373 184.068 104.192 184.128C103.109 184.91 102.387 184.248 101.846 183.767C101.545 183.527 101.244 183.226 100.883 183.106C99.4992 182.565 98.5366 183.286 97.4536 184.128H97.3934C97.0324 184.308 96.5511 184.669 95.9494 184.669Z" fill="#2C3647"/>
<path d="M181.898 132.778C182.526 132.778 183.035 132.289 183.035 131.685C183.035 131.082 182.526 130.592 181.898 130.592C181.27 130.592 180.761 131.082 180.761 131.685C180.761 132.289 181.27 132.778 181.898 132.778Z" fill="#5793DB"/>
<path d="M181.898 132.996C181.154 132.996 180.542 132.384 180.542 131.685C180.542 130.986 181.154 130.374 181.898 130.374C182.641 130.374 183.254 130.986 183.254 131.685C183.254 132.384 182.641 132.996 181.898 132.996ZM181.898 130.767C181.373 130.767 180.979 131.16 180.979 131.685C180.979 132.209 181.417 132.603 181.898 132.603C182.379 132.603 182.816 132.209 182.816 131.685C182.816 131.16 182.423 130.767 181.898 130.767Z" fill="#2C3647"/>
<path d="M174.724 132.778C175.352 132.778 175.861 132.289 175.861 131.685C175.861 131.082 175.352 130.592 174.724 130.592C174.096 130.592 173.587 131.082 173.587 131.685C173.587 132.289 174.096 132.778 174.724 132.778Z" fill="#EEE9E2"/>
<path d="M174.724 132.996C173.981 132.996 173.368 132.384 173.368 131.685C173.368 130.986 173.981 130.374 174.724 130.374C175.468 130.374 176.08 130.986 176.08 131.685C176.08 132.384 175.468 132.996 174.724 132.996ZM174.724 130.767C174.199 130.767 173.806 131.16 173.806 131.685C173.806 132.209 174.243 132.603 174.724 132.603C175.249 132.603 175.643 132.209 175.643 131.685C175.643 131.16 175.205 130.767 174.724 130.767Z" fill="#2C3647"/>
<path d="M167.507 132.778C168.135 132.778 168.645 132.289 168.645 131.685C168.645 131.082 168.135 130.592 167.507 130.592C166.879 130.592 166.37 131.082 166.37 131.685C166.37 132.289 166.879 132.778 167.507 132.778Z" fill="#EEE9E2"/>
<path d="M167.507 132.996C166.764 132.996 166.151 132.384 166.151 131.685C166.151 130.986 166.764 130.374 167.507 130.374C168.251 130.374 168.863 130.986 168.863 131.685C168.863 132.384 168.295 132.996 167.507 132.996ZM167.507 130.767C166.982 130.767 166.589 131.16 166.589 131.685C166.589 132.209 167.026 132.603 167.507 132.603C167.988 132.603 168.426 132.209 168.426 131.685C168.426 131.16 168.032 130.767 167.507 130.767Z" fill="#2C3647"/>
<path d="M90.614 237.544C90.8112 232.897 94.6509 229.211 99.327 229.211H151.476C156.18 229.211 159.993 232.897 160.189 237.544H90.614Z" fill="#E8DDCF" stroke="#2C3647" stroke-width="0.751111"/>
<mask id="path-27-inside-2_434_10859" fill="white">
<path d="M160.78 238.097H90.0527V237.919C90.0527 232.8 94.2306 228.657 99.327 228.657H151.476C156.602 228.657 160.751 232.83 160.751 237.919V238.097H160.78ZM90.4083 237.742H160.395C160.306 232.919 156.336 229.013 151.476 229.013H99.327C94.4676 229.013 90.5268 232.889 90.4083 237.742Z"/>
</mask>
<path d="M160.78 238.097H90.0527V237.919C90.0527 232.8 94.2306 228.657 99.327 228.657H151.476C156.602 228.657 160.751 232.83 160.751 237.919V238.097H160.78ZM90.4083 237.742H160.395C160.306 232.919 156.336 229.013 151.476 229.013H99.327C94.4676 229.013 90.5268 232.889 90.4083 237.742Z" fill="#E8DDCF"/>
<path d="M90.0527 238.097H89.3016V238.848H90.0527V238.097ZM160.751 238.097H159.999V238.848H160.751V238.097ZM90.4083 237.742L89.6574 237.724L89.6386 238.493H90.4083V237.742ZM160.395 237.742V238.493H161.16L161.146 237.728L160.395 237.742ZM160.78 237.346H90.0527V238.848H160.78V237.346ZM90.8038 238.097V237.919H89.3016V238.097H90.8038ZM90.8038 237.919C90.8038 233.217 94.6429 229.409 99.327 229.409V227.906C93.8183 227.906 89.3016 232.383 89.3016 237.919H90.8038ZM99.327 229.409H151.476V227.906H99.327V229.409ZM151.476 229.409C156.187 229.409 159.999 233.244 159.999 237.919H161.502C161.502 232.416 157.018 227.906 151.476 227.906V229.409ZM159.999 237.919V238.097H161.502V237.919H159.999ZM160.751 238.848H160.78V237.346H160.751V238.848ZM90.4083 238.493H160.395V236.991H90.4083V238.493ZM161.146 237.728C161.05 232.494 156.744 228.261 151.476 228.261V229.764C155.927 229.764 159.563 233.343 159.644 237.756L161.146 237.728ZM151.476 228.261H99.327V229.764H151.476V228.261ZM99.327 228.261C94.0568 228.261 89.7858 232.466 89.6574 237.724L91.1592 237.76C91.2678 233.312 94.8785 229.764 99.327 229.764V228.261Z" fill="#2C3647" mask="url(#path-27-inside-2_434_10859)"/>
<path d="M78.2762 98.1303C78.2762 104.621 73.0144 109.883 66.5236 109.883C60.0329 109.883 54.7711 104.621 54.7711 98.1303C54.7711 91.6396 60.0329 86.3778 66.5236 86.3778C73.0144 86.3778 78.2762 91.6396 78.2762 98.1303Z" fill="#EEE9E2" stroke="#2C3647" stroke-width="0.751111"/>
<path d="M107.567 98.1303C107.567 104.621 102.305 109.883 95.8146 109.883C89.3239 109.883 84.0621 104.621 84.0621 98.1303C84.0621 91.6396 89.3239 86.3778 95.8146 86.3778C102.305 86.3778 107.567 91.6396 107.567 98.1303Z" fill="#EEE9E2" stroke="#2C3647" stroke-width="0.751111"/>
<path d="M136.857 98.1303C136.857 104.621 131.595 109.883 125.105 109.883C118.614 109.883 113.352 104.621 113.352 98.1303C113.352 91.6396 118.614 86.3778 125.105 86.3778C131.595 86.3778 136.857 91.6396 136.857 98.1303Z" fill="#EEE9E2" stroke="#2C3647" stroke-width="0.751111"/>
<path d="M122.71 104.668C123.033 104.668 123.294 104.406 123.294 104.084C123.294 103.761 123.033 103.499 122.71 103.499C122.388 103.499 122.126 103.761 122.126 104.084C122.126 104.406 122.388 104.668 122.71 104.668Z" stroke="#2C3647" stroke-width="0.688519" stroke-linecap="round" stroke-linejoin="round"/>
<path d="M129.136 104.668C129.459 104.668 129.72 104.406 129.72 104.084C129.72 103.761 129.459 103.499 129.136 103.499C128.813 103.499 128.552 103.761 128.552 104.084C128.552 104.406 128.813 104.668 129.136 104.668Z" stroke="#2C3647" stroke-width="0.688519" stroke-linecap="round" stroke-linejoin="round"/>
<path d="M118.036 92.3994H120.373L121.939 100.222C121.992 100.491 122.138 100.733 122.352 100.905C122.566 101.077 122.833 101.168 123.107 101.163H128.786C129.06 101.168 129.327 101.077 129.541 100.905C129.754 100.733 129.901 100.491 129.954 100.222L130.889 95.3205H120.957" stroke="#2C3647" stroke-width="0.688519" stroke-linecap="round" stroke-linejoin="round"/>
<path d="M166.148 98.1303C166.148 104.621 160.886 109.883 154.396 109.883C147.905 109.883 142.643 104.621 142.643 98.1303C142.643 91.6396 147.905 86.3778 154.396 86.3778C160.886 86.3778 166.148 91.6396 166.148 98.1303Z" fill="#EEE9E2" stroke="#2C3647" stroke-width="0.751111"/>
<path d="M195.438 98.1303C195.438 104.621 190.176 109.883 183.686 109.883C177.195 109.883 171.933 104.621 171.933 98.1303C171.933 91.6396 177.195 86.3778 183.686 86.3778C190.176 86.3778 195.438 91.6396 195.438 98.1303Z" fill="#EEE9E2" stroke="#2C3647" stroke-width="0.751111"/>
<path d="M183.584 91.1433V105.281" stroke="#2B4657" stroke-width="0.688519" stroke-linecap="round" stroke-linejoin="round"/>
<path d="M186.798 93.7138H181.978C181.381 93.7138 180.809 93.9508 180.387 94.3726C179.965 94.7944 179.729 95.3665 179.729 95.9631C179.729 96.5596 179.965 97.1317 180.387 97.5535C180.809 97.9753 181.381 98.2123 181.978 98.2123H185.191C185.787 98.2123 186.36 98.4493 186.781 98.8711C187.203 99.2929 187.44 99.865 187.44 100.462C187.44 101.058 187.203 101.63 186.781 102.052C186.36 102.474 185.787 102.711 185.191 102.711H179.729" stroke="#2B4657" stroke-width="0.688519" stroke-linecap="round" stroke-linejoin="round"/>
<path d="M157.557 96.5402L151.773 93.2049" stroke="#2C3647" stroke-width="0.688519" stroke-linecap="round" stroke-linejoin="round"/>
<path d="M160.449 100.782V95.6405C160.449 95.4151 160.39 95.1937 160.277 94.9986C160.164 94.8035 160.002 94.6414 159.807 94.5287L155.308 91.9582C155.113 91.8454 154.891 91.786 154.666 91.786C154.44 91.786 154.218 91.8454 154.023 91.9582L149.524 94.5287C149.329 94.6414 149.167 94.8035 149.054 94.9986C148.942 95.1937 148.882 95.4151 148.882 95.6405V100.782C148.882 101.007 148.942 101.228 149.054 101.423C149.167 101.619 149.329 101.781 149.524 101.893L154.023 104.464C154.218 104.577 154.44 104.636 154.666 104.636C154.891 104.636 155.113 104.577 155.308 104.464L159.807 101.893C160.002 101.781 160.164 101.619 160.277 101.423C160.39 101.228 160.449 101.007 160.449 100.782Z" stroke="#2C3647" stroke-width="0.688519" stroke-linecap="round" stroke-linejoin="round"/>
<path d="M149.056 94.9722L154.666 98.2175L160.276 94.9722" stroke="#2C3647" stroke-width="0.688519" stroke-linecap="round" stroke-linejoin="round"/>
<path d="M154.666 104.689V98.2111" stroke="#2C3647" stroke-width="0.688519" stroke-linecap="round" stroke-linejoin="round"/>
<path d="M60.8408 93.0712H64.4824C65.1263 93.0712 65.7438 93.327 66.1991 93.7823C66.6544 94.2376 66.9102 94.8551 66.9102 95.499V103.996C66.9102 103.513 66.7183 103.05 66.3769 102.709C66.0354 102.367 65.5723 102.175 65.0894 102.175H60.8408V93.0712Z" stroke="#2C3647" stroke-width="0.688519" stroke-linecap="round" stroke-linejoin="round"/>
<path d="M72.9795 93.0712H69.3379C68.694 93.0712 68.0765 93.327 67.6212 93.7823C67.1659 94.2376 66.9102 94.8551 66.9102 95.499V103.996C66.9102 103.513 67.102 103.05 67.4435 102.709C67.7849 102.367 68.2481 102.175 68.731 102.175H72.9795V93.0712Z" stroke="#2C3647" stroke-width="0.688519" stroke-linecap="round" stroke-linejoin="round"/>
<path d="M90.4023 96.4273L95.5434 92.4286L100.685 96.4273V102.711C100.685 103.014 100.564 103.304 100.35 103.519C100.136 103.733 99.8451 103.853 99.5421 103.853H91.5448C91.2418 103.853 90.9512 103.733 90.737 103.519C90.5227 103.304 90.4023 103.014 90.4023 102.711V96.4273Z" stroke="#2C3647" stroke-width="0.688519" stroke-linecap="round" stroke-linejoin="round"/>
<path d="M93.8301 103.853V98.141H97.2575V103.853" stroke="#2C3647" stroke-width="0.688519" stroke-linecap="round" stroke-linejoin="round"/>
<path d="M123.354 113.418C123.354 113.418 118.428 147.781 144.717 177.262" stroke="#5793DB" stroke-width="0.751111" stroke-linecap="round" stroke-linejoin="round" stroke-dasharray="3 3"/>
<path d="M144.233 170.878H179C181.363 170.878 183.211 172.671 183.211 174.83V248.079C183.211 250.237 181.342 252.031 179 252.031H144.233C141.891 252.031 140.022 250.237 140.022 248.079V174.83C140.022 172.672 141.891 170.878 144.233 170.878Z" fill="#FDF9F3" stroke="#2C3647" stroke-width="0.751111"/>
<path d="M167.067 172.942H156.251C156.005 172.942 155.804 173.144 155.804 173.39C155.804 173.637 156.005 173.838 156.251 173.838H167.067C167.313 173.838 167.514 173.637 167.514 173.39C167.492 173.144 167.313 172.942 167.067 172.942Z" fill="#2C3647"/>
<path d="M174.085 172.428H174.621V174.353H174.264V172.786H173.861L174.085 172.428Z" fill="#2C3647"/>
<path d="M175.605 173.054H175.247C175.247 172.853 175.314 172.674 175.448 172.562C175.56 172.45 175.716 172.383 175.918 172.383C176.029 172.383 176.141 172.405 176.23 172.45C176.32 172.495 176.387 172.562 176.454 172.674C176.499 172.763 176.543 172.853 176.543 172.965C176.543 173.077 176.521 173.211 176.454 173.323C176.387 173.457 176.275 173.614 176.096 173.793L175.873 174.017H176.566V174.353H175.247V174.174L175.85 173.569C175.985 173.435 176.096 173.301 176.141 173.211C176.186 173.122 176.208 173.032 176.208 172.965C176.208 172.898 176.186 172.831 176.141 172.786C176.096 172.741 176.029 172.719 175.962 172.719C175.895 172.719 175.828 172.741 175.761 172.808C175.649 172.875 175.605 172.943 175.605 173.054Z" fill="#2C3647"/>
<path d="M177.013 172.898C177.08 172.898 177.124 172.92 177.147 172.965C177.191 173.01 177.214 173.054 177.214 173.099C177.214 173.144 177.191 173.211 177.147 173.234C177.102 173.278 177.057 173.301 177.013 173.301C176.946 173.301 176.901 173.278 176.879 173.234C176.834 173.189 176.812 173.144 176.812 173.099C176.812 173.032 176.834 172.987 176.879 172.965C176.901 172.92 176.946 172.898 177.013 172.898ZM177.013 173.972C177.08 173.972 177.124 173.995 177.147 174.04C177.191 174.084 177.214 174.129 177.214 174.174C177.214 174.241 177.191 174.286 177.147 174.308C177.102 174.353 177.057 174.375 177.013 174.375C176.946 174.375 176.901 174.353 176.879 174.308C176.834 174.263 176.812 174.219 176.812 174.174C176.812 174.107 176.834 174.062 176.879 174.04C176.901 173.995 176.946 173.972 177.013 173.972Z" fill="#2C3647"/>
<path d="M178.129 172.383C178.264 172.383 178.398 172.428 178.487 172.495C178.599 172.562 178.666 172.674 178.71 172.808C178.755 172.943 178.8 173.144 178.8 173.39C178.8 173.637 178.778 173.838 178.71 173.995C178.643 174.129 178.576 174.241 178.487 174.308C178.398 174.375 178.264 174.398 178.129 174.398C177.995 174.398 177.861 174.375 177.772 174.308C177.682 174.241 177.593 174.129 177.548 173.995C177.504 173.86 177.459 173.659 177.459 173.413C177.459 173.054 177.504 172.808 177.615 172.651C177.75 172.472 177.906 172.383 178.129 172.383ZM178.129 172.719C178.062 172.719 178.018 172.741 177.973 172.786C177.928 172.831 177.884 172.898 177.861 172.987C177.839 173.077 177.817 173.234 177.817 173.413C177.817 173.659 177.839 173.816 177.906 173.905C177.973 173.995 178.04 174.04 178.129 174.04C178.219 174.04 178.286 173.995 178.331 173.905C178.398 173.793 178.42 173.614 178.42 173.368C178.42 173.122 178.398 172.943 178.331 172.853C178.286 172.786 178.219 172.719 178.129 172.719Z" fill="#2C3647"/>
<path d="M179.627 172.383C179.762 172.383 179.896 172.428 179.985 172.495C180.097 172.562 180.164 172.674 180.209 172.808C180.253 172.943 180.298 173.144 180.298 173.39C180.298 173.637 180.276 173.838 180.209 173.995C180.141 174.129 180.074 174.241 179.985 174.308C179.896 174.375 179.762 174.398 179.627 174.398C179.493 174.398 179.359 174.375 179.27 174.308C179.181 174.241 179.091 174.129 179.046 173.995C179.002 173.86 178.957 173.659 178.957 173.413C178.957 173.054 179.002 172.808 179.113 172.651C179.225 172.472 179.404 172.383 179.627 172.383ZM179.627 172.719C179.56 172.719 179.516 172.741 179.471 172.786C179.426 172.831 179.382 172.898 179.359 172.987C179.337 173.077 179.315 173.234 179.315 173.413C179.315 173.659 179.337 173.816 179.404 173.905C179.471 173.995 179.538 174.04 179.627 174.04C179.717 174.04 179.784 173.995 179.829 173.905C179.896 173.793 179.918 173.614 179.918 173.368C179.918 173.122 179.896 172.943 179.829 172.853C179.784 172.786 179.717 172.719 179.627 172.719Z" fill="#2C3647"/>
<path d="M176.858 198.326C176.858 206.225 170.455 212.629 162.556 212.629C154.657 212.629 148.253 206.225 148.253 198.326C148.253 190.427 154.657 184.024 162.556 184.024C170.455 184.024 176.858 190.427 176.858 198.326Z" fill="white" stroke="#2C3647" stroke-width="0.688519"/>
<path d="M167.8 191.525L170.242 193.512L162.586 205.187L155.719 197.347L157.867 195.17L161.744 199.531L162.063 199.889L162.334 199.494L167.8 191.525Z" fill="#FFC01E" stroke="#2C3647" stroke-width="0.751111"/>
<path d="M158.13 223.366C157.958 223.366 157.786 223.366 157.614 223.252C157.155 223.08 156.81 222.735 156.523 222.391C156.409 222.219 156.294 222.105 156.179 221.99C155.318 221.187 154.515 221.589 153.31 222.334C153.081 222.506 152.851 222.621 152.564 222.793C151.704 223.252 150.958 223.366 150.327 223.137C149.868 222.965 149.638 222.621 149.408 222.277C149.236 222.047 149.122 221.818 148.892 221.703C147.974 221.073 146.769 221.474 145.392 222.965C145.277 223.08 145.105 223.08 144.99 222.965C144.876 222.85 144.876 222.678 144.99 222.563C146.597 220.901 148.031 220.442 149.236 221.245C149.523 221.417 149.695 221.703 149.868 221.99C150.04 222.277 150.212 222.506 150.499 222.621C150.958 222.793 151.531 222.678 152.22 222.334C152.45 222.219 152.679 222.047 152.909 221.933C153.941 221.302 155.204 220.499 156.466 221.646C156.638 221.761 156.753 221.933 156.868 222.105C157.155 222.391 157.384 222.678 157.728 222.85C158.245 223.022 158.704 222.735 159.163 222.391H159.22C160.31 221.531 161.458 220.671 163.064 221.302C163.524 221.474 163.81 221.818 164.155 222.047C164.728 222.621 165.073 222.85 165.704 222.391C165.819 222.277 165.933 222.219 166.048 222.105C166.794 221.531 167.655 220.843 168.745 221.703C168.917 221.818 169.032 221.933 169.147 222.047C169.835 222.621 170.352 223.08 171.212 222.621C171.499 222.449 171.786 222.219 172.073 221.99C172.761 221.474 173.565 220.843 174.54 221.015C175.114 221.13 175.63 221.474 176.032 221.761C176.72 222.219 177.237 222.621 178.155 222.105C178.27 222.047 178.442 222.105 178.557 222.219C178.614 222.334 178.557 222.506 178.442 222.621C177.237 223.252 176.434 222.735 175.745 222.219C175.343 221.933 174.942 221.646 174.483 221.589C173.737 221.417 173.106 221.933 172.474 222.449C172.188 222.678 171.843 222.965 171.499 223.137C170.294 223.768 169.548 223.137 168.802 222.506C168.688 222.391 168.515 222.277 168.401 222.162C167.712 221.589 167.196 221.933 166.392 222.563C166.278 222.678 166.163 222.793 165.991 222.85C164.958 223.596 164.269 222.965 163.753 222.506C163.466 222.277 163.179 221.99 162.835 221.875C161.515 221.359 160.597 222.047 159.564 222.85H159.507C159.163 223.022 158.704 223.366 158.13 223.366Z" fill="#2C3647"/>
<path d="M158.13 233.506C157.958 233.506 157.786 233.506 157.614 233.392C157.155 233.22 156.81 232.875 156.523 232.531C156.409 232.359 156.294 232.245 156.179 232.13C155.318 231.327 154.515 231.729 153.31 232.474C153.081 232.646 152.851 232.761 152.564 232.933C151.704 233.392 150.958 233.506 150.327 233.277C149.868 233.105 149.638 232.761 149.408 232.417C149.236 232.187 149.122 231.958 148.892 231.843C147.974 231.213 146.769 231.614 145.392 233.105C145.277 233.22 145.105 233.22 144.99 233.105C144.876 232.99 144.876 232.818 144.99 232.703C146.597 231.041 148.031 230.582 149.236 231.385C149.523 231.557 149.695 231.843 149.868 232.13C150.04 232.417 150.212 232.646 150.499 232.761C150.958 232.933 151.531 232.818 152.22 232.474C152.45 232.359 152.679 232.187 152.909 232.073C153.941 231.442 155.204 230.639 156.466 231.786C156.638 231.901 156.753 232.073 156.868 232.245C157.155 232.531 157.384 232.818 157.728 232.99C158.245 233.162 158.704 232.875 159.163 232.531H159.22C160.31 231.671 161.458 230.811 163.064 231.442C163.524 231.614 163.81 231.958 164.155 232.187C164.728 232.761 165.073 232.99 165.704 232.531C165.819 232.417 165.933 232.359 166.048 232.245C166.794 231.671 167.655 230.983 168.745 231.843C168.917 231.958 169.032 232.073 169.147 232.187C169.835 232.761 170.352 233.22 171.212 232.761C171.499 232.589 171.786 232.359 172.073 232.13C172.761 231.614 173.565 230.983 174.54 231.155C175.114 231.27 175.63 231.614 176.032 231.901C176.72 232.359 177.237 232.761 178.155 232.245C178.27 232.187 178.442 232.245 178.557 232.359C178.614 232.474 178.557 232.646 178.442 232.761C177.237 233.392 176.434 232.875 175.745 232.359C175.343 232.073 174.942 231.786 174.483 231.729C173.737 231.557 173.106 232.073 172.474 232.589C172.188 232.818 171.843 233.105 171.499 233.277C170.294 233.908 169.548 233.277 168.802 232.646C168.688 232.531 168.515 232.417 168.401 232.302C167.712 231.729 167.196 232.073 166.392 232.703C166.278 232.818 166.163 232.933 165.991 232.99C164.958 233.736 164.269 233.105 163.753 232.646C163.466 232.417 163.179 232.13 162.835 232.015C161.515 231.499 160.597 232.187 159.564 232.99H159.507C159.163 233.162 158.704 233.506 158.13 233.506Z" fill="#2C3647"/>
<defs>
<clipPath id="clip0_434_10859">
<rect width="247.867" height="338" fill="white" transform="translate(0.31543)"/>
</clipPath>
</defs>
</svg>
