<svg width="248" height="338" viewBox="0 0 248 338" fill="none" xmlns="http://www.w3.org/2000/svg">
<g clip-path="url(#clip0_434_10645)">
<rect width="248" height="338" rx="4" fill="#EEE9E2"/>
<g clip-path="url(#clip1_434_10645)">
<path d="M61.8007 51.9654H62.0777L62.2468 51.746C71.7532 39.414 84.8893 28.6063 101.676 19.3313C118.417 10.0813 138.173 5.44555 160.964 5.44555C183.341 5.44555 203.63 9.77252 221.841 18.4167C240.066 27.0676 255.489 38.8045 268.117 53.6283C280.751 68.4585 290.488 85.6605 297.326 105.241C304.165 124.821 307.585 145.33 307.585 166.772C307.585 188.215 304.269 208.83 297.636 228.619C291.005 248.405 281.371 265.813 268.738 280.848C256.109 295.88 240.683 307.928 222.456 316.992C204.25 326.045 183.549 330.579 160.34 330.579C141.292 330.579 123.284 326.77 106.312 319.153C89.3415 311.538 76.12 301.155 66.6229 288.014L66.4542 287.78H66.1663H64.9189H64.3556V288.344V470.759H-36.799V-19.5289H59.3663V51.4021V51.9654H59.9297H61.8007Z" stroke="#FDF9F3" stroke-width="1.12667"/>
</g>
<path d="M136.149 199.508V175.241H163.554V199.508H136.149Z" fill="#E8DDCF" stroke="#2C3647" stroke-width="0.38087"/>
<mask id="path-4-inside-1_434_10645" fill="white">
<path d="M163.906 199.859H135.799V174.89H163.906V199.859ZM136.147 199.538H163.585V175.238H136.147V199.538Z"/>
</mask>
<path d="M163.906 199.859H135.799V174.89H163.906V199.859ZM136.147 199.538H163.585V175.238H136.147V199.538Z" fill="#E8DDCF"/>
<path d="M163.906 199.859V200.24H164.287V199.859H163.906ZM135.799 199.859H135.418V200.24H135.799V199.859ZM135.799 174.89V174.509H135.418V174.89H135.799ZM163.906 174.89H164.287V174.509H163.906V174.89ZM136.147 199.538H135.766V199.919H136.147V199.538ZM163.585 199.538V199.919H163.966V199.538H163.585ZM163.585 175.238H163.966V174.857H163.585V175.238ZM136.147 175.238V174.857H135.766V175.238H136.147ZM163.906 199.478H135.799V200.24H163.906V199.478ZM136.18 199.859V174.89H135.418V199.859H136.18ZM135.799 175.271H163.906V174.509H135.799V175.271ZM163.525 174.89V199.859H164.287V174.89H163.525ZM136.147 199.919H163.585V199.157H136.147V199.919ZM163.966 199.538V175.238H163.204V199.538H163.966ZM163.585 174.857H136.147V175.619H163.585V174.857ZM135.766 175.238V199.538H136.528V175.238H135.766Z" fill="#2C3647" mask="url(#path-4-inside-1_434_10645)"/>
<path d="M199.052 180.69H100.678C93.2019 180.69 87.1334 174.629 87.1334 167.164V107.95C87.1334 100.486 93.2019 94.4248 100.678 94.4248H199.052C206.528 94.4248 212.596 100.486 212.596 107.95V167.138C212.596 174.629 206.528 180.69 199.052 180.69Z" fill="#E8DDCF" stroke="#2C3647" stroke-width="0.751111"/>
<path d="M210.027 110.624V169.81H92.3052C90.8533 169.81 89.6763 168.633 89.6763 167.181V110.624C89.6763 103.159 95.7448 97.0981 103.22 97.0981H196.482C203.958 97.0981 210.027 103.159 210.027 110.624Z" fill="#E8DDCF" stroke="#2C3647" stroke-width="0.751111"/>
<path d="M118.646 200.39C118.747 196.04 122.315 192.564 126.671 192.564H173.784C178.166 192.564 181.709 196.04 181.809 200.39H118.646Z" fill="#E8DDCF" stroke="#2C3647" stroke-width="0.38087"/>
<mask id="path-9-inside-2_434_10645" fill="white">
<path d="M182.19 200.741H118.293V200.581C118.293 195.956 122.067 192.213 126.672 192.213H173.784C178.415 192.213 182.163 195.983 182.163 200.581V200.741H182.19ZM118.614 200.42H181.842C181.761 196.063 178.174 192.534 173.784 192.534H126.672C122.281 192.534 118.721 196.036 118.614 200.42Z"/>
</mask>
<path d="M182.19 200.741H118.293V200.581C118.293 195.956 122.067 192.213 126.672 192.213H173.784C178.415 192.213 182.163 195.983 182.163 200.581V200.741H182.19ZM118.614 200.42H181.842C181.761 196.063 178.174 192.534 173.784 192.534H126.672C122.281 192.534 118.721 196.036 118.614 200.42Z" fill="#E8DDCF"/>
<path d="M118.293 200.741H117.912V201.122H118.293V200.741ZM182.163 200.741H181.782V201.122H182.163V200.741ZM118.614 200.42L118.233 200.411L118.224 200.801H118.614V200.42ZM181.842 200.42V200.801H182.23L182.223 200.413L181.842 200.42ZM182.19 200.36H118.293V201.122H182.19V200.36ZM118.674 200.741V200.581H117.912V200.741H118.674ZM118.674 200.581C118.674 196.168 122.276 192.594 126.672 192.594V191.832C121.858 191.832 117.912 195.744 117.912 200.581H118.674ZM126.672 192.594H173.784V191.832H126.672V192.594ZM173.784 192.594C178.205 192.594 181.782 196.193 181.782 200.581H182.544C182.544 195.773 178.626 191.832 173.784 191.832V192.594ZM181.782 200.581V200.741H182.544V200.581H181.782ZM182.163 201.122H182.19V200.36H182.163V201.122ZM118.614 200.801H181.842V200.04H118.614V200.801ZM182.223 200.413C182.138 195.848 178.382 192.153 173.784 192.153V192.915C177.967 192.915 181.385 196.278 181.461 200.427L182.223 200.413ZM173.784 192.153H126.672V192.915H173.784V192.153ZM126.672 192.153C122.073 192.153 118.346 195.822 118.233 200.411L118.995 200.43C119.097 196.251 122.49 192.915 126.672 192.915V192.153Z" fill="#2C3647" mask="url(#path-9-inside-2_434_10645)"/>
<path d="M176.597 171.755H172.814V181.881H176.597V171.755Z" fill="#2C3647" stroke="#2C3647" stroke-width="0.751111" stroke-miterlimit="10"/>
<path d="M176.597 231.309H172.814V241.436H176.597V231.309Z" fill="#2C3647" stroke="#2C3647" stroke-width="0.751111" stroke-miterlimit="10"/>
<path d="M73.8293 113.326H70.0469V123.452H73.8293V113.326Z" fill="#2C3647" stroke="#2C3647" stroke-width="0.751111" stroke-miterlimit="10"/>
<path d="M73.8293 201.893H70.0469V212.02H73.8293V201.893Z" fill="#2C3647" stroke="#2C3647" stroke-width="0.751111" stroke-miterlimit="10"/>
<path d="M182.66 107.673H82.0645V129.454H182.66V107.673Z" fill="#FDF9F3" stroke="#2C3647" stroke-width="0.751111" stroke-miterlimit="10"/>
<path d="M156.263 113.219H86.8926V123.908H156.263V113.219Z" fill="#EEE9E2" stroke="#2C3647" stroke-width="0.751111" stroke-miterlimit="10"/>
<path d="M150.362 79.2422H49.7666V101.023H150.362V79.2422Z" fill="#FDF9F3" stroke="#2C3647" stroke-width="0.751111" stroke-miterlimit="10"/>
<path d="M123.965 84.7878H54.5947V95.477H123.965V84.7878Z" fill="#EEE9E2" stroke="#2C3647" stroke-width="0.751111" stroke-miterlimit="10"/>
<path d="M150.362 79.2422H49.7666V101.023H150.362V79.2422Z" fill="#FDF9F3" stroke="#2C3647" stroke-width="0.751111" stroke-miterlimit="10"/>
<path d="M123.965 84.7878H54.5947V95.477H123.965V84.7878Z" fill="#EEE9E2" stroke="#2C3647" stroke-width="0.751111" stroke-miterlimit="10"/>
<path d="M165.599 120.774C167.066 120.774 168.255 119.586 168.255 118.121C168.255 116.657 167.066 115.469 165.599 115.469C164.132 115.469 162.943 116.657 162.943 118.121C162.943 119.586 164.132 120.774 165.599 120.774Z" fill="#FDF9F3" stroke="#2C3647" stroke-width="0.751111" stroke-miterlimit="10"/>
<path d="M176.141 120.774C177.608 120.774 178.797 119.586 178.797 118.121C178.797 116.657 177.608 115.469 176.141 115.469C174.674 115.469 173.485 116.657 173.485 118.121C173.485 119.586 174.674 120.774 176.141 120.774Z" fill="#EEE9E2" stroke="#2C3647" stroke-width="0.751111" stroke-miterlimit="10"/>
<path d="M149.906 120.774C151.372 120.774 152.561 119.586 152.561 118.121C152.561 116.657 151.372 115.469 149.906 115.469C148.439 115.469 147.25 116.657 147.25 118.121C147.25 119.586 148.439 120.774 149.906 120.774Z" fill="#FDF9F3" stroke="#2C3647" stroke-width="0.751111" stroke-miterlimit="10"/>
<path d="M178.797 129.454H85.8467V136.928H178.797V129.454Z" fill="#E8DDCF" stroke="#2C3647" stroke-width="0.751111" stroke-miterlimit="10"/>
<path d="M174.102 136.954H73.5068V158.735H174.102V136.954Z" fill="#FDF9F3" stroke="#2C3647" stroke-width="0.751111" stroke-miterlimit="10"/>
<path d="M147.706 142.5H78.3359V153.189H147.706V142.5Z" fill="#EEE9E2" stroke="#2C3647" stroke-width="0.751111" stroke-miterlimit="10"/>
<path d="M157.041 150.055C158.508 150.055 159.697 148.867 159.697 147.403C159.697 145.938 158.508 144.75 157.041 144.75C155.575 144.75 154.386 145.938 154.386 147.403C154.386 148.867 155.575 150.055 157.041 150.055Z" fill="#EEE9E2" stroke="#2C3647" stroke-width="0.751111" stroke-miterlimit="10"/>
<path d="M167.583 150.055C169.05 150.055 170.239 148.867 170.239 147.403C170.239 145.938 169.05 144.75 167.583 144.75C166.117 144.75 164.928 145.938 164.928 147.403C164.928 148.867 166.117 150.055 167.583 150.055Z" fill="#FDF9F3" stroke="#2C3647" stroke-width="0.751111" stroke-miterlimit="10"/>
<path d="M141.348 150.055C142.815 150.055 144.004 148.867 144.004 147.403C144.004 145.938 142.815 144.75 141.348 144.75C139.881 144.75 138.692 145.938 138.692 147.403C138.692 148.867 139.881 150.055 141.348 150.055Z" fill="#FDF9F3" stroke="#2C3647" stroke-width="0.751111" stroke-miterlimit="10"/>
<path d="M170.239 158.735H77.2891V166.209H170.239V158.735Z" fill="#E8DDCF" stroke="#2C3647" stroke-width="0.751111" stroke-miterlimit="10"/>
<path d="M174.102 166.129H73.5068V187.909H174.102V166.129Z" fill="#FDF9F3" stroke="#2C3647" stroke-width="0.751111" stroke-miterlimit="10"/>
<path d="M147.706 171.755H78.3359V182.444H147.706V171.755Z" fill="#EEE9E2" stroke="#2C3647" stroke-width="0.751111" stroke-miterlimit="10"/>
<path d="M157.041 179.229C158.508 179.229 159.697 178.042 159.697 176.577C159.697 175.112 158.508 173.925 157.041 173.925C155.575 173.925 154.386 175.112 154.386 176.577C154.386 178.042 155.575 179.229 157.041 179.229Z" fill="#FDF9F3" stroke="#2C3647" stroke-width="0.751111" stroke-miterlimit="10"/>
<path d="M167.583 179.229C169.05 179.229 170.239 178.042 170.239 176.577C170.239 175.112 169.05 173.925 167.583 173.925C166.117 173.925 164.928 175.112 164.928 176.577C164.928 178.042 166.117 179.229 167.583 179.229Z" fill="#EEE9E2" stroke="#2C3647" stroke-width="0.751111" stroke-miterlimit="10"/>
<path d="M141.348 179.229C142.815 179.229 144.004 178.042 144.004 176.577C144.004 175.112 142.815 173.925 141.348 173.925C139.881 173.925 138.692 175.112 138.692 176.577C138.692 178.042 139.881 179.229 141.348 179.229Z" fill="#FDF9F3" stroke="#2C3647" stroke-width="0.751111" stroke-miterlimit="10"/>
<path d="M170.239 187.909H77.2891V195.383H170.239V187.909Z" fill="#E8DDCF" stroke="#2C3647" stroke-width="0.751111" stroke-miterlimit="10"/>
<path d="M174.102 195.383H73.5068V217.164H174.102V195.383Z" fill="#FDF9F3" stroke="#2C3647" stroke-width="0.751111" stroke-miterlimit="10"/>
<path d="M147.706 200.929H78.3359V211.618H147.706V200.929Z" fill="#EEE9E2" stroke="#2C3647" stroke-width="0.751111" stroke-miterlimit="10"/>
<path d="M157.041 208.484C158.508 208.484 159.697 207.296 159.697 205.832C159.697 204.367 158.508 203.179 157.041 203.179C155.575 203.179 154.386 204.367 154.386 205.832C154.386 207.296 155.575 208.484 157.041 208.484Z" fill="#EEE9E2" stroke="#2C3647" stroke-width="0.751111" stroke-miterlimit="10"/>
<path d="M167.583 208.484C169.05 208.484 170.239 207.296 170.239 205.832C170.239 204.367 169.05 203.179 167.583 203.179C166.117 203.179 164.928 204.367 164.928 205.832C164.928 207.296 166.117 208.484 167.583 208.484Z" fill="#FDF9F3" stroke="#2C3647" stroke-width="0.751111" stroke-miterlimit="10"/>
<path d="M141.348 208.484C142.815 208.484 144.004 207.296 144.004 205.832C144.004 204.367 142.815 203.179 141.348 203.179C139.881 203.179 138.692 204.367 138.692 205.832C138.692 207.296 139.881 208.484 141.348 208.484Z" fill="#FDF9F3" stroke="#2C3647" stroke-width="0.751111" stroke-miterlimit="10"/>
<path d="M170.239 217.164H77.2891V224.638H170.239V217.164Z" fill="#E8DDCF" stroke="#2C3647" stroke-width="0.751111" stroke-miterlimit="10"/>
<path d="M174.102 224.638H73.5068V246.419H174.102V224.638Z" fill="#FDF9F3" stroke="#2C3647" stroke-width="0.751111" stroke-miterlimit="10"/>
<path d="M147.706 230.184H78.3359V240.873H147.706V230.184Z" fill="#EEE9E2" stroke="#2C3647" stroke-width="0.751111" stroke-miterlimit="10"/>
<path d="M157.041 237.658C158.508 237.658 159.697 236.471 159.697 235.006C159.697 233.541 158.508 232.354 157.041 232.354C155.575 232.354 154.386 233.541 154.386 235.006C154.386 236.471 155.575 237.658 157.041 237.658Z" fill="#FDF9F3" stroke="#2C3647" stroke-width="0.751111" stroke-miterlimit="10"/>
<path d="M167.583 237.658C169.05 237.658 170.239 236.471 170.239 235.006C170.239 233.541 169.05 232.354 167.583 232.354C166.117 232.354 164.928 233.541 164.928 235.006C164.928 236.471 166.117 237.658 167.583 237.658Z" fill="#EEE9E2" stroke="#2C3647" stroke-width="0.751111" stroke-miterlimit="10"/>
<path d="M141.348 237.658C142.815 237.658 144.004 236.471 144.004 235.006C144.004 233.541 142.815 232.354 141.348 232.354C139.881 232.354 138.692 233.541 138.692 235.006C138.692 236.471 139.881 237.658 141.348 237.658Z" fill="#FDF9F3" stroke="#2C3647" stroke-width="0.751111" stroke-miterlimit="10"/>
<path d="M139.042 104.78H144.675" stroke="#2C3647" stroke-width="0.751111" stroke-miterlimit="10" stroke-linecap="round" stroke-linejoin="round"/>
<path d="M100.011 104.78H132.604" stroke="#2C3647" stroke-width="0.751111" stroke-miterlimit="10" stroke-linecap="round" stroke-linejoin="round"/>
<path d="M69.3223 237.015V241.034" stroke="#2C3647" stroke-width="0.751111" stroke-miterlimit="10" stroke-linecap="round" stroke-linejoin="round"/>
<path d="M69.3223 224.558V232.997" stroke="#2C3647" stroke-width="0.751111" stroke-miterlimit="10" stroke-linecap="round" stroke-linejoin="round"/>
<path d="M81.1798 117.242C80.0813 117.242 79.0326 117.541 78.0838 118.09C78.1837 117.641 78.2337 117.142 78.2337 116.643C78.2337 111.952 74.4386 108.16 69.7446 108.16C65.6 108.16 62.1545 111.154 61.4054 115.096C60.5565 114.797 59.7076 114.597 58.7589 114.597C54.6142 114.597 51.2686 117.94 51.2686 122.082C51.2686 126.223 54.6142 129.567 58.7589 129.567H81.1798C84.5754 129.567 87.3219 126.822 87.3219 123.429C87.3219 120.036 84.5754 117.242 81.1798 117.242Z" fill="white" stroke="#263238" stroke-width="0.751111" stroke-miterlimit="10"/>
<path d="M211.332 165.781C209.832 165.781 208.457 166.155 207.207 166.903C207.332 166.28 207.395 165.656 207.395 164.97C207.395 158.733 202.333 153.681 196.084 153.681C190.522 153.681 185.96 157.672 184.96 162.912C183.835 162.475 182.648 162.288 181.461 162.288C175.961 162.288 171.462 166.779 171.462 172.267C171.462 177.756 175.961 182.247 181.461 182.247H211.332C215.893 182.247 219.518 178.567 219.518 174.076C219.518 169.585 215.893 165.781 211.332 165.781Z" fill="white" stroke="#263238" stroke-width="0.751111" stroke-miterlimit="10"/>
<path d="M206.082 184.305H208.582" stroke="#263238" stroke-width="0.751111" stroke-miterlimit="10" stroke-linecap="round" stroke-linejoin="round"/>
<path d="M193.896 184.305H202.645" stroke="#263238" stroke-width="0.751111" stroke-miterlimit="10" stroke-linecap="round" stroke-linejoin="round"/>
<path d="M185.647 154.18C186.835 153.244 187.897 152.62 190.147 152.308" stroke="#263238" stroke-width="0.751111" stroke-miterlimit="10" stroke-linecap="round" stroke-linejoin="round"/>
<path d="M182.647 158.733C182.647 158.733 182.835 157.423 183.897 155.988" stroke="#263238" stroke-width="0.751111" stroke-miterlimit="10" stroke-linecap="round" stroke-linejoin="round"/>
<path d="M87.7235 203.765C85.4738 203.765 83.4115 204.389 81.5368 205.386C81.7243 204.451 81.7867 203.453 81.7867 202.455C81.7867 193.099 74.1628 185.49 64.789 185.49C56.4776 185.49 49.541 191.478 48.1037 199.336C46.479 198.713 44.6667 198.339 42.7919 198.339C34.4806 198.339 27.7939 205.075 27.7939 213.308C27.7939 221.603 34.543 228.277 42.7919 228.277H87.661C94.4726 228.277 100.034 222.788 100.034 215.927C100.097 209.316 94.5975 203.765 87.7235 203.765Z" fill="white" stroke="#263238" stroke-width="0.751111" stroke-miterlimit="10"/>
<path d="M31.3555 227.154C31.9179 227.528 32.6053 227.903 33.2927 228.277" stroke="#263238" stroke-width="0.751111" stroke-miterlimit="10" stroke-linecap="round" stroke-linejoin="round"/>
<path d="M26.4189 221.416C26.4189 221.416 27.0439 223.225 28.9811 225.221" stroke="#263238" stroke-width="0.751111" stroke-miterlimit="10" stroke-linecap="round" stroke-linejoin="round"/>
<path d="M54.1025 184.617C56.0398 183.307 58.9769 181.997 62.9764 182.122" stroke="#263238" stroke-width="0.751111" stroke-miterlimit="10" stroke-linecap="round" stroke-linejoin="round"/>
<path d="M51.416 187.112C51.416 187.112 51.9159 186.426 52.9158 185.552" stroke="#263238" stroke-width="0.751111" stroke-miterlimit="10" stroke-linecap="round" stroke-linejoin="round"/>
<path d="M171.697 188.304H172.073V187.928V185.262C172.073 183.24 172.877 181.301 174.309 179.871C175.741 178.441 177.684 177.638 179.709 177.638C181.735 177.638 183.677 178.441 185.109 179.871C186.541 181.301 187.345 183.24 187.345 185.262V187.928V188.304H187.721H189.056C189.665 188.304 190.249 188.545 190.679 188.975C191.11 189.404 191.351 189.987 191.351 190.594V201.26C191.351 201.868 191.11 202.45 190.679 202.88C190.249 203.31 189.665 203.551 189.056 203.551H170.362C169.753 203.551 169.169 203.31 168.739 202.88C168.309 202.45 168.067 201.868 168.067 201.26V190.594C168.067 189.336 169.1 188.304 170.362 188.304H171.697ZM177.998 199.927V200.303H178.374H181.044H181.42V199.927V197.108C181.911 196.776 182.295 196.306 182.523 195.756C182.78 195.137 182.825 194.451 182.652 193.804C182.478 193.157 182.095 192.585 181.563 192.178C181.031 191.77 180.38 191.549 179.709 191.549C179.039 191.549 178.387 191.77 177.855 192.178C177.323 192.585 176.94 193.157 176.767 193.804C176.593 194.451 176.638 195.137 176.895 195.756C177.123 196.306 177.508 196.776 177.998 197.108V199.927ZM175.328 187.928V188.304H175.703H183.715H184.091V187.928V185.262C184.091 184.101 183.629 182.988 182.807 182.168C181.985 181.347 180.871 180.886 179.709 180.886C178.547 180.886 177.433 181.347 176.611 182.168C175.789 182.988 175.328 184.101 175.328 185.262V187.928Z" fill="#FFC01E" stroke="#2C3647" stroke-width="0.751111"/>
<path d="M89.6613 156.984C88.8465 155.735 88.5206 154.16 88.9552 152.747C89.2811 151.552 90.0959 150.466 91.0737 149.597C89.9329 147.913 88.6835 146.283 87.2712 144.817C87.1626 144.708 86.9996 144.545 86.8909 144.436C86.6737 144.273 86.3477 144.165 86.0761 143.947C84.8267 145.305 82.9798 146.012 81.0786 146.012C78.6342 145.74 76.4613 143.947 75.6465 141.666C73.3107 142.046 70.9749 142.698 68.8564 143.621C69.2909 144.328 69.3996 145.251 69.3996 146.066C69.3996 146.989 69.2366 147.913 68.802 148.728C68.4218 149.542 67.7156 150.249 66.8465 150.629C66.3576 150.846 65.8144 150.9 65.2712 150.955C64.3477 151.063 63.4243 151.009 62.5008 150.955C62.5008 150.955 60.7082 157.419 60.9255 157.419C61.523 157.582 62.0662 157.691 62.6638 157.908C63.3156 158.071 63.9132 158.288 64.4564 158.668C64.9996 159.049 65.4885 159.538 65.6514 160.189C65.7601 160.624 65.7057 161.059 65.6514 161.493C65.3798 163.014 64.565 164.481 63.3699 165.513C63.3699 165.513 67.7699 169.804 67.8243 169.75C68.3132 169.044 69.128 168.609 69.9428 168.175C70.2687 168.012 70.5946 167.849 70.9749 167.74C72.2786 167.305 73.7453 167.74 74.7774 168.663C75.7551 169.587 76.2984 170.945 76.3527 172.303C77.928 172.194 79.449 172.086 81.0243 171.977C81.7304 171.923 82.3823 171.814 83.0342 171.325C82.9798 169.967 83.3058 168.609 83.9033 167.36C84.1749 166.762 84.5551 166.219 85.044 165.784C85.8045 165.133 86.8366 164.915 87.8144 164.97C88.7922 165.024 89.77 165.35 90.7477 165.73C91.7798 163.829 92.8119 161.928 93.1379 159.701C91.7798 159.157 90.4761 158.234 89.6613 156.984Z" fill="white"/>
<path d="M82.0562 151.009C80.6438 150.086 78.7969 149.76 77.4389 149.869C75.0488 150.14 73.2562 151.335 72.0068 153.345C70.7574 155.355 70.5401 158.017 71.5179 160.135C72.4957 162.308 74.6685 163.883 77.0586 164.209C79.0685 164.427 81.1327 163.775 82.6537 162.471C84.1747 161.167 84.7722 159.266 84.9895 157.311C85.0982 156.333 84.7179 152.748 82.0562 151.009ZM79.3401 161.385C77.4389 162.036 75.1574 161.276 73.9623 159.701C73.5821 159.212 73.3648 158.669 73.2562 158.125C73.1475 157.528 73.2562 156.93 73.3648 156.387C73.6907 154.975 74.5056 153.671 75.7549 152.911C76.95 152.096 78.634 151.933 79.9377 152.585C81.5673 153.399 82.5451 155.138 82.5994 156.876C82.6537 158.777 81.2957 160.733 79.3401 161.385Z" fill="#FFC01E"/>
<g opacity="0.1294">
<path opacity="0.1294" d="M85.4786 156.55C85.4243 156.333 85.3156 156.061 85.2613 155.844C85.0983 155.409 84.9354 154.975 84.7724 154.54C84.7181 154.54 84.7181 154.54 84.6638 154.54C84.1749 154.757 84.4465 155.083 84.4465 155.572C84.5008 156.007 84.6094 156.441 84.6638 156.876C84.7181 157.311 84.7181 157.745 84.7181 158.18C84.7181 158.18 84.7181 158.18 84.7181 158.234C84.6638 158.451 84.5551 158.723 84.5008 158.94C84.2292 159.972 84.0662 160.244 83.523 161.059C83.4687 161.113 83.4144 161.167 83.4144 161.222C83.3601 161.276 83.1971 161.548 83.1428 161.602C83.1428 161.602 83.1428 161.656 83.0885 161.656C83.0885 161.711 83.0341 161.711 83.0341 161.765C82.9798 161.874 82.5996 162.199 82.5996 162.254C82.1107 162.634 82.165 162.634 81.6218 163.014C81.2415 163.286 80.807 163.503 80.3724 163.72C79.8292 163.938 79.1773 164.264 78.3082 164.318C77.6563 164.318 77.0045 164.318 76.3526 164.264C75.3749 164.101 75.1033 163.883 74.2884 163.449C74.0168 163.286 73.7996 163.014 73.4736 163.069C73.6909 163.34 73.9625 163.557 74.1798 163.775C74.5057 164.101 74.7773 164.372 75.1033 164.698C76.081 165.078 77.1675 165.296 78.2539 165.241C78.8514 165.241 79.4489 165.187 80.0465 165.024C81.0786 164.753 82.0564 164.264 82.8712 163.557C83.4687 163.014 84.1205 162.525 84.6638 161.874C85.3699 160.733 85.6959 159.375 85.6959 158.343C85.5872 157.854 85.5872 157.202 85.4786 156.55Z" fill="#2C3647"/>
</g>
<g opacity="0.1294">
<path opacity="0.1294" d="M93.41 159.755C93.3556 159.429 92.8667 159.375 92.7038 159.646C91.9976 160.841 91.3457 161.982 90.6396 163.177C90.3136 163.666 89.9334 164.046 89.7161 164.59C89.6618 164.698 89.5532 164.861 89.5532 164.97C89.4445 165.404 89.9877 165.73 90.368 165.513C90.5309 165.459 90.5853 165.296 90.6396 165.187C90.6939 165.133 90.7482 165.078 90.8025 164.97C91.5087 163.938 91.8346 162.743 92.4322 161.711C92.7038 161.167 93.0297 160.57 93.3013 160.027C93.41 159.972 93.41 159.864 93.41 159.755Z" fill="#2C3647"/>
</g>
<g opacity="0.1294">
<path opacity="0.1294" d="M82.2739 170.13C82.0023 170.022 81.7307 170.185 81.4591 170.239C79.7208 170.728 78.5257 170.728 76.5158 170.673C75.5924 170.673 75.5924 172.031 76.5158 172.031C78.0368 172.086 79.6121 172.086 81.0788 171.706C81.4047 171.651 81.785 171.543 82.1109 171.434C82.3282 171.38 82.5455 171.271 82.6541 171.108C82.9257 170.782 82.7084 170.239 82.2739 170.13Z" fill="#2C3647"/>
</g>
<path d="M76.2461 172.487L76.2443 172.487C76.1458 172.487 76.0578 172.454 75.9943 172.39C75.9311 172.327 75.898 172.24 75.8976 172.142C75.8437 170.859 75.2555 169.629 74.2932 168.774L74.2899 168.771L74.29 168.771C73.9181 168.399 73.2813 167.975 72.5421 167.869C71.9096 167.817 71.2742 168.027 70.6204 168.245C69.6424 168.626 68.6875 169.053 68.1049 169.954L68.1006 169.96L68.0949 169.966L68.093 169.968C68.0673 169.994 68.0369 170.024 68.0054 170.048C67.9739 170.071 67.9305 170.097 67.8789 170.097H67.8776C67.8506 170.097 67.8048 170.097 67.7579 170.089C67.7135 170.081 67.6563 170.065 67.6129 170.025C65.7106 168.611 64.2408 167.196 63.0963 165.725C63.0244 165.651 63.0076 165.558 63.025 165.471C63.0421 165.385 63.092 165.305 63.1542 165.243L63.1597 165.237L63.16 165.237C64.2869 164.325 65.0922 162.983 65.3606 161.534L65.3608 161.533C65.4683 160.995 65.4659 160.521 65.3632 160.213C65.1554 159.59 64.5801 159.059 63.6091 158.573C62.695 158.143 61.7262 157.873 60.7017 157.711C60.653 157.709 60.612 157.685 60.582 157.662C60.5505 157.639 60.5201 157.609 60.4944 157.583L60.4924 157.581C60.4158 157.504 60.416 157.42 60.4161 157.323C60.4161 157.319 60.4161 157.315 60.4161 157.31V157.297L60.4172 157.297C60.7985 155.119 61.4519 152.887 62.3227 150.71L62.325 150.704L62.3253 150.704C62.3602 150.634 62.4263 150.569 62.4986 150.529C62.5679 150.491 62.6621 150.465 62.7476 150.505C63.3318 150.717 64.363 150.825 65.3985 150.704C66.4377 150.582 67.4598 150.233 68.0388 149.548L68.0392 149.548C70.0168 147.25 69.0593 144.575 68.7341 143.816C68.6971 143.74 68.6994 143.652 68.7243 143.577C68.7494 143.502 68.8012 143.429 68.8774 143.391L68.8787 143.391L68.8787 143.391C69.9231 142.893 71.5984 142.397 73.4036 141.862C73.5817 141.809 73.7612 141.756 73.9414 141.703L73.9431 141.702L73.9431 141.702C74.1851 141.636 74.4394 141.56 74.7002 141.482C75.0723 141.371 75.4574 141.256 75.8384 141.16C75.9849 141.092 76.1238 141.168 76.1888 141.233L76.1357 141.286L76.1888 141.233C76.2536 141.297 76.3289 141.436 76.2614 141.582C76.2539 141.62 76.2567 141.683 76.2774 141.774C76.2989 141.869 76.3375 141.984 76.3932 142.115C76.5046 142.378 76.6818 142.699 76.917 143.035C77.3877 143.708 78.0851 144.431 78.9396 144.858L78.94 144.858C80.9034 145.853 82.497 145.73 83.679 145.263C84.8644 144.794 85.6422 143.976 85.9634 143.575L85.9687 143.568L85.969 143.568L85.9711 143.566C86.026 143.511 86.0996 143.438 86.2394 143.438H86.2407C86.2676 143.438 86.3135 143.438 86.3604 143.446C86.4062 143.453 86.4656 143.47 86.5094 143.514C86.5095 143.514 86.5097 143.514 86.5098 143.514L86.4567 143.567C88.4122 145.468 90.0418 147.424 91.4542 149.434L76.2461 172.487ZM76.2461 172.487C78.4762 172.432 80.7058 172.161 83.0971 171.672C83.1726 171.669 83.2418 171.632 83.2913 171.582C83.3425 171.531 83.3812 171.458 83.3812 171.38C83.3812 171.276 83.3941 171.172 83.4077 171.063L83.408 171.061C83.4212 170.955 83.435 170.845 83.4355 170.734C83.463 170.559 83.489 170.386 83.5147 170.215C83.6411 169.375 83.7606 168.58 84.0281 167.821C84.5114 166.641 85.3123 165.792 86.2631 165.476L86.2631 165.476L86.2648 165.475C87.5903 164.998 89.0287 165.525 90.5536 166.179C90.6293 166.216 90.7176 166.213 90.7921 166.188C90.8665 166.164 90.9383 166.113 90.9767 166.038C92.1173 164.137 93.0952 161.965 93.7487 159.738C93.7829 159.695 93.7972 159.641 93.7972 159.592C93.7972 159.536 93.7789 159.475 93.7345 159.43L93.7325 159.428C93.7067 159.402 93.6764 159.372 93.6449 159.348C93.6157 159.327 93.5762 159.303 93.5294 159.3C91.4395 158.761 89.7821 157.099 89.3547 155.176C88.9268 153.25 89.7834 151.053 91.4433 149.875L91.444 149.876L91.453 149.867L91.4549 149.865C91.4807 149.84 91.5111 149.809 91.5347 149.778C91.5583 149.746 91.5836 149.703 91.5836 149.651C91.5836 149.647 91.5836 149.643 91.5836 149.639C91.5838 149.544 91.5839 149.461 91.5122 149.386L76.2461 172.487ZM72.6106 167.231L72.6106 167.23H72.6048H72.6042H72.6035H72.6029H72.6023H72.6016H72.601H72.6004H72.5997H72.5991H72.5985H72.5979H72.5972H72.5966H72.596H72.5954H72.5948H72.5942H72.5935H72.5929H72.5923H72.5917H72.5911H72.5905H72.5899H72.5893H72.5887H72.5881H72.5874H72.5868H72.5862H72.5856H72.585H72.5844H72.5838H72.5832H72.5827H72.5821H72.5815H72.5809H72.5803H72.5797H72.5791H72.5785H72.5779H72.5773H72.5768H72.5762H72.5756H72.575H72.5744H72.5738H72.5733H72.5727H72.5721H72.5715H72.571H72.5704H72.5698H72.5692H72.5687H72.5681H72.5675H72.567H72.5664H72.5658H72.5653H72.5647H72.5641H72.5636H72.563H72.5624H72.5619H72.5613H72.5608H72.5602H72.5597H72.5591H72.5585H72.558H72.5574H72.5569H72.5563H72.5558H72.5552H72.5547H72.5541H72.5536H72.553H72.5525H72.552H72.5514H72.5509H72.5503H72.5498H72.5492H72.5487H72.5482H72.5476H72.5471H72.5466H72.546H72.5455H72.5449H72.5444H72.5439H72.5433H72.5428H72.5423H72.5418H72.5412H72.5407H72.5402H72.5396H72.5391H72.5386H72.5381H72.5375H72.537H72.5365H72.536H72.5354H72.5349H72.5344H72.5339H72.5334H72.5328H72.5323H72.5318H72.5313H72.5308H72.5303H72.5297H72.5292H72.5287H72.5282H72.5277H72.5272H72.5267H72.5262H72.5256H72.5251H72.5246H72.5241H72.5236H72.5231H72.5226H72.5221H72.5216H72.5211H72.5206H72.5201H72.5196H72.5191H72.5186H72.5181H72.5176H72.517H72.5165H72.516H72.5155H72.515H72.5145H72.5141H72.5136H72.5131H72.5126H72.5121H72.5116H72.5111H72.5106H72.5101H72.5096H72.5091H72.5086H72.5081H72.5076H72.5071H72.5066H72.5061H72.5056H72.5051H72.5047H72.5042H72.5037H72.5032H72.5027H72.5022H72.5017H72.5012H72.5007H72.5003H72.4998H72.4993H72.4988H72.4983H72.4978H72.4973H72.4968H72.4964H72.4959H72.4954H72.4949H72.4944H72.4939H72.4935H72.493H72.4925H72.492H72.4915H72.491H72.4906H72.4901H72.4896H72.4891H72.4886H72.4881H72.4877H72.4872H72.4867H72.4862H72.4857H72.4853H72.4848H72.4843H72.4838H72.4833H72.4829H72.4824H72.4819H72.4814H72.4809H72.4805H72.48H72.4795H72.479H72.4786H72.4781H72.4776H72.4771H72.4766H72.4762H72.4757H72.4752H72.4747H72.4743H72.4738H72.4733H72.4728H72.4723H72.4719H72.4714H72.4709H72.4704H72.47H72.4695H72.469H72.4685H72.468H72.4676H72.4671H72.4666H72.4661H72.4657H72.4652H72.4647H72.4642H72.4637H72.4633H72.4628H72.4623H72.4618H72.4614H72.4609H72.4604H72.4599H72.4594H72.459H72.4585H72.458H72.4575H72.4571H72.4566H72.4561H72.4556H72.4551H72.4547H72.4542H72.4537H72.4532H72.4527H72.4523H72.4518H72.4513H72.4508H72.4503H72.4499H72.4494H72.4489H72.4484H72.4479H72.4474H72.447H72.4465H72.446H72.4455H72.445H72.4445H72.4441H72.4436H72.4431H72.4426H72.4421H72.4416H72.4411H72.4407H72.4402H72.4397H72.4392H72.4387H72.4382H72.4377H72.4373H72.4368H72.4363H72.4358H72.4353H72.4348H72.4343H72.4338H72.4333H72.4328H72.4324H72.4319H72.4314H72.4309H72.4304H72.4299H72.4294H72.4289H72.4284H72.4279H72.4274H72.4269H72.4264H72.4259H72.4254H72.4249H72.4244H72.4239H72.4234H72.4229H72.4224H72.4219H72.4214H72.4209H72.4204H72.4199H72.4194H72.4189H72.4184H72.4179H72.4174H72.4169H72.4164H72.4159H72.4154H72.4149H72.4144H72.4139H72.4134H72.4129H72.4124H72.4118H72.4113H72.4108H72.4103H72.4098H72.4093H72.4088H72.4083H72.4077H72.4072H72.4067H72.4062H72.4057H72.4052H72.4046H72.4041H72.4036H72.4031H72.4026H72.402H72.4015H72.401H72.4005H72.3999H72.3994H72.3989H72.3984H72.3978H72.3973H72.3968H72.3962H72.3957H72.3952H72.3947H72.3941H72.3936H72.3931H72.3925H72.392H72.3914H72.3909H72.3904H72.3898H72.3893H72.3888H72.3882H72.3877H72.3871H72.3866H72.386H72.3855H72.385H72.3844H72.3839H72.3833H72.3828H72.3822H72.3817H72.3811H72.3806H72.38H72.3795H72.3789H72.3783H72.3778H72.3772H72.3767H72.3761H72.3755H72.375H72.3744H72.3739H72.3733H72.3727H72.3722H72.3716H72.371H72.3705H72.3699H72.3693H72.3688H72.3682H72.3676H72.367H72.3665H72.3659H72.3653H72.3647H72.3642H72.3636H72.363H72.3624H72.3618H72.3612H72.3607H72.3601H72.3595H72.3589H72.3583H72.3577H72.3571H72.3565H72.3559H72.3553H72.3547H72.3542H72.3536H72.353H72.3524H72.3518H72.3512H72.3506H72.3499H72.3493H72.3487H72.3481H72.3475H72.3469H72.3463H72.3457H72.3451H72.3445H72.3438H72.3432H72.3426H72.342H72.3414H72.3407H72.3401H72.3395H72.3389H72.3383H72.3376H72.337H72.3364H72.3357H72.3351H72.3345H72.3338H72.3332C71.7691 167.23 71.2047 167.39 70.6855 167.537C70.5929 167.563 70.5017 167.589 70.4122 167.613L70.4121 167.613L70.4047 167.616C69.4472 167.988 68.4731 168.418 67.7571 169.319C66.1266 168.052 64.8079 166.838 63.7986 165.575C64.9235 164.537 65.7265 163.131 65.9972 161.67L65.9974 161.668C66.1067 161.013 66.1092 160.454 65.9398 160.001C65.6586 159.159 64.9315 158.496 63.7828 157.949L63.7828 157.949L63.7806 157.948C62.9298 157.576 61.9741 157.255 61.0143 157.086C61.3902 155.18 61.9724 153.221 62.7107 151.261C63.453 151.442 64.5304 151.515 65.5878 151.362C66.6752 151.205 67.7557 150.807 68.4247 150.026C70.475 147.652 69.8266 145.014 69.3874 143.878C70.2983 143.479 71.6768 143.078 73.1681 142.644C73.4538 142.561 73.7437 142.477 74.0352 142.391C74.478 142.302 74.8859 142.177 75.3117 142.047C75.3853 142.025 75.4595 142.002 75.5344 141.979C75.6423 142.478 75.9933 143.143 76.4979 143.777C77.0323 144.448 77.7467 145.095 78.547 145.482C80.5753 146.496 82.2801 146.415 83.5887 145.96C84.8438 145.524 85.7296 144.746 86.1863 144.272C87.9322 146.024 89.3681 147.724 90.698 149.528C88.9761 150.857 88.1208 153.193 88.6105 155.317C89.0467 157.387 90.7735 159.183 92.9362 159.859C92.3476 161.816 91.5015 163.72 90.4991 165.419C89.0515 164.832 87.4743 164.298 85.9983 164.79C84.8333 165.178 83.8401 166.174 83.3443 167.551C82.9602 168.539 82.8509 169.526 82.7424 170.612L82.742 170.612V170.619C82.742 170.693 82.7297 170.769 82.7159 170.851L82.7154 170.854C82.7053 170.915 82.6945 170.98 82.69 171.046C80.566 171.468 78.5471 171.734 76.5819 171.791C76.4035 170.442 75.7486 169.203 74.7749 168.283L74.7741 168.282C74.1137 167.677 73.3381 167.287 72.6106 167.231Z" fill="#2C3647" stroke="#2C3647" stroke-width="0.150222"/>
<path d="M77.6564 161.873C76.081 161.873 74.4514 161.113 73.528 159.864C73.1477 159.32 72.8761 158.723 72.7675 158.125C72.6588 157.582 72.7131 156.985 72.8761 156.278C73.2563 154.703 74.1798 153.399 75.3749 152.639C76.7329 151.77 78.4712 151.607 79.7749 152.313C81.4045 153.128 82.4909 154.92 82.5996 156.822C82.7082 158.886 81.2415 161.004 79.2317 161.656C78.6884 161.765 78.1996 161.873 77.6564 161.873ZM77.928 152.367C77.1675 152.367 76.3526 152.585 75.6465 153.073C74.5601 153.78 73.7452 154.975 73.365 156.441C73.202 157.093 73.1477 157.582 73.2563 158.071C73.365 158.56 73.5823 159.103 73.9082 159.538C75.0489 161.059 77.2218 161.71 79.0144 161.113C80.807 160.515 82.1107 158.668 82.0564 156.767C82.002 155.029 80.9699 153.454 79.5033 152.693C79.0687 152.476 78.4712 152.367 77.928 152.367Z" fill="#2C3647"/>
<path d="M77.6569 164.535C77.3853 164.535 77.1137 164.535 76.8421 164.481C74.3976 164.209 72.1161 162.525 71.084 160.298C70.0519 158.071 70.2692 155.355 71.5729 153.236C72.8766 151.118 74.7779 149.868 77.168 149.651C78.7433 149.488 80.6445 149.923 81.9482 150.792C84.8273 152.639 85.0989 156.496 85.0446 157.365C84.8273 159.755 84.0125 161.547 82.6001 162.743C81.2421 163.883 79.4495 164.535 77.6569 164.535ZM77.8199 150.14C77.6026 150.14 77.3853 150.14 77.2223 150.194C74.9408 150.412 73.2569 151.552 72.0075 153.562C70.7581 155.518 70.5952 158.071 71.5729 160.135C72.5507 162.254 74.6149 163.775 76.8964 164.046C78.7976 164.264 80.8075 163.666 82.2742 162.362C83.5779 161.276 84.2841 159.646 84.5013 157.365C84.61 156.333 84.1211 152.91 81.6766 151.335C80.5902 150.52 79.1779 150.14 77.8199 150.14Z" fill="#2C3647"/>
<g opacity="0.1294">
<path opacity="0.1294" d="M76.3532 172.249C76.2988 171.868 76.1359 170.619 75.9186 170.076C75.3754 168.283 73.5828 166.762 71.6815 167.577C70.8667 167.903 70.1606 168.392 69.563 168.881C69.4544 168.826 69.3457 168.826 69.1828 168.881C68.7482 169.044 68.368 169.207 67.8791 169.315C67.8791 169.315 67.8791 169.315 67.8247 169.315H67.7704C67.4988 169.152 67.2272 168.989 66.9556 168.772C66.847 168.718 66.7927 168.609 66.684 168.555C66.521 168.392 66.3581 168.283 66.1951 168.229C66.0322 168.12 65.8149 167.903 65.4346 167.523C65.0001 167.088 64.5655 166.654 64.1309 166.273C63.8593 166.056 63.5877 165.73 63.2618 165.676C62.9359 165.622 62.6099 165.839 62.5013 166.165C62.3927 166.491 62.5556 166.817 62.8815 166.98C63.0988 167.143 63.2618 167.36 63.4247 167.523C64.1309 168.283 64.7828 169.152 65.6519 169.696C66.0865 170.076 66.521 170.51 67.0099 170.891C67.3902 171.162 67.8791 171.434 68.368 171.434C69.0198 171.434 69.5087 170.945 69.9976 170.51C71.1926 169.478 72.5507 168.772 73.0939 169.098C73.6371 169.37 73.7457 169.533 73.963 169.804C74.3976 170.51 74.2889 170.891 74.5062 172.086C74.5606 172.303 74.5606 172.52 74.6692 172.738C74.7235 172.955 74.8322 173.226 75.0494 173.389C75.2124 173.552 75.4297 173.661 75.647 173.661C75.8099 173.715 76.0272 173.715 76.1902 173.715C76.4075 173.715 76.5704 173.77 76.7877 173.661C77.0593 173.552 77.2223 173.335 77.168 173.064C77.2223 172.412 76.7877 172.249 76.3532 172.249Z" fill="#2C3647"/>
</g>
<g opacity="0.1294">
<path opacity="0.1294" d="M64.7829 158.994C63.8595 158.234 62.7187 157.854 61.578 157.528H61.5237C61.5237 157.528 61.4693 157.473 61.4693 157.419C61.0348 156.713 59.9483 157.31 60.3829 158.071C60.7088 158.777 61.5237 158.886 62.2298 159.103C63.3163 159.483 64.3484 159.864 64.8916 160.298C65.1632 160.57 65.7064 160.352 65.6521 159.972C65.5977 159.483 65.1088 159.266 64.7829 158.994Z" fill="#2C3647"/>
</g>
</g>
<defs>
<clipPath id="clip0_434_10645">
<rect width="248" height="338" rx="4" fill="white"/>
</clipPath>
<clipPath id="clip1_434_10645">
<rect width="247.867" height="338" fill="white" transform="translate(-1.68457)"/>
</clipPath>
</defs>
</svg>
