<svg width="248" height="338" fill="none" xmlns="http://www.w3.org/2000/svg"><g clip-path="url(#clip0_434_10645)"><rect width="248" height="338" rx="4" fill="#EEE9E2"/><g clip-path="url(#clip1_434_10645)"><path d="M61.8 51.965h.278l.169-.219c9.506-12.332 22.642-23.14 39.429-32.415 16.741-9.25 36.497-13.885 59.288-13.885 22.377 0 42.666 4.327 60.877 12.97 18.225 8.652 33.648 20.388 46.276 35.212 12.634 14.83 22.371 32.032 29.209 51.613 6.839 19.58 10.259 40.089 10.259 61.531 0 21.443-3.316 42.058-9.949 61.847-6.631 19.786-16.265 37.194-28.898 52.229-12.629 15.032-28.055 27.08-46.282 36.144-18.206 9.053-38.907 13.587-62.116 13.587-19.048 0-37.056-3.809-54.028-11.426-16.97-7.615-30.192-17.998-39.69-31.139l-.168-.234h-2.098v182.979H-36.8V-19.529h96.165v71.494H61.8z" stroke="#FDF9F3" stroke-width="1.127"/></g><path d="M136.149 199.508v-24.267h27.405v24.267h-27.405z" fill="#E8DDCF" stroke="#2C3647" stroke-width=".381"/><mask id="path-4-inside-1_434_10645" fill="#fff"><path d="M163.906 199.859h-28.107V174.89h28.107v24.969zm-27.759-.321h27.438v-24.3h-27.438v24.3z"/></mask><path d="M163.906 199.859h-28.107V174.89h28.107v24.969zm-27.759-.321h27.438v-24.3h-27.438v24.3z" fill="#E8DDCF"/><path d="M163.906 199.859v.381h.381v-.381h-.381zm-28.107 0h-.381v.381h.381v-.381zm0-24.969v-.381h-.381v.381h.381zm28.107 0h.381v-.381h-.381v.381zm-27.759 24.648h-.381v.381h.381v-.381zm27.438 0v.381h.381v-.381h-.381zm0-24.3h.381v-.381h-.381v.381zm-27.438 0v-.381h-.381v.381h.381zm27.759 24.24h-28.107v.762h28.107v-.762zm-27.726.381V174.89h-.762v24.969h.762zm-.381-24.588h28.107v-.762h-28.107v.762zm27.726-.381v24.969h.762V174.89h-.762zm-27.378 25.029h27.438v-.762h-27.438v.762zm27.819-.381v-24.3h-.762v24.3h.762zm-.381-24.681h-27.438v.762h27.438v-.762zm-27.819.381v24.3h.762v-24.3h-.762z" fill="#2C3647" mask="url(#path-4-inside-1_434_10645)"/><path d="M199.052 180.69h-98.374c-7.476 0-13.545-6.061-13.545-13.526V107.95c0-7.464 6.069-13.525 13.545-13.525h98.374c7.476 0 13.544 6.061 13.544 13.525v59.188c0 7.491-6.068 13.552-13.544 13.552z" fill="#E8DDCF" stroke="#2C3647" stroke-width=".751"/><path d="M210.027 110.624v59.186H92.305a2.629 2.629 0 01-2.629-2.629v-56.557c0-7.465 6.069-13.526 13.544-13.526h93.262c7.476 0 13.545 6.061 13.545 13.526z" fill="#E8DDCF" stroke="#2C3647" stroke-width=".751"/><path d="M118.646 200.39c.101-4.35 3.669-7.826 8.025-7.826h47.113a8.006 8.006 0 018.025 7.826h-63.163z" fill="#E8DDCF" stroke="#2C3647" stroke-width=".381"/><mask id="path-9-inside-2_434_10645" fill="#fff"><path d="M182.19 200.741h-63.897v-.16c0-4.625 3.774-8.368 8.379-8.368h47.112c4.631 0 8.379 3.77 8.379 8.368v.16h.027zm-63.576-.321h63.228c-.081-4.357-3.668-7.886-8.058-7.886h-47.112c-4.391 0-7.951 3.502-8.058 7.886z"/></mask><path d="M182.19 200.741h-63.897v-.16c0-4.625 3.774-8.368 8.379-8.368h47.112c4.631 0 8.379 3.77 8.379 8.368v.16h.027zm-63.576-.321h63.228c-.081-4.357-3.668-7.886-8.058-7.886h-47.112c-4.391 0-7.951 3.502-8.058 7.886z" fill="#E8DDCF"/><path d="M118.293 200.741h-.381v.381h.381v-.381zm63.87 0h-.381v.381h.381v-.381zm-63.549-.321l-.381-.009-.009.39h.39v-.381zm63.228 0v.381h.388l-.007-.388-.381.007zm.348-.06h-63.897v.762h63.897v-.762zm-63.516.381v-.16h-.762v.16h.762zm0-.16c0-4.413 3.602-7.987 7.998-7.987v-.762c-4.814 0-8.76 3.912-8.76 8.749h.762zm7.998-7.987h47.112v-.762h-47.112v.762zm47.112 0c4.421 0 7.998 3.599 7.998 7.987h.762c0-4.808-3.918-8.749-8.76-8.749v.762zm7.998 7.987v.16h.762v-.16h-.762zm.381.541h.027v-.762h-.027v.762zm-63.549-.321h63.228v-.761h-63.228v.761zm63.609-.388c-.085-4.565-3.841-8.26-8.439-8.26v.762c4.183 0 7.601 3.363 7.677 7.512l.762-.014zm-8.439-8.26h-47.112v.762h47.112v-.762zm-47.112 0c-4.599 0-8.326 3.669-8.439 8.258l.762.019c.102-4.179 3.495-7.515 7.677-7.515v-.762z" fill="#2C3647" mask="url(#path-9-inside-2_434_10645)"/><path d="M176.597 171.755h-3.783v10.126h3.783v-10.126zm0 59.554h-3.783v10.127h3.783v-10.127zM73.83 113.326h-3.783v10.126h3.782v-10.126zm0 88.567h-3.783v10.127h3.782v-10.127z" fill="#2C3647" stroke="#2C3647" stroke-width=".751" stroke-miterlimit="10"/><path d="M182.66 107.673H82.064v21.781H182.66v-21.781z" fill="#FDF9F3" stroke="#2C3647" stroke-width=".751" stroke-miterlimit="10"/><path d="M156.263 113.219h-69.37v10.689h69.37v-10.689z" fill="#EEE9E2" stroke="#2C3647" stroke-width=".751" stroke-miterlimit="10"/><path d="M150.362 79.242H49.767v21.781h100.595v-21.78z" fill="#FDF9F3" stroke="#2C3647" stroke-width=".751" stroke-miterlimit="10"/><path d="M123.965 84.788h-69.37v10.689h69.37v-10.69z" fill="#EEE9E2" stroke="#2C3647" stroke-width=".751" stroke-miterlimit="10"/><path d="M150.362 79.242H49.767v21.781h100.595v-21.78z" fill="#FDF9F3" stroke="#2C3647" stroke-width=".751" stroke-miterlimit="10"/><path d="M123.965 84.788h-69.37v10.689h69.37v-10.69z" fill="#EEE9E2" stroke="#2C3647" stroke-width=".751" stroke-miterlimit="10"/><path d="M165.599 120.774a2.655 2.655 0 002.656-2.653 2.654 2.654 0 00-2.656-2.652 2.654 2.654 0 00-2.656 2.652 2.655 2.655 0 002.656 2.653z" fill="#FDF9F3" stroke="#2C3647" stroke-width=".751" stroke-miterlimit="10"/><path d="M176.141 120.774a2.655 2.655 0 002.656-2.653 2.654 2.654 0 00-2.656-2.652 2.654 2.654 0 00-2.656 2.652 2.655 2.655 0 002.656 2.653z" fill="#EEE9E2" stroke="#2C3647" stroke-width=".751" stroke-miterlimit="10"/><path d="M149.906 120.774a2.654 2.654 0 002.655-2.653 2.654 2.654 0 00-2.655-2.652 2.654 2.654 0 00-2.656 2.652 2.655 2.655 0 002.656 2.653z" fill="#FDF9F3" stroke="#2C3647" stroke-width=".751" stroke-miterlimit="10"/><path d="M178.797 129.454h-92.95v7.474h92.95v-7.474z" fill="#E8DDCF" stroke="#2C3647" stroke-width=".751" stroke-miterlimit="10"/><path d="M174.102 136.954H73.507v21.781h100.595v-21.781z" fill="#FDF9F3" stroke="#2C3647" stroke-width=".751" stroke-miterlimit="10"/><path d="M147.706 142.5h-69.37v10.689h69.37V142.5zm9.335 7.555a2.654 2.654 0 002.656-2.652 2.655 2.655 0 00-2.656-2.653 2.654 2.654 0 00-2.655 2.653 2.654 2.654 0 002.655 2.652z" fill="#EEE9E2" stroke="#2C3647" stroke-width=".751" stroke-miterlimit="10"/><path d="M167.583 150.055a2.654 2.654 0 002.656-2.652 2.655 2.655 0 00-2.656-2.653 2.654 2.654 0 00-2.655 2.653 2.654 2.654 0 002.655 2.652zm-26.235 0a2.654 2.654 0 002.656-2.652 2.655 2.655 0 00-2.656-2.653 2.655 2.655 0 00-2.656 2.653 2.654 2.654 0 002.656 2.652z" fill="#FDF9F3" stroke="#2C3647" stroke-width=".751" stroke-miterlimit="10"/><path d="M170.239 158.735h-92.95v7.474h92.95v-7.474z" fill="#E8DDCF" stroke="#2C3647" stroke-width=".751" stroke-miterlimit="10"/><path d="M174.102 166.129H73.507v21.78h100.595v-21.78z" fill="#FDF9F3" stroke="#2C3647" stroke-width=".751" stroke-miterlimit="10"/><path d="M147.706 171.755h-69.37v10.689h69.37v-10.689z" fill="#EEE9E2" stroke="#2C3647" stroke-width=".751" stroke-miterlimit="10"/><path d="M157.041 179.229a2.654 2.654 0 002.656-2.652 2.654 2.654 0 00-2.656-2.652 2.653 2.653 0 00-2.655 2.652 2.653 2.653 0 002.655 2.652z" fill="#FDF9F3" stroke="#2C3647" stroke-width=".751" stroke-miterlimit="10"/><path d="M167.583 179.229a2.654 2.654 0 002.656-2.652 2.654 2.654 0 00-2.656-2.652 2.653 2.653 0 00-2.655 2.652 2.653 2.653 0 002.655 2.652z" fill="#EEE9E2" stroke="#2C3647" stroke-width=".751" stroke-miterlimit="10"/><path d="M141.348 179.229a2.654 2.654 0 002.656-2.652 2.654 2.654 0 00-2.656-2.652 2.654 2.654 0 00-2.656 2.652 2.654 2.654 0 002.656 2.652z" fill="#FDF9F3" stroke="#2C3647" stroke-width=".751" stroke-miterlimit="10"/><path d="M170.239 187.909h-92.95v7.474h92.95v-7.474z" fill="#E8DDCF" stroke="#2C3647" stroke-width=".751" stroke-miterlimit="10"/><path d="M174.102 195.383H73.507v21.781h100.595v-21.781z" fill="#FDF9F3" stroke="#2C3647" stroke-width=".751" stroke-miterlimit="10"/><path d="M147.706 200.929h-69.37v10.689h69.37v-10.689zm9.335 7.555a2.654 2.654 0 002.656-2.652 2.655 2.655 0 00-2.656-2.653 2.654 2.654 0 00-2.655 2.653 2.654 2.654 0 002.655 2.652z" fill="#EEE9E2" stroke="#2C3647" stroke-width=".751" stroke-miterlimit="10"/><path d="M167.583 208.484a2.654 2.654 0 002.656-2.652 2.655 2.655 0 00-2.656-2.653 2.654 2.654 0 00-2.655 2.653 2.654 2.654 0 002.655 2.652zm-26.235 0a2.654 2.654 0 002.656-2.652 2.655 2.655 0 00-2.656-2.653 2.655 2.655 0 00-2.656 2.653 2.654 2.654 0 002.656 2.652z" fill="#FDF9F3" stroke="#2C3647" stroke-width=".751" stroke-miterlimit="10"/><path d="M170.239 217.164h-92.95v7.474h92.95v-7.474z" fill="#E8DDCF" stroke="#2C3647" stroke-width=".751" stroke-miterlimit="10"/><path d="M174.102 224.638H73.507v21.781h100.595v-21.781z" fill="#FDF9F3" stroke="#2C3647" stroke-width=".751" stroke-miterlimit="10"/><path d="M147.706 230.184h-69.37v10.689h69.37v-10.689z" fill="#EEE9E2" stroke="#2C3647" stroke-width=".751" stroke-miterlimit="10"/><path d="M157.041 237.658a2.654 2.654 0 002.656-2.652 2.654 2.654 0 00-2.656-2.652 2.653 2.653 0 00-2.655 2.652 2.653 2.653 0 002.655 2.652z" fill="#FDF9F3" stroke="#2C3647" stroke-width=".751" stroke-miterlimit="10"/><path d="M167.583 237.658a2.654 2.654 0 002.656-2.652 2.654 2.654 0 00-2.656-2.652 2.653 2.653 0 00-2.655 2.652 2.653 2.653 0 002.655 2.652z" fill="#EEE9E2" stroke="#2C3647" stroke-width=".751" stroke-miterlimit="10"/><path d="M141.348 237.658a2.654 2.654 0 002.656-2.652 2.654 2.654 0 00-2.656-2.652 2.654 2.654 0 00-2.656 2.652 2.654 2.654 0 002.656 2.652z" fill="#FDF9F3" stroke="#2C3647" stroke-width=".751" stroke-miterlimit="10"/><path d="M139.042 104.78h5.633m-44.664 0h32.593M69.322 237.015v4.019m0-16.476v8.439" stroke="#2C3647" stroke-width=".751" stroke-miterlimit="10" stroke-linecap="round" stroke-linejoin="round"/><path d="M81.18 117.242a6.143 6.143 0 00-3.096.848c.1-.449.15-.948.15-1.447a8.479 8.479 0 00-8.49-8.483c-4.144 0-7.59 2.994-8.339 6.936-.849-.299-1.697-.499-2.646-.499a7.477 7.477 0 00-7.49 7.485 7.478 7.478 0 007.49 7.485h22.42a6.136 6.136 0 006.143-6.138c0-3.393-2.747-6.187-6.142-6.187zm130.152 48.539c-1.5 0-2.875.374-4.125 1.122a9.654 9.654 0 00.188-1.933c0-6.237-5.062-11.289-11.311-11.289-5.562 0-10.124 3.991-11.124 9.231-1.125-.437-2.312-.624-3.499-.624-5.5 0-9.999 4.491-9.999 9.979 0 5.489 4.499 9.98 9.999 9.98h29.871a8.167 8.167 0 008.186-8.171c0-4.491-3.625-8.295-8.186-8.295z" fill="#fff" stroke="#263238" stroke-width=".751" stroke-miterlimit="10"/><path d="M206.082 184.305h2.5m-14.686 0h8.749m-16.998-30.125c1.188-.936 2.25-1.56 4.5-1.872m-7.5 6.425s.188-1.31 1.25-2.745" stroke="#263238" stroke-width=".751" stroke-miterlimit="10" stroke-linecap="round" stroke-linejoin="round"/><path d="M87.724 203.765c-2.25 0-4.313.624-6.187 1.621.187-.935.25-1.933.25-2.931 0-9.356-7.624-16.965-16.998-16.965-8.311 0-15.248 5.988-16.685 13.846a14.906 14.906 0 00-5.312-.997c-8.311 0-14.998 6.736-14.998 14.969 0 8.295 6.749 14.969 14.998 14.969H87.66c6.812 0 12.373-5.489 12.373-12.35.063-6.611-5.437-12.162-12.31-12.162z" fill="#fff" stroke="#263238" stroke-width=".751" stroke-miterlimit="10"/><path d="M31.355 227.154c.563.374 1.25.749 1.938 1.123m-6.874-6.861s.625 1.809 2.562 3.805m25.121-40.604c1.938-1.31 4.875-2.62 8.874-2.495m-11.56 4.99s.5-.686 1.5-1.56" stroke="#263238" stroke-width=".751" stroke-miterlimit="10" stroke-linecap="round" stroke-linejoin="round"/><path d="M171.697 188.304h.376v-3.042c0-2.022.804-3.961 2.236-5.391a7.643 7.643 0 0110.8 0 7.618 7.618 0 012.236 5.391v3.042h1.711a2.295 2.295 0 012.295 2.29v10.666a2.295 2.295 0 01-2.295 2.291h-18.694a2.295 2.295 0 01-2.295-2.291v-10.666a2.3 2.3 0 012.295-2.29h1.335zm6.301 11.623v.376h3.422v-3.195a3.041 3.041 0 00-1.711-5.559 3.047 3.047 0 00-2.942 2.255 3.034 3.034 0 001.231 3.304v2.819zm-2.67-11.999v.376h8.763v-3.042a4.383 4.383 0 00-8.763 0v2.666z" fill="#FFC01E" stroke="#2C3647" stroke-width=".751"/><path d="M89.661 156.984c-.814-1.249-1.14-2.824-.706-4.237.326-1.195 1.14-2.281 2.119-3.15-1.141-1.684-2.39-3.314-3.803-4.78l-.38-.381c-.217-.163-.543-.271-.815-.489-1.25 1.358-3.096 2.065-4.997 2.065-2.445-.272-4.618-2.065-5.432-4.346-2.336.38-4.672 1.032-6.79 1.955.434.707.543 1.63.543 2.445 0 .923-.163 1.847-.598 2.662a3.924 3.924 0 01-1.956 1.901c-.488.217-1.032.271-1.575.326-.923.108-1.847.054-2.77 0 0 0-1.793 6.464-1.575 6.464.597.163 1.14.272 1.738.489.652.163 1.25.38 1.792.76.544.381 1.032.87 1.195 1.521.11.435.055.87 0 1.304a7.014 7.014 0 01-2.281 4.02s4.4 4.291 4.454 4.237c.49-.706 1.304-1.141 2.119-1.575.326-.163.652-.326 1.032-.435 1.304-.435 2.77 0 3.802.923.978.924 1.521 2.282 1.576 3.64l4.671-.326c.706-.054 1.358-.163 2.01-.652-.054-1.358.272-2.716.87-3.965a4.696 4.696 0 011.14-1.576c.76-.651 1.793-.869 2.77-.814.978.054 1.956.38 2.934.76 1.032-1.901 2.064-3.802 2.39-6.029-1.358-.544-2.662-1.467-3.477-2.717z" fill="#fff"/><path d="M82.056 151.009c-1.412-.923-3.26-1.249-4.617-1.14-2.39.271-4.183 1.466-5.432 3.476-1.25 2.01-1.467 4.672-.49 6.79.979 2.173 3.151 3.748 5.542 4.074a7.458 7.458 0 005.595-1.738c1.52-1.304 2.118-3.205 2.336-5.16.108-.978-.272-4.563-2.934-6.302zm-2.716 10.376c-1.901.651-4.183-.109-5.378-1.684a3.725 3.725 0 01-.706-1.576c-.109-.597 0-1.195.109-1.738.326-1.412 1.14-2.716 2.39-3.476 1.195-.815 2.879-.978 4.183-.326 1.63.814 2.607 2.553 2.661 4.291.055 1.901-1.303 3.857-3.259 4.509z" fill="#FFC01E"/><path opacity=".129" d="M85.479 156.55c-.055-.217-.163-.489-.218-.706l-.489-1.304h-.108c-.49.217-.218.543-.218 1.032.055.435.163.869.218 1.304.054.435.054.869.054 1.304v.054c-.054.217-.163.489-.217.706-.272 1.032-.435 1.304-.978 2.119-.054.054-.109.108-.109.163-.054.054-.217.326-.271.38 0 0 0 .054-.055.054 0 .055-.054.055-.054.109-.054.109-.434.434-.434.489-.49.38-.435.38-.978.76-.38.272-.815.489-1.25.706-.543.218-1.195.544-2.064.598-.652 0-1.304 0-1.955-.054-.978-.163-1.25-.381-2.065-.815-.271-.163-.488-.435-.814-.38.217.271.489.488.706.706l.923.923c.978.38 2.065.598 3.15.543.598 0 1.196-.054 1.793-.217a7.024 7.024 0 002.825-1.467c.598-.543 1.25-1.032 1.793-1.683.706-1.141 1.032-2.499 1.032-3.531-.109-.489-.109-1.141-.217-1.793zm7.931 3.205c-.054-.326-.543-.38-.706-.109-.706 1.195-1.358 2.336-2.064 3.531-.326.489-.707.869-.924 1.413-.054.108-.163.271-.163.38-.108.434.435.76.815.543.163-.054.217-.217.272-.326a.752.752 0 00.162-.217c.707-1.032 1.033-2.227 1.63-3.259.272-.544.598-1.141.87-1.684.108-.055.108-.163.108-.272zM82.274 170.13c-.272-.108-.543.055-.815.109-1.738.489-2.933.489-4.943.434-.924 0-.924 1.358 0 1.358 1.52.055 3.096.055 4.563-.325a7.281 7.281 0 001.032-.272c.217-.054.434-.163.543-.326.272-.326.054-.869-.38-.978z" fill="#2C3647"/><path d="M76.246 172.487h-.002a.345.345 0 01-.25-.097.345.345 0 01-.096-.248 4.808 4.808 0 00-1.605-3.368l-.003-.003h0c-.372-.372-1.009-.796-1.748-.902-.632-.052-1.268.158-1.922.376-.978.381-1.933.808-2.515 1.709l-.004.006-.006.006-.002.002a.871.871 0 01-.088.08.218.218 0 01-.126.049h-.001c-.027 0-.073 0-.12-.008a.287.287 0 01-.145-.064c-1.902-1.414-3.372-2.829-4.517-4.3a.276.276 0 01-.071-.254.458.458 0 01.13-.228l.005-.006h0a6.3 6.3 0 002.2-3.703v-.001c.108-.538.106-1.012.003-1.32-.208-.623-.783-1.154-1.754-1.64-.914-.43-1.883-.7-2.907-.862a.215.215 0 01-.12-.049.76.76 0 01-.088-.079l-.002-.002c-.076-.077-.076-.161-.076-.258v-.026h.001c.381-2.178 1.035-4.41 1.906-6.587l.002-.006h0a.433.433 0 01.174-.175c.069-.038.163-.064.249-.024.584.212 1.615.32 2.65.199 1.04-.122 2.062-.471 2.64-1.156h.001c1.978-2.298 1.02-4.973.695-5.732a.32.32 0 01-.01-.239.319.319 0 01.153-.186h.002c1.044-.498 2.72-.994 4.525-1.529l.537-.159.002-.001h0c.242-.066.496-.142.757-.22.372-.111.757-.226 1.138-.322.147-.068.286.008.35.073l-.052.053.053-.053c.065.064.14.203.072.349a.503.503 0 00.016.192c.022.095.06.21.116.341a5.2 5.2 0 00.524.92c.47.673 1.168 1.396 2.023 1.823h0c1.963.995 3.557.872 4.739.405a5.732 5.732 0 002.284-1.688l.006-.007h0l.002-.002c.055-.055.129-.128.268-.128h.002c.027 0 .073 0 .12.008a.265.265 0 01.148.068s0 0 0 0l-.052.053a40.96 40.96 0 014.997 5.867l-15.208 23.053zm0 0c2.23-.055 4.46-.326 6.851-.815a.295.295 0 00.194-.09.293.293 0 00.09-.202c0-.104.013-.208.027-.317v-.002c.013-.106.027-.216.028-.327l.079-.519c.126-.84.246-1.635.513-2.394.483-1.18 1.284-2.029 2.235-2.345h0l.002-.001c1.325-.477 2.764.05 4.289.704a.318.318 0 00.238.009.314.314 0 00.185-.15 27.466 27.466 0 002.772-6.3.236.236 0 00.048-.146.23.23 0 00-.063-.162l-.001-.002a.882.882 0 00-.088-.08.227.227 0 00-.116-.048c-2.09-.539-3.747-2.201-4.174-4.124-.428-1.926.428-4.123 2.088-5.301l.001.001.009-.009.002-.002a.82.82 0 00.08-.087.216.216 0 00.049-.127v-.012c0-.095 0-.178-.072-.253l-15.266 23.101zm-3.635-5.256v-.001h-.006 0-.002 0-.002 0-.001 0-.002 0-.002 0-.001 0-.002 0-.001 0-.002 0-.001 0-.002 0-.002 0-.001 0-.001 0-.002 0-.001 0-.002 0-.001 0-.002 0-.001 0-.001 0-.002 0-.001 0-.001 0-.002 0-.001 0-.001 0-.002 0-.001 0-.001 0-.001 0-.002 0-.001 0-.001 0-.001 0-.002 0-.001 0-.001 0-.001 0-.001 0-.001 0-.002 0-.001 0-.001 0-.001 0-.001 0-.001 0-.001 0-.001 0-.002 0-.001 0-.001 0-.001 0-.001 0-.001 0-.001 0-.001 0-.001 0-.001 0-.001 0-.001 0-.001 0-.001 0-.001 0-.001 0-.001 0-.001 0-.001 0-.002 0-.001 0-.001 0-.001 0-.001 0-.001 0-.001 0-.001 0-.001 0-.001 0-.001 0-.001 0-.001 0-.001 0-.001 0-.001 0-.001 0-.001 0-.001 0-.001 0-.001 0-.001 0-.001 0-.001 0-.001 0-.001 0-.001 0-.001 0-.001 0-.001 0-.001 0-.001 0-.001 0-.001 0-.001 0-.001 0-.001 0-.001 0-.001 0-.001 0-.001 0-.001 0-.001 0-.001 0-.001 0-.001 0-.001 0-.001 0-.001 0-.001 0-.001 0-.001 0-.001 0-.001 0-.001 0-.001 0-.001 0-.001 0-.001 0-.001 0-.001 0-.001 0-.001 0-.001 0-.001 0-.001 0-.001 0-.001 0-.001 0-.001 0-.001 0-.001 0-.001 0-.001 0-.001 0-.001 0-.001 0-.001 0-.001 0-.001 0-.001 0-.001 0-.001 0-.001 0-.001 0-.001 0-.001 0-.001 0-.001 0-.001 0-.001 0-.001 0-.001 0-.001 0-.001 0-.001 0-.001 0-.001 0-.001 0-.001 0-.001 0-.001 0-.001 0-.001 0-.001 0-.001 0-.001 0-.001 0-.001 0-.001 0-.001 0-.001 0-.001 0-.001 0-.002 0-.001 0-.001 0-.001 0-.001 0-.001 0-.001 0-.001 0-.001 0-.002 0-.001 0-.001 0-.001 0-.001 0-.002 0-.001 0-.001 0-.001 0-.001 0-.002 0-.001 0-.001 0-.001 0-.002 0-.001 0-.001 0-.002 0-.001 0-.001 0-.002 0-.001 0-.001 0-.002 0-.001 0-.001 0-.002 0-.001 0-.002 0-.001 0-.002 0-.001 0-.002 0-.001 0-.002 0-.001 0-.002 0-.002 0-.001 0-.002 0-.002 0-.001 0-.002 0c-.565 0-1.13.16-1.648.307l-.274.076h0l-.007.003c-.958.372-1.932.802-2.648 1.703-1.63-1.267-2.95-2.481-3.958-3.744 1.125-1.038 1.928-2.444 2.198-3.905v-.002c.11-.655.112-1.214-.057-1.667-.281-.842-1.008-1.505-2.157-2.052h0l-.002-.001c-.851-.372-1.807-.693-2.767-.862.376-1.906.958-3.865 1.697-5.825.742.181 1.82.254 2.877.101 1.087-.157 2.168-.555 2.837-1.336 2.05-2.374 1.402-5.012.962-6.148.911-.399 2.29-.8 3.781-1.234.286-.083.576-.167.867-.253.443-.089.85-.214 1.277-.344l.222-.068c.108.499.46 1.164.964 1.798.534.671 1.249 1.318 2.049 1.705 2.028 1.014 3.733.933 5.042.478 1.255-.436 2.14-1.214 2.597-1.688a45.795 45.795 0 014.512 5.256c-1.722 1.329-2.577 3.665-2.087 5.789.436 2.07 2.162 3.866 4.325 4.542a25.545 25.545 0 01-2.437 5.56c-1.447-.587-3.025-1.121-4.5-.629-1.166.388-2.159 1.384-2.655 2.761-.384.988-.493 1.975-.602 3.061h0v.007c0 .074-.012.15-.026.232v.003c-.01.061-.021.126-.026.192-2.124.422-4.143.688-6.108.745a5.914 5.914 0 00-1.807-3.508v-.001c-.661-.605-1.437-.995-2.164-1.051z" fill="#2C3647" stroke="#2C3647" stroke-width=".15"/><path d="M77.656 161.873c-1.575 0-3.205-.76-4.128-2.009-.38-.544-.652-1.141-.76-1.739-.11-.543-.055-1.14.108-1.847.38-1.575 1.304-2.879 2.499-3.639 1.358-.869 3.096-1.032 4.4-.326 1.63.815 2.716 2.607 2.825 4.509.108 2.064-1.358 4.182-3.368 4.834-.544.109-1.032.217-1.576.217zm.272-9.506a4.03 4.03 0 00-2.281.706c-1.087.707-1.902 1.902-2.282 3.368-.163.652-.217 1.141-.109 1.63.109.489.326 1.032.652 1.467 1.14 1.521 3.314 2.172 5.106 1.575 1.793-.598 3.097-2.445 3.042-4.346a4.813 4.813 0 00-2.553-4.074c-.434-.217-1.032-.326-1.575-.326z" fill="#2C3647"/><path d="M77.657 164.535c-.272 0-.543 0-.815-.054-2.444-.272-4.726-1.956-5.758-4.183s-.815-4.943.489-7.062c1.304-2.118 3.205-3.368 5.595-3.585 1.575-.163 3.476.272 4.78 1.141 2.88 1.847 3.15 5.704 3.097 6.573-.218 2.39-1.032 4.182-2.445 5.378a7.783 7.783 0 01-4.943 1.792zm.163-14.395c-.217 0-.435 0-.598.054-2.281.218-3.965 1.358-5.215 3.368-1.249 1.956-1.412 4.509-.434 6.573.978 2.119 3.042 3.64 5.323 3.911 1.902.218 3.912-.38 5.378-1.684 1.304-1.086 2.01-2.716 2.227-4.997.109-1.032-.38-4.455-2.824-6.03-1.087-.815-2.5-1.195-3.857-1.195z" fill="#2C3647"/><path opacity=".129" d="M76.353 172.249c-.054-.381-.217-1.63-.434-2.173-.544-1.793-2.336-3.314-4.237-2.499-.815.326-1.521.815-2.119 1.304-.109-.055-.217-.055-.38 0-.435.163-.815.326-1.304.434h-.109c-.271-.163-.543-.326-.814-.543-.109-.054-.163-.163-.272-.217a1.279 1.279 0 00-.489-.326c-.163-.109-.38-.326-.76-.706-.435-.435-.87-.869-1.304-1.25-.272-.217-.543-.543-.87-.597-.325-.054-.651.163-.76.489-.108.326.055.652.38.815.218.163.38.38.544.543.706.76 1.358 1.629 2.227 2.173.434.38.869.814 1.358 1.195.38.271.87.543 1.358.543.652 0 1.14-.489 1.63-.924 1.195-1.032 2.553-1.738 3.096-1.412.543.272.652.435.869.706.435.706.326 1.087.543 2.282.055.217.055.434.163.652.055.217.163.488.38.651.163.163.38.272.598.272.163.054.38.054.543.054.218 0 .38.055.598-.054.271-.109.434-.326.38-.597.054-.652-.38-.815-.815-.815zm-11.57-13.255c-.924-.76-2.064-1.14-3.205-1.466h-.054s-.055-.055-.055-.109c-.434-.706-1.52-.109-1.086.652.326.706 1.14.815 1.847 1.032 1.086.38 2.118.761 2.662 1.195.271.272.814.054.76-.326-.054-.489-.543-.706-.87-.978z" fill="#2C3647"/></g><defs><clipPath id="clip0_434_10645"><rect width="248" height="338" rx="4" fill="#fff"/></clipPath><clipPath id="clip1_434_10645"><path fill="#fff" transform="translate(-1.685)" d="M0 0h247.867v338H0z"/></clipPath></defs></svg>