<svg width="33" height="32" fill="none" xmlns="http://www.w3.org/2000/svg"><g id="Business ready websites"><g id="Group" fill="#090909"><path id="Vector" d="M2.142 19.635c-.086 0-.171 0-.257-.086-.172-.086-.258-.344-.258-.516l.43-4.123c0-.344 0-.773-.172-1.117-.43-.773-.602-1.632-.602-2.491C1.283 7.264 5.75 4 11.334 4c5.584 0 10.051 3.264 10.051 7.302 0 4.037-4.467 7.302-10.05 7.302a13.88 13.88 0 01-4.983-.945 2.208 2.208 0 00-2.062.258l-1.804 1.546c-.086.086-.258.172-.344.172zM11.334 5.03c-4.982 0-9.02 2.835-9.02 6.27 0 .688.172 1.375.516 1.977.257.515.343 1.116.343 1.718l-.343 2.92.945-.687a3.088 3.088 0 013.092-.43c1.375.602 2.92.86 4.553.86 4.982 0 9.02-2.835 9.02-6.271-.086-3.522-4.123-6.357-9.106-6.357z"/><path id="Vector_2" d="M6.867 12.59a1.203 1.203 0 100-2.405 1.203 1.203 0 000 2.405z"/><path id="Vector_3" d="M11.248 12.59a1.203 1.203 0 100-2.405 1.203 1.203 0 000 2.405z"/><path id="Vector_4" d="M15.715 12.59a1.203 1.203 0 100-2.405 1.203 1.203 0 000 2.405z"/><path id="Vector_5" d="M25.852 21.782a1.203 1.203 0 100-2.405 1.203 1.203 0 000 2.405z"/><path id="Vector_6" d="M21.47 21.782a1.203 1.203 0 100-2.405 1.203 1.203 0 000 2.405z"/><path id="Vector_7" d="M17.09 21.782a1.203 1.203 0 100-2.405 1.203 1.203 0 000 2.405z"/><path id="Vector_8" d="M30.577 28.74c-.086 0-.258 0-.344-.086l-1.89-1.46c-.601-.43-1.374-.601-2.061-.258a13.534 13.534 0 01-4.983.945c-5.584 0-10.05-3.264-10.05-7.302 0-.859.257-1.804.686-2.663a.472.472 0 01.43-.258c3.35-.257 6.185-1.89 7.302-4.037a.473.473 0 01.43-.258c.429 0 .858-.086 1.202-.086 5.584 0 10.05 3.265 10.05 7.302 0 .86-.17 1.632-.6 2.406-.172.343-.258.773-.172 1.116l.43 4.124c0 .171-.087.43-.258.515h-.172zm-3.436-3.092c.687 0 1.374.257 1.89.687l.945.687-.344-2.835c-.086-.601.086-1.117.343-1.718.344-.687.516-1.288.516-1.976 0-3.436-4.038-6.27-9.02-6.27h-.86c-1.374 2.319-4.294 3.95-7.73 4.38-.258.602-.43 1.289-.43 1.89 0 3.437 4.037 6.271 9.02 6.271 1.632 0 3.178-.343 4.553-.859a2.645 2.645 0 011.117-.257z"/><path id="Vector_9" d="M30.92 14.738c-.086 0-.257 0-.343-.086-.258-.171-.516-.43-.773-.601-.258-.172-.344-.515-.172-.687.172-.258.515-.344.687-.172.344.172.601.43.86.601.257.172.257.516.085.773 0 .086-.172.172-.344.172z"/><path id="Vector_10" d="M28.086 13.02c-.086 0-.172 0-.172-.086-.688-.258-1.375-.516-2.062-.687-.258-.086-.43-.344-.344-.602.086-.258.344-.43.602-.343a9.82 9.82 0 012.233.773c.258.086.344.43.258.687-.086.172-.258.258-.515.258z"/><path id="Vector_11" d="M23.704 11.817c-.343 0-.687-.085-1.03-.085-.258 0-.516-.258-.516-.516s.258-.515.516-.515c.343 0 .687.086 1.03.086.258 0 .516.257.43.6.086.259-.172.43-.43.43z"/></g></g></svg>