<svg width="25" height="24" viewBox="0 0 25 24" fill="none" xmlns="http://www.w3.org/2000/svg">
<g id="book-open 1">
<path id="Vector" d="M2.33203 3H8.33203C9.3929 3 10.4103 3.42143 11.1605 4.17157C11.9106 4.92172 12.332 5.93913 12.332 7V21C12.332 20.2044 12.016 19.4413 11.4534 18.8787C10.8907 18.3161 10.1277 18 9.33203 18H2.33203V3Z" stroke="#D8DEFD" stroke-width="2" stroke-linecap="round" stroke-linejoin="round"/>
<path id="Vector_2" d="M22.332 3H16.332C15.2712 3 14.2537 3.42143 13.5036 4.17157C12.7535 4.92172 12.332 5.93913 12.332 7V21C12.332 20.2044 12.6481 19.4413 13.2107 18.8787C13.7733 18.3161 14.5364 18 15.332 18H22.332V3Z" stroke="#D8DEFD" stroke-width="2" stroke-linecap="round" stroke-linejoin="round"/>
</g>
</svg>
