<svg width="24" height="24" viewBox="0 0 24 24" fill="none" xmlns="http://www.w3.org/2000/svg">
<g clip-path="url(#clip0_706_5489)">
<path d="M17.5011 23H11.3652C11.2039 22.9991 11.0461 22.953 10.9098 22.8669C10.7735 22.7808 10.6643 22.6582 10.5945 22.5131C10.5247 22.3679 10.4972 22.2062 10.5152 22.0462C10.5331 21.8863 10.5958 21.7346 10.696 21.6085C10.9659 21.2702 11.1119 20.8502 11.11 20.4178C11.1013 19.9139 10.8946 19.4336 10.5343 19.0803C10.1741 18.727 9.68921 18.529 9.1841 18.529C8.67899 18.529 8.19409 18.727 7.83386 19.0803C7.47363 19.4336 7.26688 19.9139 7.25817 20.4178C7.25626 20.8502 7.40233 21.2702 7.6722 21.6085C7.77279 21.7351 7.83554 21.8874 7.85324 22.0479C7.87093 22.2085 7.84285 22.3708 7.77223 22.5161C7.70161 22.6615 7.59131 22.784 7.45401 22.8696C7.31671 22.9552 7.15799 23.0004 6.9961 23H0.860177C0.632044 23 0.413254 22.9096 0.25194 22.7486C0.0906255 22.5877 0 22.3694 0 22.1417V14.2493C0 14.0899 0.0444837 13.9336 0.128467 13.798C0.21245 13.6625 0.332614 13.5529 0.475494 13.4816C0.618374 13.4103 0.778326 13.3802 0.937425 13.3945C1.09652 13.4088 1.24849 13.467 1.37628 13.5627C1.66237 13.7772 2.00271 13.908 2.35914 13.9404C2.71557 13.9727 3.07398 13.9054 3.39419 13.7459C3.71439 13.5863 3.98372 13.341 4.17196 13.0372C4.3602 12.7335 4.45992 12.3835 4.45992 12.0264C4.45992 11.6693 4.3602 11.3192 4.17196 11.0155C3.98372 10.7118 3.71439 10.4664 3.39419 10.3069C3.07398 10.1474 2.71557 10.08 2.35914 10.1124C2.00271 10.1447 1.66237 10.2755 1.37628 10.4901C1.24849 10.5857 1.09652 10.644 0.937425 10.6583C0.778326 10.6726 0.618374 10.6424 0.475494 10.5712C0.332614 10.4999 0.21245 10.3903 0.128467 10.2547C0.0444837 10.1191 0 9.9629 0 9.80351V5.54086C0 5.31324 0.0906255 5.09494 0.25194 4.93398C0.413254 4.77303 0.632044 4.68261 0.860177 4.68261H5.68634C5.52323 4.13937 5.48964 3.56562 5.58825 3.00714C5.68686 2.44865 5.91495 1.9209 6.2543 1.46599C6.59366 1.01108 7.03489 0.641621 7.54278 0.387089C8.05067 0.132556 8.61116 0 9.17951 0C9.74787 0 10.3084 0.132556 10.8163 0.387089C11.3241 0.641621 11.7654 1.01108 12.1047 1.46599C12.4441 1.9209 12.6722 2.44865 12.7708 3.00714C12.8694 3.56562 12.8358 4.13937 12.6727 4.68261H17.4989C17.727 4.68261 17.9458 4.77303 18.1071 4.93398C18.2684 5.09494 18.359 5.31324 18.359 5.54086V8.527C18.9014 8.37361 19.4721 8.34779 20.0262 8.45157C20.5803 8.55535 21.1027 8.7859 21.5524 9.12511C22.0022 9.46433 22.3669 9.90297 22.6181 10.4066C22.8693 10.9102 23 11.465 23 12.0275C23 12.59 22.8693 13.1449 22.6181 13.6485C22.3669 14.1521 22.0022 14.5907 21.5524 14.9299C21.1027 15.2692 20.5803 15.4997 20.0262 15.6035C19.4721 15.7073 18.9014 15.6814 18.359 15.5281V22.1417C18.359 22.369 18.2687 22.5869 18.1079 22.7478C17.9471 22.9087 17.7289 22.9994 17.5011 23ZM12.7232 21.2835H16.641V14.1016C16.641 13.936 16.689 13.7738 16.7794 13.6348C16.8697 13.4958 16.9984 13.3858 17.15 13.3182C17.3016 13.2505 17.4695 13.2281 17.6336 13.2536C17.7977 13.2792 17.9508 13.3515 18.0746 13.462C18.3519 13.7087 18.6949 13.8702 19.0621 13.9269C19.4294 13.9835 19.8052 13.933 20.1443 13.7814C20.4834 13.6298 20.7713 13.3835 20.9733 13.0723C21.1753 12.7611 21.2828 12.3983 21.2828 12.0275C21.2828 11.6568 21.1753 11.2939 20.9733 10.9827C20.7713 10.6715 20.4834 10.4253 20.1443 10.2737C19.8052 10.122 19.4294 10.0715 19.0621 10.1282C18.6949 10.1849 18.3519 10.3463 18.0746 10.5931C17.9508 10.7036 17.7977 10.7759 17.6336 10.8014C17.4695 10.8269 17.3016 10.8045 17.15 10.7369C16.9984 10.6692 16.8697 10.5593 16.7794 10.4203C16.689 10.2812 16.641 10.1191 16.641 9.95342V6.39911H11.2121C11.0443 6.39908 10.8801 6.35006 10.7399 6.25811C10.5996 6.16615 10.4894 6.03526 10.4228 5.88157C10.3562 5.72788 10.3361 5.55811 10.3649 5.39316C10.3938 5.22821 10.4704 5.07529 10.5853 4.95324C10.8431 4.68008 11.0151 4.33761 11.0802 3.96806C11.1452 3.59852 11.1004 3.21806 10.9513 2.87362C10.8022 2.52918 10.5553 2.23582 10.241 2.02972C9.92681 1.82362 9.559 1.7138 9.18296 1.7138C8.80692 1.7138 8.4391 1.82362 8.12487 2.02972C7.81065 2.23582 7.56375 2.52918 7.41464 2.87362C7.26553 3.21806 7.22073 3.59852 7.28575 3.96806C7.35078 4.33761 7.5228 4.68008 7.78058 4.95324C7.89549 5.07529 7.9721 5.22821 8.00098 5.39316C8.02986 5.55811 8.00975 5.72788 7.94313 5.88157C7.8765 6.03526 7.76628 6.16615 7.62603 6.25811C7.48577 6.35006 7.32162 6.39908 7.1538 6.39911H1.72265V8.47951C1.98988 8.41936 2.26299 8.38904 2.53695 8.38911C3.05006 8.38967 3.55727 8.49826 4.02544 8.7078C4.49361 8.91733 4.91219 9.22309 5.25382 9.60508C5.59544 9.98707 5.85243 10.4367 6.00797 10.9246C6.16352 11.4124 6.21412 11.9276 6.15647 12.4363C6.09882 12.945 5.93422 13.4359 5.67343 13.8768C5.41264 14.3177 5.06152 14.6987 4.64304 14.995C4.22455 15.2912 3.74812 15.496 3.24488 15.5959C2.74164 15.6959 2.22293 15.6887 1.72265 15.575V21.2835H5.64046C5.5086 20.7478 5.50056 20.1891 5.61694 19.6499C5.73332 19.1106 5.97108 18.6048 6.31223 18.1707C6.65339 17.7366 7.08901 17.3855 7.58615 17.1441C8.08329 16.9028 8.62893 16.7773 9.18181 16.7773C9.73469 16.7773 10.2803 16.9028 10.7775 17.1441C11.2746 17.3855 11.7102 17.7366 12.0514 18.1707C12.3925 18.6048 12.6303 19.1106 12.7467 19.6499C12.8631 20.1891 12.855 20.7478 12.7232 21.2835Z" fill="#D8DEFD"/>
</g>
<defs>
<clipPath id="clip0_706_5489">
<rect width="24" height="24" fill="white"/>
</clipPath>
</defs>
</svg>
