<svg width="712" height="812" viewBox="0 0 712 812" fill="none" xmlns="http://www.w3.org/2000/svg">
<g clip-path="url(#clip0_338_4553)">
<rect width="712" height="812" fill="#E8DDCF"/>
<g clip-path="url(#clip1_338_4553)">
<path d="M781.55 625.02V620.315L778.827 624.152C768.174 639.161 757.793 653.214 745 666.376C732.228 679.516 717.246 690.914 700.041 700.565C682.827 710.223 663.835 718.131 643.058 724.286C622.331 730.427 600.492 733.5 577.533 733.5C533.295 733.5 496.019 725.58 465.64 709.817C435.175 694.01 410.483 673.61 391.533 648.627C372.561 623.617 358.877 595.088 350.486 563.025C342.081 530.907 337.878 498.129 337.878 464.688V342.081C337.878 341.3 337.646 340.499 337.015 339.882C336.414 339.293 335.633 339.056 334.902 338.981C333.488 338.837 331.633 339.241 329.527 339.95C325.233 341.394 319.036 344.414 311.27 348.729C295.7 357.378 273.495 371.419 246.894 389.112C193.678 424.507 122.738 474.607 51.8124 525.667C-19.1164 576.729 -90.0438 628.762 -143.238 668.028C-169.835 687.662 -192 704.104 -207.515 715.638C-215.273 721.405 -221.369 725.945 -225.525 729.043C-227.153 730.257 -228.484 731.25 -229.5 732.008V453.704L336.846 61.5H554.715V414.336C554.715 432.959 556.053 450.705 558.731 467.573C561.421 484.516 566.582 499.708 574.231 513.133C581.901 526.595 592.071 537.165 604.737 544.813C617.483 552.509 634.212 556.292 654.809 556.292C693.432 556.292 723.004 541.967 743.303 513.256C763.44 484.773 776.221 451.35 776.221 413.011V61.5H979.5V725.238H781.55V625.02Z" stroke="#FDF9F3" stroke-width="3"/>
<g clip-path="url(#clip2_338_4553)">
<path d="M603.36 270.742C595.273 251.352 588.36 234.341 580.565 216.085C554.509 226.952 528.617 238.646 502.434 249.208C509.893 267.963 517.524 285.391 525.037 303.407C551.093 292.54 577.304 281.609 603.36 270.742Z" fill="#E8DDCF"/>
<path d="M525.356 304.169C524.894 304.362 524.458 304.186 524.267 303.728C521.72 297.621 519.237 291.667 516.753 285.712C511.76 274.174 506.666 261.96 501.663 249.529C501.472 249.071 501.653 248.637 502.116 248.444C517.289 242.295 532.643 235.713 547.38 229.387C558.109 224.733 569.146 219.951 580.247 215.321C580.71 215.129 581.145 215.305 581.336 215.763C586.521 227.76 591.296 239.21 596.172 251.336C598.719 257.443 601.393 263.855 604.131 270.42C604.322 270.878 604.141 271.312 603.679 271.505C590.728 276.906 577.623 282.372 564.672 287.773C551.412 293.303 538.461 298.704 525.356 304.169ZM503.369 249.714C508.309 261.992 513.366 273.683 518.205 285.286C520.561 290.935 522.98 296.737 525.4 302.538C538.197 297.201 551.148 291.8 563.944 286.463C576.741 281.126 589.538 275.789 602.181 270.516C599.506 264.104 596.959 257.997 594.476 252.043C589.573 240.287 585.016 228.925 579.959 217.234C569.166 221.735 558.438 226.389 547.863 230.978C533.434 237.175 518.388 243.629 503.369 249.714Z" fill="#FDF9F3"/>
<path d="M502.624 249.666C521.212 255.176 539.555 260.968 557.898 266.76C565.983 250.125 573.569 233.161 580.565 216.085L502.624 249.666Z" fill="#E8DDCF"/>
<path d="M558.218 267.523C558.063 267.587 557.909 267.652 557.691 267.563L550.167 265.145C534.374 260.261 518.3 255.136 502.417 250.469C502.136 250.228 501.854 249.987 501.881 249.617C501.908 249.248 502.153 248.966 502.461 248.838L580.247 215.321C580.556 215.193 580.928 215.217 581.209 215.458C581.491 215.699 581.464 216.068 581.373 216.285C574.378 233.362 566.856 250.479 558.771 267.113C558.526 267.395 558.372 267.459 558.218 267.523ZM505.102 249.528C520.241 254.148 535.662 259.008 550.492 263.755L557.363 265.908C565.086 250.141 572.246 233.892 578.88 217.684L505.102 249.528Z" fill="#FDF9F3"/>
<g opacity="0.1294">
<path opacity="0.1294" d="M580.495 218.086C579.597 218.102 579.171 218.817 579.144 219.187C579.144 219.187 579.054 219.404 579.117 219.557C578.936 219.991 578.819 220.577 578.638 221.011C577.978 222.9 576.882 224.611 576.285 226.652C574.656 230.558 573.027 234.463 571.461 238.522C570.077 242.146 568.538 245.834 566.564 249.346C565.803 250.56 564.318 253.509 563.105 255.807C563.014 256.024 562.86 256.089 562.77 256.305C562.072 257.672 562.253 257.238 561.71 258.54C560.316 261.272 559.203 264.245 557.809 266.977C555.194 265.917 552.49 265.073 549.785 264.23C542.787 261.772 535.635 259.378 528.456 257.354C523.917 256.02 519.406 254.317 515.022 252.919C512.254 251.923 509.486 250.927 506.627 250.148C507.062 250.324 505.601 249.858 505.32 249.617C505.038 249.376 505.038 249.376 504.82 249.288C504.602 249.2 504.448 249.264 504.23 249.176C503.269 249.039 502.38 249.947 502.39 250.839C502.554 251.667 503.272 252.085 504.016 252.133C504.914 252.117 507.284 253.458 508.808 254.077C515.28 256.575 522.087 258.576 528.74 260.64C533.06 261.885 537.136 263.412 541.302 264.721C543.698 265.693 546.185 266.448 548.581 267.42C551.477 268.722 554.309 269.871 557.359 271.108C557.949 271.22 558.475 271.18 558.938 270.987C559.618 270.883 560.235 270.625 560.443 269.822C561.874 267.612 562.652 265.137 563.493 262.814C564.334 260.492 564.968 258.973 565.665 257.607C566.905 254.939 569.359 249.973 571.206 246.156C572.537 243.271 573.65 240.297 574.763 237.324C576.301 233.635 577.686 230.011 579.006 226.234C579.911 224.065 580.455 222.763 581.142 220.505C581.259 219.918 581.594 219.42 581.494 218.745C581.366 218.439 580.867 218.11 580.495 218.086Z" fill="#FDF9F3"/>
</g>
<path d="M525.601 303.888C525.447 303.952 525.075 303.928 524.857 303.84C524.422 303.663 524.231 303.205 524.412 302.771C530.549 289.278 537.213 275.746 544.376 262.542C544.557 262.108 545.083 262.068 545.519 262.245C545.955 262.422 545.992 262.944 545.811 263.378C538.738 276.364 532.074 289.897 526 303.542C525.91 303.759 525.756 303.824 525.601 303.888Z" fill="#FDF9F3"/>
<path d="M603.27 270.958C603.116 271.022 602.962 271.087 602.744 270.998C589.374 266.717 575.968 261.913 563.024 256.916C562.589 256.739 562.398 256.281 562.579 255.847C562.76 255.413 563.222 255.22 563.658 255.397C576.602 260.394 589.854 265.262 603.223 269.544C603.659 269.72 603.85 270.179 603.669 270.612C603.578 270.829 603.424 270.894 603.27 270.958Z" fill="#FDF9F3"/>
<g opacity="0.1294">
<path opacity="0.1294" d="M600.291 267.72C600.291 267.72 600.137 267.784 599.983 267.849C599.122 268.387 596.591 269.263 594.587 270.099C588.229 272.213 582.035 275.155 575.931 277.88C570.445 280.347 564.74 282.726 559.253 285.194C554.32 287.251 549.041 288.915 544.107 290.973C539.79 292.773 535.6 294.879 531.283 296.679C529.741 297.322 528.2 297.965 526.658 298.608C525.887 298.93 524.835 299.01 524.191 299.637C522.75 300.955 524.358 303.51 526.209 302.739C532.939 300.649 539.096 297.185 545.571 294.484C550.505 292.427 555.476 290.891 560.346 288.681C568.852 284.775 577.486 281.174 585.775 277.179C589.63 275.572 593.638 273.9 597.556 272.445C598.481 272.059 599.624 271.762 600.549 271.376C600.704 271.312 600.921 271.4 600.858 271.248C601.756 271.231 602.617 270.693 602.762 269.737C603.05 267.824 601.371 267.27 600.291 267.72Z" fill="#FDF9F3"/>
</g>
</g>
</g>
<g clip-path="url(#clip3_338_4553)">
<path d="M740.051 351.303C730.116 332.793 721.58 316.535 712.046 299.124C687.171 312.475 662.54 326.633 637.508 339.692C646.757 357.632 656.047 374.235 665.278 391.434C690.153 378.083 715.176 364.654 740.051 351.303Z" fill="#E8DDCF"/>
<path d="M665.669 392.162C665.228 392.399 664.777 392.266 664.542 391.828C661.413 385.998 658.362 380.314 655.312 374.63C649.219 363.631 642.961 351.971 636.772 340.086C636.538 339.649 636.676 339.2 637.117 338.963C651.62 331.367 666.261 323.321 680.313 315.592C690.538 309.916 701.058 304.083 711.655 298.395C712.097 298.158 712.548 298.291 712.782 298.729C719.109 310.164 724.976 321.096 731.009 332.689C734.138 338.519 737.423 344.641 740.787 350.908C741.022 351.345 740.884 351.795 740.442 352.032C728.078 358.667 715.567 365.382 703.203 372.018C690.544 378.812 678.18 385.447 665.669 392.162ZM638.488 340.104C644.599 351.843 650.769 362.987 656.715 374.064C659.609 379.457 662.581 384.996 665.554 390.534C677.771 383.978 690.135 377.342 702.352 370.785C714.568 364.228 726.785 357.672 738.855 351.194C735.569 345.072 732.44 339.242 729.39 333.558C723.366 322.335 717.725 311.47 711.554 300.326C701.251 305.856 691.026 311.532 680.948 317.128C667.19 324.7 652.844 332.587 638.488 340.104Z" fill="#FDF9F3"/>
<path d="M637.743 340.128C656.779 343.804 675.598 347.784 694.418 351.764C700.846 334.421 706.745 316.8 712.046 299.124L637.743 340.128Z" fill="#E8DDCF"/>
<path d="M694.81 352.492C694.663 352.571 694.515 352.65 694.29 352.583L686.566 350.909C670.373 347.585 653.877 344.048 637.615 340.948C637.311 340.736 637.008 340.523 636.998 340.153C636.989 339.782 637.205 339.478 637.5 339.32L711.656 298.394C711.95 298.236 712.323 298.224 712.627 298.437C712.93 298.649 712.939 299.02 712.87 299.244C707.569 316.921 701.749 334.688 695.32 352.03C695.104 352.334 694.957 352.413 694.81 352.492ZM640.195 339.751C655.712 342.875 671.532 346.212 686.755 349.494L693.802 350.968C699.954 334.525 705.499 317.656 710.525 300.879L640.195 339.751Z" fill="#FDF9F3"/>
<g opacity="0.1294">
<path opacity="0.1294" d="M712.171 301.122C711.279 301.226 710.925 301.979 710.934 302.349C710.934 302.349 710.865 302.574 710.943 302.72C710.805 303.169 710.745 303.765 710.607 304.214C710.134 306.158 709.21 307.968 708.814 310.058C707.573 314.103 706.332 318.149 705.168 322.34C704.143 326.082 702.971 329.902 701.348 333.59C700.708 334.871 699.517 337.951 698.533 340.356C698.464 340.581 698.317 340.66 698.248 340.885C697.687 342.312 697.825 341.863 697.411 343.211C696.289 346.066 695.471 349.134 694.349 351.989C691.644 351.188 688.87 350.612 686.096 350.035C678.892 348.27 671.541 346.583 664.199 345.267C659.553 344.381 654.897 343.125 650.398 342.16C647.546 341.438 644.694 340.716 641.773 340.219C642.224 340.352 640.724 340.031 640.42 339.818C640.117 339.606 640.117 339.606 639.891 339.539C639.666 339.472 639.519 339.551 639.293 339.485C638.323 339.442 637.527 340.433 637.624 341.319C637.868 342.127 638.622 342.473 639.367 342.449C640.26 342.345 642.748 343.45 644.326 343.917C651.011 345.774 657.98 347.103 664.802 348.51C669.223 349.329 673.428 350.451 677.701 351.349C680.181 352.084 682.729 352.593 685.209 353.327C688.218 354.341 691.148 355.209 694.304 356.143C694.902 356.198 695.422 356.107 695.863 355.87C696.53 355.699 697.119 355.384 697.248 354.564C698.457 352.225 698.99 349.686 699.602 347.293C700.213 344.899 700.696 343.326 701.257 341.899C702.232 339.123 704.19 333.941 705.657 329.962C706.701 326.962 707.519 323.894 708.338 320.827C709.51 317.006 710.535 313.264 711.482 309.377C712.172 307.129 712.586 305.781 713.05 303.466C713.11 302.871 713.395 302.343 713.229 301.681C713.073 301.389 712.544 301.11 712.171 301.122Z" fill="#FDF9F3"/>
</g>
<path d="M665.885 391.858C665.738 391.937 665.365 391.949 665.14 391.883C664.689 391.749 664.454 391.312 664.592 390.862C669.388 376.837 674.704 362.72 680.548 348.882C680.686 348.432 681.206 348.341 681.657 348.475C682.107 348.608 682.195 349.125 682.057 349.574C676.281 363.187 670.966 377.304 666.249 391.475C666.18 391.7 666.032 391.779 665.885 391.858Z" fill="#FDF9F3"/>
<path d="M739.982 351.528C739.835 351.607 739.688 351.686 739.463 351.619C725.74 348.658 711.93 345.181 698.561 341.468C698.111 341.334 697.876 340.897 698.014 340.447C698.152 339.998 698.593 339.761 699.044 339.894C712.413 343.608 726.076 347.164 739.798 350.125C740.249 350.258 740.484 350.695 740.346 351.145C740.277 351.37 740.13 351.449 739.982 351.528Z" fill="#FDF9F3"/>
<g opacity="0.1294">
<path opacity="0.1294" d="M736.703 348.595C736.703 348.595 736.555 348.674 736.408 348.753C735.603 349.373 733.17 350.491 731.257 351.518C725.134 354.24 719.256 357.771 713.446 361.076C708.226 364.066 702.78 366.989 697.559 369.978C692.849 372.506 687.757 374.676 683.047 377.204C678.926 379.416 674.961 381.919 670.839 384.131C669.368 384.921 667.896 385.711 666.424 386.501C665.688 386.896 664.648 387.078 664.069 387.765C662.762 389.217 664.612 391.603 666.378 390.656C672.873 387.921 678.664 383.874 684.846 380.556C689.556 378.028 694.354 376.017 698.986 373.343C707.072 368.628 715.315 364.204 723.175 359.422C726.855 357.447 730.682 355.393 734.44 353.564C735.323 353.09 736.432 352.683 737.315 352.209C737.462 352.13 737.688 352.196 737.609 352.051C738.502 351.947 739.307 351.327 739.357 350.362C739.458 348.43 737.733 348.042 736.703 348.595Z" fill="#FDF9F3"/>
</g>
</g>
<g clip-path="url(#clip4_338_4553)">
<path d="M40.0203 606.12C46.694 586.2 52.6853 568.843 58.8327 549.968C32.0638 540.999 4.87361 532.762 -21.7903 523.48C-28.518 542.51 -34.2443 560.653 -40.4451 579.161C-13.6761 588.13 13.2513 597.151 40.0203 606.12Z" fill="#E8DDCF"/>
<path d="M-40.7074 579.946C-41.1826 579.786 -41.3943 579.367 -41.2367 578.896C-39.1347 572.622 -37.0853 566.505 -35.0359 560.388C-31.2006 548.414 -26.9967 535.866 -22.5819 523.215C-22.4242 522.744 -22.0023 522.537 -21.5271 522.696C-6.05684 528.053 9.83534 533.203 25.0939 538.141C36.2342 541.699 47.6913 545.363 59.0959 549.183C59.5711 549.343 59.7827 549.762 59.6251 550.233C55.6321 562.677 51.691 574.441 47.3813 586.779C45.2793 593.053 43.0723 599.64 40.8127 606.385C40.655 606.855 40.2331 607.063 39.7579 606.904C26.4526 602.446 12.989 597.935 -0.316342 593.478C-13.9384 588.914 -27.2437 584.456 -40.7074 579.946ZM-21.419 524.477C-25.7813 536.971 -29.6692 549.102 -33.6629 561.022C-35.6072 566.826 -37.604 572.786 -39.6009 578.746C-26.454 583.151 -13.1487 587.608 -0.00180165 592.013C13.1451 596.418 26.292 600.822 39.2805 605.174C41.4875 598.586 43.5895 592.312 45.6389 586.195C49.6851 574.118 53.7321 562.564 57.62 550.434C46.5322 546.719 35.392 543.161 24.4101 539.656C9.46825 534.825 -6.10714 529.781 -21.419 524.477Z" fill="#FDF9F3"/>
<path d="M-21.9481 523.95C-11.581 540.333 -1.58331 556.767 8.41442 573.2C25.4499 565.998 42.3263 558.219 58.8325 549.967L-21.9481 523.95Z" fill="#E8DDCF"/>
<path d="M8.15259 573.985C7.9942 573.932 7.8358 573.879 7.72995 573.669L3.65669 566.896C-5.01832 552.825 -13.7466 538.387 -22.6326 524.419C-22.6859 524.052 -22.7392 523.685 -22.4757 523.425C-22.2122 523.164 -21.8429 523.113 -21.5261 523.22L59.0962 549.184C59.413 549.29 59.6773 549.553 59.7306 549.92C59.7839 550.286 59.5204 550.547 59.3094 550.651C42.8031 558.902 25.8742 566.838 8.83873 574.04C8.46939 574.091 8.31099 574.038 8.15259 573.985ZM-19.9924 525.478C-11.6349 538.92 -3.22416 552.728 4.81651 566.064L8.57223 572.207C24.764 565.42 40.8491 557.899 56.5116 550.062L-19.9924 525.478Z" fill="#FDF9F3"/>
<g opacity="0.1294">
<path opacity="0.1294" d="M57.463 551.428C56.7761 550.849 55.9849 551.107 55.7214 551.368C55.7214 551.368 55.5105 551.471 55.4579 551.628C55.036 551.836 54.5616 552.2 54.1397 552.408C52.3996 553.395 50.4478 553.962 48.6551 555.106C44.8581 556.974 41.0611 558.842 37.2115 560.867C33.7839 562.685 30.1978 564.449 26.4 565.793C25.0285 566.206 21.9694 567.449 19.5432 568.381C19.3322 568.485 19.1738 568.431 18.9629 568.535C17.5388 569.105 17.9607 568.897 16.6951 569.52C13.8469 570.659 11.0521 572.165 8.20395 573.304C6.93378 570.785 5.45266 568.37 3.97155 565.955C0.320928 559.498 -3.48809 552.989 -7.5606 546.74C-10.0994 542.749 -12.3748 538.497 -14.7552 534.56C-16.1838 531.988 -17.6124 529.416 -19.2519 526.947C-19.0402 527.367 -19.8337 526.055 -19.887 525.688C-19.9403 525.321 -19.9403 525.321 -20.0461 525.111C-20.152 524.901 -20.3104 524.848 -20.4162 524.638C-21.0505 523.902 -22.317 524.001 -22.8965 524.68C-23.3176 525.411 -23.0526 526.197 -22.5242 526.723C-21.8373 527.302 -20.9364 529.872 -20.1955 531.341C-16.9675 537.482 -13.1593 543.468 -9.5094 549.401C-7.0764 553.182 -5.01275 557.014 -2.73815 560.741C-1.57383 563.05 -0.198558 565.256 0.965765 567.565C2.28924 570.451 3.66526 573.18 5.14713 576.118C5.51722 576.591 5.93986 576.907 6.41505 577.066C6.99608 577.436 7.62967 577.648 8.31505 577.18C10.8471 576.458 13.0617 575.106 15.2237 573.912C17.3857 572.717 18.8623 571.991 20.2864 571.421C22.9761 570.229 28.0921 568.105 31.995 566.447C34.8956 565.15 37.6905 563.644 40.4853 562.138C44.0714 560.374 47.499 558.557 50.9793 556.583C53.0887 555.545 54.3544 554.922 56.358 553.674C56.8324 553.31 57.4127 553.155 57.7813 552.581C57.8864 552.267 57.7273 551.691 57.463 551.428Z" fill="#FDF9F3"/>
</g>
<path d="M-40.3379 579.895C-40.4963 579.842 -40.7606 579.579 -40.8664 579.369C-41.0781 578.949 -40.9204 578.479 -40.4986 578.271C-26.9973 572.153 -13.0734 566.35 1.00958 561.125C1.43147 560.917 1.8541 561.233 2.0658 561.653C2.27749 562.073 1.96145 562.49 1.53956 562.698C-12.3325 567.82 -26.2564 573.622 -39.8102 579.897C-40.0211 580.001 -40.1795 579.948 -40.3379 579.895Z" fill="#FDF9F3"/>
<path d="M39.8098 606.224C39.6514 606.17 39.493 606.117 39.3871 605.908C32.14 593.885 25.2088 581.444 18.7528 569.163C18.5411 568.743 18.6988 568.272 19.1207 568.065C19.5426 567.857 20.0178 568.017 20.2295 568.436C26.6854 580.718 33.4582 593.105 40.7054 605.128C40.9171 605.548 40.7594 606.018 40.3375 606.226C40.1266 606.33 39.9682 606.277 39.8098 606.224Z" fill="#FDF9F3"/>
<g opacity="0.1294">
<path opacity="0.1294" d="M39.6983 601.825C39.6983 601.825 39.54 601.772 39.3816 601.719C38.3786 601.557 35.8968 600.551 33.8377 599.862C27.6595 597.268 21.0601 595.406 14.6717 593.44C8.9169 591.687 3.05624 589.723 -2.69858 587.97C-7.76727 586.272 -12.8367 584.05 -17.9054 582.352C-22.3405 580.866 -26.8807 579.694 -31.3158 578.208C-32.8997 577.677 -34.4837 577.146 -36.0677 576.616C-36.8597 576.35 -37.7049 575.718 -38.602 575.767C-40.5546 575.81 -41.0253 578.793 -39.1245 579.43C-32.682 582.286 -25.7667 583.73 -19.114 585.959C-14.0453 587.657 -9.29268 589.773 -4.17145 591.314C4.80385 593.972 13.674 596.944 22.5435 599.392C26.5034 600.719 30.6217 602.099 34.5291 603.582C35.4794 603.901 36.5357 604.429 37.4861 604.747C37.6444 604.8 37.7503 605.01 37.8028 604.854C38.4897 605.433 39.4927 605.594 40.2306 604.969C41.7065 603.719 40.8071 602.197 39.6983 601.825Z" fill="#FDF9F3"/>
</g>
</g>
<path d="M315.006 289.576C318.53 267.823 321.784 248.838 324.941 228.256C295.708 223.519 266.163 219.611 236.986 214.532C233.254 235.373 230.408 255.127 227.133 275.339C256.366 280.075 285.772 284.84 315.006 289.576Z" fill="white"/>
<path d="M226.994 276.195C226.475 276.111 226.185 275.712 226.268 275.198C227.378 268.347 228.461 261.667 229.543 254.986C231.479 241.941 233.7 228.238 236.121 214.391C236.204 213.877 236.605 213.591 237.124 213.675C254.048 216.593 271.374 219.224 288.007 221.744C300.144 223.534 312.626 225.381 325.08 227.399C325.599 227.483 325.889 227.882 325.806 228.396C323.787 241.955 321.705 254.802 319.34 268.305C318.23 275.157 317.064 282.351 315.87 289.716C315.787 290.23 315.386 290.517 314.867 290.433C300.337 288.078 285.634 285.696 271.104 283.342C256.227 280.931 241.697 278.577 226.994 276.195ZM237.539 215.5C235.145 229.175 233.181 242.392 231.072 255.41C230.045 261.748 228.991 268.256 227.936 274.765C242.293 277.092 256.823 279.446 271.18 281.772C285.537 284.098 299.895 286.425 314.079 288.723C315.244 281.529 316.355 274.677 317.437 267.997C319.574 254.808 321.801 242.161 323.765 228.944C311.656 226.982 299.52 225.191 287.557 223.429C271.269 220.965 254.29 218.39 237.539 215.5Z" fill="#2C3647"/>
<path d="M236.902 215.045C250.416 230.243 263.557 245.556 276.697 260.869C293.108 250.52 309.256 239.601 324.941 228.255L236.902 215.045Z" fill="white"/>
<path d="M276.559 261.725C276.386 261.697 276.213 261.669 276.068 261.47L270.701 255.151C259.331 242.059 247.843 228.595 236.273 215.646C236.155 215.276 236.038 214.905 236.266 214.591C236.495 214.276 236.868 214.161 237.214 214.217L325.08 227.399C325.426 227.455 325.745 227.682 325.862 228.053C325.98 228.423 325.751 228.738 325.55 228.881C309.866 240.227 293.69 251.317 277.279 261.666C276.905 261.781 276.732 261.753 276.559 261.725ZM239.186 216.294C250.12 228.789 261.172 241.654 271.76 254.092L276.691 259.813C292.299 250.037 307.672 239.52 322.554 228.747L239.186 216.294Z" fill="#2C3647"/>
<g opacity="0.1294">
<path opacity="0.1294" d="M323.771 230C322.962 229.517 322.187 229.919 321.958 230.233C321.958 230.233 321.758 230.377 321.73 230.548C321.328 230.834 320.899 231.292 320.498 231.579C318.864 232.896 316.94 233.815 315.279 235.303C311.666 237.882 308.052 240.461 304.412 243.211C301.172 245.674 297.76 248.11 294.057 250.146C292.707 250.807 289.752 252.613 287.399 253.99C287.198 254.133 287.025 254.105 286.824 254.248C285.447 255.08 285.848 254.793 284.644 255.653C281.889 257.316 279.252 259.349 276.497 261.012C274.754 258.621 272.811 256.372 270.868 254.124C265.992 248.06 260.943 241.969 255.666 236.192C252.36 232.492 249.283 228.477 246.15 224.806C244.234 222.386 242.318 219.966 240.202 217.69C240.493 218.088 239.448 216.864 239.331 216.494C239.213 216.123 239.213 216.123 239.068 215.924C238.923 215.724 238.75 215.696 238.605 215.497C237.823 214.843 236.529 215.161 236.044 215.961C235.732 216.79 236.14 217.559 236.777 218.013C237.586 218.496 238.955 221.003 239.972 222.398C244.356 228.207 249.315 233.756 254.101 239.278C257.262 242.778 260.049 246.394 263.036 249.866C264.634 252.059 266.432 254.108 268.03 256.301C269.89 259.063 271.778 261.654 273.811 264.444C274.274 264.871 274.765 265.126 275.284 265.21C275.948 265.494 276.64 265.606 277.27 265.005C279.769 263.828 281.832 262.053 283.867 260.449C285.902 258.845 287.307 257.842 288.684 257.01C291.266 255.319 296.201 252.252 299.959 249.872C302.742 248.038 305.379 246.004 308.016 243.971C311.429 241.535 314.668 239.072 317.935 236.437C319.943 235.004 321.147 234.145 323.009 232.513C323.438 232.055 324.013 231.797 324.297 231.139C324.352 230.797 324.09 230.227 323.771 230Z" fill="#2C3647"/>
</g>
<path d="M227.368 276.079C227.195 276.051 226.877 275.824 226.732 275.624C226.441 275.226 226.524 274.712 226.926 274.425C239.862 265.799 253.29 257.427 266.98 249.626C267.382 249.339 267.873 249.595 268.163 249.993C268.454 250.392 268.198 250.878 267.796 251.164C254.307 258.822 240.879 267.194 227.915 275.992C227.714 276.135 227.541 276.107 227.368 276.079Z" fill="#2C3647"/>
<path d="M314.805 289.72C314.632 289.692 314.459 289.664 314.314 289.464C304.77 278.25 295.482 266.549 286.713 254.933C286.423 254.534 286.506 254.021 286.907 253.734C287.309 253.448 287.828 253.532 288.118 253.93C296.887 265.547 306.002 277.219 315.546 288.433C315.837 288.832 315.753 289.346 315.352 289.632C315.151 289.776 314.978 289.748 314.805 289.72Z" fill="#2C3647"/>
<g opacity="0.1294">
<path opacity="0.1294" d="M313.942 285.185C313.942 285.185 313.769 285.157 313.596 285.129C312.53 285.132 309.79 284.512 307.541 284.148C300.706 282.513 293.558 281.706 286.611 280.756C280.356 279.919 273.956 278.882 267.701 278.044C262.166 277.147 256.541 275.708 251.005 274.812C246.162 274.027 241.263 273.585 236.42 272.8C234.69 272.52 232.96 272.239 231.231 271.959C230.366 271.819 229.383 271.308 228.463 271.511C226.449 271.887 226.469 275.055 228.544 275.391C235.698 277.253 243.102 277.574 250.367 278.751C255.902 279.648 261.181 281.031 266.745 281.756C276.487 282.983 286.173 284.553 295.77 285.58C300.095 286.281 304.592 287.01 308.889 287.882C309.927 288.05 311.11 288.417 312.148 288.586C312.321 288.614 312.466 288.813 312.494 288.642C313.303 289.124 314.369 289.121 315.026 288.349C316.342 286.804 315.152 285.381 313.942 285.185Z" fill="#2C3647"/>
</g>
<path d="M148.459 459.327C158.176 442.663 166.802 428.176 175.851 412.353C153.457 399.295 130.548 386.815 108.307 373.494C98.7076 389.348 90.1736 404.592 81.145 420.075C103.539 433.133 126.065 446.269 148.459 459.327Z" fill="#EEE9E2"/>
<path d="M80.7623 420.731C80.3648 420.499 80.2528 420.082 80.4823 419.688C83.5429 414.44 86.5269 409.322 89.5109 404.205C95.1934 394.156 101.314 383.659 107.645 373.108C107.874 372.714 108.292 372.606 108.69 372.838C121.599 380.541 134.926 388.137 147.723 395.424C157.076 400.701 166.693 406.133 176.233 411.697C176.631 411.928 176.743 412.345 176.513 412.739C170.601 423.182 164.863 433.023 158.686 443.312C155.625 448.56 152.411 454.071 149.121 459.713C148.892 460.107 148.474 460.215 148.076 459.983C136.946 453.492 125.682 446.925 114.552 440.434C103.156 433.789 92.0255 427.299 80.7623 420.731ZM108.455 374.459C102.201 384.879 96.4419 395.06 90.6269 405.032C87.796 409.887 84.8885 414.873 81.981 419.859C92.9791 426.272 104.11 432.763 115.108 439.176C126.106 445.589 137.104 452.002 147.97 458.338C151.183 452.827 154.244 447.579 157.228 442.462C163.119 432.358 168.914 422.726 174.673 412.545C165.397 407.136 156.045 401.859 146.826 396.658C134.294 389.526 121.231 382.085 108.455 374.459Z" fill="#2C3647"/>
<path d="M108.077 373.887C114.341 390.551 120.263 407.192 126.185 423.832C142.845 420.536 159.47 416.691 175.85 412.352L108.077 373.887Z" fill="#EEE9E2"/>
<path d="M125.803 424.489C125.67 424.411 125.538 424.334 125.482 424.126L123.083 417.276C117.91 403.006 112.756 388.397 107.374 374.18C107.394 373.841 107.415 373.501 107.7 373.316C107.986 373.131 108.327 373.154 108.592 373.309L176.233 411.696C176.498 411.851 176.686 412.137 176.666 412.476C176.645 412.816 176.36 413.001 176.151 413.055C159.771 417.394 143.07 421.37 126.409 424.666C126.068 424.643 125.935 424.566 125.803 424.489ZM109.55 375.625C114.556 389.27 119.541 403.254 124.282 416.744L126.512 422.968C142.336 419.887 158.201 416.127 173.745 412.004L109.55 375.625Z" fill="#2C3647"/>
<g opacity="0.1294">
<path opacity="0.1294" d="M174.347 413.409C173.837 412.761 173.078 412.845 172.792 413.03C172.792 413.03 172.583 413.084 172.506 413.216C172.088 413.323 171.594 413.563 171.176 413.67C169.427 414.233 167.566 414.379 165.741 415.073C161.979 416.044 158.217 417.015 154.378 418.117C150.957 419.112 147.403 420.029 143.738 420.529C142.428 420.644 139.446 421.191 137.09 421.576C136.881 421.63 136.749 421.552 136.54 421.606C135.153 421.853 135.571 421.745 134.317 422.068C131.544 422.561 128.75 423.394 125.977 423.886C125.305 421.385 124.424 418.937 123.543 416.489C121.466 410.003 119.256 403.439 116.76 397.061C115.222 392.999 113.97 388.752 112.565 384.768C111.76 382.189 110.956 379.61 109.942 377.085C110.054 377.502 109.586 376.173 109.606 375.834C109.627 375.494 109.627 375.494 109.571 375.286C109.515 375.077 109.382 375 109.326 374.791C108.893 374.011 107.736 373.864 107.089 374.366C106.574 374.944 106.665 375.701 107.042 376.273C107.552 376.921 107.882 379.4 108.274 380.859C110.03 386.982 112.337 393.075 114.512 399.09C115.994 402.944 117.134 406.774 118.483 410.55C119.099 412.843 119.924 415.082 120.54 417.376C121.192 420.217 121.92 422.927 122.703 425.846C122.948 426.34 123.269 426.703 123.667 426.935C124.12 427.375 124.65 427.684 125.354 427.391C127.765 427.215 130.008 426.413 132.175 425.742C134.342 425.072 135.805 424.694 137.191 424.448C139.832 423.878 144.828 422.923 148.646 422.16C151.496 421.536 154.29 420.704 157.084 419.871C160.637 418.954 164.058 417.96 167.555 416.834C169.646 416.295 170.9 415.971 172.934 415.223C173.428 414.984 173.979 414.953 174.418 414.506C174.571 414.243 174.535 413.695 174.347 413.409Z" fill="#2C3647"/>
</g>
<path d="M81.104 420.754C80.9715 420.677 80.783 420.391 80.727 420.182C80.615 419.765 80.8446 419.372 81.2626 419.264C94.5429 416.282 108.144 413.664 121.781 411.593C122.199 411.485 122.52 411.848 122.632 412.265C122.744 412.682 122.382 412.999 121.964 413.107C108.536 415.123 94.9349 417.742 81.5781 420.854C81.369 420.908 81.2365 420.831 81.104 420.754Z" fill="#2C3647"/>
<path d="M148.25 459.381C148.118 459.304 147.985 459.227 147.929 459.018C143.657 446.856 139.747 434.378 136.234 422.132C136.122 421.715 136.351 421.321 136.77 421.213C137.188 421.105 137.585 421.337 137.697 421.754C141.21 434 144.988 446.401 149.26 458.563C149.372 458.98 149.142 459.374 148.724 459.482C148.515 459.536 148.383 459.458 148.25 459.381Z" fill="#2C3647"/>
<g opacity="0.1294">
<path opacity="0.1294" d="M148.97 455.405C148.97 455.405 148.838 455.328 148.705 455.25C147.834 454.918 145.79 453.55 144.067 452.546C138.997 449.062 133.411 446.156 128.034 443.196C123.187 440.546 118.284 437.687 113.438 435.037C109.197 432.564 105.054 429.621 100.814 427.148C97.1036 424.984 93.2404 423.083 89.5302 420.92C88.2051 420.147 86.88 419.375 85.5549 418.602C84.8924 418.215 84.2504 417.489 83.4348 417.366C81.6712 417.04 80.6915 419.634 82.2816 420.561C87.5408 424.331 93.4887 426.921 99.0541 430.166C103.294 432.638 107.173 435.427 111.489 437.769C119.063 441.833 126.483 446.16 134.001 450.016C137.313 451.948 140.759 453.957 143.995 456.02C144.79 456.484 145.641 457.156 146.436 457.619C146.568 457.697 146.624 457.905 146.701 457.774C147.21 458.423 148.082 458.755 148.862 458.331C150.422 457.482 149.898 455.946 148.97 455.405Z" fill="#2C3647"/>
</g>
<path d="M535.054 600.649H146.841C142.263 600.649 138.529 596.929 138.529 592.322V358.906C138.529 354.316 142.246 350.579 146.841 350.579H535.054C539.632 350.579 543.366 354.299 543.366 358.906V592.318C543.348 596.913 539.627 600.649 535.054 600.649Z" fill="#E8DDCF" stroke="#2C3647" stroke-width="2"/>
<path d="M150.243 585.353V363.751H531.629V585.353H150.243Z" fill="#E8DDCF" stroke="#2C3647" stroke-width="2"/>
<path d="M558.969 619.579H122.905C111.989 619.579 103.103 610.762 103.001 599.827H578.873C578.771 610.762 569.905 619.579 558.969 619.579Z" fill="#E8DDCF" stroke="#2C3647" stroke-width="2"/>
<path d="M554.723 579.532C553.094 577.035 552.443 573.886 553.311 571.063C553.963 568.674 555.591 566.503 557.546 564.766C555.266 561.4 552.768 558.142 549.945 555.211C549.728 554.994 549.403 554.668 549.185 554.451C548.751 554.125 548.1 553.908 547.557 553.474C545.06 556.188 541.368 557.6 537.568 557.6C532.682 557.057 528.339 553.474 526.71 548.914C522.042 549.674 517.373 550.977 513.138 552.822C514.007 554.234 514.224 556.08 514.224 557.708C514.224 559.554 513.899 561.4 513.03 563.028C512.27 564.657 510.858 566.068 509.121 566.828C508.144 567.263 507.058 567.371 505.973 567.48C504.127 567.697 502.281 567.588 500.435 567.48C500.435 567.48 496.852 580.4 497.287 580.4C498.481 580.726 499.567 580.943 500.761 581.378C502.064 581.703 503.258 582.138 504.344 582.898C505.43 583.658 506.407 584.635 506.733 585.938C506.95 586.806 506.841 587.675 506.733 588.543C506.19 591.584 504.561 594.515 502.172 596.578C502.172 596.578 510.967 605.155 511.076 605.047C512.053 603.635 513.681 602.767 515.31 601.898C515.961 601.573 516.613 601.247 517.373 601.03C519.979 600.161 522.91 601.03 524.973 602.875C526.928 604.721 528.013 607.436 528.122 610.15C531.271 609.933 534.311 609.716 537.459 609.499C538.871 609.39 540.174 609.173 541.477 608.196C541.368 605.481 542.019 602.767 543.214 600.27C543.757 599.075 544.517 597.99 545.494 597.121C547.014 595.818 549.077 595.384 551.031 595.492C552.986 595.601 554.94 596.252 556.894 597.012C558.957 593.212 561.02 589.412 561.672 584.961C558.957 583.875 556.351 582.029 554.723 579.532Z" fill="#EEE9E2"/>
<path d="M539.522 567.589C536.7 565.743 533.008 565.092 530.294 565.309C525.516 565.852 521.933 568.24 519.436 572.257C516.939 576.275 516.505 581.595 518.459 585.829C520.413 590.172 524.756 593.321 529.534 593.972C533.551 594.407 537.677 593.104 540.717 590.498C543.757 587.892 544.951 584.092 545.386 580.183C545.603 578.229 544.843 571.063 539.522 567.589ZM534.094 588.327C530.294 589.629 525.733 588.109 523.345 584.961C522.585 583.984 522.15 582.898 521.933 581.812C521.716 580.618 521.933 579.423 522.15 578.338C522.802 575.515 524.431 572.909 526.928 571.389C529.316 569.76 532.682 569.435 535.288 570.737C538.545 572.366 540.5 575.84 540.608 579.315C540.717 583.115 538.002 587.024 534.094 588.327Z" fill="#FFC01E"/>
<g opacity="0.1294">
<path opacity="0.1294" d="M546.362 578.664C546.254 578.229 546.037 577.686 545.928 577.252C545.602 576.383 545.277 575.515 544.951 574.646C544.842 574.646 544.842 574.646 544.734 574.646C543.756 575.081 544.299 575.732 544.299 576.709C544.408 577.578 544.625 578.446 544.734 579.315C544.842 580.184 544.842 581.052 544.842 581.921C544.842 581.921 544.842 581.921 544.842 582.029C544.734 582.464 544.517 583.007 544.408 583.441C543.865 585.504 543.539 586.047 542.454 587.675C542.345 587.784 542.236 587.892 542.236 588.001C542.128 588.11 541.802 588.652 541.694 588.761C541.694 588.761 541.694 588.87 541.585 588.87C541.585 588.978 541.476 588.978 541.476 589.087C541.368 589.304 540.608 589.955 540.608 590.064C539.631 590.824 539.739 590.824 538.653 591.584C537.893 592.127 537.025 592.561 536.156 592.995C535.07 593.43 533.768 594.081 532.03 594.19C530.727 594.19 529.425 594.19 528.122 594.081C526.167 593.755 525.624 593.321 523.996 592.453C523.453 592.127 523.019 591.584 522.367 591.693C522.801 592.235 523.344 592.67 523.779 593.104C524.43 593.755 524.973 594.298 525.624 594.95C527.579 595.71 529.75 596.144 531.922 596.036C533.116 596.036 534.31 595.927 535.505 595.601C537.568 595.058 539.522 594.081 541.151 592.67C542.345 591.584 543.648 590.607 544.734 589.304C546.145 587.024 546.797 584.309 546.797 582.247C546.579 581.269 546.579 579.966 546.362 578.664Z" fill="#2C3647"/>
</g>
<g opacity="0.1294">
<path opacity="0.1294" d="M562.215 585.069C562.106 584.418 561.129 584.309 560.803 584.852C559.392 587.241 558.089 589.521 556.677 591.91C556.026 592.887 555.266 593.647 554.831 594.733C554.723 594.95 554.506 595.275 554.506 595.493C554.289 596.361 555.374 597.013 556.134 596.578C556.46 596.47 556.569 596.144 556.677 595.927C556.786 595.818 556.894 595.71 557.003 595.493C558.414 593.43 559.066 591.041 560.26 588.978C560.803 587.892 561.455 586.698 561.997 585.612C562.215 585.504 562.215 585.287 562.215 585.069Z" fill="#2C3647"/>
</g>
<g opacity="0.1294">
<path opacity="0.1294" d="M539.957 605.807C539.414 605.59 538.871 605.916 538.328 606.024C534.854 607.001 532.465 607.001 528.448 606.893C526.602 606.893 526.602 609.607 528.448 609.607C531.488 609.716 534.637 609.716 537.568 608.956C538.22 608.847 538.98 608.63 539.631 608.413C540.065 608.304 540.5 608.087 540.717 607.761C541.26 607.11 540.825 606.024 539.957 605.807Z" fill="#2C3647"/>
</g>
<path d="M527.91 610.567L527.905 610.567C527.696 610.567 527.507 610.497 527.37 610.359C527.233 610.223 527.163 610.035 527.162 609.829C527.055 607.279 525.885 604.834 523.972 603.133L523.963 603.126L523.963 603.125C523.226 602.388 521.963 601.548 520.499 601.337C519.248 601.234 517.989 601.65 516.681 602.086C514.726 602.847 512.832 603.697 511.678 605.481L511.666 605.499L511.651 605.514L511.647 605.519C511.596 605.57 511.533 605.633 511.467 605.682C511.401 605.731 511.304 605.79 511.184 605.79H511.181C511.127 605.79 511.032 605.79 510.934 605.773C510.843 605.758 510.718 605.724 510.621 605.634C506.817 602.808 503.877 599.978 501.587 597.036C501.432 596.874 501.396 596.671 501.433 596.485C501.47 596.301 501.576 596.132 501.705 596.002L501.713 595.995L501.721 595.988C503.964 594.172 505.567 591.5 506.102 588.616L506.102 588.613C506.316 587.542 506.31 586.605 506.109 586.001C505.7 584.774 504.565 583.72 502.628 582.752C500.807 581.895 498.876 581.358 496.834 581.034C496.723 581.029 496.632 580.974 496.569 580.927C496.504 580.877 496.441 580.815 496.39 580.764L496.385 580.759L496.385 580.759C496.217 580.591 496.218 580.403 496.218 580.212C496.218 580.202 496.218 580.193 496.218 580.183V580.166L496.221 580.149C496.984 575.791 498.291 571.326 500.032 566.971L500.035 566.964L500.039 566.956C500.114 566.806 500.254 566.67 500.406 566.586C500.55 566.506 500.756 566.446 500.947 566.535C502.106 566.954 504.158 567.17 506.221 566.928C508.293 566.686 510.321 565.99 511.466 564.636L511.467 564.635C515.398 560.066 513.498 554.749 512.848 553.232C512.768 553.066 512.774 552.876 512.827 552.718C512.88 552.559 512.991 552.401 513.158 552.318L513.161 552.316L513.161 552.316C515.252 551.32 518.605 550.327 522.211 549.258C522.568 549.153 522.927 549.046 523.288 548.939L523.292 548.938L523.292 548.938C523.773 548.807 524.28 548.655 524.802 548.499C525.545 548.277 526.317 548.047 527.077 547.856C527.395 547.711 527.692 547.875 527.829 548.012V548.012M527.91 610.567L527.829 548.012M527.91 610.567C532.369 610.458 536.827 609.915 541.608 608.938C541.772 608.931 541.92 608.849 542.025 608.744C542.135 608.635 542.22 608.478 542.22 608.304C542.22 608.102 542.245 607.897 542.272 607.678L542.273 607.672C542.299 607.463 542.327 607.241 542.328 607.017C542.383 606.668 542.435 606.324 542.486 605.983C542.739 604.303 542.977 602.72 543.509 601.209C544.472 598.86 546.063 597.178 547.946 596.551L547.946 596.551L547.95 596.549C550.578 595.603 553.434 596.647 556.485 597.954C556.65 598.035 556.84 598.028 556.998 597.976C557.156 597.923 557.311 597.815 557.395 597.652C559.675 593.852 561.63 589.51 562.937 585.058C563.009 584.964 563.039 584.848 563.039 584.743C563.039 584.622 562.999 584.485 562.899 584.385L562.894 584.38C562.843 584.329 562.78 584.266 562.715 584.217C562.654 584.172 562.568 584.119 562.462 584.11C558.303 583.036 555.008 579.728 554.158 575.905C553.307 572.077 555.011 567.706 558.313 565.363L558.327 565.353L558.339 565.341L558.343 565.337C558.394 565.286 558.457 565.223 558.507 565.157C558.556 565.091 558.614 564.994 558.614 564.874C558.614 564.865 558.614 564.855 558.614 564.846C558.615 564.66 558.615 564.477 558.46 564.312C555.633 560.29 552.371 556.376 548.457 552.571C548.359 552.473 548.228 552.437 548.133 552.421C548.035 552.405 547.94 552.405 547.886 552.405H547.883C547.582 552.405 547.423 552.565 547.312 552.676L547.307 552.681L547.299 552.689L547.292 552.697C546.653 553.496 545.105 555.124 542.747 556.056C540.397 556.986 537.227 557.232 533.315 555.25L533.314 555.249C531.616 554.4 530.228 552.962 529.29 551.622C528.822 550.953 528.469 550.314 528.248 549.792C528.138 549.531 528.062 549.304 528.02 549.119C527.98 548.944 527.975 548.827 527.987 548.761C528.129 548.445 527.965 548.149 527.829 548.012M527.91 610.567L527.829 548.012M520.646 599.962L520.638 599.961H520.63H520.629H520.628H520.626H520.625H520.624H520.623H520.621H520.62H520.619H520.618H520.616H520.615H520.614H520.613H520.611H520.61H520.609H520.608H520.606H520.605H520.604H520.603H520.602H520.6H520.599H520.598H520.597H520.596H520.594H520.593H520.592H520.591H520.59H520.588H520.587H520.586H520.585H520.584H520.582H520.581H520.58H520.579H520.578H520.577H520.575H520.574H520.573H520.572H520.571H520.57H520.568H520.567H520.566H520.565H520.564H520.563H520.561H520.56H520.559H520.558H520.557H520.556H520.555H520.553H520.552H520.551H520.55H520.549H520.548H520.547H520.546H520.544H520.543H520.542H520.541H520.54H520.539H520.538H520.537H520.536H520.534H520.533H520.532H520.531H520.53H520.529H520.528H520.527H520.526H520.525H520.524H520.522H520.521H520.52H520.519H520.518H520.517H520.516H520.515H520.514H520.513H520.512H520.511H520.51H520.508H520.507H520.506H520.505H520.504H520.503H520.502H520.501H520.5H520.499H520.498H520.497H520.496H520.495H520.494H520.493H520.492H520.491H520.49H520.488H520.487H520.486H520.485H520.484H520.483H520.482H520.481H520.48H520.479H520.478H520.477H520.476H520.475H520.474H520.473H520.472H520.471H520.47H520.469H520.468H520.467H520.466H520.465H520.464H520.463H520.462H520.461H520.46H520.459H520.458H520.457H520.456H520.455H520.454H520.453H520.452H520.451H520.45H520.449H520.448H520.447H520.446H520.445H520.444H520.443H520.442H520.441H520.44H520.439H520.438H520.437H520.436H520.435H520.434H520.433H520.432H520.431H520.43H520.429H520.428H520.427H520.426H520.425H520.424H520.423H520.422H520.421H520.42H520.419H520.418H520.417H520.416H520.415H520.414H520.413H520.413H520.412H520.411H520.41H520.409H520.408H520.407H520.406H520.405H520.404H520.403H520.402H520.401H520.4H520.399H520.398H520.397H520.396H520.395H520.394H520.393H520.392H520.391H520.39H520.389H520.388H520.387H520.387H520.386H520.385H520.384H520.383H520.382H520.381H520.38H520.379H520.378H520.377H520.376H520.375H520.374H520.373H520.372H520.371H520.37H520.369H520.368H520.367H520.366H520.365H520.365H520.364H520.363H520.362H520.361H520.36H520.359H520.358H520.357H520.356H520.355H520.354H520.353H520.352H520.351H520.35H520.349H520.348H520.347H520.346H520.345H520.344H520.344H520.343H520.342H520.341H520.34H520.339H520.338H520.337H520.336H520.335H520.334H520.333H520.332H520.331H520.33H520.329H520.328H520.327H520.326H520.325H520.324H520.323H520.322H520.321H520.321H520.32H520.319H520.318H520.317H520.316H520.315H520.314H520.313H520.312H520.311H520.31H520.309H520.308H520.307H520.306H520.305H520.304H520.303H520.302H520.301H520.3H520.299H520.298H520.297H520.296H520.295H520.294H520.293H520.292H520.291H520.29H520.289H520.288H520.288H520.287H520.286H520.285H520.284H520.283H520.282H520.281H520.28H520.279H520.278H520.277H520.276H520.275H520.274H520.273H520.272H520.271H520.27H520.269H520.268H520.267H520.266H520.265H520.264H520.263H520.262H520.261H520.26H520.259H520.258H520.257H520.256H520.255H520.254H520.253H520.252H520.251H520.25H520.249H520.248H520.247H520.246H520.245H520.244H520.243H520.241H520.24H520.239H520.238H520.237H520.236H520.235H520.234H520.233H520.232H520.231H520.23H520.229H520.228H520.227H520.226H520.225H520.224H520.223H520.222H520.221H520.22H520.219H520.218H520.217H520.215H520.214H520.213H520.212H520.211H520.21H520.209H520.208H520.207H520.206H520.205H520.204H520.203H520.202H520.201H520.199H520.198H520.197H520.196H520.195H520.194H520.193H520.192H520.191H520.19H520.189H520.188H520.186H520.185H520.184H520.183H520.182H520.181H520.18H520.179H520.178H520.176H520.175H520.174H520.173H520.172H520.171H520.17H520.169H520.168H520.166H520.165H520.164H520.163H520.162H520.161H520.16H520.158H520.157H520.156H520.155H520.154H520.153H520.152H520.15H520.149H520.148H520.147H520.146H520.145H520.143H520.142H520.141H520.14H520.139H520.138H520.136H520.135H520.134H520.133H520.132H520.13H520.129H520.128H520.127H520.126H520.124H520.123H520.122H520.121H520.12H520.118H520.117H520.116H520.115H520.114H520.112H520.111H520.11H520.109H520.107H520.106H520.105H520.104H520.102H520.101H520.1H520.099H520.097H520.096H520.095H520.094H520.092H520.091H520.09H520.089H520.087C518.952 599.961 517.817 600.282 516.779 600.576C516.594 600.628 516.413 600.68 516.235 600.728L516.224 600.731L516.215 600.735C514.314 601.474 512.37 602.33 510.933 604.116C507.709 601.608 505.099 599.204 503.097 596.708C505.335 594.629 506.932 591.823 507.472 588.906L507.472 588.906L507.473 588.902C507.692 587.588 507.698 586.462 507.355 585.545C506.787 583.844 505.32 582.51 503.018 581.414L503.019 581.414L503.013 581.411C501.324 580.673 499.429 580.034 497.522 579.695C498.271 575.917 499.424 572.036 500.885 568.151C502.374 568.507 504.513 568.647 506.612 568.343C508.791 568.028 510.964 567.229 512.313 565.656C516.402 560.921 515.143 555.662 514.263 553.362C516.081 552.571 518.812 551.777 521.769 550.917C522.34 550.751 522.919 550.582 523.501 550.411C524.388 550.233 525.206 549.983 526.056 549.723C526.186 549.683 526.317 549.643 526.449 549.603C526.68 550.605 527.379 551.916 528.373 553.164C529.444 554.51 530.877 555.808 532.485 556.585C536.552 558.618 539.973 558.457 542.601 557.544C545.088 556.68 546.851 555.148 547.777 554.194C551.236 557.667 554.086 561.042 556.725 564.617C553.294 567.291 551.594 571.961 552.573 576.209C553.446 580.352 556.89 583.942 561.206 585.31C560.036 589.188 558.36 592.959 556.376 596.328C553.494 595.161 550.341 594.1 547.385 595.085C545.04 595.867 543.045 597.871 542.049 600.634C541.279 602.616 541.06 604.596 540.843 606.764L540.842 606.774V606.784C540.842 606.928 540.818 607.074 540.791 607.24L540.79 607.247C540.771 607.356 540.752 607.474 540.741 607.596C536.528 608.432 532.522 608.958 528.623 609.076C528.256 606.384 526.946 603.914 525.002 602.079L525 602.077C523.674 600.861 522.114 600.075 520.646 599.962Z" fill="#2C3647" stroke="#2C3647" stroke-width="0.4"/>
<path d="M530.728 589.304C527.579 589.304 524.322 587.784 522.476 585.286C521.716 584.201 521.173 583.006 520.956 581.812C520.739 580.726 520.847 579.532 521.173 578.12C521.933 574.972 523.779 572.366 526.167 570.846C528.882 569.109 532.356 568.783 534.962 570.194C538.219 571.823 540.391 575.406 540.608 579.206C540.825 583.332 537.893 587.566 533.876 588.869C532.79 589.086 531.813 589.304 530.728 589.304ZM531.27 570.303C529.75 570.303 528.122 570.737 526.71 571.714C524.539 573.126 522.91 575.515 522.15 578.446C521.824 579.749 521.716 580.726 521.933 581.703C522.15 582.68 522.584 583.766 523.236 584.635C525.516 587.675 529.859 588.978 533.442 587.784C537.025 586.589 539.631 582.898 539.522 579.098C539.414 575.623 537.351 572.474 534.419 570.954C533.55 570.52 532.356 570.303 531.27 570.303Z" fill="#2C3647"/>
<path d="M530.728 594.624C530.185 594.624 529.642 594.624 529.099 594.515C524.213 593.972 519.653 590.606 517.59 586.155C515.527 581.703 515.962 576.275 518.567 572.04C521.173 567.806 524.973 565.308 529.751 564.874C532.899 564.548 536.699 565.417 539.305 567.154C545.06 570.846 545.603 578.555 545.494 580.292C545.06 585.069 543.431 588.652 540.608 591.041C537.894 593.321 534.311 594.624 530.728 594.624ZM531.053 565.851C530.619 565.851 530.185 565.851 529.859 565.96C525.299 566.394 521.933 568.674 519.436 572.692C516.939 576.6 516.613 581.703 518.567 585.829C520.522 590.064 524.648 593.104 529.208 593.647C533.008 594.081 537.025 592.886 539.957 590.281C542.562 588.109 543.974 584.852 544.408 580.292C544.625 578.229 543.648 571.389 538.762 568.24C536.591 566.611 533.768 565.851 531.053 565.851Z" fill="#2C3647"/>
<g opacity="0.1294">
<path opacity="0.1294" d="M528.122 610.041C528.013 609.281 527.688 606.784 527.253 605.698C526.167 602.115 522.584 599.075 518.784 600.704C517.156 601.355 515.744 602.332 514.55 603.31C514.333 603.201 514.116 603.201 513.79 603.31C512.921 603.635 512.161 603.961 511.184 604.178C511.184 604.178 511.184 604.178 511.076 604.178H510.967C510.424 603.852 509.881 603.527 509.338 603.092C509.121 602.984 509.013 602.767 508.795 602.658C508.47 602.332 508.144 602.115 507.818 602.007C507.493 601.789 507.058 601.355 506.298 600.595C505.43 599.727 504.561 598.858 503.692 598.098C503.15 597.664 502.607 597.012 501.955 596.904C501.304 596.795 500.652 597.229 500.435 597.881C500.218 598.532 500.544 599.184 501.195 599.509C501.629 599.835 501.955 600.269 502.281 600.595C503.692 602.115 504.995 603.852 506.733 604.938C507.601 605.698 508.47 606.567 509.447 607.327C510.207 607.87 511.184 608.413 512.161 608.413C513.464 608.413 514.441 607.435 515.419 606.567C517.807 604.504 520.522 603.092 521.607 603.744C522.693 604.287 522.91 604.612 523.345 605.155C524.213 606.567 523.996 607.327 524.43 609.715C524.539 610.15 524.539 610.584 524.756 611.018C524.865 611.453 525.082 611.996 525.516 612.321C525.842 612.647 526.276 612.864 526.71 612.864C527.036 612.973 527.47 612.973 527.796 612.973C528.23 612.973 528.556 613.081 528.99 612.864C529.533 612.647 529.859 612.213 529.75 611.67C529.859 610.367 528.99 610.041 528.122 610.041Z" fill="#2C3647"/>
</g>
<g opacity="0.1294">
<path opacity="0.1294" d="M504.996 583.549C503.15 582.029 500.87 581.269 498.59 580.618H498.481C498.481 580.618 498.373 580.509 498.373 580.4C497.504 578.989 495.333 580.183 496.201 581.703C496.853 583.115 498.481 583.332 499.893 583.766C502.064 584.526 504.127 585.286 505.213 586.155C505.756 586.698 506.842 586.263 506.733 585.503C506.624 584.526 505.647 584.092 504.996 583.549Z" fill="#2C3647"/>
</g>
<path d="M452.503 637.157H229.497C220.937 637.157 214 630.215 214 621.644V187.513C214 178.942 220.937 172 229.497 172H452.503C461.063 172 468 178.942 468 187.513V621.644C468 630.215 461.063 637.157 452.503 637.157Z" fill="#E8DDCF" stroke="#2C3647" stroke-width="2"/>
<path d="M230.497 624.469V624.443H229.497C227.954 624.443 226.676 623.182 226.676 621.618V208.265C226.676 206.719 227.937 205.44 229.497 205.44H452.503C454.045 205.44 455.324 206.702 455.324 208.265V621.644C455.324 623.19 454.062 624.469 452.503 624.469H230.497Z" fill="#E8DDCF" stroke="#2C3647" stroke-width="2"/>
<path d="M333.75 186.531C333.75 190.572 337.038 193.836 341.048 193.836C345.085 193.836 348.346 190.545 348.346 186.531C348.346 182.491 345.058 179.226 341.048 179.226C337.011 179.226 333.75 182.518 333.75 186.531ZM335.386 186.531C335.386 183.413 337.933 180.863 341.048 180.863C344.163 180.863 346.71 183.413 346.71 186.531C346.71 189.65 344.163 192.199 341.048 192.199C337.933 192.199 335.386 189.65 335.386 186.531Z" fill="#2C3647" stroke="#2C3647" stroke-width="0.5"/>
<path d="M259.466 484.129L278.953 602.019L494.684 547.387L468.357 459.541L259.466 484.129Z" fill="#EEE9E2"/>
<path d="M230.736 359.471L440.704 356.594C440.704 356.594 465.218 416.284 487.827 449.423C510.437 482.562 543.757 477.999 543.757 477.999C543.757 477.999 469.924 525.186 411.745 551.624C351.144 579.125 297.589 586.962 297.589 586.962C297.589 586.962 243.856 523.161 230.736 359.471Z" fill="white" stroke="#2C3647" stroke-width="2" stroke-miterlimit="10" stroke-linecap="round" stroke-linejoin="round"/>
<path d="M253.936 347.003C250.062 347.266 247.517 350.936 246.988 356.368L250.975 356.297C251.362 353.173 252.518 351.096 254.206 350.981C256.292 350.84 258.8 353.967 259.125 358.741C259.449 363.516 257.388 366.954 255.302 367.095C254.209 367.17 253.376 368.126 253.45 369.22C253.524 370.314 254.479 371.148 255.572 371.074C260.241 370.757 263.558 365.235 263.098 358.471C262.539 351.714 258.605 346.685 253.936 347.003Z" fill="white" stroke="#2C3647" stroke-width="2" stroke-miterlimit="10"/>
<path d="M288.528 346.45C284.654 346.713 282.109 350.384 281.58 355.816L285.567 355.745C285.953 352.621 287.11 350.544 288.798 350.429C290.884 350.287 293.392 353.414 293.716 358.189C294.041 362.963 291.979 366.401 289.893 366.543C288.801 366.617 287.967 367.573 288.042 368.667C288.116 369.761 289.071 370.596 290.164 370.522C294.832 370.204 298.149 364.683 297.69 357.919C297.23 351.155 293.197 346.133 288.528 346.45Z" fill="white" stroke="#2C3647" stroke-width="2" stroke-miterlimit="10"/>
<path d="M357.802 345.239C353.928 345.503 351.384 349.173 350.855 354.605L354.841 354.534C355.228 351.41 356.384 349.333 358.073 349.218C360.159 349.076 362.666 352.204 362.991 356.978C363.315 361.753 361.254 365.19 359.168 365.332C358.075 365.406 357.242 366.362 357.316 367.457C357.391 368.551 358.345 369.385 359.438 369.311C364.107 368.994 367.424 363.472 366.964 356.708C366.505 349.944 362.471 344.922 357.802 345.239Z" fill="white" stroke="#2C3647" stroke-width="2" stroke-miterlimit="10"/>
<path d="M393.067 344.343C389.193 344.606 386.648 348.277 386.119 353.709L390.106 353.638C390.493 350.514 391.649 348.436 393.337 348.322C395.423 348.18 397.931 351.307 398.256 356.082C398.58 360.856 396.518 364.294 394.432 364.436C393.34 364.51 392.507 365.466 392.581 366.56C392.655 367.654 393.61 368.489 394.703 368.414C399.371 368.097 402.689 362.576 402.229 355.812C401.769 349.048 397.736 344.026 393.067 344.343Z" fill="white" stroke="#2C3647" stroke-width="2" stroke-miterlimit="10"/>
<path d="M426.961 343.838C423.087 344.101 420.543 347.771 420.014 353.204L424.001 353.133C424.387 350.008 425.543 347.931 427.232 347.817C429.318 347.675 431.826 350.802 432.15 355.577C432.475 360.351 430.413 363.789 428.327 363.931C427.234 364.005 426.401 364.961 426.475 366.055C426.55 367.149 427.505 367.984 428.597 367.909C433.266 367.592 436.583 362.07 436.123 355.307C435.664 348.543 431.63 343.521 426.961 343.838Z" fill="white" stroke="#2C3647" stroke-width="2" stroke-miterlimit="10"/>
<path d="M480.981 450.089C464.915 426.598 447.187 388.931 440.849 374.972L253.29 380.123C262.593 518.492 308.3 572.845 308.3 572.845C308.3 572.845 355.73 565.924 409.262 541.601C460.67 518.322 521.39 480.819 521.39 480.819C521.39 480.819 500.937 479.411 480.981 450.089Z" fill="white" stroke="#2C3647" stroke-width="2" stroke-miterlimit="10" stroke-linecap="round" stroke-linejoin="round"/>
<path d="M440.75 374.979L253.29 380.123C254.216 393.751 255.485 406.555 256.999 418.544L454.346 403.234C448.455 391.443 443.553 380.984 440.75 374.979Z" fill="#EEE9E2" stroke="#2C3647" stroke-width="2" stroke-miterlimit="10" stroke-linecap="round" stroke-linejoin="round"/>
<path d="M446.935 416.03L455.756 415.13" stroke="#2C3647" stroke-width="2" stroke-miterlimit="10" stroke-linecap="round" stroke-linejoin="round"/>
<path d="M420.969 418.692L440.292 416.68" stroke="#2C3647" stroke-width="2" stroke-miterlimit="10" stroke-linecap="round" stroke-linejoin="round"/>
<path d="M389.657 421.92L414.429 419.337" stroke="#2C3647" stroke-width="2" stroke-miterlimit="10" stroke-linecap="round" stroke-linejoin="round"/>
<path d="M357.644 425.194L384.105 422.497" stroke="#2C3647" stroke-width="2" stroke-miterlimit="10" stroke-linecap="round" stroke-linejoin="round"/>
<path d="M326.819 428.29L351.101 425.84" stroke="#2C3647" stroke-width="2" stroke-miterlimit="10" stroke-linecap="round" stroke-linejoin="round"/>
<path d="M294.311 431.597L318.594 429.147" stroke="#2C3647" stroke-width="2" stroke-miterlimit="10" stroke-linecap="round" stroke-linejoin="round"/>
<path d="M265.672 434.542L288.266 432.207" stroke="#2C3647" stroke-width="2" stroke-miterlimit="10" stroke-linecap="round" stroke-linejoin="round"/>
<path d="M263.45 456.178L468.312 429.566" stroke="#2C3647" stroke-width="2" stroke-miterlimit="10" stroke-linecap="round" stroke-linejoin="round"/>
<path d="M295.811 452.18C295.811 452.18 302.912 506.758 343.101 565.083" stroke="#2C3647" stroke-width="2" stroke-miterlimit="10" stroke-linecap="round" stroke-linejoin="round"/>
<path d="M328.839 447.738C328.839 447.738 336.872 510.147 379.523 553.316" stroke="#2C3647" stroke-width="2" stroke-miterlimit="10" stroke-linecap="round" stroke-linejoin="round"/>
<path d="M358.81 443.802C358.81 443.802 364.717 501.359 411.938 539.82" stroke="#2C3647" stroke-width="2" stroke-miterlimit="10" stroke-linecap="round" stroke-linejoin="round"/>
<path d="M389.812 440.396C389.812 440.396 399.039 504.223 443.585 523.88" stroke="#2C3647" stroke-width="2" stroke-miterlimit="10" stroke-linecap="round" stroke-linejoin="round"/>
<path d="M422.319 435.589C422.319 435.589 429.095 483.894 474.904 507.461" stroke="#2C3647" stroke-width="2" stroke-miterlimit="10" stroke-linecap="round" stroke-linejoin="round"/>
<path d="M447.935 432.249C447.935 432.249 463.135 481.181 497.408 495.04" stroke="#2C3647" stroke-width="2" stroke-miterlimit="10" stroke-linecap="round" stroke-linejoin="round"/>
<path d="M269.84 484.123L478.455 446.663" stroke="#2C3647" stroke-width="2" stroke-miterlimit="10" stroke-linecap="round" stroke-linejoin="round"/>
<path d="M276.985 508.52C276.985 508.52 321.763 503.678 489.203 460.922" stroke="#2C3647" stroke-width="2" stroke-miterlimit="10" stroke-linecap="round" stroke-linejoin="round"/>
<path d="M286.712 534.14C286.712 534.14 330.757 536.143 498.297 469.897" stroke="#2C3647" stroke-width="2" stroke-miterlimit="10" stroke-linecap="round" stroke-linejoin="round"/>
<path d="M297.703 556.377C297.703 556.377 334.977 565.935 508.764 477.08" stroke="#2C3647" stroke-width="2" stroke-miterlimit="10" stroke-linecap="round" stroke-linejoin="round"/>
<path d="M335.887 401.691L268.478 405.372C267.385 405.446 266.331 404.619 266.157 403.531L265.19 398.101C265.002 396.815 265.915 395.554 267.305 395.459L333.94 392.13C334.933 392.062 335.875 392.698 336.141 393.679L337.883 398.757C338.375 400.123 337.377 401.589 335.887 401.691Z" fill="white"/>
<path d="M314.468 232.017C308.233 232.017 301.744 231.89 295.636 231.89C295.891 238.121 295.509 249.946 295.509 249.946L314.214 250.328C314.214 250.201 314.214 237.866 314.468 232.017Z" fill="#EEE9E2"/>
<path d="M314.214 250.709L295.509 250.328C295.382 250.328 295.127 250.201 295.127 250.073C295 249.946 295 249.819 295 249.565C295 249.438 295.382 237.612 295.127 231.636C295.127 231.509 295.127 231.254 295.254 231.127C295.382 231 295.509 231 295.763 231C299.708 231 303.78 231 307.852 231.127C310.142 231.127 312.305 231.127 314.596 231.254C314.723 231.254 314.978 231.381 314.978 231.381C315.105 231.509 315.105 231.636 315.105 231.89C314.85 237.866 314.85 250.073 314.85 250.201C314.85 250.328 314.723 250.582 314.723 250.582C314.596 250.709 314.341 250.709 314.214 250.709ZM296.145 249.183L313.578 249.565C313.578 247.022 313.578 237.866 313.705 232.653C311.669 232.653 309.633 232.653 307.597 232.526C303.78 232.526 299.963 232.399 296.145 232.399C296.527 237.866 296.272 246.767 296.145 249.183Z" fill="#2C3647"/>
<path d="M304.542 246.259C304.288 246.259 304.033 246.132 304.033 245.877C303.143 244.097 302.125 242.444 300.98 240.918C300.725 240.664 300.852 240.282 301.107 240.028C301.361 239.774 301.743 239.901 301.998 240.155C303.015 241.427 303.906 242.825 304.67 244.224L308.105 237.739C308.233 237.485 308.614 237.358 308.996 237.485C309.25 237.612 309.378 237.994 309.25 238.375L305.306 245.877C305.051 246.132 304.797 246.259 304.542 246.259Z" fill="#2C3647"/>
<path d="M314.468 270.927C308.233 270.927 301.744 270.8 295.636 270.8C295.891 277.031 295.509 288.856 295.509 288.856L314.214 289.238C314.214 289.11 314.214 276.776 314.468 270.927Z" fill="#EEE9E2"/>
<path d="M314.214 289.746L295.509 289.365C295.382 289.365 295.127 289.237 295.127 289.11C295 288.983 295 288.856 295 288.602C295 288.474 295.382 276.649 295.127 270.673C295.127 270.545 295.127 270.291 295.254 270.164C295.382 270.037 295.509 270.037 295.763 270.037C299.708 270.037 303.907 270.037 307.852 270.164C310.015 270.164 312.305 270.164 314.469 270.291C314.596 270.291 314.85 270.418 314.85 270.545C314.978 270.673 314.978 270.8 314.978 271.054C314.85 276.776 314.85 288.983 314.85 289.11C314.85 289.237 314.723 289.492 314.723 289.492C314.596 289.619 314.341 289.746 314.214 289.746ZM296.145 288.093L313.578 288.474C313.578 285.931 313.578 276.776 313.705 271.563C311.669 271.563 309.633 271.563 307.725 271.436C303.907 271.436 299.963 271.308 296.272 271.308C296.527 276.776 296.272 285.677 296.145 288.093Z" fill="#2C3647"/>
<path d="M304.542 285.296C304.288 285.296 304.033 285.168 304.033 284.914C303.143 283.134 302.125 281.481 300.98 279.955C300.725 279.701 300.852 279.319 301.107 279.065C301.361 278.811 301.743 278.938 301.998 279.192C303.015 280.464 303.906 281.862 304.67 283.261L308.105 276.776C308.233 276.522 308.614 276.395 308.996 276.522C309.25 276.649 309.378 277.03 309.25 277.412L305.306 284.914C305.051 285.168 304.797 285.296 304.542 285.296Z" fill="#2C3647"/>
<path d="M315.613 308.692C309.378 308.692 302.888 308.565 296.781 308.565C297.035 314.796 296.653 326.621 296.653 326.621L315.358 327.003C315.486 326.875 315.486 314.668 315.613 308.692Z" fill="#EEE9E2"/>
<path d="M315.486 327.512L296.78 327.13C296.653 327.13 296.399 327.003 296.399 326.876C296.271 326.749 296.271 326.622 296.271 326.367C296.271 326.24 296.653 314.415 296.399 308.438C296.399 308.311 296.399 308.057 296.526 307.93C296.653 307.802 296.78 307.802 297.035 307.802C300.98 307.802 305.179 307.802 309.123 307.93C311.286 307.93 313.577 307.93 315.74 308.057C315.867 308.057 316.122 308.184 316.122 308.184C316.249 308.311 316.249 308.438 316.249 308.693C316.122 314.542 316.122 326.749 316.122 326.876C316.122 327.003 315.995 327.257 315.995 327.257C315.74 327.384 315.613 327.512 315.486 327.512ZM297.417 325.859L314.849 326.24C314.849 323.697 314.849 314.542 314.977 309.328C312.941 309.328 310.905 309.328 308.996 309.201C305.179 309.201 301.234 309.074 297.544 309.074C297.671 314.542 297.417 323.443 297.417 325.859Z" fill="#2C3647"/>
<path d="M305.813 323.061C305.558 323.061 305.304 322.934 305.304 322.679C304.413 320.899 303.395 319.246 302.25 317.72C301.996 317.466 302.123 317.084 302.377 316.83C302.632 316.576 303.014 316.703 303.268 316.957C304.286 318.229 305.177 319.627 305.94 321.026L309.376 314.541C309.503 314.287 309.885 314.16 310.267 314.287C310.521 314.414 310.648 314.796 310.521 315.177L306.576 322.679C306.195 322.934 305.94 323.061 305.813 323.061Z" fill="#2C3647"/>
<path d="M353.151 245.877C352.642 245.877 352.26 245.75 351.751 245.496C350.86 245.114 350.224 244.351 349.715 243.716C349.461 243.334 349.079 242.953 348.824 242.698C347.043 241.045 345.134 241.935 342.589 243.588C341.953 243.97 341.317 244.351 340.808 244.733C338.899 245.623 337.372 245.877 336.1 245.369C335.082 244.987 334.573 244.097 334.064 243.461C333.682 242.953 333.3 242.444 332.791 242.062C330.756 240.791 328.211 241.681 325.157 244.86C324.902 245.114 324.521 245.114 324.266 244.86C324.012 244.606 324.012 244.224 324.266 243.97C327.702 240.409 330.883 239.392 333.428 240.918C334.191 241.427 334.7 242.062 335.082 242.698C335.464 243.334 335.845 243.97 336.609 244.224C337.5 244.606 338.772 244.351 340.299 243.588C340.808 243.334 341.444 242.953 342.08 242.571C344.371 241.172 347.043 239.392 349.715 241.808C350.097 242.19 350.479 242.571 350.733 242.953C351.242 243.588 351.751 244.097 352.387 244.478C353.278 244.86 354.296 244.733 355.568 243.716C355.823 243.588 356.077 243.334 356.332 243.08C358.622 241.427 360.658 239.774 363.967 240.918C364.985 241.3 365.748 242.062 366.512 242.698C367.784 243.97 368.547 244.478 369.947 243.716C370.329 243.461 370.711 243.207 371.092 242.825C372.492 241.681 374.273 240.155 376.564 241.808C377.073 242.19 377.582 242.571 378.091 243.08C379.491 244.351 380.381 245.114 382.035 244.351C382.799 243.97 383.562 243.461 384.326 242.825C385.726 241.681 387.125 240.537 389.034 240.664C390.561 240.664 391.706 241.554 392.851 242.317C394.251 243.334 395.396 244.097 397.05 243.461C397.432 243.334 397.687 243.461 397.814 243.843C397.941 244.224 397.814 244.478 397.432 244.606C395.142 245.496 393.488 244.351 392.088 243.334C391.07 242.571 390.052 241.935 388.907 241.935C387.38 241.935 386.235 242.825 384.962 243.843C384.199 244.478 383.308 245.114 382.29 245.623C379.872 246.64 378.345 245.241 376.946 244.097C376.564 243.716 376.055 243.334 375.546 242.953C374.146 241.935 373.128 242.698 371.601 243.97C371.22 244.351 370.838 244.606 370.329 244.86C368.166 246.259 366.639 244.86 365.366 243.716C364.73 243.08 363.967 242.444 363.203 242.19C360.531 241.3 358.877 242.571 356.714 244.224C356.459 244.478 356.205 244.606 355.95 244.86C355.696 245.114 354.55 245.877 353.151 245.877Z" fill="#2C3647"/>
<path d="M330.372 282.625C328.972 282.625 327.7 281.862 326.682 281.227C326.427 280.972 326.3 280.591 326.555 280.337C326.809 280.082 327.191 279.955 327.445 280.209C329.481 281.735 330.881 281.735 332.408 280.591C332.663 280.337 332.917 280.082 333.171 279.828C334.571 278.556 336.098 277.158 338.516 278.429C339.025 278.684 339.407 279.192 339.915 279.574C340.806 280.337 341.697 281.227 342.588 280.972C343.097 280.845 343.606 280.337 343.987 279.828C344.242 279.447 344.496 279.192 344.878 278.938C345.896 278.175 347.041 277.666 348.441 277.412C351.113 277.158 352.895 278.429 354.676 279.955L355.058 280.337C356.966 281.862 358.366 281.735 359.893 280.082C361.929 277.793 363.838 276.649 367.019 278.175C367.655 278.556 368.418 278.938 369.055 279.319C370.582 280.337 371.981 281.227 373.763 281.1C374.781 280.972 375.417 280.209 376.053 279.319C376.817 278.429 377.707 277.285 379.234 277.031C382.161 276.522 384.579 278.556 386.615 280.718C386.869 280.972 386.869 281.354 386.615 281.608C386.36 281.862 385.978 281.862 385.724 281.608C383.815 279.701 381.779 277.921 379.362 278.302C378.216 278.429 377.707 279.192 376.944 280.082C376.18 280.972 375.29 282.117 373.763 282.244C371.6 282.498 369.818 281.354 368.291 280.337C367.655 279.955 367.019 279.574 366.383 279.192C363.965 278.048 362.565 278.811 360.784 280.718C358.748 282.88 356.712 283.007 354.294 281.1L353.912 280.718C352.258 279.319 350.731 278.175 348.568 278.429C347.55 278.556 346.532 278.938 345.642 279.574C345.387 279.828 345.133 280.082 344.878 280.337C344.369 280.972 343.733 281.735 342.715 281.862C341.188 282.117 340.043 281.1 339.025 280.082C338.643 279.701 338.134 279.319 337.752 279.065C336.225 278.175 335.335 278.938 333.935 280.209C333.68 280.464 333.426 280.718 333.044 280.972C332.281 282.244 331.263 282.625 330.372 282.625Z" fill="#2C3647"/>
<path d="M355.695 319.5C355.314 319.5 354.932 319.5 354.55 319.246C353.532 318.865 352.769 318.102 352.132 317.339C351.878 316.957 351.623 316.703 351.369 316.449C349.46 314.669 347.679 315.559 345.007 317.212C344.498 317.593 343.989 317.847 343.352 318.229C341.444 319.246 339.79 319.5 338.39 318.992C337.372 318.61 336.863 317.847 336.354 317.084C335.972 316.576 335.718 316.067 335.209 315.813C333.173 314.414 330.501 315.304 327.447 318.61C327.192 318.865 326.811 318.865 326.556 318.61C326.302 318.356 326.302 317.975 326.556 317.72C330.119 314.033 333.3 313.015 335.972 314.796C336.608 315.177 336.99 315.813 337.372 316.449C337.754 317.084 338.135 317.593 338.772 317.847C339.79 318.229 341.062 317.975 342.589 317.212C343.098 316.957 343.607 316.576 344.116 316.322C346.406 314.923 349.206 313.143 352.005 315.686C352.387 315.94 352.641 316.322 352.896 316.703C353.532 317.339 354.041 317.975 354.805 318.356C355.95 318.738 356.968 318.102 357.986 317.339H358.113C360.531 315.431 363.076 313.524 366.638 314.923C367.656 315.304 368.293 316.067 369.056 316.576C370.328 317.847 371.092 318.356 372.492 317.339C372.746 317.084 373.001 316.957 373.255 316.703C374.909 315.431 376.818 313.906 379.236 315.813C379.617 316.067 379.872 316.322 380.126 316.576C381.653 317.847 382.799 318.865 384.707 317.847C385.343 317.466 385.98 316.957 386.616 316.449C388.143 315.304 389.924 313.906 392.087 314.287C393.36 314.541 394.505 315.304 395.396 315.94C396.923 316.957 398.068 317.847 400.104 316.703C400.358 316.576 400.74 316.703 400.995 316.957C401.122 317.212 400.995 317.593 400.74 317.847C398.068 319.246 396.287 318.102 394.76 316.957C393.869 316.322 392.978 315.686 391.96 315.559C390.306 315.177 388.906 316.322 387.507 317.466C386.87 317.975 386.107 318.61 385.343 318.992C382.671 320.391 381.017 318.992 379.363 317.593C379.108 317.339 378.727 317.084 378.472 316.83C376.945 315.559 375.8 316.322 374.019 317.72C373.764 317.975 373.51 318.229 373.128 318.356C370.837 320.009 369.311 318.61 368.165 317.593C367.529 317.084 366.893 316.449 366.129 316.194C363.203 315.05 361.167 316.576 358.876 318.356H358.749C357.986 318.738 356.968 319.5 355.695 319.5Z" fill="#2C3647"/>
<path d="M262.162 264.873C258.168 264.873 254.508 265.869 251.18 267.862C251.512 266.202 251.679 264.541 251.679 262.714C251.679 246.106 238.201 232.654 221.561 232.654C206.751 232.654 194.604 243.283 191.942 257.233C188.947 256.071 185.785 255.573 182.624 255.573C167.981 255.573 156 267.53 156 282.145C156 296.76 167.981 308.717 182.624 308.717H262.162C274.309 308.717 283.96 298.919 283.96 286.961C283.96 275.004 274.309 264.873 262.162 264.873Z" fill="white" stroke="#263238" stroke-width="2" stroke-miterlimit="10"/>
<path d="M248.185 314.198H254.84" stroke="#263238" stroke-width="2" stroke-miterlimit="10" stroke-linecap="round" stroke-linejoin="round"/>
<path d="M215.737 314.198H239.033" stroke="#263238" stroke-width="2" stroke-miterlimit="10" stroke-linecap="round" stroke-linejoin="round"/>
<path d="M193.772 233.982C196.934 231.491 199.763 229.83 205.753 229" stroke="#263238" stroke-width="2" stroke-miterlimit="10" stroke-linecap="round" stroke-linejoin="round"/>
<path d="M185.785 246.106C185.785 246.106 186.284 242.618 189.113 238.799" stroke="#263238" stroke-width="2" stroke-miterlimit="10" stroke-linecap="round" stroke-linejoin="round"/>
<path d="M155.667 272.4H156.667V271.4V264.3C156.667 258.917 158.809 253.753 162.622 249.946C166.435 246.139 171.607 244 177 244C182.393 244 187.565 246.139 191.378 249.946C195.191 253.753 197.333 258.917 197.333 264.3V271.4V272.4H198.333H201.889C203.51 272.4 205.065 273.043 206.211 274.187C207.357 275.331 208 276.883 208 278.5V306.9C208 308.517 207.357 310.069 206.211 311.213C205.065 312.357 203.51 313 201.889 313H152.111C150.49 313 148.935 312.357 147.789 311.213C146.643 310.069 146 308.517 146 306.9V278.5C146 275.149 148.751 272.4 152.111 272.4H155.667ZM172.444 303.35V304.35H173.444H180.556H181.556V303.35V295.844C182.862 294.959 183.886 293.708 184.493 292.243C185.177 290.595 185.297 288.769 184.835 287.046C184.372 285.323 183.354 283.801 181.937 282.716C180.521 281.631 178.785 281.043 177 281.043C175.215 281.043 173.479 281.631 172.063 282.716C170.646 283.801 169.628 285.323 169.165 287.046C168.703 288.769 168.823 290.595 169.507 292.243C170.114 293.708 171.138 294.959 172.444 295.844V303.35ZM165.333 271.4V272.4H166.333H187.667H188.667V271.4V264.3C188.667 261.21 187.437 258.246 185.249 256.062C183.061 253.877 180.094 252.65 177 252.65C173.906 252.65 170.939 253.877 168.751 256.062C166.563 258.246 165.333 261.21 165.333 264.3V271.4Z" fill="#FFC01E" stroke="#2C3647" stroke-width="2"/>
<path d="M617.541 455H509.459C505.799 455 503 452.622 503 449.513V398.487C503 395.378 505.799 393 509.459 393H617.541C621.201 393 624 395.378 624 398.487V449.513C624 452.44 620.986 455 617.541 455Z" fill="#EEE9E2"/>
<path d="M509.459 456H617.541C621.379 456 625 453.139 625 449.513V398.487C625 394.679 621.594 392 617.541 392H509.459C505.406 392 502 394.679 502 398.487V449.513C502 453.321 505.406 456 509.459 456Z" stroke="#263238" stroke-width="2" stroke-miterlimit="10" stroke-linecap="round" stroke-linejoin="round"/>
<path d="M596.823 428.039C598.481 428.039 599.988 427.136 601.193 426.383C601.494 426.082 601.645 425.63 601.344 425.329C601.042 425.028 600.59 424.877 600.289 425.178C597.878 426.985 596.221 426.985 594.413 425.63C594.111 425.329 593.81 425.028 593.509 424.727C591.851 423.221 590.043 421.565 587.18 423.07C586.578 423.372 586.126 423.974 585.523 424.426C584.468 425.329 583.414 426.383 582.359 426.082C581.756 425.931 581.154 425.329 580.702 424.727C580.4 424.275 580.099 423.974 579.647 423.673C578.442 422.769 577.085 422.167 575.428 421.866C572.264 421.565 570.155 423.07 568.045 424.877L567.593 425.329C565.333 427.136 563.676 426.985 561.868 425.028C559.457 422.318 557.197 420.963 553.43 422.769C552.677 423.221 551.773 423.673 551.019 424.124C549.211 425.329 547.554 426.383 545.445 426.232C544.239 426.082 543.486 425.178 542.732 424.124C541.828 423.07 540.774 421.715 538.966 421.414C535.5 420.812 532.637 423.221 530.227 425.781C529.925 426.082 529.925 426.533 530.227 426.835C530.528 427.136 530.98 427.136 531.281 426.835C533.541 424.576 535.952 422.468 538.815 422.92C540.171 423.07 540.774 423.974 541.678 425.028C542.582 426.082 543.636 427.437 545.445 427.587C548.006 427.889 550.115 426.533 551.923 425.329C552.677 424.877 553.43 424.426 554.183 423.974C557.046 422.619 558.704 423.522 560.813 425.781C563.224 428.34 565.634 428.491 568.497 426.232L568.949 425.781C570.908 424.124 572.716 422.769 575.277 423.07C576.483 423.221 577.688 423.673 578.743 424.426C579.044 424.727 579.346 425.028 579.647 425.329C580.25 426.082 581.003 426.985 582.208 427.136C584.016 427.437 585.372 426.232 586.578 425.028C587.03 424.576 587.632 424.124 588.084 423.823C589.893 422.769 590.947 423.673 592.605 425.178C592.906 425.479 593.207 425.781 593.659 426.082C594.563 427.587 595.769 428.039 596.823 428.039Z" fill="#2C3647"/>
<path d="M597.316 410.335C598.973 410.335 600.48 409.431 601.685 408.679C601.986 408.377 602.137 407.926 601.836 407.625C601.534 407.323 601.082 407.173 600.781 407.474C598.37 409.281 596.713 409.281 594.905 407.926C594.604 407.625 594.302 407.323 594.001 407.022C592.343 405.517 590.535 403.86 587.673 405.366C587.07 405.667 586.618 406.269 586.015 406.721C584.961 407.625 583.906 408.679 582.851 408.377C582.248 408.227 581.646 407.625 581.194 407.022C580.892 406.571 580.591 406.269 580.139 405.968C578.934 405.065 577.578 404.463 575.92 404.162C572.756 403.86 570.647 405.366 568.537 407.173L568.085 407.625C565.825 409.431 564.168 409.281 562.36 407.323C559.949 404.613 557.689 403.258 553.922 405.065C553.169 405.517 552.265 405.968 551.512 406.42C549.703 407.625 548.046 408.679 545.937 408.528C544.731 408.377 543.978 407.474 543.225 406.42C542.321 405.366 541.266 404.011 539.458 403.71C535.992 403.108 533.13 405.517 530.719 408.076C530.418 408.377 530.418 408.829 530.719 409.13C531.02 409.431 531.472 409.431 531.774 409.13C534.034 406.872 536.444 404.764 539.307 405.216C540.663 405.366 541.266 406.269 542.17 407.323C543.074 408.377 544.129 409.732 545.937 409.883C548.498 410.184 550.608 408.829 552.416 407.625C553.169 407.173 553.922 406.721 554.676 406.269C557.538 404.914 559.196 405.818 561.305 408.076C563.716 410.636 566.127 410.786 568.989 408.528L569.441 408.076C571.4 406.42 573.208 405.065 575.77 405.366C576.975 405.517 578.18 405.968 579.235 406.721C579.536 407.022 579.838 407.323 580.139 407.625C580.742 408.377 581.495 409.281 582.7 409.431C584.509 409.732 585.865 408.528 587.07 407.323C587.522 406.872 588.125 406.42 588.577 406.119C590.385 405.065 591.439 405.968 593.097 407.474C593.398 407.775 593.699 408.076 594.152 408.377C595.056 409.883 596.261 410.335 597.316 410.335Z" fill="#2C3647"/>
<path d="M596.823 444.674C598.481 444.674 599.988 443.77 601.193 443.018C601.494 442.717 601.645 442.265 601.344 441.964C601.042 441.663 600.59 441.512 600.289 441.813C597.878 443.62 596.221 443.62 594.413 442.265C594.111 441.964 593.81 441.663 593.509 441.361C591.851 439.856 590.043 438.2 587.18 439.705C586.578 440.006 586.126 440.609 585.523 441.06C584.468 441.964 583.414 443.018 582.359 442.717C581.756 442.566 581.154 441.964 580.702 441.361C580.4 440.91 580.099 440.609 579.647 440.307C578.442 439.404 577.085 438.802 575.428 438.501C572.264 438.2 570.155 439.705 568.045 441.512L567.593 441.964C565.333 443.77 563.676 443.62 561.868 441.663C559.457 438.952 557.197 437.597 553.43 439.404C552.677 439.856 551.773 440.307 551.019 440.759C549.211 441.964 547.554 443.018 545.445 442.867C544.239 442.717 543.486 441.813 542.732 440.759C541.828 439.705 540.774 438.35 538.966 438.049C535.5 437.447 532.637 439.856 530.227 442.415C529.925 442.717 529.925 443.168 530.227 443.469C530.528 443.77 530.98 443.77 531.281 443.469C533.541 441.211 535.952 439.103 538.815 439.555C540.171 439.705 540.774 440.609 541.678 441.663C542.582 442.717 543.636 444.072 545.445 444.222C548.006 444.523 550.115 443.168 551.923 441.964C552.677 441.512 553.43 441.06 554.183 440.609C557.046 439.254 558.704 440.157 560.813 442.415C563.224 444.975 565.634 445.126 568.497 442.867L568.949 442.415C570.908 440.759 572.716 439.404 575.277 439.705C576.483 439.856 577.688 440.307 578.743 441.06C579.044 441.361 579.346 441.663 579.647 441.964C580.25 442.717 581.003 443.62 582.208 443.77C584.016 444.072 585.372 442.867 586.578 441.663C587.03 441.211 587.632 440.759 588.084 440.458C589.893 439.404 590.947 440.307 592.605 441.813C592.906 442.114 593.207 442.415 593.659 442.717C594.563 444.222 595.769 444.674 596.823 444.674Z" fill="#2C3647"/>
<path d="M199.243 573.249C200.599 554.109 201.937 537.391 203.067 519.296C177.346 517.473 151.42 516.393 125.72 514.269C124.113 532.633 123.189 549.986 121.929 567.769C147.649 569.592 173.522 571.426 199.243 573.249Z" fill="#E8DDCF"/>
<path d="M121.875 568.522C121.419 568.49 121.136 568.167 121.168 567.714C121.595 561.686 122.011 555.809 122.428 549.931C123.088 538.467 123.942 526.41 124.959 514.214C124.991 513.762 125.317 513.482 125.774 513.514C140.678 514.722 155.908 515.65 170.529 516.535C181.193 517.139 192.162 517.765 203.12 518.542C203.577 518.574 203.86 518.897 203.828 519.349C203.136 531.266 202.335 542.569 201.339 554.464C200.912 560.492 200.463 566.821 200.004 573.302C199.972 573.754 199.646 574.034 199.189 574.001C186.405 573.095 173.469 572.178 160.684 571.272C147.596 570.345 134.812 569.439 121.875 568.522ZM126.276 515.064C125.269 527.11 124.599 538.725 123.787 550.179C123.392 555.755 122.986 561.482 122.58 567.209C135.212 568.104 147.996 569.01 160.628 569.905C173.26 570.801 185.892 571.696 198.372 572.58C198.821 566.251 199.248 560.222 199.665 554.345C200.487 542.74 201.43 531.599 202.1 519.984C191.446 519.229 180.782 518.624 170.27 518.031C155.953 517.168 141.028 516.261 126.276 515.064Z" fill="#FDF9F3"/>
<path d="M125.69 514.72C138.597 526.843 151.189 539.096 163.781 551.348C177.203 541.091 190.353 530.36 203.068 519.296L125.69 514.72Z" fill="#E8DDCF"/>
<path d="M163.728 552.101C163.575 552.09 163.423 552.079 163.282 551.918L158.134 546.858C147.251 536.393 136.237 525.616 125.191 515.29C125.06 514.978 124.929 514.666 125.103 514.375C125.276 514.085 125.591 513.956 125.896 513.977L203.122 518.542C203.426 518.563 203.72 518.736 203.851 519.048C203.981 519.36 203.808 519.651 203.645 519.791C190.93 530.855 177.769 541.736 164.347 551.993C164.032 552.122 163.88 552.112 163.728 552.101ZM127.767 515.625C138.226 525.605 148.815 535.898 158.97 545.857L163.693 550.432C176.464 540.735 188.973 530.413 201.036 519.909L127.767 515.625Z" fill="#FDF9F3"/>
<g opacity="0.1294">
<path opacity="0.1294" d="M202.19 520.899C201.45 520.544 200.809 520.953 200.636 521.244C200.636 521.244 200.473 521.383 200.462 521.534C200.136 521.814 199.8 522.245 199.474 522.524C198.161 523.794 196.564 524.742 195.239 526.162C192.308 528.681 189.376 531.199 186.434 533.869C183.817 536.258 181.048 538.637 177.996 540.692C176.877 541.37 174.456 543.168 172.523 544.545C172.36 544.685 172.207 544.675 172.045 544.814C170.915 545.643 171.241 545.363 170.264 546.203C168.005 547.86 165.877 549.83 163.618 551.487C161.92 549.55 160.059 547.752 158.198 545.954C153.496 541.076 148.642 536.189 143.614 531.591C140.458 528.641 137.475 525.401 134.472 522.461C132.621 520.513 130.771 518.564 128.758 516.755C129.041 517.078 128.04 516.098 127.909 515.786C127.778 515.474 127.778 515.474 127.636 515.313C127.495 515.151 127.343 515.14 127.201 514.979C126.472 514.473 125.375 514.849 125.017 515.581C124.811 516.324 125.225 516.959 125.813 517.304C126.552 517.659 127.935 519.726 128.926 520.857C133.182 525.551 137.916 529.976 142.498 534.39C145.512 537.178 148.212 540.096 151.074 542.874C152.631 544.65 154.35 546.287 155.907 548.063C157.736 550.313 159.575 552.413 161.557 554.674C161.992 555.007 162.438 555.19 162.894 555.223C163.492 555.417 164.101 555.46 164.6 554.889C166.675 553.673 168.325 551.973 169.965 550.423C171.604 548.873 172.744 547.893 173.874 547.065C175.98 545.396 180.02 542.35 183.093 539.993C185.363 538.185 187.491 536.216 189.619 534.246C192.388 531.867 195.005 529.478 197.632 526.938C199.261 525.539 200.238 524.699 201.725 523.138C202.061 522.708 202.539 522.439 202.734 521.847C202.756 521.545 202.483 521.072 202.19 520.899Z" fill="#FDF9F3"/>
</g>
<path d="M122.192 568.393C122.04 568.382 121.746 568.21 121.605 568.048C121.322 567.725 121.354 567.273 121.68 566.993C132.224 558.502 143.214 550.193 154.476 542.357C154.802 542.078 155.248 542.261 155.531 542.584C155.814 542.907 155.63 543.348 155.304 543.628C144.204 551.323 133.214 559.632 122.66 568.275C122.497 568.415 122.345 568.404 122.192 568.393Z" fill="#FDF9F3"/>
<path d="M199.081 573.388C198.929 573.377 198.777 573.366 198.635 573.205C189.483 564.226 180.514 554.805 172.002 545.417C171.719 545.094 171.751 544.642 172.077 544.362C172.402 544.082 172.859 544.115 173.142 544.438C181.654 553.826 190.47 563.235 199.623 572.215C199.906 572.538 199.874 572.99 199.549 573.27C199.386 573.41 199.234 573.399 199.081 573.388Z" fill="#FDF9F3"/>
<g opacity="0.1294">
<path opacity="0.1294" d="M197.978 569.523C197.978 569.523 197.826 569.512 197.674 569.501C196.75 569.587 194.326 569.264 192.347 569.124C186.291 568.24 180.03 568.099 173.932 567.819C168.442 567.581 162.811 567.182 157.321 566.944C152.451 566.599 147.461 565.791 142.591 565.446C138.329 565.144 134.046 565.143 129.785 564.841C128.263 564.733 126.741 564.626 125.219 564.518C124.458 564.464 123.567 564.098 122.784 564.345C121.067 564.829 121.332 567.574 123.158 567.704C129.507 568.76 135.953 568.459 142.345 568.912C147.215 569.257 151.901 570.044 156.782 570.238C165.326 570.541 173.849 571.145 182.252 571.286C186.057 571.556 190.014 571.836 193.808 572.257C194.721 572.321 195.776 572.548 196.689 572.612C196.841 572.623 196.982 572.785 196.993 572.634C197.733 572.989 198.656 572.903 199.166 572.182C200.186 570.74 199.044 569.598 197.978 569.523Z" fill="#FDF9F3"/>
</g>
<path d="M509.697 408.609C509.697 411.837 507.017 414.491 503.666 414.491C500.315 414.491 497.636 411.837 497.636 408.609C497.636 405.381 500.315 402.727 503.666 402.727C507.017 402.727 509.697 405.381 509.697 408.609Z" fill="white" stroke="#263238" stroke-width="2"/>
<path d="M522.806 401.052L516.581 409.67L522.806 401.052ZM522.806 401.052C526.137 396.46 525.582 390.363 521.775 386.374L522.806 401.052ZM515.626 409.966L517.295 415.347C517.294 415.58 517.168 415.772 516.903 415.897C516.596 416.042 516.135 416.058 515.687 415.787L511.298 412.934L511.297 412.934L494.488 401.984L494.486 401.983L490.523 399.387L490.52 399.386C490.106 399.116 489.986 398.762 490.001 398.513C490.015 398.297 490.128 398.083 490.419 397.962L496.026 397.149L496.444 397.088L496.692 396.746L502.916 388.167C502.917 388.167 502.917 388.167 502.917 388.167C506.007 383.922 511.752 382.375 516.635 384.153L517.336 384.408L517.781 383.808L518.534 382.792L518.542 382.782L518.549 382.771C519.099 381.988 520.35 381.738 521.223 382.316L521.232 382.321L521.24 382.327C522.074 382.854 522.281 383.968 521.722 384.728L521.722 384.728L521.715 384.739L520.962 385.793L520.48 386.466L521.052 387.064C524.536 390.716 525.035 396.276 521.997 400.465L521.995 400.466L515.77 409.085L515.478 409.489L515.626 409.966Z" fill="#FFC01E" stroke="#263238" stroke-width="2"/>
</g>
<defs>
<clipPath id="clip0_338_4553">
<rect width="712" height="812" fill="white"/>
</clipPath>
<clipPath id="clip1_338_4553">
<rect width="712" height="900" fill="white" transform="translate(0 -88)"/>
</clipPath>
<clipPath id="clip2_338_4553">
<rect width="86.6987" height="60.8736" fill="white" transform="translate(501 248.372) rotate(-22.6388)"/>
</clipPath>
<clipPath id="clip3_338_4553">
<rect width="86.6987" height="60.8736" fill="white" transform="translate(636 338.999) rotate(-28.2223)"/>
</clipPath>
<clipPath id="clip4_338_4553">
<rect width="86.6987" height="60.8736" fill="white" transform="translate(-22.3193 521.907) rotate(18.5223)"/>
</clipPath>
</defs>
</svg>
