<svg width="615" height="900" viewBox="0 0 615 900" fill="none" xmlns="http://www.w3.org/2000/svg">
<g clip-path="url(#clip0_586_3555)">
<rect width="615" height="900" fill="#E8DDCF"/>
<g clip-path="url(#clip1_586_3555)">
<path d="M169.043 138.37H169.781L170.231 137.785C195.544 104.949 230.522 76.1706 275.22 51.4738C319.797 26.8437 372.402 14.5 433.087 14.5C492.672 14.5 546.696 26.0215 595.187 49.0386C643.715 72.0735 684.783 103.326 718.407 142.797C752.046 182.286 777.973 228.09 796.183 280.227C814.393 332.364 823.5 386.974 823.5 444.066C823.5 501.165 814.668 556.056 797.007 608.75C779.35 661.434 753.699 707.785 720.061 747.821C686.432 787.846 645.358 819.926 596.823 844.061C548.345 868.168 493.225 880.239 431.426 880.239C380.706 880.239 332.757 870.098 287.564 849.816C242.377 829.539 207.172 801.892 181.884 766.901L181.435 766.279H180.668H177.346H175.846V767.779V1253.5H-93.5V-52H162.561V136.87V138.37H164.061H169.043Z" stroke="#FDF9F3" stroke-width="3"/>
</g>
<path d="M529.69 448.194H322.863V605.845H529.69V448.194Z" fill="#E8DDCF" stroke="#2C3647" stroke-width="2" stroke-miterlimit="10" stroke-linecap="round" stroke-linejoin="round"/>
<path d="M258.827 484.575H52V642.226H258.827V484.575Z" fill="#E8DDCF" stroke="#2C3647" stroke-width="2" stroke-miterlimit="10" stroke-linecap="round" stroke-linejoin="round"/>
<path d="M562.226 257H355.398V414.651H562.226V257Z" fill="#E8DDCF" stroke="#2C3647" stroke-width="2" stroke-miterlimit="10" stroke-linecap="round" stroke-linejoin="round"/>
<path d="M268.64 288.479H61.8125V446.13H268.64V288.479Z" fill="#E8DDCF" stroke="#2C3647" stroke-width="2" stroke-miterlimit="10" stroke-linecap="round" stroke-linejoin="round"/>
<path d="M529.691 484.575C529.691 484.575 509.602 472.422 477.326 487.903C436.554 507.461 414.064 558.085 359.581 545.442C305.099 532.799 267.994 524.362 222.729 540.024C143.717 567.374 108.987 655.282 52 587.577" stroke="#2C3647" stroke-width="2" stroke-miterlimit="10" stroke-linecap="round" stroke-linejoin="round"/>
<path d="M61.8125 401.595C61.8125 401.595 83.8121 378.76 143.459 390.629C203.106 402.498 221.31 364.518 268.64 374.606C315.97 384.695 386.436 421.85 444.275 400.434C502.114 379.018 527.032 351.204 562.226 373.497" stroke="#2C3647" stroke-width="2" stroke-miterlimit="10" stroke-linecap="round" stroke-linejoin="round"/>
<path d="M477.144 316.99L456.746 339.954C456.746 339.954 448.741 328.085 444.61 326.537H444.584C433.352 319.338 408.563 320.293 398.39 326.537C398.287 326.614 398.183 326.692 398.08 326.795C390.747 329.943 375.409 339.18 375.409 339.18L347.006 321.376L335.645 337.374C335.645 337.374 361.724 360.596 378.249 361.628C382.252 361.886 388.475 360.028 394.155 357.912C394.672 362.402 396.195 366.814 396.066 371.949C395.601 390.526 389.352 405.414 389.352 414.264H448.741C448.741 414.264 443.06 389.752 443.835 371.174C443.938 368.826 444.248 365.679 444.661 362.195C448.25 366.788 452.898 370.529 458.553 370.658C470.173 370.916 494.186 324.215 494.186 324.215L477.144 316.99Z" fill="#E8DDCF" stroke="#2C3647" stroke-width="2" stroke-miterlimit="10" stroke-linecap="round" stroke-linejoin="round"/>
<path d="M346.18 323.905C346.18 323.905 341.61 315.364 336.626 313.12C331.694 310.901 332.417 314.384 334.096 315.493C336.781 317.274 337.582 320.189 337.582 320.189C337.582 320.189 333.76 319.003 331.539 318.099C328.105 316.706 326.866 315.364 325.626 314.487C324.103 313.378 322.192 315.235 324.593 317.506C327.279 320.086 331.488 321.738 331.488 321.738C331.488 321.738 328.363 321.97 325.859 320.989C323.354 319.983 320.178 317.635 319.274 319.132C318.319 320.68 320.281 322.924 324.284 324.24C328.57 325.659 330.868 326.098 330.868 326.098C330.868 326.098 326.969 326.279 324.413 325.789C321.856 325.298 318.81 324.782 318.655 326.33C318.5 327.878 321.288 328.885 323.845 329.117C326.427 329.349 330.636 329.272 330.636 329.272C330.636 329.272 330.222 330.459 326.84 330.691C325.73 330.768 323.767 330.33 323.251 330.381C321.676 330.51 321.521 332.291 323.277 332.961C324.361 333.374 326.349 333.994 327.847 334.148C331.694 334.484 338.666 335.206 338.666 335.206C338.666 335.206 343.598 328.188 346.18 323.905Z" fill="#E8DDCF" stroke="#2C3647" stroke-width="2" stroke-miterlimit="10" stroke-linecap="round" stroke-linejoin="round"/>
<path d="M412.049 316.448C412.049 316.448 412.592 320.602 412.101 325.221C417.627 336.729 431.364 321.583 431.364 321.583C431.364 321.583 429.117 317.377 428.73 314.049C427.981 307.727 429.866 301.922 430.176 299.806C430.176 299.806 436.683 299.161 435.805 293.639C435.056 288.866 430.021 291.833 430.021 291.833C430.021 291.833 429.066 274.958 414.399 275.216C399.733 275.474 398.984 285.382 399.242 296.58C399.526 306.772 402.521 317.609 412.049 316.448Z" fill="#E8DDCF" stroke="#2C3647" stroke-width="2" stroke-miterlimit="10" stroke-linecap="round" stroke-linejoin="round"/>
<path d="M402.393 292.607C402.393 292.607 404.045 290.569 406.369 292.039" stroke="#2C3647" stroke-width="2" stroke-miterlimit="10" stroke-linecap="round" stroke-linejoin="round"/>
<path d="M415.303 291.859C415.303 291.859 418.401 290.543 419.951 293.639" stroke="#2C3647" stroke-width="2" stroke-miterlimit="10" stroke-linecap="round" stroke-linejoin="round"/>
<path d="M404.846 297.38C405.374 297.38 405.801 296.953 405.801 296.426C405.801 295.898 405.374 295.471 404.846 295.471C404.318 295.471 403.891 295.898 403.891 296.426C403.891 296.953 404.318 297.38 404.846 297.38Z" fill="#2C3647"/>
<path d="M415.045 296.813C415.573 296.813 416.001 296.385 416.001 295.858C416.001 295.331 415.573 294.903 415.045 294.903C414.518 294.903 414.09 295.331 414.09 295.858C414.09 296.385 414.518 296.813 415.045 296.813Z" fill="#2C3647"/>
<path d="M406.989 299.522C406.989 299.522 404.949 301.715 405.723 302.799C406.395 303.728 408.228 303.418 408.228 303.418" stroke="#2C3647" stroke-width="2" stroke-miterlimit="10" stroke-linecap="round" stroke-linejoin="round"/>
<path d="M408.512 307.546C408.512 307.546 411.791 308.965 415.432 305.56" stroke="#2C3647" stroke-width="2" stroke-miterlimit="10" stroke-linecap="round" stroke-linejoin="round"/>
<path d="M432.887 292.168C432.887 292.168 435.986 295.368 431.622 297.2" stroke="#2C3647" stroke-width="2" stroke-miterlimit="10" stroke-linecap="round" stroke-linejoin="round"/>
<path d="M411.61 316.035C411.61 316.035 419.537 315.055 423.127 310.178C423.127 310.178 420.415 318.848 412.282 319.854L411.61 316.035Z" fill="#2C3647"/>
<path d="M414.141 272.61C414.141 272.61 412.437 271.527 407.686 272.868C400.456 274.932 399.191 284.015 397.874 292.22C396.066 303.573 389.095 321.376 398.39 326.537C406.291 330.923 412.075 325.247 412.075 325.247V316.474C412.075 316.474 402.108 317.97 400.456 304.089C398.648 288.866 400.456 285.511 402.005 284.995C402.005 284.995 401.489 288.866 402.005 289.64L405.878 289.124C405.878 289.124 406.653 284.995 409.493 282.415V288.866H411.042V281.641L414.141 289.124H418.789L417.498 280.609L421.629 289.382L426.277 289.898V286.285C426.277 286.285 427.052 294.284 428.601 294.026C429.995 293.794 429.427 289.717 434.281 290.93C436.347 291.446 436.141 294.129 435.831 295.574C435.056 299.186 430.408 299.961 430.408 299.961C430.408 299.961 428.498 303.418 427.568 307.443C424.728 319.828 430.925 322.15 430.925 322.15C430.925 322.15 442.828 331.62 446.676 322.15C449.516 315.184 440.272 311.804 438.929 298.412C436.864 277.771 425.915 268.275 414.141 272.61Z" fill="#2C3647"/>
<path d="M375.538 339.309C375.538 339.309 376.313 345.501 375.538 348.598" stroke="#2C3647" stroke-width="2" stroke-miterlimit="10" stroke-linecap="round" stroke-linejoin="round"/>
<path d="M399.294 337.503C399.294 337.503 400.301 342.818 396.454 349.372C392.064 356.854 395.318 360.131 395.679 367.949" stroke="#2C3647" stroke-width="2" stroke-miterlimit="10" stroke-linecap="round" stroke-linejoin="round"/>
<path d="M442.931 348.598C442.931 348.598 442.518 357.757 444.661 362.221" stroke="#2C3647" stroke-width="2" stroke-miterlimit="10" stroke-linecap="round" stroke-linejoin="round"/>
<path d="M456.875 339.567V348.598" stroke="#2C3647" stroke-width="2" stroke-miterlimit="10" stroke-linecap="round" stroke-linejoin="round"/>
<path d="M495.581 285.15C495.581 285.15 488.842 296.348 489.022 306.669C489.281 321.376 480.243 335.051 480.243 335.051L518.458 338.922C518.458 338.922 525.947 323.699 525.947 310.281C525.947 302.515 533.28 290.053 533.28 290.053L495.581 285.15Z" fill="#E8DDCF" stroke="#2C3647" stroke-width="2" stroke-miterlimit="10" stroke-linecap="round" stroke-linejoin="round"/>
<path d="M480.295 318.332C480.295 318.332 482.18 308.862 485.795 305.508C489.616 301.947 494.058 302.154 494.574 302.928C495.504 304.295 493.283 306.798 490.959 307.83C489.849 308.32 488.842 311.881 488.377 313.249C487.628 315.416 486.569 320.989 486.569 320.989L485.537 320.731C485.537 320.731 482.283 319.261 480.295 318.332Z" fill="#E8DDCF" stroke="#2C3647" stroke-width="2" stroke-miterlimit="10" stroke-linecap="round" stroke-linejoin="round"/>
<path d="M527.366 294.671C527.366 294.671 518.82 295.755 511.099 292.607C502.836 289.253 497.156 290.543 497.156 290.543M495.865 295.187C495.865 295.187 501.545 293.897 509.808 297.251C517.528 300.399 526.075 299.315 526.075 299.315M494.573 299.831C494.573 299.831 500.254 298.541 508.517 301.896C516.237 305.044 524.784 303.96 524.784 303.96M494.832 304.218C494.832 304.218 498.963 303.186 507.226 306.54C514.946 309.688 523.493 308.604 523.493 308.604M491.991 309.12C491.991 309.12 497.672 307.83 505.935 311.184C513.655 314.332 522.202 313.249 522.202 313.249M490.7 313.765C490.7 313.765 496.381 312.475 504.644 315.829C512.364 318.977 520.911 317.893 520.911 317.893M489.409 318.409C489.409 318.409 495.09 317.119 503.353 320.473C511.073 323.621 519.62 322.537 519.62 322.537M488.118 323.053C488.118 323.053 493.799 321.763 502.062 325.118C509.782 328.265 518.329 327.182 518.329 327.182M486.827 327.698C486.827 327.698 492.508 326.408 500.771 329.762C508.491 332.91 517.038 331.826 517.038 331.826" stroke="#2C3647" stroke-width="2" stroke-miterlimit="10" stroke-linecap="round" stroke-linejoin="round"/>
<path d="M194.429 401.337C188.232 399.918 179.943 396.306 179.943 396.306C179.943 396.306 187.354 373.522 189.549 369.962C190.298 368.749 193.06 367.149 195.823 365.756C197.734 364.672 199.981 363.692 202.227 362.866C207.494 360.931 212.633 359.796 212.633 359.796C212.633 359.796 219.527 364.853 225.414 365.343C228.1 365.575 230.579 364.853 232.128 362.273C232.128 362.273 234.865 363.176 238.17 364.182C239.874 364.698 247.311 366.375 249.221 371.045C251.132 375.716 263.165 405.646 263.165 405.646L249.428 409.207C250.048 426.675 250.254 446.259 250.254 446.259C250.254 446.259 211.316 446.259 190.659 446.259C190.659 446.259 193.809 434.312 194.352 413.722C194.481 409.774 194.481 405.543 194.429 401.337Z" fill="#2C3647"/>
<path d="M203.467 404.666C203.467 404.666 195.772 407.143 193.035 410.162" stroke="#2C3647" stroke-width="2" stroke-miterlimit="10" stroke-linecap="round" stroke-linejoin="round"/>
<path d="M206.72 374.787C206.72 374.787 207.004 389.288 203.44 399.712" stroke="#E8DDCF" stroke-width="2" stroke-miterlimit="10" stroke-linecap="round" stroke-linejoin="round"/>
<path d="M260.866 406.317L264.714 414.548L277.624 386.269L293.556 392.306C293.556 392.306 277.779 441.098 265.54 441.459C256.193 441.743 250.228 435.525 250.228 435.525L248.911 407.168L260.866 406.317Z" fill="#E8DDCF" stroke="#2C3647" stroke-width="2" stroke-miterlimit="10" stroke-linecap="round" stroke-linejoin="round"/>
<path d="M264.714 414.006C264.714 414.006 263.888 423.063 264.714 426.907" stroke="#2C3647" stroke-width="2" stroke-miterlimit="10" stroke-linecap="round" stroke-linejoin="round"/>
<path d="M259.731 417.851L265.799 358.686C265.954 357.293 267.116 356.209 268.536 356.209H369.729C371.355 356.209 372.621 357.628 372.466 359.228L366.372 418.392C366.217 419.786 365.055 420.869 363.635 420.869H262.468C260.841 420.869 259.55 419.45 259.731 417.851Z" fill="#EEE9E2" stroke="#2C3647" stroke-width="2" stroke-miterlimit="10" stroke-linecap="round" stroke-linejoin="round"/>
<path d="M270.679 360.596C271.207 360.596 271.634 360.168 271.634 359.641C271.634 359.114 271.207 358.686 270.679 358.686C270.151 358.686 269.724 359.114 269.724 359.641C269.724 360.168 270.151 360.596 270.679 360.596Z" fill="#2C3647"/>
<path d="M275.353 360.596C275.88 360.596 276.308 360.168 276.308 359.641C276.308 359.114 275.88 358.686 275.353 358.686C274.825 358.686 274.397 359.114 274.397 359.641C274.397 360.168 274.825 360.596 275.353 360.596Z" fill="#2C3647"/>
<path d="M280.284 360.596C280.812 360.596 281.24 360.168 281.24 359.641C281.24 359.114 280.812 358.686 280.284 358.686C279.757 358.686 279.329 359.114 279.329 359.641C279.329 360.168 279.757 360.596 280.284 360.596Z" fill="#2C3647"/>
<path d="M371.51 363.485H265.282" stroke="#2C3647" stroke-width="2" stroke-miterlimit="10" stroke-linecap="round" stroke-linejoin="round"/>
<path d="M296.087 383.431L297.326 370.349C297.429 369.136 296.577 368.233 295.286 368.233L278.115 368.156C276.463 368.156 274.836 369.549 274.707 371.071L273.467 384.153C273.364 385.366 274.216 386.269 275.507 386.269L292.678 386.346C294.305 386.346 295.958 384.979 296.087 383.431Z" fill="#2C3647"/>
<path d="M302.336 369.678L361.156 369.91M301.974 373.497L360.795 373.729M301.613 377.315L360.433 377.548M301.251 381.134L360.072 381.366M300.89 384.953L359.71 385.185" stroke="#2C3647" stroke-width="2" stroke-miterlimit="10" stroke-linecap="round" stroke-linejoin="round"/>
<path d="M273.08 389.494L359.271 389.829M272.667 393.777L358.858 394.113M272.254 398.086L358.445 398.422M271.841 402.369L358.031 402.705M271.453 406.678L357.644 407.014M271.04 410.961L357.231 411.297M270.627 415.245L356.818 415.58" stroke="#2C3647" stroke-width="2" stroke-miterlimit="10" stroke-linecap="round" stroke-linejoin="round"/>
<path d="M183.662 397.802L203.441 404.666C203.441 404.666 237.912 399.041 248.215 393.958C251.132 392.513 257.123 388.926 259.731 386.785C262.055 384.875 266.703 379.818 269.543 379.818C272.125 379.818 278.064 381.108 279.097 383.43C279.897 385.237 278.606 386.088 275.74 385.753C274.32 385.598 270.059 385.495 270.059 385.495L266.909 387.559C266.961 388.075 267.477 388.591 268.045 388.642C269.543 388.771 273.493 389.262 274.965 390.913C276.773 392.977 281.395 399.196 279.871 400.202C277.547 401.75 273.932 397.106 272.383 395.299C271.893 394.732 270.627 394.603 269.207 394.603C267.735 394.525 267.735 395.299 269.078 395.532C270.24 395.841 271.428 396.331 272.125 397.131C273.932 399.196 277.625 403.659 276.256 404.872C274.191 406.678 271.092 403.324 269.543 401.518C269.207 401.105 267.735 399.97 266.961 400.486C266.186 400.744 268.433 402.911 268.82 403.375C270.472 405.259 272.099 408.458 270.834 409.516C269.93 410.265 268.123 409.078 266.186 407.452C264.637 406.162 262.106 406.317 260.764 406.42C256.477 406.73 250.926 408.355 249.402 409C233.419 415.606 198.741 434.622 186.657 426.391C178.937 421.076 183.662 397.802 183.662 397.802Z" fill="#E8DDCF" stroke="#2C3647" stroke-width="2" stroke-miterlimit="10" stroke-linecap="round" stroke-linejoin="round"/>
<path d="M244.522 379.818L246.588 391.687" stroke="#E8DDCF" stroke-width="2" stroke-miterlimit="10" stroke-linecap="round" stroke-linejoin="round"/>
<path d="M203.466 404.588C203.466 404.588 197.682 408.175 194.765 411.555" stroke="#2C3647" stroke-width="2" stroke-miterlimit="10" stroke-linecap="round" stroke-linejoin="round"/>
<path d="M231.741 354.145C231.741 354.145 231.431 358.325 232.18 362.918C228.436 372 212.736 360.338 212.736 360.338C213.15 358.351 213.511 355.771 213.743 352.416C214.131 346.069 213.15 340.625 212.711 338.509C212.711 338.509 206.178 338.225 206.746 332.678C207.237 327.878 212.401 330.562 212.401 330.562C212.401 330.562 212.401 313.662 227.067 313.12C241.734 312.578 243.025 322.408 243.386 333.632C243.722 343.798 241.32 354.79 231.741 354.145Z" fill="#E8DDCF" stroke="#2C3647" stroke-width="2" stroke-miterlimit="10" stroke-linecap="round" stroke-linejoin="round"/>
<path d="M233.006 308.682C233.006 308.682 238.222 306.23 241.785 308.707C245.348 311.184 243.541 315.055 245.219 315.7C248.37 316.938 249.996 320.086 248.654 323.802C247.517 326.924 245.013 327.13 243.309 326.95C240.572 326.666 238.093 325.169 235.33 323.105C231.792 320.447 229.649 317.429 225.595 321.015C223.013 323.311 220.095 325.272 216.79 324.344C213.769 323.492 216.764 331.413 212.633 330.871C212.633 330.871 207.624 328.936 207.34 330.846C207.34 330.846 201.065 325.711 205.119 321.789C205.119 321.789 202.072 317.893 204.293 314.048C206.204 310.72 210.774 312.217 210.774 312.217C210.774 312.217 210.464 307.882 214.311 306.514C218.494 305.018 221.232 308.037 221.232 308.037C221.232 308.037 223.246 304.734 227.222 304.863C232.644 305.044 233.006 308.682 233.006 308.682Z" fill="#2C3647"/>
<path d="M240.545 329.478C240.545 329.478 238.325 327.878 236.078 329.478" stroke="#2C3647" stroke-width="2" stroke-miterlimit="10" stroke-linecap="round" stroke-linejoin="round"/>
<path d="M227.145 329.788C227.145 329.788 223.633 328.188 222.032 330.433" stroke="#2C3647" stroke-width="2" stroke-miterlimit="10" stroke-linecap="round" stroke-linejoin="round"/>
<path d="M237.834 334.716C238.362 334.716 238.79 334.289 238.79 333.761C238.79 333.234 238.362 332.807 237.834 332.807C237.307 332.807 236.879 333.234 236.879 333.761C236.879 334.289 237.307 334.716 237.834 334.716Z" fill="#2C3647"/>
<path d="M227.635 334.716C228.163 334.716 228.59 334.289 228.59 333.761C228.59 333.234 228.163 332.807 227.635 332.807C227.107 332.807 226.68 333.234 226.68 333.761C226.68 334.289 227.107 334.716 227.635 334.716Z" fill="#2C3647"/>
<path d="M235.768 338.07C235.768 338.07 236.853 340.857 235.768 341.579C234.813 342.224 233.212 341.27 233.212 341.27" stroke="#2C3647" stroke-width="2" stroke-miterlimit="10" stroke-linecap="round" stroke-linejoin="round"/>
<path d="M234.813 345.088C234.813 345.088 231.612 346.688 227.79 343.489" stroke="#2C3647" stroke-width="2" stroke-miterlimit="10" stroke-linecap="round" stroke-linejoin="round"/>
<path d="M209.612 331.052C209.612 331.052 206.694 334.432 211.161 336.006" stroke="#2C3647" stroke-width="2" stroke-miterlimit="10" stroke-linecap="round" stroke-linejoin="round"/>
<path d="M240.236 337.761C243.059 337.761 245.348 335.473 245.348 332.652C245.348 329.83 243.059 327.543 240.236 327.543C237.412 327.543 235.123 329.83 235.123 332.652C235.123 335.473 237.412 337.761 240.236 337.761Z" stroke="#2C3647" stroke-width="2" stroke-miterlimit="10" stroke-linecap="round" stroke-linejoin="round"/>
<path d="M225.543 337.761C228.367 337.761 230.656 335.473 230.656 332.652C230.656 329.83 228.367 327.543 225.543 327.543C222.72 327.543 220.431 329.83 220.431 332.652C220.431 335.473 222.72 337.761 225.543 337.761Z" stroke="#2C3647" stroke-width="2" stroke-miterlimit="10" stroke-linecap="round" stroke-linejoin="round"/>
<path d="M235.123 332.652C235.123 332.652 231.612 331.697 230.656 332.652" stroke="#2C3647" stroke-width="2" stroke-miterlimit="10" stroke-linecap="round" stroke-linejoin="round"/>
<path d="M220.456 330.923L212.478 331.052" stroke="#2C3647" stroke-width="2" stroke-miterlimit="10" stroke-linecap="round" stroke-linejoin="round"/>
<path d="M232.153 353.732C232.153 353.732 224.174 353.19 220.327 348.52C220.327 348.52 223.529 357.035 231.688 357.577L232.153 353.732Z" fill="#2C3647"/>
<path d="M290.096 347.875L292.446 332.884C292.679 331.465 293.892 330.407 295.338 330.407H319.403C321.211 330.407 322.579 332.007 322.295 333.787L319.946 348.778C319.713 350.197 318.5 351.255 317.054 351.255H292.988C291.207 351.255 289.812 349.656 290.096 347.875Z" fill="#E8DDCF" stroke="#2C3647" stroke-width="2" stroke-miterlimit="10" stroke-linecap="round" stroke-linejoin="round"/>
<path d="M316.589 340.289L316.408 341.579L310.134 344.108L310.34 342.637L314.627 340.96L310.805 339.309L311.012 337.812L316.589 340.289Z" fill="#2C3647"/>
<path d="M308.481 347.23H307.035L303.962 334.432H305.408L308.481 347.23Z" fill="#2C3647"/>
<path d="M302.026 339.257L297.739 340.934L301.561 342.612L301.354 344.082L295.803 341.579L295.983 340.289L302.258 337.761L302.026 339.257Z" fill="#2C3647"/>
<path d="M223.581 544.565L178.91 589.719C178.91 589.719 156.11 573.025 147.409 569.593C144.284 568.354 134.188 567.142 134.188 567.142C134.188 567.142 133.31 571.322 126.261 570.831C116.785 570.161 113.066 567.038 113.066 567.038C113.066 567.038 96.3344 573.799 90.6021 579.682C88.5622 581.771 82.3394 592.325 83.8886 609.612C85.3863 626.229 88.02 641.865 88.02 641.865H158.253C158.253 641.865 156.575 627.08 154.535 611.083C165.716 616.708 180.64 622.797 187.173 619.159C198.276 612.966 242.43 555.169 242.43 555.169L223.581 544.565Z" fill="#E8DDCF" stroke="#2C3647" stroke-width="2" stroke-miterlimit="10" stroke-linecap="round" stroke-linejoin="round"/>
<path d="M133.724 558.705C133.724 558.705 133.207 564.484 136.177 569.154C134.679 572.896 131.193 574.753 125.28 575.244C116.398 575.992 112.525 568.277 112.525 568.277C112.525 568.277 114.048 563.529 113.945 557.285C113.816 550.293 112.447 545.158 111.827 542.888C111.827 542.888 104.236 542.991 104.907 536.902C105.501 531.406 111.156 533.573 111.156 533.573C111.156 533.573 109.813 515.692 125.822 514.093C141.831 512.493 143.923 523.175 145.085 535.431C146.118 546.577 144.233 558.756 133.724 558.705Z" fill="#E8DDCF" stroke="#2C3647" stroke-width="2" stroke-miterlimit="10" stroke-linecap="round" stroke-linejoin="round"/>
<path d="M142.373 530.245C142.373 530.245 140.462 528.748 137.441 530.528" stroke="#2C3647" stroke-width="2" stroke-miterlimit="10" stroke-linecap="round" stroke-linejoin="round"/>
<path d="M129.695 531.354C129.695 531.354 125.564 529.883 122.775 532.851" stroke="#2C3647" stroke-width="2" stroke-miterlimit="10" stroke-linecap="round" stroke-linejoin="round"/>
<path d="M141.599 536.747C142.183 536.747 142.657 536.273 142.657 535.689C142.657 535.105 142.183 534.631 141.599 534.631C141.014 534.631 140.54 535.105 140.54 535.689C140.54 536.273 141.014 536.747 141.599 536.747Z" fill="#2C3647"/>
<path d="M130.883 537.779C131.468 537.779 131.942 537.305 131.942 536.721C131.942 536.137 131.468 535.663 130.883 535.663C130.298 535.663 129.824 536.137 129.824 536.721C129.824 537.305 130.298 537.779 130.883 537.779Z" fill="#2C3647"/>
<path d="M137.648 538.398C137.648 538.398 140.179 540.488 139.507 541.778C138.913 542.888 136.899 542.81 136.899 542.81" stroke="#2C3647" stroke-width="2" stroke-miterlimit="10" stroke-linecap="round" stroke-linejoin="round"/>
<path d="M108.857 534.889C108.857 534.889 105.397 536.411 108.367 539.869" stroke="#2C3647" stroke-width="2" stroke-miterlimit="10" stroke-linecap="round" stroke-linejoin="round"/>
<path d="M130.729 548.745C130.729 548.745 134.318 550.938 139.301 548.461" stroke="#2C3647" stroke-width="2" stroke-miterlimit="10" stroke-linecap="round" stroke-linejoin="round"/>
<path d="M152.96 624.165C152.96 624.165 164.192 622.049 166.645 623.39C169.485 624.939 175.786 630.022 175.166 631.647C174.391 633.711 172.842 632.937 171.551 631.905C170.26 630.873 166.387 628.293 166.387 628.293C166.387 628.293 169.176 631.157 170.777 633.969C172.016 636.137 172.352 638.304 171.551 638.872C169.744 640.162 168.453 637.324 167.936 636.292C166.903 634.227 163.288 631.905 163.288 631.905C163.288 631.905 165.922 635.259 166.387 637.324C166.903 639.646 166.387 641.452 164.838 641.452C163.779 641.452 163.03 640.162 163.03 638.098C163.03 636.524 160.706 635.001 160.706 635.001C160.706 635.001 161.223 636.808 161.223 638.356C161.223 639.904 161.223 641.194 159.932 641.452C158.641 641.71 157.866 640.162 157.866 638.098C157.866 636.033 156.833 635.775 156.833 635.775L152.96 636.033V624.165Z" fill="#E8DDCF" stroke="#2C3647" stroke-width="2" stroke-miterlimit="10" stroke-linecap="round" stroke-linejoin="round"/>
<path d="M130.547 504.443C115.416 501.295 108.961 517.886 108.961 517.886C108.961 517.886 103.771 519.124 102.428 522.298C99.3036 529.703 105.681 534.58 105.681 534.58C109.193 532.541 110.226 534.683 111.801 534.941C111.801 534.941 111.156 565.336 132.38 562.859C145.523 561.336 144.981 547.61 144.981 547.61C144.981 547.61 137.209 541.34 127.294 548.719C121.381 553.105 118.076 548.487 117.094 545.236C114.848 537.65 114.693 532.438 114.693 532.438C115.7 529.161 115.132 523.691 115.132 523.691C115.132 523.691 118.36 525.42 122.904 521.988C134.498 513.241 143.587 525.729 143.587 525.729C143.587 525.729 145.833 524.646 147.124 521.008C148.441 517.369 144.594 507.358 130.547 504.443ZM136.125 547.584C139.43 547.584 140.617 549.803 140.617 549.803C140.617 549.803 139.094 552.615 135.402 553.131C131.709 553.621 129.953 549.725 129.953 549.725C129.953 549.725 133.181 547.584 136.125 547.584Z" fill="#2C3647"/>
<path d="M260.402 585.719H188C185.469 585.719 183.326 587.551 182.913 590.054L172.61 641.968H255.496L265.541 591.705C266.031 588.583 263.604 585.719 260.402 585.719Z" fill="#E8DDCF" stroke="#2C3647" stroke-width="2" stroke-miterlimit="10" stroke-linecap="round" stroke-linejoin="round"/>
<path d="M264.791 585.848H192.389C189.858 585.848 187.715 587.68 187.302 590.183L176.974 642.097H259.859L269.904 591.834C270.42 588.712 267.993 585.848 264.791 585.848Z" fill="#2C3647"/>
<path d="M101.834 585.719C101.834 585.719 106.198 592.35 108.289 603.265C110.613 615.392 110.613 627.777 110.613 627.777L152.96 619.52V642.226" stroke="#2C3647" stroke-width="2" stroke-miterlimit="10" stroke-linecap="round" stroke-linejoin="round"/>
<path d="M105.191 632.163C105.191 632.163 105.45 629.067 110.614 627.777" stroke="#2C3647" stroke-width="2" stroke-miterlimit="10" stroke-linecap="round" stroke-linejoin="round"/>
<path d="M150.12 593.202L154.51 611.005" stroke="#2C3647" stroke-width="2" stroke-miterlimit="10" stroke-linecap="round" stroke-linejoin="round"/>
<path d="M288.134 507.771L281.136 499.205H264.559L257.794 507.771H251.003L245.013 557.724H324.748L330.739 507.771H288.134Z" fill="#2C3647"/>
<path d="M282.143 507.487H251.829H245.013L239.332 557.724H324.748V507.487H282.143Z" fill="#EEE9E2" stroke="#2C3647" stroke-width="2" stroke-miterlimit="10" stroke-linecap="round" stroke-linejoin="round"/>
<path d="M251.752 507.461H282.04" stroke="#2C3647" stroke-width="2" stroke-miterlimit="10" stroke-linecap="round" stroke-linejoin="round"/>
<path d="M240.133 550.706L322.993 550.757" stroke="#2C3647" stroke-width="2" stroke-miterlimit="10" stroke-linecap="round" stroke-linejoin="round"/>
<path d="M227.377 546.732C227.377 546.732 233.29 536.463 238.48 533.831C251.184 527.355 249.015 533.444 247.001 534.347C241.837 536.669 241.579 540.282 240.804 543.636L239.771 553.673L227.377 546.732Z" fill="#E8DDCF" stroke="#2C3647" stroke-width="2" stroke-miterlimit="10" stroke-linecap="round" stroke-linejoin="round"/>
<path d="M292.382 527.126C292.382 521.181 287.351 516.418 281.307 516.857C276.175 517.229 272.056 521.451 271.82 526.619C271.651 530.166 273.271 533.308 275.838 535.301C277.154 536.314 277.897 537.902 277.897 539.557C277.897 540.503 278.64 541.246 279.585 541.246H284.65C285.595 541.246 286.338 540.503 286.338 539.557C286.338 537.868 287.115 536.314 288.465 535.267C290.829 533.375 292.382 530.436 292.382 527.126Z" fill="#FFC01E" stroke="#2C3647" stroke-width="2" stroke-miterlimit="10" stroke-linecap="round" stroke-linejoin="round"/>
<path d="M283.738 545.705H280.463C279.721 545.705 279.079 545.097 279.079 544.32V541.212H285.123V544.32C285.089 545.097 284.481 545.705 283.738 545.705Z" fill="#FFC01E" stroke="#2C3647" stroke-width="2" stroke-miterlimit="10" stroke-linecap="round" stroke-linejoin="round"/>
<path d="M280.024 544.185H285.089" stroke="#2C3647" stroke-width="2" stroke-miterlimit="10" stroke-linecap="round" stroke-linejoin="round"/>
<path d="M279.079 542.698H284.144" stroke="#2C3647" stroke-width="2" stroke-miterlimit="10" stroke-linecap="round" stroke-linejoin="round"/>
<path d="M281.949 510V513.412" stroke="#2C3647" stroke-width="2" stroke-miterlimit="10" stroke-linecap="round" stroke-linejoin="round"/>
<path d="M265 527.126H268.41" stroke="#2C3647" stroke-width="2" stroke-miterlimit="10" stroke-linecap="round" stroke-linejoin="round"/>
<path d="M268.782 515.776L271.483 517.871" stroke="#2C3647" stroke-width="2" stroke-miterlimit="10" stroke-linecap="round" stroke-linejoin="round"/>
<path d="M294.273 515.776L291.572 517.871" stroke="#2C3647" stroke-width="2" stroke-miterlimit="10" stroke-linecap="round" stroke-linejoin="round"/>
<path d="M295.59 527.126H299" stroke="#2C3647" stroke-width="2" stroke-miterlimit="10" stroke-linecap="round" stroke-linejoin="round"/>
<path d="M441.383 529.6C441.383 529.6 455.61 531.586 460.49 536.308C468.753 544.307 466.171 602.362 462.298 605.2H390.773C390.773 605.2 402.393 546.371 407.815 540.695C415.123 533.031 422.792 533.212 422.792 533.212C422.792 533.212 434.928 537.34 441.383 529.6Z" fill="#E8DDCF" stroke="#2C3647" stroke-width="2" stroke-miterlimit="10" stroke-linecap="round" stroke-linejoin="round"/>
<path d="M421.629 527.355C421.629 527.355 422.817 531.38 422.998 536.024C428.524 544.126 441.486 529.496 441.486 529.496C440.685 527.639 439.782 525.187 438.878 521.962C437.174 515.821 437.019 510.3 437.019 508.158C437.019 508.158 443.345 506.532 441.641 501.217C440.169 496.624 435.65 500.314 435.65 500.314C435.65 500.314 432.138 483.775 417.679 486.278C403.219 488.781 403.993 498.663 405.956 509.706C407.789 519.717 412.411 529.961 421.629 527.355Z" fill="#E8DDCF" stroke="#2C3647" stroke-width="2" stroke-miterlimit="10" stroke-linecap="round" stroke-linejoin="round"/>
<path d="M406.988 505.526C406.988 505.526 408.692 503.591 410.965 504.417" stroke="#2C3647" stroke-width="2" stroke-miterlimit="10" stroke-linecap="round" stroke-linejoin="round"/>
<path d="M417.498 502.791C417.498 502.791 419.409 500.546 423.101 502.275" stroke="#2C3647" stroke-width="2" stroke-miterlimit="10" stroke-linecap="round" stroke-linejoin="round"/>
<path d="M408.693 510.222C409.22 510.222 409.648 509.795 409.648 509.267C409.648 508.74 409.22 508.313 408.693 508.313C408.165 508.313 407.737 508.74 407.737 509.267C407.737 509.795 408.165 510.222 408.693 510.222Z" fill="#2C3647"/>
<path d="M417.885 508.003C418.413 508.003 418.84 507.576 418.84 507.049C418.84 506.521 418.413 506.094 417.885 506.094C417.357 506.094 416.93 506.521 416.93 507.049C416.93 507.576 417.357 508.003 417.885 508.003Z" fill="#2C3647"/>
<path d="M411.868 512.209C411.868 512.209 410.448 514.841 411.43 515.692C412.307 516.44 414.012 515.692 414.012 515.692" stroke="#2C3647" stroke-width="2" stroke-miterlimit="10" stroke-linecap="round" stroke-linejoin="round"/>
<path d="M415.07 518.866C415.07 518.866 419.124 519.33 421.99 516.131" stroke="#2C3647" stroke-width="2" stroke-miterlimit="10" stroke-linecap="round" stroke-linejoin="round"/>
<path d="M438.542 500.185C438.542 500.185 442.106 502.869 438.052 505.371" stroke="#2C3647" stroke-width="2" stroke-miterlimit="10" stroke-linecap="round" stroke-linejoin="round"/>
<path d="M421.164 527.045C421.164 527.045 428.859 524.852 431.647 519.511C431.647 519.511 430.279 528.49 422.403 530.709L421.164 527.045Z" fill="#2C3647"/>
<path d="M420.906 480.834C420.906 480.834 408.538 482.665 404.535 488.239C399.655 495.076 398.597 501.785 405.129 505.604C405.129 505.604 412.256 498.482 415.07 491.825C415.07 491.825 421.242 501.062 432.19 497.966C432.19 497.966 433.403 502.456 435.314 501.527L435.547 500.159C435.547 500.159 438.748 497.631 440.892 499.695C440.892 499.695 444.971 484.73 432.474 481.814C432.474 481.814 436.786 481.788 437.871 478.563C438.929 475.338 436.089 471.958 430.899 470.538C420.519 467.726 418.737 473.119 420.906 480.834Z" fill="#2C3647"/>
<path d="M415.045 491.18C415.045 491.18 416.362 499.876 425.812 499.721C433.404 499.592 434.876 493.864 434.876 493.864" stroke="#2C3647" stroke-width="2" stroke-miterlimit="10" stroke-linecap="round" stroke-linejoin="round"/>
<path d="M434.617 475.183C434.617 475.183 442.596 477.995 436.037 485.684" stroke="#2C3647" stroke-width="2" stroke-miterlimit="10" stroke-linecap="round" stroke-linejoin="round"/>
<path d="M442.106 503.178C442.106 503.178 456.488 513.938 447.037 519.614C441.641 522.865 438.801 521.885 438.801 521.885L436.941 508.029C436.941 508.055 441.873 507.642 442.106 503.178Z" fill="#2C3647"/>
<path d="M311.244 605.2L298.049 561.981C296.294 556.253 300.58 550.448 306.596 550.448H373.602L389.095 605.2H311.244Z" fill="#E8DDCF" stroke="#2C3647" stroke-width="2" stroke-miterlimit="10" stroke-linecap="round" stroke-linejoin="round"/>
<path d="M310.727 550.448H377.785C381.709 550.448 385.169 553.002 386.331 556.769L401.127 605.2H315.401L302.206 561.981C300.424 556.253 304.711 550.448 310.727 550.448Z" fill="#2C3647"/>
<path d="M396.97 605.2L382.175 556.769C381.039 553.028 377.553 550.448 373.628 550.448" stroke="#E8DDCF" stroke-width="2" stroke-miterlimit="10" stroke-linecap="round" stroke-linejoin="round"/>
<path d="M342.875 605.2L348.039 574.624H332.546L322.398 605.2" stroke="#E8DDCF" stroke-width="2" stroke-miterlimit="10" stroke-linecap="round" stroke-linejoin="round"/>
<path d="M447.967 550.37C447.967 550.37 444.094 576.172 442.028 584.429L449.258 595.266" stroke="#2C3647" stroke-width="2" stroke-miterlimit="10" stroke-linecap="round" stroke-linejoin="round"/>
<path d="M442.028 584.429L410.01 577.721L405.62 600.943L432.861 605.587" stroke="#2C3647" stroke-width="2" stroke-miterlimit="10" stroke-linecap="round" stroke-linejoin="round"/>
<path d="M417.085 565.697C417.11 565.671 417.136 565.645 417.162 565.619L417.782 565.155C418.169 564.871 418.711 564.949 418.995 565.361C419.279 565.748 419.202 566.29 418.789 566.574L418.169 567.038C418.143 567.064 418.117 567.064 418.092 567.09L418.324 567.4L393.691 585.229L392.219 583.191L416.852 565.361L417.085 565.697Z" fill="#2C3647"/>
<path d="M409.235 580.559L406.653 596.04C406.653 596.04 399.837 595.782 397.564 593.589L393.355 579.836C393.355 579.836 397.874 575.14 400.973 574.624C404.071 574.108 409.235 580.559 409.235 580.559Z" fill="#E8DDCF" stroke="#2C3647" stroke-width="2" stroke-miterlimit="10" stroke-linecap="round" stroke-linejoin="round"/>
<path d="M410.991 550.344L409.648 570.573" stroke="#2C3647" stroke-width="2" stroke-miterlimit="10" stroke-linecap="round" stroke-linejoin="round"/>
</g>
<defs>
<clipPath id="clip0_586_3555">
<rect width="615" height="900" fill="white"/>
</clipPath>
<clipPath id="clip1_586_3555">
<rect width="660" height="900" fill="white"/>
</clipPath>
</defs>
</svg>
