<svg width="27" height="24" fill="none" xmlns="http://www.w3.org/2000/svg"><g id="8665838_spa_relax_icon 1"><path id="Vector" d="M17.29 13.584l.008-.008.008-.007c2.963-2.853 6.849-3.438 8.666-3.546-.126 1.694-.77 5.22-3.793 7.896l-.017.016-.017.017c-3.605 3.509-7.122 3.507-8.582 3.506h-.167c-1.494.002-4.974.007-8.538-3.462l-.015-.014-.016-.014c-3.026-2.71-3.671-6.245-3.798-7.944 1.818.11 5.703.7 8.661 3.584l.016.015.016.015c1.418 1.268 2.289 2.709 2.853 4.081l.925 2.25.925-2.25a11.459 11.459 0 012.865-4.135zm-2.405-2.497c-.492.442-.956.921-1.386 1.437a14.656 14.656 0 00-1.423-1.487 14.583 14.583 0 00-2.31-1.82c.747-2.682 2.095-5.01 3.737-6.568 1.642 1.56 2.99 3.893 3.737 6.576a14.595 14.595 0 00-2.355 1.862z" stroke="#D8DEFD" stroke-width="2"/></g></svg>