<svg width="25" height="24" fill="none" xmlns="http://www.w3.org/2000/svg"><g id="5404333_dish_plate_restaurant_icon 1"><g id="Group" fill="#D8DEFD" stroke="#D8DEFD" stroke-width=".2"><path id="Vector" d="M11.582 6.1h1.5a.85.85 0 00.614-.236.85.85 0 00.236-.614.85.85 0 00-.236-.614.85.85 0 00-.614-.236h-1.5a.85.85 0 00-.614.236.85.85 0 00-.236.614.85.85 0 00.236.614.85.85 0 00.614.236z"/><path id="Vector_2" d="M22.85 15.343l-.004-.012-.007-.011a.968.968 0 00-.345-.305.902.902 0 00-.413-.115h-.737c-.417-3.31-3.127-6.593-6.583-7.645a7.841 7.841 0 00-4.936 0c-3.38 1.052-6.164 4.333-6.51 7.645H2.58a.902.902 0 00-.413.115.967.967 0 00-.345.305.781.781 0 00-.003.855C2.887 18.307 5.02 19.6 7.455 19.6h9.825c2.362 0 4.573-1.295 5.64-3.507l.01-.02v-.029c0-.221 0-.46-.08-.7zM5.021 14.9c.416-2.62 2.613-5.153 5.314-6.03a7.063 7.063 0 013.917 0c2.7.804 4.97 3.408 5.387 6.03H5.021zm12.184 3h-9.75c-1.242 0-2.353-.453-3.214-1.3H20.42c-.86.847-1.97 1.3-3.213 1.3z"/></g></g></svg>