<svg width="25" height="24" fill="none" xmlns="http://www.w3.org/2000/svg"><g id="9042522_gym_icon 1" clip-path="url(#clip0_356_3207)" stroke="#D8DEFD" stroke-width="2" stroke-linecap="round" stroke-linejoin="round"><path id="Vector" d="M7.732 7h-2.8a.6.6 0 00-.6.6v8.8a.6.6 0 00.6.6h2.8a.6.6 0 00.6-.6V7.6a.6.6 0 00-.6-.6z"/><path id="Vector_2" d="M19.732 7h-2.8a.6.6 0 00-.6.6v8.8a.6.6 0 00.6.6h2.8a.6.6 0 00.6-.6V7.6a.6.6 0 00-.6-.6z"/><path id="Vector_3" d="M1.332 14.4V9.6a.6.6 0 01.6-.6h1.8a.6.6 0 01.6.6v4.8a.6.6 0 01-.6.6h-1.8a.6.6 0 01-.6-.6z"/><path id="Vector_4" d="M23.332 14.4V9.6a.6.6 0 00-.6-.6h-1.8a.6.6 0 00-.6.6v4.8a.6.6 0 00.6.6h1.8a.6.6 0 00.6-.6z"/><path id="Vector_5" d="M8.332 12h8"/></g><defs><clipPath id="clip0_356_3207"><path fill="#fff" transform="translate(.332)" d="M0 0h24v24H0z"/></clipPath></defs></svg>