<svg width="24" height="24" fill="none" xmlns="http://www.w3.org/2000/svg"><g id="directions_car_black_24dp 1"><g id="Group 4"><path id="Vector" d="M6.688 15.375a1.687 1.687 0 100-3.375 1.687 1.687 0 000 3.375z" fill="#D8DEFD"/><path id="Vector_2" d="M16.813 15.375a1.687 1.687 0 100-3.375 1.687 1.687 0 000 3.375z" fill="#D8DEFD"/><path id="Vector 2" d="M3 10h17" stroke="#D8DEFD" stroke-width="2"/><path id="Vector 3" d="M3 18h19" stroke="#D8DEFD" stroke-width="2"/><path id="Vector 1" d="M3 21V9.86c0-.238.043-.475.127-.699l1.82-4.862A2 2 0 016.818 3h9.968a2 2 0 011.824 1.18l2.213 4.93a2 2 0 01.176.818V21" stroke="#D8DEFD" stroke-width="2" stroke-linecap="round"/></g></g></svg>