<svg width="25" height="24" fill="none" xmlns="http://www.w3.org/2000/svg"><g id="2738307_compare_law_libra_icon 1"><g id="Vector"><mask id="path-1-outside-1_356_3239" maskUnits="userSpaceOnUse" x=".59" y="2.728" width="24" height="19" fill="#000"><path fill="#fff" d="M.59 2.728h24v19h-24z"/><path d="M23.718 14.885c-.009-.05-.01-.1-.03-.145l-4.226-9.965c-.005-.01-.014-.017-.019-.027-.018-.039-.044-.07-.069-.104-.02-.029-.035-.06-.06-.086-.01-.01-.022-.018-.033-.028-.03-.026-.064-.042-.098-.063-.017-.011-.033-.025-.052-.034-.013-.007-.022-.02-.036-.025h-.003c-.012-.006-.025-.007-.038-.011-.035-.013-.072-.015-.11-.022a.61.61 0 00-.154-.016c-.01 0-.02-.004-.031-.003l-4.433.423a1.843 1.843 0 00-1.66-1.05c-.855 0-1.57.588-1.778 1.38l-4.445.424c-.033.003-.06.02-.09.028-.037.008-.074.01-.108.024-.004.001-.007 0-.01.002-.01.004-.016.013-.025.017-.038.018-.069.044-.102.068-.03.022-.061.037-.087.063l-.027.03c-.028.033-.046.07-.068.107-.016.027-.04.046-.053.076L1.647 15.71l-.001.003c-.015.036-.015.077-.024.116-.013.051-.032.102-.032.154v.002a4.927 4.927 0 004.919 4.923 4.927 4.927 0 004.92-4.923v-.002c0-.052-.02-.103-.032-.154-.01-.039-.01-.08-.024-.116l-.001-.003-3.849-8.888 3.546-.34a1.84 1.84 0 001.598.939c.81 0 1.493-.53 1.74-1.258l3.326-.318-3.773 8.894c-.019.045-.02.097-.03.146-.008.042-.025.083-.025.125a4.926 4.926 0 004.92 4.922 4.926 4.926 0 004.919-4.922c0-.042-.018-.083-.026-.125zm-1.712-.567h-6.363l3.181-7.5 3.182 7.5zM6.509 7.965l3.173 7.328H3.336L6.51 7.965zm0 11.558a3.54 3.54 0 01-3.465-2.846h6.93a3.54 3.54 0 01-3.465 2.846zm6.158-13.487a.462.462 0 110-.924.462.462 0 010 .924zm6.158 12.511a3.54 3.54 0 01-3.465-2.845h6.93a3.54 3.54 0 01-3.465 2.845z"/></mask><path d="M23.718 14.885c-.009-.05-.01-.1-.03-.145l-4.226-9.965c-.005-.01-.014-.017-.019-.027-.018-.039-.044-.07-.069-.104-.02-.029-.035-.06-.06-.086-.01-.01-.022-.018-.033-.028-.03-.026-.064-.042-.098-.063-.017-.011-.033-.025-.052-.034-.013-.007-.022-.02-.036-.025h-.003c-.012-.006-.025-.007-.038-.011-.035-.013-.072-.015-.11-.022a.61.61 0 00-.154-.016c-.01 0-.02-.004-.031-.003l-4.433.423a1.843 1.843 0 00-1.66-1.05c-.855 0-1.57.588-1.778 1.38l-4.445.424c-.033.003-.06.02-.09.028-.037.008-.074.01-.108.024-.004.001-.007 0-.01.002-.01.004-.016.013-.025.017-.038.018-.069.044-.102.068-.03.022-.061.037-.087.063l-.027.03c-.028.033-.046.07-.068.107-.016.027-.04.046-.053.076L1.647 15.71l-.001.003c-.015.036-.015.077-.024.116-.013.051-.032.102-.032.154v.002a4.927 4.927 0 004.919 4.923 4.927 4.927 0 004.92-4.923v-.002c0-.052-.02-.103-.032-.154-.01-.039-.01-.08-.024-.116l-.001-.003-3.849-8.888 3.546-.34a1.84 1.84 0 001.598.939c.81 0 1.493-.53 1.74-1.258l3.326-.318-3.773 8.894c-.019.045-.02.097-.03.146-.008.042-.025.083-.025.125a4.926 4.926 0 004.92 4.922 4.926 4.926 0 004.919-4.922c0-.042-.018-.083-.026-.125zm-1.712-.567h-6.363l3.181-7.5 3.182 7.5zM6.509 7.965l3.173 7.328H3.336L6.51 7.965zm0 11.558a3.54 3.54 0 01-3.465-2.846h6.93a3.54 3.54 0 01-3.465 2.846zm6.158-13.487a.462.462 0 110-.924.462.462 0 010 .924zm6.158 12.511a3.54 3.54 0 01-3.465-2.845h6.93a3.54 3.54 0 01-3.465 2.845z" fill="#D8DEFD"/><path d="M23.718 14.885l.099-.018-.099.018zm-4.256-10.11l-.092.039.092-.04zm-.019-.027l.09-.044-.09.044zm-.069-.104l-.08.059.08-.06zm-.06-.086l-.07.07.07-.07zm-.033-.028l-.066.075.066-.075zm-.098-.063l.053-.085-.053.085zm-.052-.034l.045-.09-.045.09zm-.036-.025l-.042.09.003.002.039-.092zm-.003 0l-.038.092h.001l.037-.093zm-.038-.011l.034-.095-.034.095zm-.11-.022l.018-.098-.018.098zm-.154-.016l.005.1-.005-.1zm-.031-.003l-.01-.1.01.1zm-4.433.423l-.09.044.03.063.07-.007-.01-.1zm-3.438.33l.01.099.069-.007.017-.067-.096-.026zm-4.445.424l-.01-.1.01.1zm-.09.028l.023.097-.024-.097zm-.108.024l.038.092-.038-.092zm-.01.002l-.04-.092.04.092zm-.025.017l.043.09-.043-.09zm-.102.068l.059.081-.06-.08zm-.087.063l-.07-.07.07.07zm-.027.03l.075.067-.075-.066zm-.068.107l.085.052-.085-.052zm-.053.076l-.091-.04.091.04zM1.647 15.71l-.092-.04v.002l.092.038zm-.001.003l.092.04v-.002l-.092-.038zm-.024.116l-.098-.024.098.024zm-.032.154h-.1.1zm9.838 0h.1-.1zm-.031-.154l.097-.023-.097.023zm-.024-.116l-.093.038v.002l.093-.04zm-.001-.003l.092-.038v-.002l-.092.04zM7.523 6.822l-.01-.1-.136.013.054.126.092-.04zm3.546-.34l.087-.049-.032-.056-.064.006.01.1zm3.339-.319l-.01-.1-.064.007-.021.061.095.032zm3.325-.318l.092.04.066-.155-.167.016.009.1zm-3.803 9.04l-.098-.019.098.019zm4.895 5.047v.1-.1zm3.18-5.614v.1h.152l-.06-.14-.091.04zm-6.362 0l-.092-.04-.06.14h.152v-.1zm3.181-7.5l.092-.039-.091-.217-.093.217.093.04zM6.51 7.965l.092-.04-.092-.211-.092.212.092.04zm3.173 7.328v.1h.152l-.06-.14-.092.04zm-6.346 0l-.091-.04-.06.14h.151v-.1zm-.292 1.384v-.1h-.121l.023.12.098-.02zm6.93 0l.098.02.024-.12h-.122v.1zm5.386-.975v-.1h-.122l.023.12.099-.02zm6.93 0l.097.02.024-.12h-.122v.1zm1.527-.836c-.005-.024-.006-.038-.011-.071a.397.397 0 00-.025-.094l-.184.078a.207.207 0 01.011.047l.012.077.197-.037zm-.058-.197v-.001l-.002-.001s-.007-.007-.014-.011c-.129.017-.13.149-.128.151l.002.002v.001h.001v.001h.001l.002.002c.004.003.138-.002.148-.133a.237.237 0 00-.007-.009h-.001v-.001h-.001v-.001l-.142.141h-.001v-.002a.15.15 0 01-.009-.009c.01-.13.145-.136.148-.133l.002.002h.001v.001h.001v.001l.002.002c.002.002.001.134-.128.152a.184.184 0 01-.015-.012v-.001h-.001l.142-.142zm.022.032l-4.227-9.965-.184.078 4.227 9.965.184-.078zm-4.227-9.965a.155.155 0 00-.024-.038l-.002-.003.006.01-.181.086.014.023.008.01c.002.003.002.002 0 0a.066.066 0 01-.005-.01l.184-.078zm-.02-.032c-.024-.05-.059-.091-.08-.12l-.16.12c.029.039.046.06.06.087l.18-.087zm-.079-.119c-.008-.01-.012-.02-.024-.038a.332.332 0 00-.046-.06l-.142.142a.14.14 0 01.018.024l.032.05.162-.118zm-.07-.097a.263.263 0 00-.026-.023c-.008-.006-.01-.007-.012-.01l-.132.15.021.018a.07.07 0 01.007.005l.142-.14zm-.038-.032c-.038-.034-.09-.06-.11-.074l-.106.17c.045.028.062.035.084.053l.132-.15zm-.11-.074l-.022-.015a.307.307 0 00-.039-.024l-.09.18a.12.12 0 01.014.008l.03.02.106-.17zm-.06-.039a.034.034 0 01.005.004l-.002-.001-.003-.003a.144.144 0 00-.043-.027l-.078.184c-.008-.003-.012-.008-.006-.003l.012.01c.006.005.014.01.024.015l.09-.179zm-.04-.026a.101.101 0 00-.023-.007l-.01-.002h.001a.096.096 0 01.024.007l-.074.185a.103.103 0 00.021.006h.005-.006a.096.096 0 01-.022-.007l.084-.182zm-.006-.002a.12.12 0 00-.035-.01l-.008-.003-.067.189.03.008c.006.002.005.002.003 0l.077-.184zm-.043-.013a.4.4 0 00-.072-.017l-.054-.008-.035.197.057.008a.207.207 0 01.037.009l.067-.189zm-.126-.025c-.048-.009-.11-.021-.177-.018l.01.2c.04-.002.077.005.132.015l.035-.197zm-.177-.018h.008l-.016-.003a.138.138 0 00-.029 0l.019.2h-.013c-.002-.001-.003-.001 0 0a.141.141 0 00.04.004l-.01-.2zm-.036-.003l-4.433.424.02.199 4.432-.424-.019-.199zm-4.333.48a1.943 1.943 0 00-1.75-1.108v.2c.692 0 1.287.408 1.57.995l.18-.087zm-1.75-1.108c-.903 0-1.656.621-1.875 1.455l.193.05a1.744 1.744 0 011.683-1.305v-.2zm-1.788 1.38l-4.444.425.019.2 4.444-.425-.019-.2zm-4.445.425a.275.275 0 00-.071.019c-.02.007-.025.01-.033.011l.047.195c.023-.006.047-.016.057-.02a.087.087 0 01.02-.006l-.02-.199zm-.104.03c-.014.004-.025.005-.048.01a.35.35 0 00-.074.02l.076.184a.157.157 0 01.032-.008c.013-.002.039-.006.06-.011l-.046-.195zm-.122.03a.087.087 0 01.017-.006h.004l-.01.001a.113.113 0 00-.023.007l.078.184a.088.088 0 01-.017.005l-.005.001a.128.128 0 00.032-.008l-.076-.185zm-.013.002a.136.136 0 00-.025.014l-.012.01c-.002.002-.002.002 0 .001a.062.062 0 01.009-.006l.088.18a.14.14 0 00.022-.014l.01-.008c.002-.002.001-.001 0 0a.065.065 0 01-.012.007l-.08-.184zm-.028.02c-.048.023-.09.057-.117.077l.118.161c.04-.03.06-.046.086-.059l-.087-.18zm-.117.076c-.012.01-.022.015-.041.028a.363.363 0 00-.058.046l.142.14a.168.168 0 01.027-.02l.048-.032-.118-.162zm-.099.074a.27.27 0 00-.03.035l.15.132.022-.026-.142-.141zm-.03.035c-.037.04-.064.095-.08.12l.172.104c.028-.048.037-.069.057-.092L5.92 5.7zm-.08.12c-.003.006-.007.01-.02.026a.268.268 0 00-.038.062l.183.08.011-.017c.007-.008.023-.026.035-.047l-.17-.103zm-.058.088L1.555 15.67l.183.08 4.227-9.763-.183-.08zm-4.228 9.764a.102.102 0 00-.006.02v.006l-.001.002v-.006l.007-.019.184.076a.105.105 0 00.007-.026v-.001.005a.095.095 0 01-.006.02l-.185-.077zm0 .002a.332.332 0 00-.021.08c-.004.025-.005.037-.009.051l.195.047c.006-.024.009-.053.011-.067a.143.143 0 01.008-.032l-.184-.08zm-.03.132a1.238 1.238 0 01-.009.035l-.01.041a.43.43 0 00-.015.1l.2.001c0-.014.003-.03.009-.053l.009-.037a1.34 1.34 0 00.01-.042l-.194-.045zm-.034.177c0-.01.002-.018.003-.023l.002-.008v.003a.102.102 0 00-.005.03h.2c0 .01-.002.018-.003.023l-.002.008v-.002l.002-.007a.102.102 0 00.003-.024h-.2zm0 .002a5.027 5.027 0 005.019 5.023v-.2a4.827 4.827 0 01-4.82-4.823h-.2zm5.019 5.023a5.027 5.027 0 005.02-5.023h-.2a4.827 4.827 0 01-4.82 4.823v.2zm5.02-5.023a.103.103 0 00-.005-.03v-.002l.001.007a.1.1 0 01.003.023h-.2a.103.103 0 00.005.03v.002l-.002-.007a.099.099 0 01-.002-.023h.2zm0-.002a.435.435 0 00-.015-.1l-.01-.042-.01-.035-.194.046.01.041.01.037a.23.23 0 01.008.053h.2zm-.035-.178l-.008-.05a.33.33 0 00-.022-.081l-.183.079a.147.147 0 01.007.032c.002.014.006.043.012.067l.194-.047zm-.03-.13a.1.1 0 01.007.02v-.002a.103.103 0 00-.007-.02l-.185.075a.09.09 0 01-.005-.019l-.001-.006v.002l.001.006c0 .005.003.012.006.02l.185-.076zm0-.005l-3.85-8.888-.183.08 3.85 8.888.183-.08zM7.532 6.921l3.547-.339-.02-.199-3.546.339.02.2zm3.45-.389c.335.586.96.989 1.685.989v-.2a1.74 1.74 0 01-1.51-.888l-.175.1zm1.685.989c.856 0 1.575-.559 1.835-1.326l-.189-.064c-.234.69-.88 1.19-1.646 1.19v.2zm1.75-1.258l3.325-.318-.018-.2-3.326.319.02.199zm3.224-.457L13.868 14.7l.184.078 3.773-8.893-.184-.079zm-3.752 8.863l.001-.001.001-.001.014-.011c.13.017.13.149.129.151l-.002.002h-.001v.001h-.001v.001l-.003.002c-.003.003-.137-.002-.147-.133a.178.178 0 01.007-.01h.001v-.001h.001l.142.141v-.001l.002-.001.007-.01c-.01-.13-.144-.135-.148-.132l-.001.001-.001.001h-.001v.001l-.001.001-.002.002c-.002.002 0 .134.128.151a.168.168 0 00.015-.012h.001l-.14-.142zm-.021.031a.402.402 0 00-.025.095l-.011.071.196.037c.005-.024.01-.06.012-.077a.22.22 0 01.012-.048l-.184-.078zm-.036.167c-.003.016-.008.029-.014.055a.35.35 0 00-.013.088h.2a.21.21 0 01.006-.038c.004-.015.013-.044.018-.069l-.197-.037zm-.027.143h.2-.2.2-.2zm0 0a5.026 5.026 0 005.02 5.022v-.2a4.826 4.826 0 01-4.82-4.822h-.2zm5.02 5.022a5.026 5.026 0 005.019-5.022h-.2a4.826 4.826 0 01-4.82 4.822v.2zm5.019-5.022h-.2.2-.2.2zm0 0a.355.355 0 00-.013-.088c-.007-.026-.011-.039-.014-.056l-.197.037c.005.025.013.054.017.07a.16.16 0 01.007.037h.2zm-1.838-.793h-6.363v.2h6.363v-.2zm-6.271.14l3.181-7.5-.184-.078-3.181 7.5.184.078zm2.997-7.5l3.182 7.5.184-.079-3.181-7.499-.185.078zM6.417 8.005l3.173 7.328.184-.08L6.6 7.926l-.184.079zm3.265 7.188H3.336v.2h6.346v-.2zm-6.254.14l3.173-7.328-.184-.08-3.172 7.328.183.08zm3.081 4.09a3.44 3.44 0 01-3.366-2.765l-.197.039a3.64 3.64 0 003.563 2.926v-.2zm-3.465-2.645h6.93v-.2h-6.93v.2zm6.832-.12a3.44 3.44 0 01-3.367 2.765v.2a3.64 3.64 0 003.563-2.926l-.196-.039zm2.79-10.722a.362.362 0 01-.36-.362h-.2c0 .31.25.562.56.562v-.2zm-.36-.362a.36.36 0 01.36-.361v-.2a.562.562 0 00-.56.561h.2zm.36-.361c.2 0 .362.162.362.361h.2a.562.562 0 00-.561-.561v.2zm.362.361a.362.362 0 01-.361.362v.2c.31 0 .561-.252.561-.562h-.2zm5.796 12.873a3.44 3.44 0 01-3.366-2.764l-.197.039a3.64 3.64 0 003.564 2.925v-.2zm-3.465-2.645h6.93v-.2h-6.93v.2zm6.832-.12a3.44 3.44 0 01-3.366 2.765v.2a3.64 3.64 0 003.562-2.925l-.196-.04z" fill="#D8DEFD" mask="url(#path-1-outside-1_356_3239)"/></g></g></svg>