<svg width="25" height="24" viewBox="0 0 25 24" fill="none" xmlns="http://www.w3.org/2000/svg">
<g id="2738307_compare_law_libra_icon 1">
<g id="Vector">
<mask id="path-1-outside-1_356_3239" maskUnits="userSpaceOnUse" x="0.589844" y="2.72827" width="24" height="19" fill="black">
<rect fill="white" x="0.589844" y="2.72827" width="24" height="19"/>
<path d="M23.7185 14.8847C23.7092 14.8359 23.7077 14.7843 23.6888 14.7397C23.6887 14.7396 23.6888 14.7397 23.6888 14.7397L19.4618 4.77485C19.4574 4.76425 19.4481 4.75777 19.4432 4.74752C19.4248 4.7091 19.399 4.67783 19.3741 4.64391C19.3534 4.6154 19.3393 4.5834 19.3142 4.55816C19.3038 4.54763 19.2919 4.54019 19.2808 4.53044C19.2514 4.50436 19.2169 4.48768 19.1835 4.46689C19.1658 4.4559 19.1498 4.44216 19.1312 4.43281C19.1177 4.42604 19.109 4.41393 19.095 4.40796C19.0941 4.40756 19.0931 4.40773 19.0923 4.4074C19.08 4.40221 19.0669 4.40103 19.0543 4.39652C19.0191 4.38401 18.9817 4.38187 18.9444 4.37517C18.8929 4.36593 18.843 4.35613 18.7899 4.35894C18.7791 4.35945 18.7695 4.35466 18.7587 4.35568L14.3256 4.77935C14.0274 4.16006 13.399 3.72827 12.6668 3.72827C11.8107 3.72827 11.0957 4.3168 10.8877 5.10821L6.44321 5.53296C6.41036 5.53617 6.38366 5.55307 6.35245 5.56057C6.31639 5.56913 6.27909 5.57059 6.24495 5.58474C6.2414 5.5862 6.23762 5.58552 6.23407 5.58705C6.22461 5.59116 6.21892 5.59955 6.20968 5.60406C6.17193 5.62243 6.14128 5.64801 6.10787 5.67246C6.07863 5.69364 6.04703 5.70936 6.02128 5.73516C6.01147 5.74502 6.00359 5.75556 5.9944 5.76593C5.96601 5.79793 5.94798 5.83556 5.92589 5.8723C5.90984 5.89883 5.88617 5.91838 5.8735 5.94762L1.64663 15.7102C1.64624 15.7112 1.64641 15.7122 1.64601 15.7132C1.63075 15.7488 1.63063 15.7902 1.62151 15.8286C1.60934 15.8803 1.59041 15.9314 1.59029 15.9831C1.59029 15.9838 1.58984 15.9845 1.58984 15.9852C1.58984 18.6994 3.79657 20.908 6.50901 20.908C9.22191 20.908 11.4286 18.6994 11.4286 15.9852C11.4286 15.9845 11.4282 15.9838 11.4282 15.9831C11.4281 15.9314 11.4091 15.8803 11.397 15.8286C11.3878 15.7902 11.3877 15.7488 11.3725 15.7132C11.3721 15.7122 11.3722 15.7112 11.3718 15.7102L7.52297 6.82157L11.0694 6.48263C11.3875 7.03972 11.9804 7.42058 12.6668 7.42058C13.4778 7.42058 14.1603 6.89155 14.4077 6.16329L17.733 5.84548L13.9599 14.7394C13.9598 14.7394 13.9599 14.7393 13.9599 14.7394C13.941 14.784 13.9394 14.8359 13.9301 14.8847C13.9224 14.9266 13.905 14.968 13.905 15.0097C13.905 15.0096 13.905 15.0097 13.905 15.0097C13.905 17.7239 16.1116 19.9317 18.8245 19.9317C21.537 19.9317 23.7437 17.7241 23.7437 15.0098C23.7437 15.0098 23.7437 15.0099 23.7437 15.0098C23.7437 14.9681 23.7262 14.9266 23.7185 14.8847ZM22.0057 14.3175H15.6429L18.8245 6.81808L22.0057 14.3175ZM6.50907 7.96528L9.68198 15.2929H3.33644L6.50907 7.96528ZM6.50901 19.5233C4.79695 19.5233 3.36715 18.2977 3.04443 16.6775H9.97405C9.65133 18.2977 8.22147 19.5233 6.50901 19.5233ZM12.6668 6.03596C12.4121 6.03596 12.2052 5.82863 12.2052 5.57443C12.2052 5.32022 12.4121 5.11289 12.6668 5.11289C12.9214 5.11289 13.1283 5.32022 13.1283 5.57443C13.1283 5.82863 12.9214 6.03596 12.6668 6.03596ZM18.8245 18.5471C17.1121 18.5471 15.6822 17.3221 15.3595 15.7021H22.2891C21.9664 17.3221 20.5366 18.5471 18.8245 18.5471Z"/>
</mask>
<path d="M23.7185 14.8847C23.7092 14.8359 23.7077 14.7843 23.6888 14.7397C23.6887 14.7396 23.6888 14.7397 23.6888 14.7397L19.4618 4.77485C19.4574 4.76425 19.4481 4.75777 19.4432 4.74752C19.4248 4.7091 19.399 4.67783 19.3741 4.64391C19.3534 4.6154 19.3393 4.5834 19.3142 4.55816C19.3038 4.54763 19.2919 4.54019 19.2808 4.53044C19.2514 4.50436 19.2169 4.48768 19.1835 4.46689C19.1658 4.4559 19.1498 4.44216 19.1312 4.43281C19.1177 4.42604 19.109 4.41393 19.095 4.40796C19.0941 4.40756 19.0931 4.40773 19.0923 4.4074C19.08 4.40221 19.0669 4.40103 19.0543 4.39652C19.0191 4.38401 18.9817 4.38187 18.9444 4.37517C18.8929 4.36593 18.843 4.35613 18.7899 4.35894C18.7791 4.35945 18.7695 4.35466 18.7587 4.35568L14.3256 4.77935C14.0274 4.16006 13.399 3.72827 12.6668 3.72827C11.8107 3.72827 11.0957 4.3168 10.8877 5.10821L6.44321 5.53296C6.41036 5.53617 6.38366 5.55307 6.35245 5.56057C6.31639 5.56913 6.27909 5.57059 6.24495 5.58474C6.2414 5.5862 6.23762 5.58552 6.23407 5.58705C6.22461 5.59116 6.21892 5.59955 6.20968 5.60406C6.17193 5.62243 6.14128 5.64801 6.10787 5.67246C6.07863 5.69364 6.04703 5.70936 6.02128 5.73516C6.01147 5.74502 6.00359 5.75556 5.9944 5.76593C5.96601 5.79793 5.94798 5.83556 5.92589 5.8723C5.90984 5.89883 5.88617 5.91838 5.8735 5.94762L1.64663 15.7102C1.64624 15.7112 1.64641 15.7122 1.64601 15.7132C1.63075 15.7488 1.63063 15.7902 1.62151 15.8286C1.60934 15.8803 1.59041 15.9314 1.59029 15.9831C1.59029 15.9838 1.58984 15.9845 1.58984 15.9852C1.58984 18.6994 3.79657 20.908 6.50901 20.908C9.22191 20.908 11.4286 18.6994 11.4286 15.9852C11.4286 15.9845 11.4282 15.9838 11.4282 15.9831C11.4281 15.9314 11.4091 15.8803 11.397 15.8286C11.3878 15.7902 11.3877 15.7488 11.3725 15.7132C11.3721 15.7122 11.3722 15.7112 11.3718 15.7102L7.52297 6.82157L11.0694 6.48263C11.3875 7.03972 11.9804 7.42058 12.6668 7.42058C13.4778 7.42058 14.1603 6.89155 14.4077 6.16329L17.733 5.84548L13.9599 14.7394C13.9598 14.7394 13.9599 14.7393 13.9599 14.7394C13.941 14.784 13.9394 14.8359 13.9301 14.8847C13.9224 14.9266 13.905 14.968 13.905 15.0097C13.905 15.0096 13.905 15.0097 13.905 15.0097C13.905 17.7239 16.1116 19.9317 18.8245 19.9317C21.537 19.9317 23.7437 17.7241 23.7437 15.0098C23.7437 15.0098 23.7437 15.0099 23.7437 15.0098C23.7437 14.9681 23.7262 14.9266 23.7185 14.8847ZM22.0057 14.3175H15.6429L18.8245 6.81808L22.0057 14.3175ZM6.50907 7.96528L9.68198 15.2929H3.33644L6.50907 7.96528ZM6.50901 19.5233C4.79695 19.5233 3.36715 18.2977 3.04443 16.6775H9.97405C9.65133 18.2977 8.22147 19.5233 6.50901 19.5233ZM12.6668 6.03596C12.4121 6.03596 12.2052 5.82863 12.2052 5.57443C12.2052 5.32022 12.4121 5.11289 12.6668 5.11289C12.9214 5.11289 13.1283 5.32022 13.1283 5.57443C13.1283 5.82863 12.9214 6.03596 12.6668 6.03596ZM18.8245 18.5471C17.1121 18.5471 15.6822 17.3221 15.3595 15.7021H22.2891C21.9664 17.3221 20.5366 18.5471 18.8245 18.5471Z" fill="#D8DEFD"/>
<path d="M23.7185 14.8847L23.8168 14.8665L23.8167 14.8662L23.7185 14.8847ZM19.4618 4.77485L19.3696 4.81359L19.3698 4.8139L19.4618 4.77485ZM19.4432 4.74752L19.5335 4.70439L19.5334 4.70418L19.4432 4.74752ZM19.3741 4.64391L19.2932 4.70262L19.2935 4.70309L19.3741 4.64391ZM19.3142 4.55816L19.2431 4.62849L19.2433 4.62863L19.3142 4.55816ZM19.2808 4.53044L19.2145 4.60525L19.2146 4.60541L19.2808 4.53044ZM19.1835 4.46689L19.2363 4.38199L19.2362 4.38194L19.1835 4.46689ZM19.1312 4.43281L19.1761 4.34347L19.1761 4.34344L19.1312 4.43281ZM19.095 4.40796L19.0526 4.49864L19.0559 4.50003L19.095 4.40796ZM19.0923 4.4074L19.0536 4.4996L19.0552 4.50024L19.0923 4.4074ZM19.0543 4.39652L19.0879 4.30235L19.0878 4.30231L19.0543 4.39652ZM18.9444 4.37517L18.962 4.27675L18.962 4.27674L18.9444 4.37517ZM18.7899 4.35894L18.7946 4.45883L18.7952 4.4588L18.7899 4.35894ZM18.7587 4.35568L18.7494 4.25611L18.7492 4.25613L18.7587 4.35568ZM14.3256 4.77935L14.2356 4.82275L14.2658 4.88553L14.3352 4.8789L14.3256 4.77935ZM10.8877 5.10821L10.8972 5.20776L10.9666 5.20112L10.9844 5.13364L10.8877 5.10821ZM6.44321 5.53296L6.4337 5.43341L6.43348 5.43343L6.44321 5.53296ZM6.35245 5.56057L6.37555 5.65786L6.37579 5.6578L6.35245 5.56057ZM6.24495 5.58474L6.2831 5.67717L6.28321 5.67712L6.24495 5.58474ZM6.23407 5.58705L6.19468 5.49513L6.19422 5.49533L6.23407 5.58705ZM6.20968 5.60406L6.25343 5.69398L6.25352 5.69394L6.20968 5.60406ZM6.10787 5.67246L6.16654 5.75344L6.16693 5.75315L6.10787 5.67246ZM6.02128 5.73516L5.95049 5.66453L5.95037 5.66466L6.02128 5.73516ZM5.9944 5.76593L6.0692 5.8323L6.06926 5.83224L5.9944 5.76593ZM5.92589 5.8723L6.01145 5.92407L6.0116 5.92382L5.92589 5.8723ZM5.8735 5.94762L5.78175 5.90785L5.78173 5.90789L5.8735 5.94762ZM1.64663 15.7102L1.55485 15.6705L1.55417 15.6722L1.64663 15.7102ZM1.64601 15.7132L1.73793 15.7526L1.73848 15.7513L1.64601 15.7132ZM1.62151 15.8286L1.52423 15.8054L1.52417 15.8057L1.62151 15.8286ZM1.59029 15.9831L1.49029 15.9829L1.49029 15.9831L1.59029 15.9831ZM11.4282 15.9831H11.5282L11.5282 15.9829L11.4282 15.9831ZM11.397 15.8286L11.4943 15.8057L11.4943 15.8054L11.397 15.8286ZM11.3725 15.7132L11.28 15.7512L11.2806 15.7526L11.3725 15.7132ZM11.3718 15.7102L11.4643 15.6722L11.4636 15.6705L11.3718 15.7102ZM7.52297 6.82157L7.51345 6.72202L7.37656 6.73511L7.4312 6.86131L7.52297 6.82157ZM11.0694 6.48263L11.1562 6.43304L11.1242 6.37694L11.0598 6.38308L11.0694 6.48263ZM14.4077 6.16329L14.3982 6.06375L14.3338 6.0699L14.313 6.13113L14.4077 6.16329ZM17.733 5.84548L17.825 5.88453L17.8906 5.72996L17.7235 5.74593L17.733 5.84548ZM13.9301 14.8847L13.8319 14.8662L13.8318 14.8665L13.9301 14.8847ZM18.8245 19.9317V20.0317V19.9317ZM22.0057 14.3175V14.4175H22.1567L22.0977 14.2785L22.0057 14.3175ZM15.6429 14.3175L15.5509 14.2785L15.4919 14.4175H15.6429V14.3175ZM18.8245 6.81808L18.9165 6.77903L18.8245 6.56201L18.7324 6.77902L18.8245 6.81808ZM6.50907 7.96528L6.60084 7.92554L6.50907 7.7136L6.4173 7.92554L6.50907 7.96528ZM9.68198 15.2929V15.3929H9.83425L9.77375 15.2531L9.68198 15.2929ZM3.33644 15.2929L3.24468 15.2531L3.18418 15.3929H3.33644V15.2929ZM3.04443 16.6775V16.5775H2.92255L2.94636 16.697L3.04443 16.6775ZM9.97405 16.6775L10.0721 16.697L10.0959 16.5775H9.97405V16.6775ZM15.3595 15.7021V15.6021H15.2376L15.2614 15.7217L15.3595 15.7021ZM22.2891 15.7021L22.3872 15.7217L22.411 15.6021H22.2891V15.7021ZM23.8167 14.8662C23.8122 14.8422 23.8112 14.8278 23.806 14.795C23.8017 14.7678 23.7951 14.7342 23.7808 14.7006L23.5967 14.7787C23.6014 14.7898 23.605 14.8043 23.6085 14.8263C23.6111 14.8427 23.6155 14.8784 23.6202 14.9033L23.8167 14.8662ZM23.7595 14.669C23.7595 14.669 23.7594 14.6689 23.7594 14.6689C23.7594 14.6689 23.7594 14.6689 23.7594 14.6689C23.7594 14.6689 23.7593 14.6688 23.7593 14.6688C23.7593 14.6687 23.7592 14.6687 23.7592 14.6687C23.7591 14.6686 23.759 14.6685 23.7589 14.6684C23.7588 14.6683 23.7586 14.6681 23.7583 14.6678C23.7581 14.6677 23.7576 14.6672 23.7573 14.6669C23.7565 14.6661 23.7496 14.6603 23.7431 14.6557C23.6144 14.6728 23.6131 14.805 23.6151 14.8073C23.6157 14.8079 23.6164 14.8087 23.6167 14.809C23.617 14.8094 23.6173 14.8097 23.6174 14.8097C23.6175 14.8099 23.6177 14.81 23.6177 14.81C23.6177 14.8101 23.6178 14.8101 23.6178 14.8101C23.6178 14.8102 23.6179 14.8102 23.6179 14.8102C23.6179 14.8102 23.6179 14.8103 23.6179 14.8103C23.618 14.8103 23.618 14.8103 23.618 14.8103C23.618 14.8103 23.618 14.8103 23.618 14.8103C23.618 14.8103 23.618 14.8103 23.618 14.8104C23.618 14.8104 23.618 14.8104 23.618 14.8104C23.6181 14.8104 23.6181 14.8104 23.6181 14.8104C23.6181 14.8104 23.6181 14.8104 23.6181 14.8104C23.6181 14.8104 23.6181 14.8105 23.6182 14.8105C23.6182 14.8105 23.6182 14.8105 23.6182 14.8106C23.6183 14.8106 23.6183 14.8106 23.6183 14.8107C23.6184 14.8107 23.6185 14.8108 23.6187 14.811C23.6187 14.811 23.619 14.8114 23.6194 14.8117C23.6197 14.812 23.6207 14.8129 23.6213 14.8135C23.6245 14.8163 23.7588 14.8111 23.7692 14.6803C23.7661 14.6763 23.7622 14.6718 23.7615 14.671C23.7612 14.6707 23.7608 14.6703 23.7606 14.6701C23.7604 14.6699 23.7602 14.6697 23.7601 14.6696C23.76 14.6695 23.7598 14.6693 23.7598 14.6693C23.7598 14.6693 23.7597 14.6692 23.7597 14.6692C23.7597 14.6692 23.7596 14.6691 23.7596 14.6691C23.7596 14.6691 23.7596 14.6691 23.7596 14.6691C23.7596 14.669 23.7595 14.669 23.7595 14.669L23.618 14.8103C23.618 14.8103 23.618 14.8103 23.618 14.8103C23.618 14.8103 23.618 14.8103 23.6179 14.8103C23.6179 14.8103 23.6179 14.8102 23.6178 14.8102C23.6178 14.8101 23.6178 14.8101 23.6177 14.8101C23.6177 14.81 23.6176 14.8099 23.6174 14.8098C23.6174 14.8097 23.6172 14.8095 23.6169 14.8092C23.6168 14.8091 23.6163 14.8086 23.6161 14.8083C23.6154 14.8076 23.6114 14.8031 23.6083 14.7991C23.6188 14.6683 23.7531 14.6631 23.7562 14.6659C23.7569 14.6665 23.7578 14.6674 23.7581 14.6676C23.7585 14.668 23.7588 14.6683 23.7589 14.6684C23.759 14.6685 23.7592 14.6687 23.7592 14.6687C23.7593 14.6687 23.7593 14.6688 23.7593 14.6688C23.7594 14.6688 23.7594 14.6689 23.7594 14.6689C23.7594 14.6689 23.7594 14.6689 23.7595 14.6689C23.7595 14.669 23.7595 14.669 23.7595 14.669C23.7595 14.669 23.7595 14.669 23.7595 14.669C23.7595 14.669 23.7595 14.669 23.7595 14.669C23.7595 14.669 23.7595 14.669 23.7595 14.669C23.7595 14.669 23.7595 14.669 23.7595 14.669C23.7595 14.669 23.7595 14.669 23.7595 14.669C23.7595 14.669 23.7596 14.6691 23.7596 14.6691C23.7596 14.6691 23.7596 14.6691 23.7597 14.6692C23.7597 14.6692 23.7597 14.6692 23.7598 14.6693C23.7598 14.6693 23.7599 14.6694 23.7601 14.6696C23.7602 14.6697 23.7604 14.6699 23.7608 14.6703C23.7611 14.6706 23.7618 14.6714 23.7624 14.672C23.7644 14.6743 23.7631 14.8065 23.6344 14.8236C23.6279 14.819 23.621 14.8132 23.6202 14.8124C23.6198 14.8121 23.6193 14.8116 23.6192 14.8115C23.6189 14.8112 23.6187 14.811 23.6186 14.8109C23.6185 14.8108 23.6183 14.8107 23.6183 14.8106C23.6183 14.8106 23.6182 14.8106 23.6182 14.8105C23.6182 14.8105 23.6181 14.8104 23.6181 14.8104C23.6181 14.8104 23.6181 14.8104 23.6181 14.8104C23.6181 14.8104 23.618 14.8104 23.618 14.8104L23.7595 14.669ZM23.7808 14.7006L19.5539 4.7358L19.3698 4.8139L23.5967 14.7787L23.7808 14.7006ZM19.554 4.73611C19.5454 4.71564 19.5329 4.70111 19.5299 4.6975C19.5275 4.69451 19.5278 4.69491 19.5282 4.69547C19.529 4.69652 19.5312 4.69964 19.5335 4.70439L19.353 4.79065C19.3577 4.80053 19.3629 4.8083 19.367 4.81378C19.3706 4.81877 19.3745 4.82337 19.3755 4.82462C19.3773 4.82676 19.3766 4.82607 19.3756 4.82462C19.3744 4.82281 19.3719 4.81902 19.3696 4.81359L19.554 4.73611ZM19.5334 4.70418C19.5097 4.65488 19.4753 4.6128 19.4547 4.58473L19.2935 4.70309C19.3227 4.74286 19.3399 4.76332 19.3531 4.79086L19.5334 4.70418ZM19.4551 4.5852C19.4473 4.57451 19.4425 4.5657 19.4305 4.54659C19.4202 4.53019 19.4057 4.50832 19.3852 4.48769L19.2433 4.62863C19.2479 4.63324 19.253 4.63999 19.2612 4.65304C19.2677 4.66336 19.2802 4.68481 19.2932 4.70262L19.4551 4.5852ZM19.3853 4.48783C19.3752 4.47762 19.3652 4.46979 19.359 4.46497C19.3515 4.45913 19.3494 4.45761 19.347 4.45547L19.2146 4.60541C19.2233 4.61302 19.2327 4.62009 19.2365 4.62304C19.2416 4.62701 19.2428 4.62816 19.2431 4.62849L19.3853 4.48783ZM19.3472 4.45563C19.3094 4.42211 19.2578 4.39534 19.2363 4.38199L19.1306 4.5518C19.176 4.58002 19.1934 4.58661 19.2145 4.60525L19.3472 4.45563ZM19.2362 4.38194C19.2305 4.37838 19.226 4.37503 19.215 4.36733C19.2058 4.36084 19.1922 4.35157 19.1761 4.34347L19.0862 4.52214C19.0887 4.52339 19.0925 4.52567 19.1003 4.53114C19.1064 4.5354 19.1187 4.54441 19.1307 4.55184L19.2362 4.38194ZM19.1761 4.34344C19.1795 4.34517 19.1815 4.34667 19.1815 4.34671C19.1816 4.34672 19.1813 4.34651 19.1805 4.34584C19.1794 4.34502 19.1787 4.3444 19.1768 4.34288C19.1715 4.33846 19.1558 4.32516 19.134 4.31589L19.0559 4.50003C19.0482 4.49673 19.0439 4.49247 19.0497 4.4973C19.0515 4.49877 19.0567 4.5031 19.0621 4.50712C19.068 4.51151 19.0761 4.51706 19.0863 4.52217L19.1761 4.34344ZM19.1372 4.31734C19.128 4.31301 19.1197 4.31087 19.1141 4.30974C19.109 4.3087 19.1047 4.30827 19.1045 4.30825C19.1039 4.30818 19.1047 4.30826 19.1053 4.30834C19.1061 4.30844 19.1077 4.30864 19.1098 4.309C19.1139 4.3097 19.121 4.31118 19.1294 4.31455L19.0552 4.50024C19.064 4.50378 19.0716 4.50537 19.0761 4.50615C19.0784 4.50654 19.0803 4.50677 19.0813 4.5069C19.0822 4.507 19.0832 4.50711 19.0828 4.50706C19.0827 4.50706 19.0817 4.50695 19.0805 4.50678C19.0791 4.5066 19.077 4.50628 19.0745 4.50577C19.0693 4.50472 19.0615 4.50271 19.0527 4.49858L19.1372 4.31734ZM19.131 4.3152C19.1164 4.30906 19.1028 4.3059 19.0964 4.30438C19.0878 4.30235 19.0877 4.30229 19.0879 4.30235L19.0206 4.4907C19.0334 4.49526 19.0463 4.49805 19.0504 4.49903C19.0568 4.50053 19.0558 4.50055 19.0536 4.49959L19.131 4.3152ZM19.0878 4.30231C19.0617 4.29302 19.0365 4.28821 19.0159 4.28492C18.9906 4.28089 18.9809 4.28014 18.962 4.27675L18.9267 4.47359C18.9451 4.4769 18.9728 4.48058 18.9844 4.48242C19.0006 4.485 19.0117 4.48752 19.0208 4.49074L19.0878 4.30231ZM18.962 4.27674C18.9138 4.26809 18.8516 4.25553 18.7846 4.25908L18.7952 4.4588C18.8344 4.45672 18.8719 4.46377 18.9267 4.4736L18.962 4.27674ZM18.7852 4.25905C18.7905 4.2588 18.7945 4.25927 18.7959 4.25947C18.7967 4.25959 18.7973 4.25974 18.7937 4.25902C18.7912 4.25853 18.7851 4.2573 18.7781 4.25649C18.7706 4.25563 18.7608 4.25504 18.7494 4.25611L18.768 4.45524C18.7621 4.4558 18.7575 4.45543 18.7552 4.45517C18.7533 4.45496 18.7523 4.4547 18.7549 4.45522C18.7564 4.45551 18.7621 4.45669 18.7681 4.45753C18.7747 4.45846 18.7838 4.45934 18.7946 4.45883L18.7852 4.25905ZM18.7492 4.25613L14.3161 4.67981L14.3352 4.8789L18.7682 4.45522L18.7492 4.25613ZM14.4157 4.73596C14.1018 4.0841 13.4396 3.62827 12.6668 3.62827V3.82827C13.3584 3.82827 13.953 4.23602 14.2356 4.82275L14.4157 4.73596ZM12.6668 3.62827C11.7634 3.62827 11.0101 4.24929 10.7909 5.08278L10.9844 5.13364C11.1814 4.38432 11.858 3.82827 12.6668 3.82827V3.62827ZM10.8781 5.00866L6.4337 5.43341L6.45272 5.63251L10.8972 5.20776L10.8781 5.00866ZM6.43348 5.43343C6.40318 5.4364 6.37796 5.44551 6.36178 5.45164C6.34249 5.45895 6.33669 5.46151 6.3291 5.46333L6.37579 5.6578C6.39941 5.65213 6.42257 5.64249 6.43265 5.63867C6.44583 5.63367 6.4504 5.63273 6.45294 5.63248L6.43348 5.43343ZM6.32934 5.46327C6.31501 5.46668 6.30387 5.46796 6.28055 5.47209C6.26054 5.47563 6.23403 5.48102 6.20668 5.49235L6.28321 5.67712C6.29 5.67431 6.29922 5.67189 6.31541 5.66903C6.32828 5.66675 6.35382 5.66302 6.37555 5.65786L6.32934 5.46327ZM6.2068 5.4923C6.21422 5.48924 6.2205 5.48782 6.22424 5.48714C6.22741 5.48656 6.23011 5.4863 6.22843 5.48649C6.22796 5.48654 6.22331 5.48701 6.21802 5.48802C6.21221 5.48913 6.20398 5.49115 6.19468 5.49513L6.27347 5.67896C6.26595 5.68218 6.25951 5.68371 6.25552 5.68448C6.25205 5.68514 6.24923 5.68541 6.2506 5.68525C6.25075 5.68524 6.25528 5.68478 6.26026 5.68386C6.26582 5.68285 6.2739 5.68097 6.2831 5.67717L6.2068 5.4923ZM6.19422 5.49533C6.18376 5.49988 6.17547 5.50513 6.16942 5.50945C6.16374 5.51351 6.15906 5.51749 6.15727 5.51901C6.15458 5.52128 6.15521 5.52071 6.15607 5.52007C6.15741 5.51907 6.1608 5.51664 6.16584 5.51418L6.25352 5.69394C6.26318 5.68922 6.27075 5.68406 6.27605 5.68009C6.28087 5.67647 6.28524 5.67271 6.28632 5.6718C6.28828 5.67014 6.28738 5.67098 6.28572 5.67216C6.28369 5.67361 6.27966 5.67627 6.27393 5.67876L6.19422 5.49533ZM6.16593 5.51414C6.11757 5.53767 6.07561 5.57215 6.04881 5.59176L6.16693 5.75315C6.20695 5.72386 6.22629 5.70719 6.25343 5.69398L6.16593 5.51414ZM6.0492 5.59148C6.03655 5.60064 6.02749 5.60581 6.00798 5.61875C5.99131 5.62981 5.97044 5.64454 5.95049 5.66453L6.09207 5.8058C6.09787 5.79998 6.10567 5.79396 6.11855 5.78541C6.12859 5.77874 6.14995 5.76546 6.16654 5.75344L6.0492 5.59148ZM5.95037 5.66466C5.9389 5.67619 5.92074 5.69827 5.91955 5.69962L6.06926 5.83224C6.08643 5.81284 6.08405 5.81386 6.09219 5.80567L5.95037 5.66466ZM5.9196 5.69955C5.88302 5.74078 5.85589 5.79465 5.84019 5.82077L6.0116 5.92382C6.04007 5.87647 6.04899 5.85507 6.0692 5.8323L5.9196 5.69955ZM5.84034 5.82053C5.83673 5.82649 5.83296 5.83074 5.8204 5.8464C5.80997 5.85942 5.7937 5.88028 5.78175 5.90785L5.96525 5.9874C5.96597 5.98572 5.96787 5.98219 5.97645 5.97149C5.98292 5.96343 5.999 5.94464 6.01145 5.92407L5.84034 5.82053ZM5.78173 5.90789L1.55487 15.6705L1.7384 15.75L5.96527 5.98735L5.78173 5.90789ZM1.55417 15.6722C1.55073 15.6805 1.54904 15.6877 1.54813 15.6926C1.54768 15.695 1.5474 15.697 1.54723 15.6982C1.54715 15.6989 1.54709 15.6994 1.54704 15.6997C1.54701 15.7 1.54697 15.7003 1.54697 15.7004C1.54688 15.7012 1.54721 15.6979 1.54793 15.6941C1.54874 15.6897 1.55031 15.6829 1.55355 15.6751L1.73848 15.7513C1.74191 15.7429 1.74361 15.7357 1.74452 15.7308C1.74497 15.7284 1.74525 15.7265 1.74542 15.7252C1.7455 15.7246 1.74556 15.724 1.74561 15.7237C1.74564 15.7234 1.74568 15.7231 1.74568 15.7231C1.74577 15.7222 1.74544 15.7255 1.74472 15.7294C1.74391 15.7337 1.74234 15.7405 1.7391 15.7483L1.55417 15.6722ZM1.55411 15.6738C1.54132 15.7036 1.536 15.7331 1.53267 15.7543C1.52874 15.7794 1.52758 15.7913 1.52423 15.8054L1.71878 15.8517C1.72456 15.8275 1.72802 15.7995 1.73025 15.7854C1.73308 15.7673 1.73544 15.7584 1.73792 15.7526L1.55411 15.6738ZM1.52417 15.8057C1.52155 15.8167 1.5185 15.8281 1.51499 15.8411C1.51162 15.8536 1.50773 15.8678 1.50423 15.8821C1.49724 15.9108 1.49038 15.9454 1.49029 15.9829L1.69029 15.9833C1.69033 15.9691 1.69298 15.9523 1.69853 15.9295C1.7013 15.9182 1.70443 15.9067 1.70803 15.8934C1.7115 15.8806 1.71537 15.8662 1.71885 15.8515L1.52417 15.8057ZM1.49029 15.9831C1.49029 15.973 1.49186 15.9649 1.49309 15.9599C1.49418 15.9554 1.49547 15.9517 1.4952 15.9525C1.4952 15.9525 1.4951 15.9528 1.495 15.9531C1.49488 15.9535 1.4947 15.954 1.49449 15.9547C1.49408 15.956 1.49344 15.9582 1.49278 15.9609C1.49147 15.9662 1.48984 15.9747 1.48984 15.9852H1.68984C1.68984 15.9953 1.68828 16.0034 1.68704 16.0084C1.68595 16.0129 1.68466 16.0166 1.68494 16.0158C1.68494 16.0158 1.68503 16.0155 1.68514 16.0151C1.68526 16.0148 1.68544 16.0142 1.68565 16.0136C1.68606 16.0122 1.6867 16.0101 1.68736 16.0074C1.68867 16.002 1.6903 15.9936 1.69029 15.9831L1.49029 15.9831ZM1.48984 15.9852C1.48984 18.7546 3.74127 21.008 6.50901 21.008V20.808C3.85187 20.808 1.68984 18.6443 1.68984 15.9852H1.48984ZM6.50901 21.008C9.2772 21.008 11.5286 18.7546 11.5286 15.9852H11.3286C11.3286 18.6443 9.16661 20.808 6.50901 20.808V21.008ZM11.5286 15.9852C11.5286 15.9747 11.527 15.9663 11.5257 15.9609C11.525 15.9582 11.5244 15.956 11.524 15.9547C11.5238 15.954 11.5236 15.9535 11.5235 15.9531C11.5234 15.9528 11.5233 15.9525 11.5233 15.9525C11.523 15.9517 11.5243 15.9554 11.5254 15.9598C11.5266 15.9649 11.5282 15.973 11.5282 15.9831H11.3282C11.3282 15.9936 11.3298 16.002 11.3311 16.0074C11.3318 16.0101 11.3324 16.0122 11.3328 16.0136C11.333 16.0143 11.3332 16.0148 11.3333 16.0152C11.3334 16.0155 11.3335 16.0158 11.3335 16.0158C11.3338 16.0166 11.3325 16.0129 11.3314 16.0084C11.3302 16.0034 11.3286 15.9953 11.3286 15.9852H11.5286ZM11.5282 15.9829C11.5281 15.9454 11.5212 15.9108 11.5143 15.8821C11.5108 15.8678 11.5069 15.8536 11.5035 15.8411C11.5 15.8281 11.4969 15.8167 11.4943 15.8057L11.2996 15.8515C11.3031 15.8662 11.307 15.8806 11.3104 15.8934C11.314 15.9067 11.3172 15.9182 11.3199 15.9295C11.3255 15.9523 11.3282 15.9691 11.3282 15.9833L11.5282 15.9829ZM11.4943 15.8054C11.4909 15.7913 11.4897 15.7794 11.4858 15.7543C11.4825 15.7331 11.4772 15.7036 11.4644 15.6738L11.2806 15.7526C11.283 15.7584 11.2854 15.7673 11.2882 15.7854C11.2905 15.7995 11.2939 15.8275 11.2997 15.8517L11.4943 15.8054ZM11.4649 15.6751C11.4682 15.683 11.4697 15.6897 11.4706 15.6941C11.4713 15.6979 11.4716 15.7012 11.4715 15.7004C11.4715 15.7003 11.4715 15.7 11.4714 15.6997C11.4714 15.6994 11.4713 15.6989 11.4712 15.6982C11.4711 15.697 11.4708 15.695 11.4703 15.6926C11.4694 15.6877 11.4677 15.6805 11.4643 15.6722L11.2794 15.7483C11.2761 15.7405 11.2746 15.7337 11.2738 15.7294C11.273 15.7255 11.2727 15.7222 11.2728 15.7231C11.2728 15.7231 11.2728 15.7234 11.2729 15.7237C11.2729 15.724 11.273 15.7246 11.2731 15.7252C11.2732 15.7265 11.2735 15.7284 11.274 15.7308C11.2749 15.7357 11.2766 15.7429 11.28 15.7512L11.4649 15.6751ZM11.4636 15.6705L7.61473 6.78184L7.4312 6.86131L11.2801 15.75L11.4636 15.6705ZM7.53248 6.92112L11.0789 6.58217L11.0598 6.38308L7.51345 6.72202L7.53248 6.92112ZM10.9825 6.53221C11.3172 7.11831 11.9421 7.52058 12.6668 7.52058V7.32058C12.0188 7.32058 11.4577 6.96113 11.1562 6.43304L10.9825 6.53221ZM12.6668 7.52058C13.5228 7.52058 14.242 6.96215 14.5024 6.19546L14.313 6.13113C14.0787 6.82094 13.4328 7.32058 12.6668 7.32058V7.52058ZM14.4172 6.26284L17.7425 5.94502L17.7235 5.74593L14.3982 6.06375L14.4172 6.26284ZM17.6409 5.80642L13.8678 14.7003L14.0519 14.7784L17.825 5.88453L17.6409 5.80642ZM13.8892 14.6687C13.8892 14.6687 13.8892 14.6687 13.8892 14.6687C13.8892 14.6687 13.8892 14.6686 13.8892 14.6686C13.8892 14.6686 13.8893 14.6686 13.8893 14.6685C13.8894 14.6685 13.8894 14.6685 13.8894 14.6684C13.8895 14.6684 13.8896 14.6683 13.8897 14.6681C13.8898 14.6681 13.89 14.6679 13.8903 14.6676C13.8905 14.6674 13.891 14.6669 13.8913 14.6666C13.8921 14.6659 13.899 14.66 13.9055 14.6555C14.0343 14.6726 14.0355 14.8048 14.0335 14.8071C14.033 14.8077 14.0322 14.8085 14.0319 14.8087C14.0316 14.8091 14.0313 14.8094 14.0312 14.8094C14.0311 14.8096 14.0309 14.8098 14.0309 14.8098C14.0309 14.8098 14.0308 14.8099 14.0308 14.8099C14.0308 14.8099 14.0307 14.81 14.0307 14.81C14.0307 14.81 14.0307 14.81 14.0307 14.81C14.0307 14.81 14.0307 14.81 14.0306 14.81C14.0306 14.8101 14.0306 14.8101 14.0306 14.8101C14.0306 14.8101 14.0306 14.8101 14.0306 14.8101C14.0306 14.8101 14.0306 14.8101 14.0306 14.8101C14.0306 14.8101 14.0306 14.8101 14.0306 14.8101C14.0306 14.8101 14.0306 14.8101 14.0306 14.8101C14.0306 14.8101 14.0306 14.8101 14.0305 14.8102C14.0305 14.8102 14.0305 14.8102 14.0304 14.8103C14.0304 14.8103 14.0304 14.8103 14.0303 14.8104C14.0303 14.8104 14.0302 14.8105 14.03 14.8107C14.03 14.8107 14.0296 14.811 14.0292 14.8114C14.029 14.8117 14.028 14.8126 14.0274 14.8132C14.0242 14.816 13.8899 14.8108 13.8795 14.68C13.8826 14.676 13.8865 14.6714 13.8872 14.6707C13.8875 14.6704 13.8879 14.67 13.8881 14.6698C13.8883 14.6695 13.8885 14.6693 13.8886 14.6693C13.8887 14.6691 13.8888 14.669 13.8889 14.669C13.8889 14.669 13.8889 14.6689 13.889 14.6689C13.889 14.6688 13.8891 14.6688 13.8891 14.6688C13.8891 14.6688 13.8891 14.6688 13.8891 14.6688C13.8891 14.6687 13.8891 14.6687 13.8891 14.6687L14.0307 14.81C14.0307 14.81 14.0307 14.81 14.0307 14.81C14.0307 14.81 14.0307 14.81 14.0307 14.81C14.0307 14.81 14.0308 14.8099 14.0309 14.8098C14.0309 14.8098 14.0309 14.8098 14.0309 14.8097C14.031 14.8097 14.0311 14.8096 14.0312 14.8095C14.0313 14.8094 14.0315 14.8092 14.0317 14.8089C14.0319 14.8088 14.0323 14.8083 14.0326 14.808C14.0333 14.8073 14.0372 14.8028 14.0403 14.7988C14.0299 14.668 13.8956 14.6628 13.8924 14.6656C13.8918 14.6662 13.8908 14.667 13.8906 14.6673C13.8902 14.6677 13.8898 14.668 13.8898 14.668C13.8896 14.6682 13.8895 14.6684 13.8895 14.6684C13.8894 14.6684 13.8894 14.6685 13.8894 14.6685C13.8893 14.6685 13.8893 14.6686 13.8893 14.6686C13.8892 14.6686 13.8892 14.6686 13.8892 14.6686C13.8892 14.6686 13.8892 14.6687 13.8892 14.6687C13.8892 14.6687 13.8892 14.6687 13.8892 14.6687C13.8892 14.6687 13.8892 14.6687 13.8891 14.6687C13.8891 14.6687 13.8891 14.6687 13.8891 14.6687C13.8891 14.6687 13.8891 14.6687 13.8891 14.6688C13.8891 14.6688 13.8891 14.6688 13.8891 14.6688C13.8891 14.6688 13.889 14.6688 13.889 14.6688C13.889 14.6689 13.889 14.6689 13.8889 14.6689C13.8889 14.6689 13.8889 14.669 13.8888 14.669C13.8888 14.6691 13.8887 14.6692 13.8885 14.6694C13.8885 14.6694 13.8882 14.6697 13.8878 14.6701C13.8876 14.6703 13.8868 14.6712 13.8862 14.6717C13.8842 14.674 13.8855 14.8062 14.0142 14.8233C14.0207 14.8188 14.0276 14.813 14.0284 14.8122C14.0288 14.8119 14.0293 14.8114 14.0294 14.8112C14.0297 14.811 14.03 14.8107 14.03 14.8107C14.0302 14.8105 14.0303 14.8104 14.0303 14.8104C14.0303 14.8104 14.0304 14.8103 14.0304 14.8103C14.0305 14.8102 14.0305 14.8102 14.0305 14.8102C14.0305 14.8102 14.0305 14.8102 14.0305 14.8101C14.0306 14.8101 14.0306 14.8101 14.0306 14.8101L13.8892 14.6687ZM13.8678 14.7003C13.8536 14.7339 13.8469 14.7676 13.8426 14.7948C13.8374 14.8277 13.8364 14.8422 13.8319 14.8662L14.0284 14.9033C14.0331 14.8785 14.0375 14.8426 14.0401 14.8262C14.0437 14.8041 14.0473 14.7895 14.0519 14.7784L13.8678 14.7003ZM13.8318 14.8665C13.8287 14.8831 13.8245 14.8959 13.8178 14.9224C13.812 14.945 13.805 14.9758 13.805 15.0097H14.005C14.005 15.0019 14.0066 14.9911 14.0115 14.9721C14.0154 14.957 14.0238 14.9283 14.0285 14.903L13.8318 14.8665ZM13.805 15.0097C13.805 15.0097 13.805 15.0097 13.805 15.0097C13.805 15.0097 13.805 15.0097 13.805 15.0097C13.805 15.0097 13.805 15.0097 13.805 15.0097C13.805 15.0097 13.805 15.0097 13.805 15.0097V15.0097C13.805 15.0097 13.805 15.0097 13.805 15.0097C13.805 15.0097 13.805 15.0097 13.805 15.0097C13.805 15.0097 13.805 15.0097 13.805 15.0097C13.805 15.0097 13.805 15.0097 13.805 15.0097C13.805 15.0097 13.805 15.0097 13.805 15.0097C13.805 15.0097 13.805 15.0097 13.805 15.0097V15.0097C13.805 15.0097 13.805 15.0097 13.805 15.0097C13.805 15.0097 13.805 15.0097 13.805 15.0097V15.0097C13.805 15.0097 13.805 15.0097 13.805 15.0097C13.805 15.0097 13.805 15.0097 13.805 15.0097C13.905 15.0097 14.005 15.0097 14.005 15.0097C14.005 15.0097 14.005 15.0097 14.005 15.0097C14.005 15.0097 14.005 15.0097 14.005 15.0097C14.005 15.0097 14.005 15.0097 14.005 15.0097V15.0097C14.005 15.0097 14.005 15.0097 14.005 15.0097C14.005 15.0097 14.005 15.0097 14.005 15.0097V15.0097V15.0097C14.005 15.0097 14.005 15.0097 14.005 15.0097C14.005 15.0097 14.005 15.0097 14.005 15.0097C14.005 15.0097 14.005 15.0097 14.005 15.0097C14.005 15.0097 14.005 15.0097 14.005 15.0097C14.005 15.0097 14.005 15.0097 14.005 15.0097C14.005 15.0097 14.005 15.0097 14.005 15.0097C14.005 15.0097 14.005 15.0097 14.005 15.0097C14.005 15.0097 14.005 15.0097 14.005 15.0097V15.0097V15.0097C14.005 15.0097 14.005 15.0097 14.005 15.0097C14.005 15.0097 14.005 15.0097 14.005 15.0097C14.005 15.0097 14.005 15.0097 14.005 15.0096C14.005 15.0096 14.005 15.0096 14.005 15.0096C14.005 15.0096 14.005 15.0096 14.005 15.0096C14.005 15.0096 14.005 15.0096 14.005 15.0096C14.005 15.0096 14.005 15.0096 14.005 15.0096V15.0096C14.005 15.0096 14.005 15.0096 14.005 15.0096C14.005 15.0096 14.005 15.0096 14.005 15.0096V15.0096C14.005 15.0096 14.005 15.0096 14.005 15.0096C14.005 15.0096 14.005 15.0096 14.005 15.0096V15.0096V15.0096C14.005 15.0096 14.005 15.0096 14.005 15.0096C14.005 15.0096 13.905 15.0096 13.805 15.0096V15.0096C13.805 15.0096 13.805 15.0096 13.805 15.0096C13.805 15.0096 13.805 15.0096 13.805 15.0096V15.0096C13.805 15.0096 13.805 15.0096 13.805 15.0096V15.0096C13.805 15.0096 13.805 15.0096 13.805 15.0096V15.0096C13.805 15.0096 13.805 15.0096 13.805 15.0096C13.805 15.0096 13.805 15.0096 13.805 15.0096C13.805 15.0096 13.805 15.0096 13.805 15.0096V15.0096C13.805 15.0096 13.805 15.0096 13.805 15.0096V15.0097C13.805 15.0097 13.805 15.0097 13.805 15.0097C13.805 15.0097 13.805 15.0097 13.805 15.0097C13.805 15.0097 13.805 15.0097 13.805 15.0097H14.005C14.005 15.0097 14.005 15.0097 14.005 15.0097C14.005 15.0097 14.005 15.0097 14.005 15.0097C14.005 15.0097 14.005 15.0097 14.005 15.0097V15.0096C14.005 15.0096 14.005 15.0096 14.005 15.0096V15.0096C14.005 15.0096 14.005 15.0096 14.005 15.0096C14.005 15.0096 14.005 15.0096 14.005 15.0096C14.005 15.0096 14.005 15.0096 14.005 15.0096V15.0096C14.005 15.0096 14.005 15.0096 14.005 15.0096V15.0096C14.005 15.0096 14.005 15.0096 14.005 15.0096V15.0096C14.005 15.0096 14.005 15.0096 14.005 15.0096C14.005 15.0096 14.005 15.0096 14.005 15.0096V15.0096C13.905 15.0096 13.805 15.0096 13.805 15.0096C13.805 15.0096 13.805 15.0096 13.805 15.0096V15.0096V15.0096C13.805 15.0096 13.805 15.0096 13.805 15.0096C13.805 15.0096 13.805 15.0096 13.805 15.0096V15.0096C13.805 15.0096 13.805 15.0096 13.805 15.0096C13.805 15.0096 13.805 15.0096 13.805 15.0096V15.0096C13.805 15.0096 13.805 15.0096 13.805 15.0096C13.805 15.0096 13.805 15.0096 13.805 15.0096C13.805 15.0096 13.805 15.0096 13.805 15.0096C13.805 15.0096 13.805 15.0096 13.805 15.0096C13.805 15.0097 13.805 15.0097 13.805 15.0097C13.805 15.0097 13.805 15.0097 13.805 15.0097C13.805 15.0097 13.805 15.0097 13.805 15.0097V15.0097V15.0097C13.805 15.0097 13.805 15.0097 13.805 15.0097C13.805 15.0097 13.805 15.0097 13.805 15.0097C13.805 15.0097 13.805 15.0097 13.805 15.0097C13.805 15.0097 13.805 15.0097 13.805 15.0097C13.805 15.0097 13.805 15.0097 13.805 15.0097C13.805 15.0097 13.805 15.0097 13.805 15.0097C13.805 15.0097 13.805 15.0097 13.805 15.0097C13.805 15.0097 13.805 15.0097 13.805 15.0097V15.0097V15.0097C13.805 15.0097 13.805 15.0097 13.805 15.0097C13.805 15.0097 13.805 15.0097 13.805 15.0097V15.0097C13.805 15.0097 13.805 15.0097 13.805 15.0097C13.805 15.0097 13.805 15.0097 13.805 15.0097C13.805 15.0097 13.805 15.0097 13.805 15.0097C13.805 15.0097 13.905 15.0097 14.005 15.0097C14.005 15.0097 14.005 15.0097 14.005 15.0097C14.005 15.0097 14.005 15.0097 14.005 15.0097V15.0097C14.005 15.0097 14.005 15.0097 14.005 15.0097C14.005 15.0097 14.005 15.0097 14.005 15.0097V15.0097C14.005 15.0097 14.005 15.0097 14.005 15.0097C14.005 15.0097 14.005 15.0097 14.005 15.0097C14.005 15.0097 14.005 15.0097 14.005 15.0097C14.005 15.0097 14.005 15.0097 14.005 15.0097C14.005 15.0097 14.005 15.0097 14.005 15.0097C14.005 15.0097 14.005 15.0097 14.005 15.0097V15.0097C14.005 15.0097 14.005 15.0097 14.005 15.0097C14.005 15.0097 14.005 15.0097 14.005 15.0097C14.005 15.0097 14.005 15.0097 14.005 15.0097C14.005 15.0097 14.005 15.0097 14.005 15.0097H13.805ZM13.805 15.0097C13.805 17.7791 16.0564 20.0317 18.8245 20.0317V19.8317C16.1669 19.8317 14.005 17.6687 14.005 15.0097H13.805ZM18.8245 20.0317C21.5922 20.0317 23.8437 17.7792 23.8437 15.0098H23.6437C23.6437 17.6689 21.4817 19.8317 18.8245 19.8317V20.0317ZM23.8437 15.0098C23.8437 15.0098 23.8437 15.0098 23.8437 15.0098C23.8437 15.0098 23.8437 15.0098 23.8437 15.0098C23.8437 15.0098 23.8437 15.0098 23.8437 15.0098C23.8437 15.0098 23.8437 15.0098 23.8437 15.0098V15.0098C23.8437 15.0098 23.8437 15.0098 23.8437 15.0098C23.8437 15.0098 23.8437 15.0098 23.8437 15.0098C23.8437 15.0098 23.8437 15.0098 23.8437 15.0098C23.8437 15.0098 23.8437 15.0098 23.8437 15.0098V15.0098V15.0098V15.0098V15.0098C23.8437 15.0098 23.8437 15.0098 23.8437 15.0098C23.8437 15.0098 23.8437 15.0098 23.8437 15.0098C23.8437 15.0098 23.8437 15.0098 23.8437 15.0098C23.8437 15.0098 23.8437 15.0098 23.8437 15.0098C23.7437 15.0098 23.6437 15.0098 23.6437 15.0098C23.6437 15.0098 23.6437 15.0098 23.6437 15.0098V15.0098C23.6437 15.0098 23.6437 15.0098 23.6437 15.0098C23.6437 15.0098 23.6437 15.0098 23.6437 15.0098C23.6437 15.0098 23.6437 15.0098 23.6437 15.0098C23.6437 15.0098 23.6437 15.0098 23.6437 15.0098C23.6437 15.0098 23.6437 15.0098 23.6437 15.0098C23.6437 15.0098 23.6437 15.0098 23.6437 15.0098C23.6437 15.0098 23.6437 15.0098 23.6437 15.0098V15.0098C23.6437 15.0098 23.6437 15.0098 23.6437 15.0098C23.6437 15.0098 23.6437 15.0098 23.6437 15.0098C23.6437 15.0098 23.6437 15.0098 23.6437 15.0098C23.6437 15.0098 23.6437 15.0098 23.6437 15.0098C23.6437 15.0098 23.6437 15.0098 23.6437 15.0098V15.0098C23.6437 15.0098 23.6437 15.0098 23.6437 15.0098C23.6437 15.0098 23.6437 15.0098 23.6437 15.0098C23.6437 15.0098 23.6437 15.0098 23.6437 15.0098C23.6437 15.0098 23.6437 15.0098 23.6437 15.0098V15.0098V15.0098V15.0098V15.0098C23.6437 15.0098 23.6437 15.0098 23.6437 15.0098C23.6437 15.0098 23.6437 15.0098 23.6437 15.0098C23.6437 15.0098 23.6437 15.0098 23.6437 15.0098C23.6437 15.0098 23.6437 15.0098 23.6437 15.0098C23.6437 15.0098 23.6437 15.0098 23.6437 15.0098C23.6437 15.0098 23.6437 15.0098 23.6437 15.0098V15.0098C23.6437 15.0098 23.6437 15.0098 23.6437 15.0098C23.6437 15.0098 23.6437 15.0098 23.6437 15.0098C23.6437 15.0098 23.6437 15.0098 23.6437 15.0098C23.6437 15.0098 23.7437 15.0098 23.8437 15.0098C23.8437 15.0098 23.8437 15.0098 23.8437 15.0098C23.8437 15.0098 23.8437 15.0098 23.8437 15.0098V15.0098C23.8437 15.0098 23.8437 15.0098 23.8437 15.0098C23.8437 15.0098 23.8437 15.0098 23.8437 15.0098C23.8437 15.0098 23.8437 15.0098 23.8437 15.0098C23.8437 15.0098 23.8437 15.0098 23.8437 15.0098C23.8437 15.0098 23.8437 15.0098 23.8437 15.0098C23.8437 15.0098 23.8437 15.0098 23.8437 15.0098C23.8437 15.0098 23.8437 15.0098 23.8437 15.0098C23.8437 15.0098 23.8437 15.0098 23.8437 15.0098C23.8437 15.0098 23.8437 15.0098 23.8437 15.0098C23.8437 15.0098 23.8437 15.0098 23.8437 15.0098V15.0098C23.8437 15.0098 23.8437 15.0098 23.8437 15.0098C23.8437 15.0098 23.8437 15.0098 23.8437 15.0098C23.8437 15.0098 23.8437 15.0098 23.8437 15.0098H23.6437C23.6437 15.0098 23.6437 15.0098 23.6437 15.0098C23.6437 15.0098 23.6437 15.0098 23.6437 15.0098C23.6437 15.0098 23.6437 15.0098 23.6437 15.0098V15.0098C23.6437 15.0098 23.6437 15.0098 23.6437 15.0098C23.6437 15.0098 23.6437 15.0098 23.6437 15.0098C23.6437 15.0098 23.6437 15.0098 23.6437 15.0098C23.6437 15.0098 23.6437 15.0098 23.6437 15.0098C23.6437 15.0098 23.6437 15.0098 23.6437 15.0098C23.6437 15.0098 23.6437 15.0098 23.6437 15.0098C23.6437 15.0098 23.6437 15.0098 23.6437 15.0098C23.6437 15.0098 23.6437 15.0098 23.6437 15.0098C23.6437 15.0098 23.6437 15.0098 23.6437 15.0098C23.6437 15.0098 23.6437 15.0098 23.6437 15.0098V15.0098C23.6437 15.0098 23.6437 15.0098 23.6437 15.0098C23.6437 15.0098 23.6437 15.0098 23.6437 15.0098C23.7437 15.0098 23.8437 15.0098 23.8437 15.0098C23.8437 15.0098 23.8437 15.0098 23.8437 15.0098C23.8437 15.0098 23.8437 15.0098 23.8437 15.0098C23.8437 15.0098 23.8437 15.0098 23.8437 15.0098V15.0098C23.8437 15.0098 23.8437 15.0098 23.8437 15.0098C23.8437 15.0098 23.8437 15.0098 23.8437 15.0098C23.8437 15.0098 23.8437 15.0098 23.8437 15.0098C23.8437 15.0098 23.8437 15.0098 23.8437 15.0098C23.8437 15.0098 23.8437 15.0098 23.8437 15.0098C23.8437 15.0098 23.8437 15.0098 23.8437 15.0098V15.0098V15.0098V15.0098V15.0098C23.8437 15.0098 23.8437 15.0098 23.8437 15.0098C23.8437 15.0098 23.8437 15.0098 23.8437 15.0098C23.8437 15.0098 23.8437 15.0098 23.8437 15.0098C23.8437 15.0098 23.8437 15.0098 23.8437 15.0098V15.0098C23.8437 15.0098 23.8437 15.0098 23.8437 15.0098C23.8437 15.0098 23.8437 15.0098 23.8437 15.0098C23.8437 15.0098 23.8437 15.0098 23.8437 15.0098C23.8437 15.0098 23.8437 15.0098 23.8437 15.0098C23.8437 15.0098 23.8437 15.0098 23.8437 15.0098V15.0098C23.8437 15.0098 23.8437 15.0098 23.8437 15.0098C23.8437 15.0098 23.8437 15.0098 23.8437 15.0098C23.8437 15.0098 23.8437 15.0098 23.8437 15.0098C23.8437 15.0098 23.8437 15.0098 23.8437 15.0098C23.8437 15.0098 23.8437 15.0098 23.8437 15.0098C23.8437 15.0098 23.8437 15.0098 23.8437 15.0098C23.8437 15.0098 23.8437 15.0098 23.8437 15.0098V15.0098C23.8437 15.0098 23.8437 15.0098 23.8437 15.0098C23.8437 15.0098 23.7437 15.0098 23.6437 15.0098C23.6437 15.0098 23.6437 15.0098 23.6437 15.0098C23.6437 15.0098 23.6437 15.0098 23.6437 15.0098C23.6437 15.0098 23.6437 15.0098 23.6437 15.0098C23.6437 15.0098 23.6437 15.0098 23.6437 15.0098V15.0098V15.0098V15.0098V15.0098C23.6437 15.0098 23.6437 15.0098 23.6437 15.0098C23.6437 15.0098 23.6437 15.0098 23.6437 15.0098C23.6437 15.0098 23.6437 15.0098 23.6437 15.0098C23.6437 15.0098 23.6437 15.0098 23.6437 15.0098V15.0098C23.6437 15.0098 23.6437 15.0098 23.6437 15.0098C23.6437 15.0098 23.6437 15.0098 23.6437 15.0098C23.6437 15.0098 23.6437 15.0098 23.6437 15.0098C23.6437 15.0098 23.6437 15.0098 23.6437 15.0098H23.8437ZM23.8437 15.0098C23.8437 14.9759 23.8366 14.9451 23.8309 14.9225C23.824 14.896 23.8198 14.8831 23.8168 14.8665L23.6201 14.903C23.6248 14.9283 23.6332 14.9571 23.6371 14.9722C23.642 14.9913 23.6437 15.002 23.6437 15.0098H23.8437ZM22.0057 14.2175H15.6429V14.4175H22.0057V14.2175ZM15.735 14.3566L18.9165 6.85713L18.7324 6.77902L15.5509 14.2785L15.735 14.3566ZM18.7324 6.85713L21.9136 14.3566L22.0977 14.2785L18.9165 6.77903L18.7324 6.85713ZM6.4173 8.00501L9.59021 15.3326L9.77375 15.2531L6.60084 7.92554L6.4173 8.00501ZM9.68198 15.1929H3.33644V15.3929H9.68198V15.1929ZM3.42821 15.3326L6.60084 8.00501L6.4173 7.92554L3.24468 15.2531L3.42821 15.3326ZM6.50901 19.4233C4.84581 19.4233 3.45614 18.2325 3.14251 16.658L2.94636 16.697C3.27816 18.3628 4.74809 19.6233 6.50901 19.6233V19.4233ZM3.04443 16.7775H9.97405V16.5775H3.04443V16.7775ZM9.87597 16.658C9.56235 18.2325 8.17262 19.4233 6.50901 19.4233V19.6233C8.27033 19.6233 9.74031 18.3628 10.0721 16.697L9.87597 16.658ZM12.6668 5.93596C12.4674 5.93596 12.3052 5.77347 12.3052 5.57443H12.1052C12.1052 5.8838 12.3568 6.13596 12.6668 6.13596V5.93596ZM12.3052 5.57443C12.3052 5.37538 12.4674 5.21289 12.6668 5.21289V5.01289C12.3568 5.01289 12.1052 5.26505 12.1052 5.57443H12.3052ZM12.6668 5.21289C12.8661 5.21289 13.0283 5.37538 13.0283 5.57443H13.2283C13.2283 5.26505 12.9767 5.01289 12.6668 5.01289V5.21289ZM13.0283 5.57443C13.0283 5.77347 12.8661 5.93596 12.6668 5.93596V6.13596C12.9767 6.13596 13.2283 5.8838 13.2283 5.57443H13.0283ZM18.8245 18.4471C17.1609 18.4471 15.7712 17.2569 15.4576 15.6826L15.2614 15.7217C15.5932 17.3873 17.0632 18.6471 18.8245 18.6471V18.4471ZM15.3595 15.8021H22.2891V15.6021H15.3595V15.8021ZM22.191 15.6826C21.8774 17.2569 20.4878 18.4471 18.8245 18.4471V18.6471C20.5854 18.6471 22.0554 17.3873 22.3872 15.7217L22.191 15.6826Z" fill="#D8DEFD" mask="url(#path-1-outside-1_356_3239)"/>
</g>
</g>
</svg>
