<svg width="25" height="24" viewBox="0 0 25 24" fill="none" xmlns="http://www.w3.org/2000/svg">
<g id="thumbs-up (1) 1">
<path id="Vector" d="M7.33301 11L11.333 2C12.1287 2 12.8917 2.31607 13.4543 2.87868C14.0169 3.44129 14.333 4.20435 14.333 5V9H19.993C20.2829 8.99672 20.5701 9.0565 20.8346 9.17522C21.0991 9.29393 21.3346 9.46873 21.5249 9.68751C21.7151 9.90629 21.8555 10.1638 21.9363 10.4423C22.0172 10.7207 22.0365 11.0134 21.993 11.3L20.613 20.3C20.5407 20.7769 20.2984 21.2116 19.9309 21.524C19.5634 21.8364 19.0953 22.0055 18.613 22H7.33301M7.33301 11V22M7.33301 11H4.33301C3.80257 11 3.29387 11.2107 2.91879 11.5858C2.54372 11.9609 2.33301 12.4696 2.33301 13V20C2.33301 20.5304 2.54372 21.0391 2.91879 21.4142C3.29387 21.7893 3.80257 22 4.33301 22H7.33301" stroke="#D8DEFD" stroke-width="2" stroke-linecap="round" stroke-linejoin="round"/>
</g>
</svg>
