<svg width="25" height="24" viewBox="0 0 25 24" fill="none" xmlns="http://www.w3.org/2000/svg">
<g id="5402417_refresh_rotate_sync_update_reload_icon 1">
<path id="Vector" d="M22.5755 4.09C22.4006 4.01124 22.2067 3.98444 22.017 4.01281C21.8273 4.04118 21.6497 4.12352 21.5055 4.25L21.4705 7C20.5493 5.91523 18.0781 3.50388 16.7865 2.90641C15.4948 2.30894 14.0887 1.99965 12.6655 2C10.8317 1.9983 9.03264 2.50092 7.46521 3.45289C5.89779 4.40486 4.62232 5.76951 3.77831 7.3976C2.93429 9.0257 2.55423 10.8545 2.67968 12.6841C2.80514 14.5137 3.43128 16.2735 4.48963 17.7712C5.54798 19.2688 6.99779 20.4466 8.68049 21.1757C10.3632 21.9048 12.214 22.1571 14.0304 21.9051C15.8469 21.6531 17.5591 20.9065 18.9798 19.7468C20.4004 18.5872 21.4748 17.0592 22.0855 15.33C22.173 15.0794 22.1574 14.8042 22.0421 14.5651C21.9267 14.326 21.7211 14.1425 21.4705 14.055C21.2199 13.9675 20.9448 13.9831 20.7056 14.0984C20.4665 14.2138 20.283 14.4194 20.1955 14.67C19.7059 16.0529 18.8455 17.2745 17.7083 18.2013C16.5712 19.1281 15.2011 19.7243 13.7479 19.9249C12.2947 20.1254 10.8143 19.9225 9.46863 19.3384C8.12297 18.7542 6.96383 17.8113 6.11798 16.6127C5.27212 15.4142 4.77212 14.0061 4.67264 12.5425C4.57317 11.0789 4.87805 9.61609 5.55394 8.31409C6.22984 7.01208 7.25073 5.921 8.50498 5.16013C9.75923 4.39927 11.1985 3.99793 12.6655 4C13.8075 3.99968 14.9359 4.24822 15.9721 4.72832C17.0083 5.20843 19.2524 7.44856 19.9905 8.32L17.0055 8.25C16.8526 8.38532 16.7447 8.56422 16.6964 8.76266C16.6482 8.96109 16.6618 9.16955 16.7355 9.36C16.808 9.54794 16.9356 9.70959 17.1016 9.82379C17.2675 9.93799 17.4641 9.99941 17.6655 10H22.1655C22.4307 10 22.6851 9.89465 22.8726 9.70711C23.0602 9.51957 23.1655 9.26522 23.1655 9V5C23.1651 4.80764 23.1092 4.61948 23.0046 4.45808C22.9 4.29667 22.751 4.16887 22.5755 4.09Z" fill="#D8DEFD"/>
</g>
</svg>
