<svg width="240" height="193" fill="none" xmlns="http://www.w3.org/2000/svg"><path d="M.46 191.323s.92-46.881.92-101.393c0-12.593-.92-30.519-.92-30.519l238.62-1.287s-.644 23.441 0 42.654c.92 27.853 0 91.005 0 91.005s-79.939-2.482-129.245-.552C79.479 192.426.46 191.323.46 191.323z" fill="#fff"/><path d="M239.08 192.335c-.828 0-80.491-2.482-129.245-.552-29.988 1.195-108.64 0-109.375 0-.092 0-.276-.092-.276-.092-.184-.184-.184-.276-.184-.459 0-.46.92-47.525.92-101.393 0-12.41-.92-30.335-.92-30.52 0-.091 0-.275.092-.367.092-.092.184-.184.368-.184l238.712-1.195c.092 0 .276.092.368.092.092.092.092.184.092.368 0 .276-.644 23.624 0 42.653.828 27.485 0 90.454 0 91.097 0 .092-.092.276-.184.276-.092.184-.184.276-.368.276zm-83.71-2.207c39.187 0 78.559 1.104 83.25 1.287.092-5.791.828-64.347 0-90.545-.552-17.558-.092-38.793 0-42.194L.92 59.78c.184 2.942.92 18.753.92 30.06 0 51.11-.828 96.061-.92 101.025 6.44.092 80.123 1.103 108.915 0 13.615-.552 29.529-.736 45.535-.736z" fill="#2C3647"/><path d="M.46 62.537v-11.03s80.03-.644 111.215-.644c31.46 0 127.497-.644 127.497-.644V61.25s-99.44-.092-133.844 1.103C75.523 63.456.46 62.537.46 62.537z" fill="#fff"/><path d="M60.713 63.364c-29.529 0-59.793-.367-60.253-.367-.276 0-.46-.184-.46-.46v-11.03c0-.277.184-.46.46-.46.828 0 80.399-.644 111.215-.644 31 .092 126.485-.551 127.405-.551.092 0 .276.092.276.092.092.091.092.183.092.275V61.25c0 .092-.092.276-.092.276-.092.092-.184.092-.276.092-1.012 0-99.9-.092-133.844 1.103-10.671.46-27.505.644-44.523.644zM.92 62.078c6.255.091 76.167.827 104.316-.092 32.84-1.103 126.117-1.103 133.476-1.103V50.77c-7.175 0-97.049.551-127.037.551-29.62 0-104.316.644-110.755.644v10.111z" fill="#2C3647"/><path d="M227.582 58.124c1.32 0 2.391-1.028 2.391-2.298 0-1.269-1.071-2.298-2.391-2.298-1.321 0-2.392 1.03-2.392 2.298 0 1.27 1.071 2.298 2.392 2.298z" fill="#ACD4F7"/><path d="M227.581 58.584c-1.563 0-2.851-1.287-2.851-2.757 0-1.471 1.288-2.758 2.851-2.758 1.564 0 2.852 1.287 2.852 2.758 0 1.47-1.288 2.757-2.852 2.757zm0-4.688c-1.103 0-1.931.828-1.931 1.93 0 1.104.919 1.931 1.931 1.931s1.932-.827 1.932-1.93-.828-1.93-1.932-1.93z" fill="#2C3647"/><path d="M212.495 58.125c1.321 0 2.392-1.029 2.392-2.298 0-1.27-1.071-2.298-2.392-2.298s-2.391 1.029-2.391 2.298c0 1.27 1.07 2.298 2.391 2.298z" fill="#fff"/><path d="M212.495 58.584c-1.564 0-2.852-1.287-2.852-2.757 0-1.471 1.288-2.758 2.852-2.758 1.564 0 2.852 1.287 2.852 2.758 0 1.47-1.288 2.757-2.852 2.757zm0-4.688c-1.104 0-1.932.828-1.932 1.93 0 1.104.92 1.931 1.932 1.931 1.104 0 1.932-.827 1.932-1.93s-.92-1.93-1.932-1.93z" fill="#2C3647"/><path d="M197.317 58.124c1.321 0 2.392-1.028 2.392-2.298 0-1.269-1.071-2.298-2.392-2.298s-2.392 1.03-2.392 2.298c0 1.27 1.071 2.298 2.392 2.298z" fill="#fff"/><path d="M197.317 58.584c-1.564 0-2.852-1.287-2.852-2.757 0-1.471 1.288-2.758 2.852-2.758 1.564 0 2.851 1.287 2.851 2.758 0 1.47-1.195 2.757-2.851 2.757zm0-4.688c-1.104 0-1.932.828-1.932 1.93 0 1.104.92 1.931 1.932 1.931s1.932-.827 1.932-1.93-.828-1.93-1.932-1.93z" fill="#2C3647"/><path opacity=".13" d="M238.988 63.916S104.683 65.94 59.885 66.031c-14.719.091-59.333-.552-59.333-.552l-.184-3.034c38.911-.183 82.238.92 121.149-.643 40.568-1.563 76.903-.368 117.563-.644 0 1.012 0 1.93-.092 2.758z" fill="#2C3647"/><path d="M223.532 157.825c.644-.275 1.84 4.964 1.84 4.964s4.599-.367 4.967.368c.368.827-3.771 3.585-3.771 3.585s1.747 5.332 1.195 5.608c-.828.459-4.231-2.942-4.231-2.942s-3.588 3.217-4.232 2.942c-.276-.184 1.288-5.424 1.288-5.424s-3.955-2.666-3.771-3.401c.184-.644 4.783-.552 4.783-.552s1.104-4.78 1.932-5.148z" fill="#fff"/><path d="M227.579 172.901c-1.012 0-2.667-1.471-4.047-2.85-3.588 3.126-4.14 2.85-4.416 2.758-.368-.184-.644-.276 1.012-5.699-3.955-2.666-3.679-3.402-3.587-3.677.092-.276.276-.92 4.875-.828.368-1.93 1.196-4.78 2.024-5.147a.587.587 0 01.552 0c.644.367 1.38 2.757 1.84 4.872 2.115-.184 4.599-.184 5.059.643.368.735-.828 2.114-3.68 3.953 1.656 5.331 1.196 5.699.828 5.791-.184.184-.276.184-.46.184zm-4.047-3.861c.092 0 .276 0 .276.092 1.38 1.379 2.943 2.666 3.587 2.85 0-.736-.644-3.126-1.288-5.056-.091-.184 0-.368.184-.552 1.84-1.195 3.404-2.574 3.588-3.033-.46-.276-2.484-.276-4.507-.184-.184 0-.46-.092-.46-.368-.368-1.746-1.012-3.769-1.38-4.504-.46.643-1.012 2.85-1.38 4.688 0 .184-.276.368-.46.368-1.656 0-3.68.092-4.323.276.367.551 2.023 1.838 3.495 2.849.184.092.276.276.184.46-.552 1.838-1.104 3.861-1.288 4.78.736-.46 2.208-1.563 3.404-2.666h.368z" fill="#2C3647"/><path d="M107.627 177.902a2.85 2.85 0 100-5.699 2.85 2.85 0 100 5.699z" fill="#fff"/><path d="M107.628 178.27a3.297 3.297 0 01-3.312-3.309 3.297 3.297 0 013.312-3.31 3.297 3.297 0 013.311 3.31c-.092 1.838-1.564 3.309-3.311 3.309zm0-5.607c-1.288 0-2.392 1.103-2.392 2.39 0 1.287 1.104 2.39 2.392 2.39 1.287 0 2.391-1.103 2.391-2.39-.092-1.287-1.104-2.39-2.391-2.39z" fill="#2C3647"/><path d="M36.087 89.115c-4.943 0-10.088-.101-14.93-.101.202 4.94-.1 14.315-.1 14.315l14.829.302c0-.101 0-9.88.201-14.516z" fill="#fff"/><path d="M35.886 103.934l-14.83-.303c-.1 0-.302-.101-.302-.202-.101-.1-.101-.201-.101-.403 0-.101.302-9.476.1-14.214 0-.1 0-.302.102-.403.1-.1.201-.1.403-.1 3.127 0 6.355 0 9.584.1 1.816 0 3.53 0 5.346.1.101 0 .303.102.303.102.1.1.1.201.1.403-.2 4.738-.2 14.415-.2 14.516 0 .101-.102.303-.102.303-.1.101-.302.101-.403.101zm-14.325-1.21l13.82.302c0-2.016 0-9.274.101-13.407-1.614 0-3.228 0-4.842-.101-3.027 0-6.053-.101-9.08-.101.303 4.335.102 11.391 0 13.307z" fill="#2C3647"/><path d="M28.218 100.406c-.201 0-.403-.101-.403-.303a25.663 25.663 0 00-2.421-3.931c-.202-.202-.101-.504.1-.706.202-.202.505-.1.707.1a22.213 22.213 0 012.118 3.227l2.724-5.142c.1-.201.404-.302.706-.201.202.1.303.403.202.705l-3.127 5.948c-.202.202-.404.303-.606.303z" fill="#2C3647"/><path d="M36.087 119.962c-4.943 0-10.088-.101-14.93-.101.202 4.94-.1 14.315-.1 14.315l14.829.303c0-.101 0-9.88.201-14.517z" fill="#fff"/><path d="M35.886 134.882l-14.83-.303c-.1 0-.302-.1-.302-.201-.101-.101-.101-.202-.101-.404 0-.1.302-9.476.1-14.214 0-.1 0-.302.102-.403.1-.101.201-.101.403-.101 3.127 0 6.456 0 9.584.101 1.715 0 3.53 0 5.245.101.101 0 .303.101.303.202.1.1.1.201.1.403-.1 4.536-.1 14.214-.1 14.315 0 .101-.1.302-.1.302-.102.101-.303.202-.404.202zm-14.325-1.311l13.82.303c0-2.017 0-9.275.101-13.408-1.614 0-3.228 0-4.741-.101-3.027 0-6.154-.101-9.08-.101.202 4.335 0 11.392-.1 13.307z" fill="#2C3647"/><path d="M28.218 131.353c-.201 0-.403-.101-.403-.302a25.687 25.687 0 00-2.421-3.932c-.202-.201-.101-.504.1-.705.202-.202.505-.101.707.1a22.248 22.248 0 012.118 3.226l2.724-5.141c.1-.202.404-.302.706-.202.202.101.303.404.202.706l-3.127 5.948c-.202.201-.404.302-.606.302z" fill="#2C3647"/><path d="M36.995 149.902c-4.944 0-10.088-.101-14.93-.101.201 4.94-.102 14.315-.102 14.315l14.83.303c.1-.101.1-9.779.202-14.517z" fill="#fff"/><path d="M36.894 164.822l-14.83-.302c-.1 0-.302-.101-.302-.202-.101-.101-.101-.201-.101-.403 0-.101.302-9.476.1-14.214 0-.101 0-.303.102-.403.1-.101.201-.101.403-.101 3.127 0 6.456 0 9.584.101 1.715 0 3.53 0 5.245.1.101 0 .303.101.303.101.1.101.1.202.1.403-.1 4.638-.1 14.315-.1 14.416 0 .101-.1.303-.1.303-.203.1-.303.201-.404.201zm-14.325-1.31l13.82.302c0-2.016 0-9.274.101-13.408-1.614 0-3.228 0-4.741-.1-3.027 0-6.154-.101-9.08-.101.101 4.335-.1 11.391-.1 13.307z" fill="#2C3647"/><path d="M29.226 161.294c-.202 0-.404-.101-.404-.303a25.636 25.636 0 00-2.421-3.931c-.202-.202-.101-.504.1-.706.202-.202.505-.101.707.101a22.203 22.203 0 012.118 3.226l2.724-5.141c.101-.202.404-.303.706-.202.202.101.303.403.202.706l-3.127 5.947c-.303.202-.505.303-.605.303zm37.529-61.191c-.404 0-.706-.101-1.11-.303-.706-.302-1.21-.907-1.614-1.41-.202-.303-.504-.606-.706-.807-1.413-1.31-2.926-.605-4.943.705-.505.303-1.01.605-1.413.908-1.513.705-2.723.907-3.732.504-.807-.303-1.21-1.008-1.614-1.513-.303-.403-.605-.806-1.01-1.108-1.613-1.008-3.63-.303-6.052 2.217a.488.488 0 01-.706 0 .487.487 0 010-.705c2.724-2.823 5.246-3.63 7.263-2.42.606.404 1.01.908 1.312 1.412.302.504.605 1.008 1.21 1.21.706.302 1.715.1 2.926-.505.403-.201.908-.504 1.412-.806 1.816-1.11 3.934-2.52 6.053-.605.303.302.605.605.807.907.404.504.807.907 1.312 1.21.706.302 1.513.202 2.521-.605.202-.1.404-.302.606-.504 1.816-1.31 3.43-2.621 6.052-1.714.808.303 1.413.908 2.018 1.412 1.009 1.008 1.614 1.411 2.724.806.303-.201.605-.403.908-.706 1.11-.907 2.522-2.117 4.338-.806.403.302.807.605 1.21 1.008 1.11 1.008 1.816 1.613 3.127 1.008a9.477 9.477 0 001.816-1.21c1.11-.907 2.22-1.814 3.733-1.713 1.21 0 2.118.705 3.026 1.31 1.11.807 2.018 1.412 3.329.907.303-.1.505 0 .606.303.101.302 0 .504-.303.605-1.816.705-3.127-.202-4.237-1.008-.807-.605-1.614-1.11-2.522-1.11-1.21 0-2.118.706-3.127 1.513a11.057 11.057 0 01-2.119 1.411c-1.916.807-3.127-.302-4.237-1.21-.302-.302-.706-.604-1.11-.907-1.11-.806-1.916-.201-3.127.807a3.62 3.62 0 01-1.008.705c-1.715 1.109-2.926 0-3.935-.907-.504-.504-1.11-1.008-1.715-1.21-2.118-.705-3.43.303-5.145 1.613-.201.202-.403.303-.605.504-.202.202-1.11.807-2.22.807zm-18.058 29.134c-1.11 0-2.119-.605-2.926-1.109-.202-.202-.303-.504-.1-.706.201-.201.504-.302.705-.1 1.614 1.209 2.724 1.209 3.935.302l.605-.605c1.11-1.008 2.32-2.117 4.237-1.109.403.202.706.605 1.11.908.706.604 1.412 1.31 2.118 1.108.404-.1.807-.504 1.11-.907.202-.302.403-.504.706-.706.807-.604 1.715-1.008 2.825-1.209 2.118-.202 3.53.806 4.943 2.016l.302.302c1.514 1.21 2.623 1.109 3.834-.201 1.614-1.815 3.127-2.722 5.649-1.512.504.302 1.11.604 1.614.907 1.21.806 2.32 1.512 3.733 1.411.807-.101 1.311-.705 1.816-1.411.605-.706 1.311-1.613 2.522-1.815 2.32-.403 4.236 1.21 5.85 2.924a.486.486 0 010 .705.487.487 0 01-.706 0c-1.513-1.512-3.127-2.923-5.044-2.621-.907.101-1.311.706-1.916 1.412-.606.705-1.312 1.613-2.522 1.713-1.715.202-3.128-.705-4.338-1.512l-1.513-.907c-1.917-.907-3.027-.302-4.44 1.21-1.613 1.714-3.227 1.814-5.144.302l-.303-.302c-1.311-1.109-2.522-2.016-4.237-1.815a5.087 5.087 0 00-2.32.908l-.605.604c-.404.504-.908 1.109-1.715 1.21-1.21.202-2.118-.605-2.925-1.411a7.064 7.064 0 00-1.01-.807c-1.21-.705-1.916-.101-3.026.908-.202.201-.403.403-.706.604-.605 1.008-1.412 1.311-2.118 1.311zm20.075 29.234c-.302 0-.605 0-.907-.201-.807-.303-1.413-.908-1.917-1.512a4.338 4.338 0 00-.605-.706c-1.514-1.411-2.926-.706-5.044.605-.404.302-.807.504-1.312.806-1.513.807-2.825 1.008-3.934.605-.807-.302-1.21-.907-1.614-1.512-.303-.403-.505-.807-.908-1.008-1.614-1.109-3.733-.403-6.154 2.218a.489.489 0 01-.706 0 .488.488 0 010-.706c2.825-2.924 5.347-3.73 7.465-2.319.505.303.807.807 1.11 1.311.302.504.605.907 1.11 1.109.806.302 1.815.101 3.026-.504.403-.202.807-.504 1.21-.706 1.816-1.109 4.036-2.52 6.255-.504.303.202.504.504.706.806.505.505.908 1.009 1.513 1.311.908.302 1.715-.202 2.522-.806h.101c1.917-1.513 3.935-3.025 6.76-1.916.806.303 1.31.907 1.916 1.311 1.009 1.008 1.614 1.411 2.724.605.201-.202.403-.303.605-.505 1.311-1.008 2.825-2.217 4.741-.705.303.201.505.403.706.605 1.211 1.008 2.119 1.814 3.632 1.008.505-.303 1.009-.706 1.513-1.109 1.21-.907 2.623-2.016 4.338-1.714 1.009.202 1.917.807 2.623 1.311 1.211.806 2.119 1.512 3.733.604.201-.1.504 0 .706.202.101.202 0 .504-.202.706-2.118 1.109-3.531.201-4.741-.706-.706-.504-1.413-1.008-2.22-1.109-1.311-.302-2.42.605-3.53 1.512-.505.404-1.11.908-1.715 1.21-2.119 1.109-3.43 0-4.742-1.109-.201-.201-.504-.403-.706-.605-1.21-1.008-2.118-.403-3.53.706-.203.202-.404.403-.707.504-1.816 1.31-3.026.202-3.934-.605-.505-.403-1.009-.907-1.614-1.109-2.32-.907-3.935.303-5.75 1.714h-.101c-.606.302-1.413.907-2.422.907z" fill="#2C3647"/><circle cx="174.837" cy="126.41" r="34.04" stroke="#2C3647"/><circle cx="28.843" cy="18.872" r="18.372" stroke="#2C3647"/><circle cx="74.421" cy="18.872" r="18.372" stroke="#2C3647"/><circle cx="120" cy="18.872" r="18.372" stroke="#2C3647"/><path d="M116.273 29.046a.91.91 0 100-1.818.91.91 0 000 1.818zm10 0a.91.91 0 100-1.818.91.91 0 000 1.818zM109 9.955h3.636l2.437 12.172a1.82 1.82 0 001.818 1.464h8.836a1.817 1.817 0 001.818-1.464L129 14.5h-15.455" stroke="#2C3647" stroke-linecap="round" stroke-linejoin="round"/><circle cx="165.579" cy="18.872" r="18.372" stroke="#2C3647"/><circle cx="211.157" cy="18.872" r="18.372" stroke="#2C3647"/><path d="M211 8v22m5-18h-7.5a3.502 3.502 0 00-2.475 5.975A3.502 3.502 0 00208.5 19h5a3.5 3.5 0 110 7H205" stroke="#2B4657" stroke-linecap="round" stroke-linejoin="round"/><path d="M189.574 104.764l7.857 6.453-23.289 35.852-21.032-24.24 6.932-7.092 11.821 13.426.64.726.544-.8 16.527-24.325z" fill="#FFC01E" stroke="#2C3647" stroke-width="1.5"/><g clip-path="url(#clip0_3007_4532)"><path d="M149.823 98.279c-.111 0-.111 0 0 0-1.554-.225-2.997-.562-4.328-.899-.333-.112-.444-.337-.444-.674.111-.337.333-.45.666-.45 1.442.337 2.774.562 4.217.787.333 0 .444.337.444.674-.111.45-.333.562-.555.562zm-8.546-1.91h-.111c-1.443-.337-2.775-.787-4.217-1.236-.333-.113-.444-.45-.333-.675.111-.337.444-.45.666-.337 1.331.45 2.774.9 4.106 1.236.333.113.444.338.333.675 0 .224-.222.337-.444.337zm-8.213-2.697h-.222l-3.995-1.686c-.222-.112-.444-.45-.222-.674.111-.225.444-.45.666-.225l3.995 1.686c.333.112.444.45.333.674a.842.842 0 01-.555.225zm-7.88-3.596c-.111 0-.222 0-.222-.113a66.514 66.514 0 01-3.885-2.135c-.221-.112-.332-.45-.221-.786.11-.225.443-.337.776-.225 1.221.674 2.553 1.46 3.774 2.023.222.112.333.45.222.786 0 .337-.222.45-.444.45zm-7.547-4.383c-.111 0-.222 0-.333-.112-1.221-.787-2.442-1.573-3.663-2.472-.222-.225-.333-.562-.111-.787.222-.225.555-.337.777-.112 1.221.786 2.331 1.685 3.552 2.472.222.112.333.45.111.787 0 .112-.111.224-.333.224zm-7.103-5.057c-.111 0-.222 0-.333-.112-1.11-.899-2.331-1.798-3.33-2.81-.222-.224-.222-.561-.111-.786.222-.225.555-.225.777-.112 1.11.899 2.22 1.91 3.33 2.81.222.224.333.56.111.786-.111.112-.222.224-.444.224zm-6.549-5.73c-.11 0-.221 0-.332-.113-.999-1.011-2.109-2.023-3.108-3.146a.548.548 0 010-.787.532.532 0 01.777 0c.999 1.011 1.998 2.023 3.107 3.034a.548.548 0 010 .787c-.111.224-.222.224-.444.224zm-5.993-6.294c-.11 0-.333-.112-.444-.224-.999-1.124-1.886-2.248-2.774-3.372-.222-.224-.111-.561.11-.786.222-.225.555-.112.778.112.887 1.124 1.775 2.248 2.774 3.371a.548.548 0 010 .787c-.222 0-.333.112-.444.112zm-5.327-6.967c-.222 0-.333-.112-.444-.224-.888-1.236-1.665-2.473-2.442-3.709-.222-.112-.11-.45.111-.674.222-.112.555-.112.777.112.777 1.236 1.554 2.473 2.442 3.596.222.225.11.562-.111.787-.111.112-.222.112-.333.112zm-4.662-7.304c-.222 0-.333-.112-.444-.225-.776-1.348-1.442-2.697-2.108-3.933-.111-.224 0-.562.222-.786.222-.113.555 0 .777.224.665 1.236 1.331 2.585 1.997 3.821a.597.597 0 01-.222.787c-.11 0-.11.112-.222.112zm-3.884-7.866c-.222 0-.444-.113-.444-.337-.666-1.349-1.221-2.697-1.776-4.046-.11-.337 0-.561.333-.674.333-.112.555 0 .666.337.555 1.349.999 2.697 1.665 4.046.11.224 0 .561-.333.674h-.111z" fill="#2C3647"/></g><path d="M170.5 16.398l-9-5.19m13.5 11.79v-8a2.001 2.001 0 00-1-1.73l-7-4a2 2 0 00-2 0l-7 4a2.004 2.004 0 00-1 1.73v8a2.001 2.001 0 001 1.73l7 4a2 2 0 002 0l7-4a2.003 2.003 0 001-1.73z" stroke="#2C3647" stroke-linecap="round" stroke-linejoin="round"/><path d="M157.27 13.958l8.73 5.05 8.73-5.05M166 29.078v-10.08M20 11h5.667a3.778 3.778 0 013.777 3.778V28a2.834 2.834 0 00-2.833-2.833H20V11z" stroke="#2C3647" stroke-linecap="round" stroke-linejoin="round"/><path d="M38.889 11h-5.667a3.778 3.778 0 00-3.778 3.778V28a2.834 2.834 0 012.834-2.833h6.61V11zM66 16.222L74 10l8 6.222V26a1.778 1.778 0 01-1.778 1.778H67.778A1.778 1.778 0 0166 26v-9.778z" stroke="#2C3647" stroke-linecap="round" stroke-linejoin="round"/><path d="M71.333 27.778v-8.89h5.334v8.89" stroke="#2C3647" stroke-linecap="round" stroke-linejoin="round"/><defs><clipPath id="clip0_3007_4532"><path fill="#fff" transform="translate(81.9 41.306)" d="M0 0h68.368v56.973H0z"/></clipPath></defs></svg>