<svg width="164" height="24" viewBox="0 0 164 24" fill="none" xmlns="http://www.w3.org/2000/svg">
<rect width="32" height="24" fill="white"/>
<path d="M19.6041 5.7605H12.3936V18.7181H19.6041V5.7605Z" fill="#FF5F00"/>
<path d="M12.8527 12.2407C12.8516 10.9928 13.1344 9.76096 13.6797 8.63849C14.225 7.51602 15.0185 6.53232 16.0002 5.76186C14.7845 4.80632 13.3245 4.21208 11.7871 4.04706C10.2497 3.88205 8.69684 4.15292 7.30608 4.82872C5.91532 5.50451 4.74274 6.55796 3.92239 7.86866C3.10203 9.17936 2.66699 10.6944 2.66699 12.2407C2.66699 13.7869 3.10203 15.302 3.92239 16.6127C4.74274 17.9234 5.91532 18.9769 7.30608 19.6527C8.69684 20.3285 10.2497 20.5993 11.7871 20.4343C13.3245 20.2693 14.7845 19.6751 16.0002 18.7195C15.0185 17.9491 14.225 16.9654 13.6797 15.8429C13.1344 14.7204 12.8516 13.4886 12.8527 12.2407Z" fill="#EB001B"/>
<path d="M29.3328 12.2407C29.3328 13.7869 28.8979 15.302 28.0775 16.6127C27.2572 17.9234 26.0847 18.9768 24.694 19.6526C23.3032 20.3284 21.7504 20.5993 20.213 20.4343C18.6756 20.2693 17.2156 19.6751 16 18.7195C16.9808 17.9483 17.7737 16.9644 18.3189 15.8421C18.8641 14.7198 19.1474 13.4884 19.1474 12.2407C19.1474 10.993 18.8641 9.76154 18.3189 8.63925C17.7737 7.51695 16.9808 6.53309 16 5.76186C17.2156 4.80631 18.6756 4.21207 20.213 4.04706C21.7504 3.88205 23.3032 4.15293 24.694 4.82873C26.0847 5.50453 27.2572 6.55799 28.0775 7.86869C28.8979 9.17939 29.3328 10.6944 29.3328 12.2407Z" fill="#F79E1B"/>
<rect width="32" height="24" transform="translate(44)" fill="white"/>
<path d="M59.893 8.1255L58.4232 14.997H56.6454L58.1153 8.1255H59.893ZM67.372 12.5625L68.3077 9.98213L68.8462 12.5625H67.372ZM69.3562 14.997H71L69.5639 8.1255H68.0476C67.7059 8.1255 67.4178 8.32363 67.2903 8.62918L64.6229 14.997H66.4899L66.8605 13.9708H69.1409L69.3562 14.997ZM64.7155 12.7537C64.7232 10.9402 62.2085 10.8397 62.2253 10.0294C62.2307 9.78322 62.4656 9.52095 62.9791 9.45387C63.2336 9.42111 63.9361 9.39452 64.7323 9.76143L65.0437 8.30369C64.6161 8.14899 64.0657 8 63.3809 8C61.6235 8 60.3872 8.93349 60.3773 10.2713C60.3661 11.2606 61.2604 11.8122 61.9329 12.1417C62.6262 12.4785 62.8585 12.6944 62.8551 12.9953C62.8503 13.4563 62.3023 13.6605 61.792 13.6682C60.8977 13.6821 60.3793 13.4265 59.9662 13.2339L59.6435 14.7403C60.0596 14.9307 60.8262 15.0964 61.6199 15.1049C63.4883 15.1049 64.7099 14.1824 64.7155 12.7537ZM57.3528 8.1255L54.4724 14.997H52.5935L51.1759 9.51306C51.09 9.17583 51.015 9.05188 50.7537 8.90938C50.3262 8.67725 49.6205 8.4601 49 8.32502L49.042 8.1255H52.0669C52.4522 8.1255 52.7989 8.3819 52.8871 8.82577L53.6359 12.8024L55.4852 8.1255H57.3528Z" fill="#1434CB"/>
<rect width="32" height="24" transform="translate(88)" fill="white"/>
<path d="M117.334 17.731C117.334 20.013 115.475 21.8711 113.193 21.8711H90.667V5.47343C90.667 3.19144 92.5252 1.33325 94.8072 1.33325H117.334V17.731Z" fill="white"/>
<path d="M111.514 2.71875C109.884 2.71875 108.548 4.03904 108.548 5.68534V8.76602H112.737C112.834 8.76602 112.949 8.76602 113.03 8.78232C113.975 8.83122 114.676 9.32022 114.676 10.1678C114.676 10.8361 114.204 11.4066 113.323 11.5207V11.5533C114.285 11.6185 115.019 12.1564 115.019 12.9877C115.019 13.8842 114.204 14.471 113.128 14.471H108.531V20.502H112.883C114.513 20.502 115.85 19.1817 115.85 17.5354V2.71875H111.514Z" fill="#05A551"/>
<path d="M109.998 13.5256H111.71C111.734 13.5256 111.775 13.5215 111.816 13.5174C111.856 13.5134 111.897 13.5093 111.922 13.5093C112.248 13.4441 112.525 13.1507 112.525 12.7432C112.525 12.352 112.248 12.0586 111.922 11.9771C111.873 11.9608 111.775 11.9608 111.71 11.9608H109.998V13.5256Z" fill="#05A551"/>
<path d="M111.71 9.66251C112.036 9.71141 112.313 9.97221 112.313 10.3634C112.313 10.7546 112.036 11.0154 111.71 11.0643C111.693 11.0806 111.596 11.0806 111.547 11.0806H109.998V9.64621H111.547C111.574 9.64621 111.61 9.65115 111.644 9.65559C111.671 9.65922 111.695 9.66251 111.71 9.66251Z" fill="#05A551"/>
<path d="M95.1157 2.71875C93.4857 2.71875 92.1491 4.03904 92.1491 5.68534V13.004C92.9804 13.4115 93.8443 13.6723 94.7082 13.6723C95.7351 13.6723 96.2893 13.0529 96.2893 12.2053V8.74972H98.8321V12.189C98.8321 13.5256 98.0008 14.6177 95.1809 14.6177C93.4694 14.6177 92.1328 14.2428 92.1328 14.2428V20.4857H96.4849C98.1149 20.4857 99.4515 19.1654 99.4515 17.5191V2.71875H95.1157Z" fill="#0A4EA1"/>
<path d="M103.316 2.71875C101.686 2.71875 100.35 4.03904 100.35 5.68533V9.56471C101.099 8.92902 102.403 8.52152 104.506 8.61932C105.631 8.66822 106.837 8.97792 106.837 8.97792V10.233C106.234 9.92331 105.517 9.64621 104.588 9.58101C102.99 9.46692 102.029 10.2493 102.029 11.6185C102.029 13.004 102.99 13.7864 104.588 13.656C105.517 13.5908 106.234 13.2974 106.837 13.004V14.2591C106.837 14.2591 105.647 14.5688 104.506 14.6177C102.403 14.7155 101.099 14.308 100.35 13.6723V20.5183H104.702C106.332 20.5183 107.668 19.198 107.668 17.5517V2.71875H103.316Z" fill="#EE1C24"/>
<rect width="32" height="24" transform="translate(132)" fill="white"/>
<path d="M137.702 9.06298L138.163 10.2141H137.243L137.702 9.06298Z" fill="#006FCF"/>
<path d="M148.335 9.75576C148.242 9.81333 148.132 9.81524 148.001 9.81524H147.182V9.17388H148.012C148.13 9.17388 148.252 9.17928 148.332 9.22596C148.42 9.26803 148.474 9.35756 148.474 9.48123C148.474 9.60743 148.422 9.70899 148.335 9.75576Z" fill="#006FCF"/>
<path d="M153.714 9.06298L154.181 10.2141H153.25L153.714 9.06298Z" fill="#006FCF"/>
<path fill-rule="evenodd" clip-rule="evenodd" d="M136 12.0273H137.153L137.413 11.3859H137.994L138.254 12.0273H140.521V11.5369L140.724 12.0293H141.901L142.103 11.5296V12.0273H147.739L147.737 10.9745H147.846C147.922 10.9772 147.944 10.9844 147.944 11.1134V12.0273H150.859V11.7822C151.094 11.9111 151.46 12.0273 151.941 12.0273H153.167L153.43 11.3859H154.012L154.268 12.0273H156.631V11.418L156.989 12.0273H158.883V8H157.009V8.47562L156.746 8H154.823V8.47562L154.582 8H151.985C151.55 8 151.168 8.0621 150.859 8.23516V8H149.067V8.23516C148.87 8.05679 148.602 8 148.305 8H141.756L141.317 9.04017L140.865 8H138.803V8.47562L138.576 8H136.817L136 9.91477V12.0273ZM146.04 11.4601H143.786V8.57255H146.04V9.17385H144.461V9.69433H146.002V10.2862H144.461V10.8629H146.04V11.4601ZM142.592 11.4601H143.283V8.57255H142.16L141.349 10.5314L140.466 8.57255H139.365V11.3065L138.218 8.57255H137.216L136.008 11.4601H136.741L137.002 10.816H138.407L138.666 11.4601H140.038V9.19659L141.019 11.4601H141.611L142.589 9.19859L142.592 11.4601ZM149.217 9.35022C149.217 9.8106 148.917 10.0485 148.741 10.1199C148.889 10.1774 149.015 10.2789 149.075 10.363C149.17 10.5067 149.187 10.635 149.187 10.8928V11.4601H148.506L148.504 11.0959C148.504 11.0783 148.504 11.0599 148.504 11.041C148.506 10.8727 148.508 10.6582 148.397 10.5334C148.299 10.4318 148.149 10.4098 147.906 10.4098H147.182V11.4601H146.507V8.57255H148.059C148.403 8.57255 148.657 8.58187 148.875 8.71086C149.089 8.83985 149.217 9.02815 149.217 9.35022ZM150.296 11.4601H149.608V8.57255H150.296V11.4601ZM158.282 11.4601H157.326L156.047 9.29283V11.4601H154.673L154.411 10.816H153.009L152.755 11.4601H151.965C151.637 11.4601 151.222 11.3859 150.987 11.1407C150.75 10.8955 150.627 10.5634 150.627 10.0384C150.627 9.61011 150.701 9.21862 150.99 8.90926C151.209 8.67881 151.55 8.57255 152.015 8.57255H152.668V9.19127H152.029C151.782 9.19127 151.643 9.22872 151.51 9.36233C151.395 9.48391 151.316 9.71375 151.316 10.0164C151.316 10.3258 151.376 10.5488 151.501 10.6945C151.605 10.8088 151.794 10.8435 151.971 10.8435H152.274L153.225 8.57264H154.236L155.378 11.3038V8.57264H156.405L157.591 10.5837V8.57264H158.282V11.4601Z" fill="#006FCF"/>
<path d="M150.889 14.7886C151.02 14.7886 151.132 14.7839 151.222 14.7291C151.31 14.675 151.362 14.5755 151.362 14.4519C151.362 14.3283 151.31 14.2389 151.222 14.1921C151.141 14.1425 151.02 14.1399 150.9 14.1399H150.07V14.7886H150.889Z" fill="#006FCF"/>
<path d="M145.351 14.9916L146.387 16.1681V13.8525L145.351 14.9916Z" fill="#006FCF"/>
<path d="M142.054 15.8288H143.712L144.483 14.9815L143.745 14.1398H142.054V14.6649H143.535V15.2542H142.054V15.8288Z" fill="#006FCF"/>
<path d="M147.059 14.8754H147.931C148.19 14.8754 148.351 14.7438 148.351 14.494C148.351 14.2415 148.182 14.1399 147.938 14.1399H147.059V14.8754Z" fill="#006FCF"/>
<path fill-rule="evenodd" clip-rule="evenodd" d="M160 16.0613C159.836 16.3065 159.517 16.4307 159.085 16.4307H157.782V15.8114H159.079C159.208 15.8114 159.298 15.7941 159.352 15.7399C159.399 15.6952 159.432 15.6304 159.432 15.5515C159.432 15.4674 159.399 15.4006 159.35 15.3605C159.301 15.3165 159.229 15.2964 159.112 15.2964C159.071 15.295 159.028 15.2938 158.986 15.2926C158.379 15.2758 157.688 15.2567 157.688 14.4025C157.688 13.9836 157.948 13.5426 158.656 13.5426H160V12.968H158.752C158.375 12.968 158.101 13.0603 157.907 13.2038V12.968H156.061C155.765 12.968 155.419 13.0429 155.255 13.2038V12.968H151.957V13.2038C151.695 13.0101 151.252 12.968 151.048 12.968H148.873V13.2038C148.665 12.9981 148.203 12.968 147.922 12.968H145.488L144.931 13.5848L144.409 12.968H140.773V16.998H144.34L144.914 16.3714L145.455 16.998L147.654 17V16.052H147.871C148.162 16.0566 148.507 16.0446 148.81 15.9103V16.9979H150.624V15.9475H150.712C150.823 15.9475 150.834 15.9523 150.834 16.0664V16.9978H156.345C156.695 16.9978 157.06 16.9062 157.263 16.7399V16.9978H159.011C159.375 16.9978 159.73 16.9457 160 16.812V16.0613ZM157.309 14.9075C157.441 15.0465 157.511 15.2221 157.511 15.5194C157.511 16.1407 157.132 16.4307 156.451 16.4307H155.137V15.8114H156.446C156.574 15.8114 156.665 15.7941 156.722 15.7399C156.768 15.6952 156.801 15.6303 156.801 15.5515C156.801 15.4674 156.765 15.4006 156.719 15.3605C156.667 15.3165 156.596 15.2964 156.479 15.2964C156.437 15.295 156.395 15.2938 156.353 15.2926C155.748 15.2758 155.058 15.2566 155.058 14.4025C155.058 13.9836 155.315 13.5426 156.022 13.5426H157.375V14.1573H156.137C156.014 14.1573 155.935 14.162 155.867 14.2095C155.793 14.2563 155.766 14.3257 155.766 14.4173C155.766 14.5262 155.828 14.6004 155.913 14.6324C155.984 14.6578 156.061 14.6652 156.176 14.6652L156.539 14.6752C156.905 14.6843 157.156 14.7491 157.309 14.9075ZM151.63 15.0885C151.78 15.1452 151.903 15.2469 151.96 15.331C152.055 15.472 152.069 15.6036 152.072 15.8582V16.4307H151.395V16.0694C151.395 16.052 151.395 16.0339 151.395 16.0151C151.396 15.8455 151.398 15.625 151.286 15.5041C151.187 15.4006 151.037 15.3759 150.791 15.3759H150.07V16.4307H149.392V13.5425H150.949C151.291 13.5425 151.54 13.5579 151.761 13.6788C151.974 13.8104 152.108 13.9907 152.108 14.3202C152.108 14.7812 151.807 15.0164 151.63 15.0885ZM152.482 13.5425H154.733V14.1398H153.154V14.6649H154.695V15.2542H153.154V15.8288L154.733 15.8314V16.4307H152.482V13.5425ZM149.075 14.494C149.075 15.2963 148.49 15.462 147.9 15.462H147.059V16.4307H145.748L144.917 15.4746L144.054 16.4307H141.382V13.5425H144.095L144.925 14.4892L145.783 13.5425H147.938C148.474 13.5425 149.075 13.6941 149.075 14.494Z" fill="#006FCF"/>
<path d="M158.771 14.1571H160V14.979C159.999 14.9775 159.998 14.9761 159.997 14.9746L159.993 14.9699L159.991 14.9675L159.991 14.9674C159.976 14.9466 159.96 14.926 159.937 14.9075C159.787 14.7492 159.541 14.6843 159.172 14.675L158.806 14.665C158.694 14.665 158.618 14.6576 158.547 14.6322C158.459 14.6002 158.399 14.5261 158.399 14.4171C158.399 14.3255 158.426 14.2561 158.498 14.2093C158.566 14.1618 158.648 14.1571 158.771 14.1571Z" fill="#006FCF"/>
</svg>
