<svg width="242" height="207" fill="none" xmlns="http://www.w3.org/2000/svg"><path d="M215.578 138.626h-5.626v15.065h5.626v-15.065zM74.644 52.203h-5.626v15.064h5.626V52.203zM62.696 183.461h-5.627v15.065h5.627v-15.065z" fill="#2C3647" stroke="#2C3647" stroke-miterlimit="10"/><path d="M224.597 43.295H74.947v32.402h149.65V43.295z" fill="#fff" stroke="#2C3647" stroke-miterlimit="10"/><path d="M185.329 51.545H82.13v15.902h103.2V51.545z" fill="#EEE9E2" stroke="#2C3647" stroke-miterlimit="10"/><path d="M176.549 1H26.899v32.401h149.65V1z" fill="#fff" stroke="#2C3647" stroke-miterlimit="10"/><path d="M137.281 9.25H34.083v15.9H137.28V9.25z" fill="#EEE9E2" stroke="#2C3647" stroke-miterlimit="10"/><path d="M176.549 1H26.899v32.401h149.65V1z" fill="#fff" stroke="#2C3647" stroke-miterlimit="10"/><path d="M137.281 9.25H34.083v15.9H137.28V9.25z" fill="#EEE9E2" stroke="#2C3647" stroke-miterlimit="10"/><path d="M199.217 62.784a3.948 3.948 0 003.95-3.945 3.948 3.948 0 00-3.95-3.946 3.948 3.948 0 00-3.951 3.946 3.948 3.948 0 003.951 3.945z" fill="#fff" stroke="#2C3647" stroke-miterlimit="10"/><path d="M214.9 62.784a3.948 3.948 0 003.951-3.945 3.948 3.948 0 00-3.951-3.946 3.948 3.948 0 00-3.951 3.946 3.948 3.948 0 003.951 3.945z" fill="#EEE9E2" stroke="#2C3647" stroke-miterlimit="10"/><path d="M175.871 62.784a3.948 3.948 0 003.951-3.945 3.948 3.948 0 00-3.951-3.946 3.948 3.948 0 00-3.951 3.946 3.948 3.948 0 003.951 3.945z" fill="#fff" stroke="#2C3647" stroke-miterlimit="10"/><path d="M218.851 75.697H80.574v11.12H218.85v-11.12z" stroke="#2C3647" stroke-miterlimit="10"/><path d="M211.867 86.856H62.217v32.401h149.65V86.856z" fill="#fff" stroke="#2C3647" stroke-miterlimit="10"/><path d="M172.599 95.105H69.4v15.902h103.199V95.105zm13.887 11.239a3.948 3.948 0 003.951-3.945 3.949 3.949 0 00-3.951-3.946 3.948 3.948 0 00-3.95 3.946 3.947 3.947 0 003.95 3.945z" fill="#EEE9E2" stroke="#2C3647" stroke-miterlimit="10"/><path d="M202.17 106.344a3.947 3.947 0 003.95-3.945 3.948 3.948 0 00-3.95-3.946 3.949 3.949 0 00-3.951 3.946 3.948 3.948 0 003.951 3.945zm-39.029 0a3.948 3.948 0 003.951-3.945 3.949 3.949 0 00-3.951-3.946 3.949 3.949 0 00-3.951 3.946 3.948 3.948 0 003.951 3.945z" fill="#fff" stroke="#2C3647" stroke-miterlimit="10"/><path d="M206.12 119.257H67.844v11.119H206.12v-11.119z" stroke="#2C3647" stroke-miterlimit="10"/><path d="M211.867 130.257H62.217v32.401h149.65v-32.401z" fill="#fff" stroke="#2C3647" stroke-miterlimit="10"/><path d="M172.599 138.626H69.4v15.902h103.199v-15.902z" fill="#EEE9E2" stroke="#2C3647" stroke-miterlimit="10"/><path d="M186.486 149.745a3.948 3.948 0 003.951-3.945 3.948 3.948 0 00-3.951-3.946 3.947 3.947 0 00-3.95 3.946 3.947 3.947 0 003.95 3.945z" fill="#fff" stroke="#2C3647" stroke-miterlimit="10"/><path d="M202.17 149.745a3.947 3.947 0 003.95-3.945 3.947 3.947 0 00-3.95-3.946 3.948 3.948 0 00-3.951 3.946 3.948 3.948 0 003.951 3.945z" fill="#EEE9E2" stroke="#2C3647" stroke-miterlimit="10"/><path d="M163.141 149.745a3.948 3.948 0 003.951-3.945 3.948 3.948 0 00-3.951-3.946 3.948 3.948 0 00-3.951 3.946 3.948 3.948 0 003.951 3.945z" fill="#fff" stroke="#2C3647" stroke-miterlimit="10"/><path d="M206.12 162.658H67.844v11.119H206.12v-11.119z" stroke="#2C3647" stroke-miterlimit="10"/><path d="M211.867 173.777H62.217v32.402h149.65v-32.402z" fill="#fff" stroke="#2C3647" stroke-miterlimit="10"/><path d="M172.599 182.027H69.4v15.902h103.199v-15.902zm13.887 11.239a3.948 3.948 0 003.951-3.945 3.948 3.948 0 00-3.951-3.946 3.947 3.947 0 00-3.95 3.946 3.947 3.947 0 003.95 3.945z" fill="#EEE9E2" stroke="#2C3647" stroke-miterlimit="10"/><path d="M202.17 193.266a3.947 3.947 0 003.95-3.945 3.947 3.947 0 00-3.95-3.946 3.948 3.948 0 00-3.951 3.946 3.948 3.948 0 003.951 3.945zm-39.029 0a3.948 3.948 0 003.951-3.945 3.948 3.948 0 00-3.951-3.946 3.948 3.948 0 00-3.951 3.946 3.948 3.948 0 003.951 3.945z" fill="#fff" stroke="#2C3647" stroke-miterlimit="10"/><path d="M159.709 38.991h8.38m-66.444 0h48.486" stroke="#2C3647" stroke-miterlimit="10" stroke-linecap="round" stroke-linejoin="round"/><path d="M82.205 54.59a7.636 7.636 0 00-3.848 1.054 8.416 8.416 0 00.186-1.799c0-5.83-4.717-10.543-10.55-10.543-5.152 0-9.434 3.721-10.365 8.62-1.055-.371-2.11-.62-3.29-.62a9.294 9.294 0 00-9.31 9.303 9.294 9.294 0 009.31 9.303h27.867a7.626 7.626 0 007.634-7.628c0-4.217-3.414-7.69-7.634-7.69zm148.62 68.039c-1.864 0-3.573.465-5.126 1.396.155-.776.233-1.551.233-2.403 0-7.753-6.291-14.032-14.058-14.032-6.913 0-12.583 4.962-13.826 11.473-1.398-.542-2.873-.775-4.349-.775-6.835 0-12.427 5.582-12.427 12.403 0 6.822 5.592 12.404 12.427 12.404h37.126A10.15 10.15 0 00241 132.94c0-5.582-4.505-10.311-10.175-10.311z" fill="#fff" stroke="#263238" stroke-miterlimit="10"/><path d="M224.301 145.653h3.107m-18.253 0h10.874m-21.126-37.442c1.476-1.163 2.796-1.938 5.592-2.326m-9.32 7.985s.233-1.628 1.553-3.411" stroke="#263238" stroke-miterlimit="10" stroke-linecap="round" stroke-linejoin="round"/><path d="M77.194 169.839c-2.796 0-5.36.776-7.69 2.016.234-1.163.311-2.403.311-3.643 0-11.629-9.475-21.086-21.126-21.086-10.33 0-18.951 7.442-20.738 17.21a18.49 18.49 0 00-6.602-1.241c-10.33 0-18.64 8.372-18.64 18.605 0 10.31 8.388 18.605 18.64 18.605h55.767c8.466 0 15.38-6.822 15.38-15.349.077-8.217-6.758-15.117-15.302-15.117z" fill="#fff" stroke="#263238" stroke-miterlimit="10"/><path d="M7.136 198.91c.699.465 1.553.93 2.408 1.395M1 191.778s.777 2.248 3.184 4.729m31.224-50.466c2.407-1.628 6.058-3.256 11.029-3.101m-14.369 6.202s.621-.853 1.864-1.938" stroke="#263238" stroke-miterlimit="10" stroke-linecap="round" stroke-linejoin="round"/><path d="M210.18 147.227h.5v-4.126a10.378 10.378 0 1120.755 0v4.126h2.313a3.125 3.125 0 013.126 3.126v14.503a3.126 3.126 0 01-3.126 3.126h-25.381a3.125 3.125 0 01-3.126-3.126v-14.503a3.137 3.137 0 013.126-3.126h1.813zm8.565 15.816v.5h4.625v-4.339a4.122 4.122 0 001.673-4.484 4.127 4.127 0 10-6.298 4.484v3.839zm-3.626-16.316v.5h11.877v-4.126a5.94 5.94 0 10-11.877 0v3.626z" fill="#FFC01E" stroke="#2C3647"/></svg>