<svg width="240" height="243" fill="none" xmlns="http://www.w3.org/2000/svg"><path d="M1.138 62.74c35.232.002 72.123.178 110.338.36l4.313.02c39.772.189 80.957.378 123.18.38-2.756 57.477-3.512 120.664-2.391 178.141-54.073-2.205-110.572-1.41-163.152-.669-24.766.349-48.663.685-71.027.69-.004-61.224-.631-120.327-1.26-178.921z" fill="#fff" stroke="#2C3647"/><path d="M53.502 149.629c3.406.028 6.763.055 10.026.094-.351 7.936-.476 13.306-.484 18.599-6.43-.078-13.544-.049-20.41-.022-3.239.014-6.422.026-9.452.028.223-4.93.22-11.817-.007-18.965 6.739.157 13.628.212 20.328.266z" fill="#fff" stroke="#2C3647"/><path d="M36 164.285c1.029-1.028 16.428-8.143 24-11.571m0 11.571c-1.029-1.028-16.429-8.143-24-11.571" stroke="#2C3647" stroke-linecap="round"/><path d="M53.502 186.549c3.406.028 6.763.055 10.026.094-.351 7.936-.476 13.306-.484 18.598-6.43-.077-13.544-.048-20.41-.021-3.239.013-6.422.026-9.452.028.223-4.93.22-11.817-.007-18.965 6.739.157 13.628.212 20.328.266z" fill="#fff" stroke="#2C3647"/><path d="M36 201.285c1.029-1.028 16.428-8.143 24-11.571m0 11.571c-1.029-1.028-16.429-8.143-24-11.571" stroke="#2C3647" stroke-linecap="round"/><path d="M66.278 89.798c12.114.094 24.118.187 35.726.371-.976 17.796-1.231 29.501-1.238 41.36-15.217-.164-32.096-.105-48.31-.049-7.76.027-15.366.053-22.565.054.485-10.75.719-26.224 0-42.107 11.938.183 24.053.276 36.062.369l.325.002z" fill="#fff" stroke="#2C3647"/><path d="M103.694 221.685h-.023c-1.889 0-3.827-.129-5.5-.845-1.687-.722-3.149-2.125-3.371-3.775-.218-1.873 1.114-3.734 2.925-4.819 1.776-1.065 3.921-1.317 6.08-1.57l.048-.006a222.575 222.575 0 0146.72 0c1.231.17 2.516.997 3.471 2.16.957 1.165 1.519 2.588 1.407 3.875v.007l-.001.008c-.113 2.03-1.712 3.791-3.625 4.627-1.928.843-4.111.97-6.407 1.097-12.739.578-25.479-.01-38.246-.599l-3.478-.16z" fill="#FFC01E" stroke="#2C3647"/><path d="M93 187h70m-71-37h70m-70 4h70m-44-59h70m-70 15h31m8 0h31m-70 15h70" stroke="#2C3647" stroke-linecap="round"/><g clip-path="url(#clip0_3007_4351)"><path d="M143.196 27.506c-5.767-8.493-10.74-15.963-16.256-23.942-11.414 7.75-22.668 15.88-34.172 23.496 5.405 8.25 10.762 15.85 16.12 23.74l34.308-23.294z" fill="#EEE9E2"/><path d="M109.115 51.135c-.203.137-.428.095-.565-.105l-5.358-7.892a750.051 750.051 0 01-10.761-15.85c-.137-.2-.093-.425.11-.563 6.664-4.427 13.372-9.08 19.81-13.549 4.682-3.276 9.499-6.645 14.362-9.946.203-.138.429-.096.565.105a724.654 724.654 0 0110.58 15.582l5.676 8.36c.136.2.092.425-.111.563l-17.086 11.6-17.222 11.694zM93.265 27.21c3.566 5.396 7.129 10.5 10.58 15.582l5.132 7.557 16.883-11.464 16.749-11.372-5.494-8.092c-3.496-5.15-6.789-10.144-10.353-15.248-4.728 3.21-9.41 6.487-14.024 9.718-6.303 4.377-12.876 8.938-19.473 13.32z" fill="#2C3647"/><path d="M92.904 27.26c9.438.822 18.787 1.803 28.136 2.783a427.955 427.955 0 005.9-26.478L92.904 27.26z" fill="#EEE9E2"/><path d="M121.267 30.377c-.067.046-.135.092-.248.07l-3.839-.421c-8.038-.796-16.236-1.678-24.297-2.36-.158-.089-.316-.177-.34-.356a.45.45 0 01.202-.43l33.968-23.65a.45.45 0 01.474-.029c.158.088.182.268.159.38-1.68 8.86-3.609 17.791-5.854 26.546a.62.62 0 01-.225.25zm-27.19-3.424a1713.4 1713.4 0 0123.123 2.375l3.5.36c2.157-8.305 3.997-16.784 5.589-25.193L94.077 26.953z" fill="#2C3647"/><path opacity=".129" d="M127.102 4.529c-.429.095-.563.48-.539.659 0 0-.022.113.023.18-.044.225-.043.517-.087.743-.132.968-.489 1.895-.576 2.93-.398 2.03-.796 4.06-1.149 6.155-.309 1.87-.685 3.787-1.287 5.662-.246.655-.668 2.212-1.025 3.431-.022.113-.089.159-.112.271-.2.723-.156.497-.288 1.174-.401 1.444-.643 2.976-1.044 4.421-1.355-.252-2.733-.392-4.11-.531-3.591-.493-7.249-.94-10.885-1.208-2.303-.195-4.629-.57-6.865-.81-1.423-.207-2.846-.413-4.29-.507.225.042-.52-.038-.678-.126-.159-.088-.159-.088-.271-.109-.113-.02-.18.025-.294.004-.474.029-.81.55-.718.977.16.38.544.51.904.46.429-.096 1.695.315 2.485.462 3.343.564 6.798.857 10.185 1.195 2.19.174 4.291.506 6.413.726 1.243.231 2.507.35 3.75.58 1.513.341 2.981.614 4.563.909.293-.004.541-.075.744-.212.315-.117.585-.3.606-.706.47-1.198.6-2.459.776-3.653.176-1.194.331-1.983.531-2.705.333-1.399 1.023-4.017 1.534-6.025.355-1.511.597-3.044.84-4.576.376-1.916.684-3.787.948-5.724.221-1.128.354-1.804.462-2.953-.001-.292.111-.563-.004-.877-.09-.133-.362-.242-.542-.217z" fill="#2C3647"/><path d="M109.205 50.976c-.068.046-.248.07-.361.05a.388.388 0 01-.318-.469c1.62-7.06 3.488-14.19 5.627-21.212.044-.226.292-.296.518-.254.226.042.295.288.251.514a275.119 275.119 0 00-5.56 21.166c-.022.113-.09.159-.157.205zm33.969-23.358c-.068.046-.135.092-.248.07-6.82-.742-13.708-1.732-20.394-2.86a.388.388 0 01-.318-.468.397.397 0 01.473-.32c6.686 1.127 13.507 2.162 20.326 2.906a.388.388 0 01.318.468c-.022.112-.089.158-.157.204z" fill="#2C3647"/><path opacity=".129" d="M141.431 26.359l-.135.092c-.36.342-1.486 1.008-2.364 1.605-2.837 1.633-5.515 3.647-8.171 5.548-2.386 1.718-4.885 3.415-7.271 5.132-2.161 1.468-4.526 2.78-6.687 4.248-1.891 1.284-3.691 2.701-5.582 3.985l-2.026 1.376c-.338.23-.834.37-1.081.734-.561.772.459 1.838 1.269 1.288 3.018-1.659 5.628-3.92 8.464-5.845 2.161-1.468 4.391-2.688 6.507-4.223 3.691-2.701 7.473-5.27 11.051-7.992 1.689-1.147 3.445-2.339 5.178-3.418.406-.275.924-.53 1.329-.805.068-.046.18-.024.135-.091.429-.096.788-.438.764-.91-.049-.944-.907-1.045-1.38-.724z" fill="#2C3647"/></g><g clip-path="url(#clip1_3007_4351)"><path d="M226.546 66.275c-5.863-11.176-10.899-20.99-16.528-31.503C195 42.65 180.124 51.017 165.013 58.72c5.455 10.829 10.942 20.855 16.389 31.239l45.144-23.684z" fill="#fff"/><path d="M181.633 90.399c-.267.14-.537.057-.675-.207l-5.448-10.384a920.673 920.673 0 01-10.941-20.855c-.139-.264-.053-.534.213-.673 8.755-4.481 17.596-9.231 26.081-13.795 6.174-3.352 12.526-6.796 18.925-10.153.266-.14.536-.057.675.207a889.4 889.4 0 0110.756 20.503l5.771 11c.139.264.053.533-.213.673a462508.533 462508.533 0 00-45.144 23.684zm-16.034-31.426c3.605 7.087 7.249 13.816 10.757 20.504l5.217 9.943 22.216-11.655 22.039-11.562-5.586-10.648c-3.555-6.776-6.882-13.334-10.526-20.063-6.221 3.263-12.395 6.615-18.481 9.92-8.307 4.47-16.969 9.127-25.636 13.561z" fill="#2C3647"/><path d="M165.151 58.984c11.415 2.315 22.697 4.813 33.98 7.31a525.55 525.55 0 0010.887-31.522l-44.867 24.212z" fill="#fff"/><path d="M199.362 66.733c-.089.047-.178.094-.313.052l-4.63-1.05c-9.709-2.088-19.598-4.306-29.349-6.26-.182-.13-.363-.258-.366-.481a.551.551 0 01.306-.497l44.777-24.165a.553.553 0 01.583.03c.181.13.185.353.142.487-3.284 10.588-6.881 21.229-10.841 31.61a.76.76 0 01-.309.274zm-32.735-7.962a2109.563 2109.563 0 0127.913 6.116l4.225.925c3.789-9.843 7.215-19.944 10.329-29.994L166.627 58.77z" fill="#2C3647"/><path opacity=".129" d="M210.082 35.973c-.537.057-.754.507-.75.73 0 0-.043.135.003.223-.085.269-.125.626-.21.895-.295 1.165-.861 2.248-1.11 3.5-.769 2.424-1.537 4.847-2.26 7.358-.637 2.242-1.363 4.53-2.359 6.736-.391.766-1.124 2.61-1.728 4.05-.043.134-.132.18-.175.315-.345.854-.259.585-.516 1.393-.69 1.708-1.199 3.546-1.889 5.255-1.62-.496-3.283-.858-4.946-1.22-4.318-1.102-8.724-2.156-13.127-2.989-2.786-.558-5.576-1.339-8.273-1.944-1.709-.45-3.418-.9-5.17-1.215.27.083-.629-.119-.81-.248-.182-.13-.182-.13-.317-.17-.135-.042-.224.005-.359-.037-.582-.03-1.066.56-1.013 1.093.142.486.593.699 1.041.688.537-.057 2.026.62 2.971.91 4.005 1.154 8.184 1.991 12.274 2.875 2.651.517 5.17 1.215 7.732 1.779 1.486.455 3.014.775 4.499 1.23 1.802.626 3.557 1.164 5.448 1.743.358.037.671-.015.938-.155.401-.099.757-.285.839-.777.74-1.398 1.074-2.92 1.455-4.354.381-1.434.68-2.377 1.025-3.231.601-1.662 1.807-4.764 2.711-7.145.644-1.797 1.153-3.635 1.662-5.473.725-2.289 1.363-4.53 1.953-6.86.427-1.347.684-2.154.976-3.542.039-.357.213-.673.117-1.072-.092-.176-.408-.346-.632-.341z" fill="#2C3647"/><path d="M181.764 90.217c-.089.047-.313.052-.448.01a.477.477 0 01-.323-.615c2.96-8.398 6.233-16.848 9.822-25.128.086-.269.399-.32.669-.238.27.083.319.393.234.663a338.633 338.633 0 00-9.733 25.08c-.043.135-.132.182-.221.228zm44.739-23.807c-.089.046-.177.093-.313.052-8.226-1.857-16.502-4.023-24.512-6.33a.477.477 0 01-.323-.616.488.488 0 01.622-.326c8.01 2.306 16.197 4.52 24.424 6.376.27.082.408.346.323.616-.043.134-.132.181-.221.228z" fill="#2C3647"/><path opacity=".129" d="M224.549 64.63l-.178.093c-.487.367-1.955 1.025-3.11 1.631-3.693 1.601-7.244 3.689-10.753 5.641-3.153 1.767-6.441 3.492-9.594 5.258-2.844 1.492-5.915 2.766-8.758 4.258-2.489 1.306-4.884 2.787-7.373 4.093l-2.666 1.398c-.444.233-1.069.337-1.421.746-.793.865.304 2.31 1.371 1.75 3.917-1.606 7.418-4.005 11.151-5.963 2.843-1.492 5.737-2.673 8.534-4.253 4.884-2.786 9.861-5.397 14.61-8.225 2.221-1.166 4.532-2.378 6.8-3.456.533-.28 1.201-.518 1.734-.797.089-.047.224-.006.178-.094.537-.057 1.024-.425 1.06-1.004.071-1.16-.963-1.403-1.585-1.077z" fill="#2C3647"/></g><g clip-path="url(#clip2_3007_4351)"><path d="M48.51 41.235l-.505-4.35 3.178-3.218-5.458-5.62-3.153 3.592a.196.196 0 01-.212.146c-.106.074-.195.057-.374.025-1.434-.261-2.762-.595-4.196-.856-.472-1.474-.871-2.843-1.45-4.244-.073-.106-.057-.195-.22-.318-.09-.016-.179-.032-.285.041-1.881.676-3.69 1.458-5.572 2.134l-.106.074c-.105.073-.048.269.025.375a15.648 15.648 0 001.67 3.543c-.978 1.303-2.012 2.411-3.137 3.503-.228.236-.562.546-.936.57-.285.04-.628-.114-.88-.252-1.1-.57-2.2-1.14-3.283-1.8-1.41 2.15-2.077 4.805-1.906 7.428.057.196 4.472.35 4.472.35l1.768 5.043-2.697 3.12 4.098 4.448 3.177-3.218 4.374.888 1.002 4.163 6.965-1.14-.88-4.326 3.03-3.43 4.457.44 1.173-5.433-4.138-1.678zm-7.812.709c.057.195-.187.52-.31.684-.121.163-.138.252-.26.415-.228.236-.456.473-.757.603-.53.367-1.116.538-1.793.692-.285.041-.57.082-.749.05-.18-.033-.464.007-.627-.115-.18-.032-.253-.138-.432-.17.358.064 0 0-.18-.033-.594-.294-1.213-.962-1.368-1.638-.114-.39-.212-.871-.13-1.32a2.81 2.81 0 01.48-1.116c.277-.505.628-.904.978-1.303.456-.472 1.002-.928 1.589-1.1.586-.17 1.23-.146 1.718.22.286-.04.481-.097.734.041.415.26.651.489.944.913.204.407.335.708.432 1.189.074.106.041.285.025.375-.017.09-.033.179.04.285-.016.09-.048.269.025.374l.016-.09c.016-.089.016-.089 0 0-.016.09-.049.27.025.376l-.033.179c-.318.22-.35.399-.367.489z" fill="#EEE9E2"/><path d="M28.528 42.693a.196.196 0 01-.147-.212c2.037-4.073 4.269-8.203 6.737-12.105.017-.09.106-.073.196-.057.09.017.073.106.057.196-2.379 3.918-4.684 7.942-6.72 12.015-.017.09-.033.18-.123.163zm1.768.97a.196.196 0 01-.147-.212 77.135 77.135 0 016.648-11.103c.016-.09.106-.074.195-.057.09.016.074.106.057.195a77.144 77.144 0 00-6.647 11.103c.073.106-.016.09-.106.074zm-2.151 7.754a.196.196 0 01-.146-.211l4.554-7.226c.016-.09.105-.073.195-.057.09.017.073.106.057.196l-4.554 7.225c.074.106-.016.09-.106.073zm4.521-.937c-.09-.016-.09-.016 0 0a.196.196 0 01-.146-.211l2.607-4.155c.016-.09.105-.073.195-.057.09.017.073.106.057.196l-2.607 4.154c-.016.09-.106.074-.106.074zm5.898-14.108a.196.196 0 01-.146-.212l1.311-2.631c.017-.09.106-.074.196-.057.09.016.073.106.057.195l-1.312 2.631c.074.106-.016.09-.106.074zm3.186 1.319a.196.196 0 01-.147-.211 95.492 95.492 0 014.211-6.362c.017-.09.106-.074.196-.057.09.016.073.105.057.195a95.492 95.492 0 00-4.212 6.362c.074.106-.016.09-.106.073zm-5.874 13.466c-.074-.106-.163-.123-.057-.196l11.135-15.934c.017-.09.106-.073.196-.057.09.017.073.106.057.196L36.071 51.1c-.016.09-.106.073-.195.057zm3.095 1.303c-.073-.105-.162-.122-.057-.195l7.528-10.85c.016-.09.105-.074.195-.058.09.017.073.106.057.196l-7.527 10.85c-.09-.016-.106.074-.196.057zm6.811-4.871c-.163-.122-.147-.212-.057-.196l3.128-3.967c.016-.09.106-.073.195-.057.09.017.073.106.057.196l-3.128 3.967c-.09-.016-.106.073-.195.057zm-5.442 7.527c-.09-.017 0 0 0 0-.163-.122-.146-.212-.057-.196l1.466-1.955c.017-.09.106-.073.196-.057.09.017.073.106.057.196l-1.466 1.955c-.106.073-.196.057-.196.057zM24.243 40.803c-.09-.016 0 0 0 0-.162-.122-.146-.212-.057-.196l1.988-2.785c.016-.09.106-.074.195-.058.09.017.074.106.058.196l-1.988 2.786c-.106.073-.196.057-.196.057zm8.179-10.362c-.09-.016 0 0 0 0-.163-.122-.146-.212-.057-.195L33.8 28.47c.016-.09.106-.074.195-.057.09.016.074.105.057.195l-1.523 1.76s-.016.09-.106.073z" fill="#2C3647"/><path opacity=".129" d="M41.806 42.978c.041-.733-.944-.912-1.238-.318-.293.595-.187.522-1.018 1.019-.725.423-.513.277-1.564.456-1.035.09-.587.17-1.393.024-.09-.016-.163-.122-.342-.154-.326-.245-.253-.139-.888-.717-.236-.228-.546-.562-.904-.628-1.043-.374-1.874 1.14-.986 1.858 1.49 1.474 3.095 2.321 5.246 1.694 1.083-.358 1.98-1.214 2.533-2.224.229-.236.473-.562.554-1.01zm.954 11.56c-.677.154-.962.195-2.175.252-.57.081-1.271-.138-1.874.122-1.116.538-.62 2.387.61 2.24 1.483-.008 3.113.196 4.473-.668 1.075-.822.139-2.288-1.034-1.946zm9.775-7.943c.049-.269-.008-.464-.049-.75-.375-.993-1.825-1.164-2.273-.227-.016.09-.106.073-.122.163-.122.163-.244.325-.383.578-.122.163-.244.326-.26.415a1.71 1.71 0 00-.31.685c-.293 1.613 1.898 2.289 2.623.847.277-.505.538-.92.725-1.442l.049-.269z" fill="#2C3647"/><path d="M37.88 57.446a.5.5 0 01-.4-.35c-.235-1.247-.545-2.6-1.05-3.894-1.377-.066-2.794-.416-4.122-.75-.489.652-1.067 1.287-1.556 1.939-.26.415-.611.814-.961 1.214a.438.438 0 01-.57.081c-1.915-1.181-3.552-2.867-4.587-4.814a.58.58 0 01.098-.538 70.99 70.99 0 002.843-2.908 17.269 17.269 0 01-1.507-4.44c-.375.025-.644-.024-1.018 0-1.018 0-2.143.073-3.34.04-.18-.032-.432-.17-.383-.44-.187-2.532.48-5.188 2.004-7.966.122-.163.334-.31.587-.171l.09.016c1.368.62 2.736 1.238 4.194 1.874.872-1.23 1.907-2.338 2.957-3.535-.537-1.117-1.148-2.338-1.62-3.813-.058-.195-.025-.375.187-.521 1.784-1.157 3.983-2.053 6.492-2.615a.438.438 0 01.505.277c.49 1.385.872 2.843 1.255 4.301 1.572.008 3.006.269 4.513.636a48.661 48.661 0 012.973-3.625.438.438 0 01.57-.082c1.54 1.206 2.957 2.574 4.163 4.09.293.423.676.863.986 1.197.146.212.383.44.407.815-.016.09-.049.268-.155.342-.456.472-.896.855-1.352 1.328-.578.635-1.246 1.254-1.93 1.963.252 1.157.488 2.403.724 3.65 1.238.317 2.802.879 4.375 1.905.163.123.236.228.203.408-.317 2.256-.945 4.179-2.02 6.02a.5.5 0 01-.497.187l-.448-.081a23.092 23.092 0 00-3.495-.636c-.66 1.084-1.572 2.029-2.892 3.177.416 1.28.921 2.574 1.198 4.106a.438.438 0 01-.277.505c-2.305.97-4.692 1.368-7.144 1.108.09.016.09.016 0 0zm-.929-5.075c.18.032.253.138.326.244.578 1.401.888 2.753 1.124 4 2.02.09 4.106-.18 6.167-.823-.293-1.442-.798-2.737-1.23-3.926a.58.58 0 01.098-.538c1.425-1.222 2.354-2.257 3.014-3.34.122-.163.228-.236.407-.204 1.36.155 2.705.4 3.853.701l.18.033a14.778 14.778 0 001.677-5.157c-1.498-.92-2.99-1.377-4.138-1.678-.179-.033-.342-.155-.31-.334-.22-1.336-.513-2.778-.732-4.114-.074-.106.048-.269.065-.358.7-.799 1.385-1.507 2.053-2.126.35-.4.773-.693 1.124-1.092-.074-.106-.074-.106-.163-.122a11.536 11.536 0 00-.986-1.198 37.077 37.077 0 00-3.763-3.739c-1.051 1.198-1.996 2.322-2.852 3.462a.5.5 0 01-.496.188c-1.58-.473-3.3-.693-4.872-.7-.179-.034-.431-.172-.399-.351-.293-1.442-.692-2.81-1.091-4.18-2.135.539-3.943 1.32-5.589 2.225.489 1.384 1.01 2.59 1.564 3.617a.58.58 0 01-.098.537c-1.172 1.36-2.313 2.542-3.307 3.935.09.016-.106.073-.375.024-1.458-.635-2.916-1.27-4.195-1.873-1.263 2.362-1.849 4.57-1.686 6.728 1.018 0 1.947-.016 2.875-.032l1.393-.025c.18.033.432.171.4.35.39 1.923.936 3.503 1.71 4.847a.58.58 0 01-.098.538c-1.034 1.108-1.947 2.053-2.859 2.998.92 1.556 2.232 2.998 3.804 4.024.245-.326.473-.562.717-.888a29.788 29.788 0 011.784-2.175c.123-.163.318-.22.48-.097 1.272.138 2.762.594 4.424.619-.09-.017-.09-.017 0 0z" fill="#2C3647"/><path d="M36.275 44.38c-.627-.115-1.149-.302-1.637-.669-.416-.26-.725-.594-.84-.986-.187-.497-.179-1.05-.203-1.425.171-1.45.774-2.73 1.654-3.495 1.107-1.002 2.623-1.19 3.812-.603.09.017.163.123.163.123 1.173.676 1.93 2.11 1.76 3.56-.155 1.36-1.133 2.663-2.428 3.168-.725.424-1.474.473-2.281.326zm1.743-6.534c-.717-.13-1.588.081-2.166.717-.774.692-1.239 1.719-1.361 2.9a1.76 1.76 0 00.106.945c.057.195.293.423.546.562.904.627 2.085.75 3.079.375.994-.375 1.743-1.442 1.922-2.428.106-1.092-.431-2.208-1.262-2.729l-.09-.016c-.09-.016-.252-.139-.326-.245l-.448-.081zm.782-.228l.009.464-.009-.464z" fill="#2C3647"/><path d="M65.772 27.248l5.385-.594-.774-7.454-4.757.709-2.143-5.018 3.235-4.04-5.662-3.993-2.884 4.66-5.213-.855-1.263-4.766-6.94 2.533 2.077 4.359-4.277 3.665-3.193-1.784-3.21 7.47 3.87 1.63.88 5.343-3.666 2.852 4.317 5.783 3.16-3.128 4.554 1.94-.415 4.83 6.443.709.172-4.505 4.13-1.841 2.875 4.04 5.857-5.23-3.739-3.364 1.181-3.95zm-12.911 1.263c-2.51-.456-4.09-2.965-3.617-5.564.473-2.599 2.835-4.39 5.344-3.935 2.509.457 4.09 2.966 3.617 5.564-.49 2.688-2.835 4.39-5.344 3.935z" fill="#EEE9E2"/><path d="M48.698 41.732c-.179-.032-.415-.26-.383-.44l.367-4.562-4.049-1.661-2.843 2.908c-.106.073-.212.146-.301.13-.09-.016-.269-.049-.342-.155l-4.318-5.784a.44.44 0 01.114-.627l3.454-2.704-.782-4.864L36 22.483c-.09-.017-.163-.123-.237-.229-.073-.105-.057-.195-.024-.374l3.21-7.47c.016-.09.138-.253.228-.236a.277.277 0 01.358.065l2.94 1.645 3.732-3.21-1.752-4.113c-.073-.106-.057-.196-.024-.375.016-.09.122-.163.228-.236l6.94-2.533a.277.277 0 01.359.065c.09.016.163.122.22.318l1.222 4.48 4.676.758 2.655-4.424c.017-.09.123-.163.318-.22.09.017.269.05.358.065l5.662 3.992.22.318-.065.358-3.096 3.788 1.866 4.505 4.382-.684.359.065c.073.106.146.212.13.301l.774 7.454c.04.285-.171.432-.367.489l-5.1.554-1.083 3.413 3.503 3.136c.073.106.147.212.13.302-.016.09-.049.268-.154.342l-5.857 5.23c-.106.073-.212.146-.392.114-.09-.017-.268-.05-.342-.155l-2.655-3.723-3.527 1.58-.212 4.22c-.017.09-.05.269-.155.342-.106.073-.212.147-.301.13l-6.428-.798zm-4.081-7.592l.09.016 4.553 1.939c.18.032.326.244.294.424l-.35 4.472 5.53.635.18-4.04a.696.696 0 01.26-.416l4.13-1.84c.196-.058.375-.025.522.187l2.582 3.617 5.19-4.611-3.34-3.014c-.163-.122-.22-.318-.098-.48l1.27-3.935c.033-.18.245-.326.334-.31l4.904-.497-.651-6.598-4.277.61c-.195.058-.358-.064-.505-.276l-2.142-5.018c-.057-.196-.041-.285.081-.448l2.973-3.625-4.83-3.47-2.623 4.244c-.122.162-.228.236-.408.203l-5.213-.855c-.18-.033-.342-.155-.31-.334L51.51 6.419 45.456 8.65l1.678 4.008a.58.58 0 01-.097.537l-4.277 3.666c-.122.163-.301.13-.48.098l-2.762-1.613-2.868 6.606 3.438 1.458c.18.033.236.228.31.334l.88 5.344c.056.196-.066.359-.172.432l-3.315 2.452 3.714 5.026 2.721-2.745c.122-.163.301-.13.391-.114zm8.163-5.181c-2.689-.489-4.505-3.226-3.984-6.093.522-2.868 3.185-4.79 5.873-4.302 2.689.49 4.505 3.227 3.984 6.094-.521 2.867-3.185 4.79-5.873 4.301zm1.71-9.409c-2.24-.407-4.374 1.149-4.814 3.568-.44 2.42 1.01 4.627 3.25 5.035 2.24.407 4.375-1.149 4.814-3.568.44-2.42-1.01-4.627-3.25-5.035z" fill="#2C3647"/><path opacity=".129" d="M42.646 35.818c-.065-.66-.66-.953-1.027-1.483-.163-.122-.782-.79-1.368-1.637-.367-.53-.7-1.238-1.19-1.605-.904-.627-2.044.554-1.384 1.507 1.083 1.678 2.012 2.68 3.014 3.788.236.228.024.375.814.611.628.114 1.206-.521 1.14-1.181zm12.048 4.505c-.163-.122-.538-.098-.627-.114l-1.882-.342c-.611-.204-1.238-.318-1.866-.432-.358-.065-.594-.293-.985-.18-1.157.253-1.108 2.02.057 2.233.97.269 1.955.448 3.046.554l1.434.26c.269.05.448.082.75-.049.798-.317.847-1.604.073-1.93zm11.314-6.737c-1.172 1.36-2.932 2.892-3.42 3.544-.245.325-.726.423-.97.749-.628.904.48 1.939 1.328 1.352.83-.497 1.775-1.62 1.881-1.694.668-.62 1.353-1.328 2.02-1.947.245-.326.652-.53.823-.961.391-1.133-.96-1.841-1.662-1.043z" fill="#2C3647"/></g><defs><clipPath id="clip0_3007_4351"><path fill="#fff" transform="rotate(-34.176 89.589 -136.237)" d="M0 0h42.367v29.747H0z"/></clipPath><clipPath id="clip1_3007_4351"><path fill="#fff" transform="rotate(-27.683 200.355 -303.883)" d="M0 0h52.083v36.569H0z"/></clipPath><clipPath id="clip2_3007_4351"><path fill="#fff" transform="rotate(10.305 12.013 159.435)" d="M0 0h46.904v54.464H0z"/></clipPath></defs></svg>