<svg width="16" height="16" viewBox="0 0 16 16" fill="none" xmlns="http://www.w3.org/2000/svg">
<rect width="16" height="16" fill="#FFC01E"/>
<path d="M12.1818 10.4717V11.5768H14.6667V4.33325H12.1159V8.16843C12.1159 8.58111 11.9594 8.941 11.7123 9.24811C11.4652 9.55522 11.1055 9.70877 10.6332 9.70877C10.3806 9.70877 10.1774 9.66798 10.0236 9.58641C9.86984 9.50483 9.74628 9.39207 9.65292 9.24811C9.55956 9.10415 9.49641 8.941 9.46346 8.75866C9.43051 8.57631 9.41403 8.38437 9.41403 8.18283V4.33325H6.69565L0 8.51224V11.5768C0 11.5768 6.69565 7.06013 6.69565 7.39784V8.72987C6.69565 9.09456 6.74782 9.45205 6.85216 9.80234C6.95651 10.1526 7.12675 10.4645 7.36289 10.7381C7.59903 11.0116 7.90657 11.2347 8.28549 11.4075C8.66442 11.5802 9.12846 11.6666 9.67764 11.6666C9.9632 11.6666 10.235 11.633 10.4931 11.5658C10.7513 11.4986 10.9874 11.4123 11.2016 11.3067C11.4158 11.2011 11.6025 11.0764 11.7617 10.9324C11.921 10.7884 12.05 10.6349 12.1818 10.4717Z" fill="#090909"/>
</svg>
