<svg width="64" height="78" fill="none" xmlns="http://www.w3.org/2000/svg"><path d="M10 0h23v63.665L10 77.5V0z" fill="#CFA434"/><path d="M24.894 57.616v-2.283c-.27.337-.533.654-.859.952a4.964 4.964 0 01-1.144.773c-.438.218-.92.396-1.448.535a6.524 6.524 0 01-1.667.208c-1.122 0-2.07-.178-2.844-.535-.775-.357-1.403-.818-1.886-1.383a5.208 5.208 0 01-1.043-1.932 7.797 7.797 0 01-.32-2.216v-2.75c0-.698-13.683 8.63-13.683 8.63v-6.33l13.683-8.63h5.555v7.95c0 .417.033.813.1 1.19.068.377.197.713.388 1.01.19.298.443.531.757.7.315.168.73.252 1.246.252.965 0 1.7-.317 2.205-.951.505-.634.825-1.378.825-2.23v-7.922h5.213v14.962h-5.078zm28.28-7.694c0 1.03-.18 2.022-.538 2.973a7.438 7.438 0 01-1.566 2.513c-.685.723-1.52 1.303-2.508 1.739-.988.436-2.11.654-3.367.654a7.84 7.84 0 01-2.929-.55c-.92-.367-1.638-.867-2.155-1.502h-.067v8.772h-5.521V42.577h5.252v1.814h.1c.517-.594 1.23-1.115 2.139-1.56.908-.447 1.98-.67 3.215-.67 1.212 0 2.312.208 3.3.624.987.417 1.823.982 2.507 1.695a7.529 7.529 0 011.583 2.483 8.01 8.01 0 01.555 2.959zm-5.353 0c0-.476-.084-.942-.252-1.398a3.524 3.524 0 00-.741-1.204 3.717 3.717 0 00-1.229-.848c-.494-.218-1.066-.327-1.717-.327-.628 0-1.19.11-1.683.327a3.994 3.994 0 00-1.263.863 3.874 3.874 0 00-.808 1.219c-.19.456-.286.922-.286 1.397 0 .476.095.942.286 1.398.191.456.46.862.808 1.219a3.99 3.99 0 001.263.862c.494.218 1.055.327 1.683.327.651 0 1.223-.109 1.717-.327a3.609 3.609 0 001.229-.862c.325-.357.572-.768.74-1.234a4.13 4.13 0 00.253-1.412zm15.229 4.492c0 .832-.33 1.526-.992 2.081-.663.555-1.454.833-2.374.833-.471 0-.915-.075-1.33-.223a3.647 3.647 0 01-1.094-.61 2.873 2.873 0 01-.74-.907 2.452 2.452 0 01-.27-1.144c0-.397.09-.773.27-1.13.179-.357.426-.67.74-.937.314-.268.679-.48 1.094-.64a3.695 3.695 0 011.33-.237c.92 0 1.712.278 2.374.833.662.555.993 1.248.993 2.08z" fill="#fff"/></svg>