<svg width="24" height="24" fill="none" xmlns="http://www.w3.org/2000/svg"><path fill-rule="evenodd" clip-rule="evenodd" d="M18.8 3A2.2 2.2 0 0121 5.2v13.6a2.2 2.2 0 01-2.2 2.2H5.2A2.2 2.2 0 013 18.8V5.2A2.2 2.2 0 015.2 3h13.6zM8.642 17.88V9.947H6.003v7.935h2.638zm9.511 0v-4.55c0-2.437-1.301-3.571-3.037-3.571-1.399 0-2.026.77-2.377 1.31V9.945h-2.637c.035.745 0 7.936 0 7.936h2.637v-4.432c0-.237.017-.474.087-.644.19-.473.625-.964 1.354-.964.954 0 1.336.728 1.336 1.794v4.246h2.637zM7.34 6.12c-.903 0-1.492.593-1.492 1.37 0 .762.571 1.371 1.457 1.371h.017c.92 0 1.493-.61 1.493-1.37-.018-.777-.571-1.37-1.475-1.372z" fill="#fff"/></svg>