<svg width="33" height="32" fill="none" xmlns="http://www.w3.org/2000/svg"><g id="Frame"><g id="Group" fill="#090909"><path id="Vector" d="M11.571 12.857h10.343a.44.44 0 100-.88H11.571a.44.44 0 100 .88z"/><path id="Vector_2" d="M16.858 15.056H11.57a.44.44 0 100 .88h5.287a.44.44 0 100-.88z"/><path id="Vector_3" d="M16.858 17.915H11.57a.44.44 0 100 .88h5.287a.44.44 0 100-.88z"/><path id="Vector_4" d="M16.858 20.773H11.57a.44.44 0 100 .88h5.287a.44.44 0 100-.88z"/><path id="Vector_5" d="M28.749 19.124a5.232 5.232 0 00-1.777-3.928V9.331a.432.432 0 00-.031-.152l-.009-.019a.467.467 0 00-.028-.052l-.011-.018a.457.457 0 00-.05-.061l-5.9-5.9a.393.393 0 00-.06-.05l-.019-.012a.45.45 0 00-.145-.058.5.5 0 00-.077-.008L20.632 3H7.843a.44.44 0 00-.44.44v21.658H5.04c-.017 0-.033 0-.05.003a.44.44 0 00-.49.437A3.467 3.467 0 007.964 29H23.51a3.467 3.467 0 003.463-3.463v-2.485a5.229 5.229 0 001.777-3.928zm-.88 0a4.365 4.365 0 01-4.36 4.36 4.366 4.366 0 01-4.361-4.36 4.365 4.365 0 014.36-4.36 4.366 4.366 0 014.362 4.36zM21.073 4.502l.673.672L25.47 8.9h-4.398V4.502zM7.963 28.12a2.588 2.588 0 01-2.545-2.144h14.656a3.46 3.46 0 001.132 2.144H7.963zm18.129-2.584a2.586 2.586 0 01-2.583 2.583 2.587 2.587 0 01-2.583-2.583.44.44 0 00-.44-.44H8.282V3.879h11.91v5.46c0 .243.197.44.44.44h5.46v4.789a5.207 5.207 0 00-2.583-.684c-2.89 0-5.24 2.35-5.24 5.24s2.35 5.24 5.24 5.24c.939 0 1.82-.25 2.583-.684v1.857z"/><path id="Vector_6" d="M23.694 18.766c-.27-.113-.453-.22-.55-.319a.544.544 0 01-.142-.396c0-.178.044-.32.135-.425.09-.105.236-.158.438-.158.191 0 .34.063.447.188.106.126.159.306.159.54h.918l.006-.017c.007-.397-.1-.72-.319-.968s-.521-.398-.908-.453v-.699h-.512v.69c-.401.04-.719.177-.953.407-.235.231-.352.527-.352.89 0 .393.117.698.352.915.234.216.593.407 1.078.57.258.098.437.2.538.306a.593.593 0 01.152.425.561.561 0 01-.158.421c-.105.103-.263.154-.474.154a.765.765 0 01-.523-.175c-.133-.117-.2-.313-.2-.588h-.915l-.01.019c-.008.459.12.808.385 1.044.266.238.604.375 1.017.41v.635h.512v-.634c.404-.04.722-.174.955-.398.233-.224.35-.523.35-.896 0-.39-.119-.699-.355-.923-.238-.22-.594-.41-1.07-.565z"/></g></g></svg>