<svg width="32" height="32" fill="none" xmlns="http://www.w3.org/2000/svg"><g id="Business ready websites"><g id="B226__x2C_Data__x2C_Network__x2C_Secure__x2C_Security_1_"><g id="Group" fill="#090909"><path id="Vector" d="M23.09 15.203c-.793 0-1.427.622-1.427 1.4 0 .778.634 1.4 1.426 1.4.792 0 1.426-.622 1.426-1.4.04-.778-.594-1.4-1.426-1.4zm0 1.867a.436.436 0 01-.437-.428.436.436 0 01.872 0c.079.233-.12.428-.436.428z"/><path id="Vector_2" d="M23.09 26.016c.791 0 1.425-.622 1.425-1.4 0-.778-.634-1.4-1.426-1.4-.792 0-1.426.622-1.426 1.4 0 .739.634 1.4 1.426 1.4zm0-1.867c.237 0 .435.194.435.428a.436.436 0 01-.872 0c0-.234.198-.428.436-.428z"/><path id="Vector_3" d="M28 5.284c0-.312-.277-.506-.555-.467-1.306.194-2.772.155-3.762-.7-.158-.156-.396-.156-.594-.04-1.148.74-2.455.973-3.802.74-.356-.039-.633.155-.633.467v.039H4.514c-.276 0-.514.272-.514.544v5.874a.52.52 0 00.515.505h9.03v1.09h-9.03A.52.52 0 004 13.84v5.601c0 .312.238.506.515.506h9.03v1.362h-9.03a.52.52 0 00-.515.505v5.64a.52.52 0 00.515.506H25.98a.52.52 0 00.515-.506v-5.679a.52.52 0 00-.515-.505h-9.663v-1.362h9.663c.277 0 .515-.194.515-.466v-5.64a.52.52 0 00-.515-.506h-.04c1.07-1.09 1.585-1.712 1.822-2.879.278-1.05.238-2.411.238-5.134zm-8.277 6.923c.237.35.554.662.95 1.09h-4.396v-1.09h3.446zM4.99 6.334h13.664c0 2.45 0 3.812.435 4.901H4.99V6.334zm9.545 5.873h.752v1.09h-.752v-1.09zm10.97 14.743H4.99v-4.668h20.515v4.668zm-10.178-5.68h-.753v-1.36h.753v1.36zm10.178-2.333H4.99v-4.629h8.911c.08.039.198.039.277 0h1.426c.08.039.198.039.277 0h5.703l.238.233a.592.592 0 00.356.156h2.178c.12 0 .278-.039.357-.156l.238-.233h.475v4.629h.079zm1.307-8.713c-.238 1.089-.832 1.595-2.376 3.19l-.278.272h-1.703c-.118-.117-.198-.234-.277-.312-.633-.622-1.307-1.283-1.703-1.828-.04-.078-.079-.116-.119-.155-.237-.35-.356-.662-.475-1.128-.198-.934-.158-2.568-.158-4.357 1.307.117 2.534-.117 3.643-.778 1.07.74 2.416.856 3.683.74-.079 2.1-.04 3.461-.237 4.356z"/></g></g></g></svg>