<svg width="33" height="32" fill="none" xmlns="http://www.w3.org/2000/svg"><path d="M28.693 26.972H4.307c-1.57 0-2.893-1.26-2.893-2.942v-.756c0-.252.248-.504.496-.504h29.18c.248 0 .496.252.496.504v.756c0 1.597-1.323 2.942-2.893 2.942zM2.406 23.778v.253c0 1.008.827 1.848 1.819 1.848h24.468c.991 0 1.818-.84 1.818-1.849v-.252H2.406z" fill="#090909"/><path d="M30.263 23.778H2.654c-.248 0-.496-.252-.496-.504V5.123c0-.589.496-1.009.992-1.009h26.617c.579 0 .992.42.992 1.009v18.15c0 .337-.165.505-.496.505zM3.15 22.77h26.617V5.123H3.15V22.77z" fill="#090909"/><path d="M27.7 21.677H5.218c-.58 0-.992-.42-.992-1.008V7.308c0-.589.413-1.009.992-1.009H27.7c.58 0 .992.42.992 1.009v13.361c0 .504-.413 1.008-.991 1.008zM5.218 7.307V20.67H27.7V7.308H5.216z" fill="#090909"/></svg>