<svg width="32" height="32" fill="none" xmlns="http://www.w3.org/2000/svg"><path d="M29.573 11.38H2.487c-.244 0-.487-.162-.487-.487 0-.243.243-.486.487-.486h27.086c.244 0 .487.243.487.486 0 .325-.243.487-.487.487zM10.11 8.46H6.947c-1.054 0-1.946-.892-1.946-1.946v-.568C5 4.892 5.893 4 6.947 4h3.163c1.054 0 1.946.892 1.946 1.946v.568c.081 1.054-.81 1.946-1.946 1.946zM6.947 4.973c-.568 0-.973.406-.973.973v.568c0 .568.405.973.973.973h3.163c.568 0 .973-.405.973-.973v-.568c0-.567-.405-.973-.973-.973H6.947zM25.113 8.46H21.95c-1.054 0-1.946-.892-1.946-1.946v-.568c0-1.054.892-1.946 1.946-1.946h3.163c1.054 0 1.946.892 1.946 1.946v.568c0 1.054-.892 1.946-1.946 1.946zM21.95 4.973c-.567 0-.973.406-.973.973v.568c0 .568.405.973.973.973h3.163c.568 0 .973-.405.973-.973v-.568c0-.567-.405-.973-.973-.973H21.95z" fill="#090909"/><path d="M28.357 28.086H3.703c-.892 0-1.703-.73-1.703-1.703V7.73c0-.892.73-1.703 1.703-1.703h1.784c.244 0 .487.244.487.487 0 .568.405.973.973.973h3.163c.568 0 .973-.405.973-.973 0-.243.243-.487.487-.487h8.84c.243 0 .486.244.486.487 0 .568.405.973.973.973h3.163c.567 0 .973-.405.973-.973 0-.243.243-.487.487-.487h1.784c.892 0 1.703.73 1.703 1.703v18.734c.08.892-.649 1.622-1.622 1.622zM3.703 7.001a.727.727 0 00-.73.73v18.733c0 .406.325.73.73.73h24.654c.405 0 .73-.324.73-.73V7.73a.727.727 0 00-.73-.73h-1.379c-.243.811-.973 1.46-1.865 1.46H21.95c-.892 0-1.703-.649-1.865-1.46h-7.948c-.243.811-.973 1.46-1.865 1.46H6.947c-.892 0-1.703-.649-1.946-1.46H3.703z" fill="#090909"/><path d="M9.406 17.893h-2.92c-.243 0-.486-.244-.486-.487v-2.92c0-.243.243-.486.487-.486h2.92c.242 0 .486.243.486.487v2.92c0 .242-.162.486-.487.486zm-2.433-.974H8.92v-1.946H6.973v1.946zm10.326.974h-2.92c-.243 0-.486-.244-.486-.487v-2.92c0-.243.243-.486.486-.486h2.92c.243 0 .486.243.486.487v2.92c0 .242-.243.486-.486.486zm-2.433-.974h1.946v-1.946h-1.946v1.946zm10.326.974h-2.92c-.243 0-.487-.244-.487-.487v-2.92c0-.243.244-.486.487-.486h2.92c.243 0 .486.243.486.487v2.92c0 .242-.243.486-.486.486zm-2.515-.974h1.947v-1.946h-1.947v1.946zM9.406 23.893h-2.92c-.243 0-.486-.244-.486-.487v-2.92c0-.243.243-.486.487-.486h2.92c.242 0 .486.243.486.487v2.92c0 .242-.162.486-.487.486zm-2.433-.974H8.92v-1.946H6.973v1.947zm10.326.974h-2.92c-.243 0-.486-.244-.486-.487v-2.92c0-.243.243-.486.486-.486h2.92c.243 0 .486.243.486.487v2.92c0 .242-.243.486-.486.486zm-2.433-.974h1.946v-1.946h-1.946v1.947zm10.326.974h-2.92c-.243 0-.487-.244-.487-.487v-2.92c0-.243.244-.486.487-.486h2.92c.243 0 .486.243.486.487v2.92c0 .242-.243.486-.486.486zm-2.515-.974h1.947v-1.946h-1.947v1.947z" fill="#090909"/></svg>