<svg width="32" height="32" fill="none" xmlns="http://www.w3.org/2000/svg"><g clip-path="url(#clip0_3007_6647)" fill="#090909"><path d="M22.732 25h-1.24c-.247 0-.495-.245-.495-.49 0-.244.248-.489.496-.489h1.239c.247 0 .495.245.495.49 0 .326-.165.489-.495.489zm-3.8 0H16.29c-.248 0-.496-.245-.496-.49 0-.244.248-.489.496-.489h2.643c.248 0 .496.245.496.49 0 .326-.248.489-.496.489zm-5.203 0h-2.643c-.248 0-.496-.245-.496-.49 0-.244.248-.489.495-.489h2.644c.247 0 .495.245.495.49 0 .326-.248.489-.495.489zm-5.204 0H7.286c-.248 0-.495-.245-.495-.49 0-.244.247-.489.495-.489h1.239c.248 0 .496.245.496.49 0 .326-.248.489-.496.489z"/><path d="M29.504 25h-6.772c-.248 0-.496-.245-.496-.49 0-.244.248-.489.496-.489h6.277V6.98H2.99v17.043h4.213c.247 0 .495.244.495.489 0 .244-.248.489-.495.489H2.496C2.248 25 2 24.755 2 24.51V6.49c0-.245.248-.49.496-.49h27.008c.248 0 .496.245.496.49v18.02c0 .327-.165.49-.496.49z"/><path d="M16.041 17.009c-.082 0-.248 0-.33-.082L2.165 6.897c-.165-.163-.248-.49-.082-.734.165-.163.495-.245.743-.081l13.215 9.785 13.216-9.785c.247-.164.495-.082.66.081.166.245.166.57-.082.734l-13.546 10.03c-.083 0-.165.082-.248.082z"/><path d="M2.496 25c-.166 0-.248-.081-.33-.163-.166-.163-.166-.49 0-.734l10.571-10.112c.166-.163.496-.163.744 0 .165.164.165.49 0 .734L2.826 24.92c-.083.08-.166.08-.33.08zm27.009 0c-.166 0-.248-.081-.33-.163L18.601 14.644c-.165-.163-.165-.49 0-.734.165-.163.495-.163.743 0l10.572 10.193c.166.163.166.49 0 .734-.165.163-.247.163-.413.163z"/></g><defs><clipPath id="clip0_3007_6647"><path fill="#fff" transform="translate(2 6)" d="M0 0h28v19H0z"/></clipPath></defs></svg>