<svg width="24" height="24" viewBox="0 0 24 24" fill="none" xmlns="http://www.w3.org/2000/svg">
<g id="directions_car_black_24dp 1">
<g id="Group 4">
<path id="Vector" d="M6.6875 15.375C7.61948 15.375 8.375 14.6195 8.375 13.6875C8.375 12.7555 7.61948 12 6.6875 12C5.75552 12 5 12.7555 5 13.6875C5 14.6195 5.75552 15.375 6.6875 15.375Z" fill="#D8DEFD"/>
<path id="Vector_2" d="M16.8125 15.375C17.7445 15.375 18.5 14.6195 18.5 13.6875C18.5 12.7555 17.7445 12 16.8125 12C15.8805 12 15.125 12.7555 15.125 13.6875C15.125 14.6195 15.8805 15.375 16.8125 15.375Z" fill="#D8DEFD"/>
<path id="Vector 2" d="M3 10L20 10" stroke="#D8DEFD" stroke-width="2"/>
<path id="Vector 3" d="M3 18H22" stroke="#D8DEFD" stroke-width="2"/>
<path id="Vector 1" d="M3 21C3 20.6138 3 13.3612 3 9.86088C3 9.62151 3.04297 9.38518 3.12686 9.161L4.94631 4.29903C5.23868 3.51776 5.98526 3 6.81945 3H16.7868C17.5744 3 18.2886 3.46222 18.6113 4.18069L20.8245 9.10915C20.9402 9.36679 21 9.64602 21 9.92846V21" stroke="#D8DEFD" stroke-width="2" stroke-linecap="round"/>
</g>
</g>
</svg>
