<svg width="80" height="47" viewBox="0 0 80 47" fill="none" xmlns="http://www.w3.org/2000/svg">
<g id="Frame" clip-path="url(#clip0_363_3826)">
<g id="Group">
<path id="Vector" d="M40.8313 38.1084H15.9157C14.3253 38.1084 13 36.7831 13 35.1928V3.91566C13 2.3253 14.3253 1 15.9157 1H60.4458C62.0361 1 63.3614 2.3253 63.3614 3.91566V6.3012" stroke="#2B4657" stroke-width="2" stroke-miterlimit="10" stroke-linecap="round" stroke-linejoin="round"/>
<path id="Vector_2" d="M39.506 30.1567H13" stroke="#2B4657" stroke-width="2" stroke-miterlimit="10" stroke-linecap="round" stroke-linejoin="round"/>
<path id="Vector_3" d="M40.8311 46.0603H27.5781" stroke="#2B4657" stroke-width="2" stroke-miterlimit="10" stroke-linecap="round" stroke-linejoin="round"/>
<path id="Vector_4" d="M30.4922 45.3975L33.4079 43.277C33.938 42.8794 34.203 42.2168 34.203 41.4216V37.9758" stroke="#2B4657" stroke-width="2" stroke-miterlimit="10" stroke-linecap="round" stroke-linejoin="round"/>
<path id="Vector_5" d="M32.8789 11.6023H39.5054" stroke="#2B4657" stroke-width="2" stroke-miterlimit="10" stroke-linecap="round" stroke-linejoin="round"/>
<path id="Vector_6" d="M32.8789 16.9036H39.5054" stroke="#2B4657" stroke-width="2" stroke-miterlimit="10" stroke-linecap="round" stroke-linejoin="round"/>
<path id="Vector_7" d="M22.2773 22.2048H39.5063" stroke="#2B4657" stroke-width="2" stroke-miterlimit="10" stroke-linecap="round" stroke-linejoin="round"/>
<path id="Vector_8" d="M22.2773 16.9035H28.9038V11.6023" stroke="#2B4657" stroke-width="2" stroke-miterlimit="10" stroke-linecap="round" stroke-linejoin="round"/>
<path id="Vector_9" d="M28.9038 11.6023H22.2773V16.9035" stroke="#2B4657" stroke-width="2" stroke-miterlimit="10" stroke-linecap="round" stroke-linejoin="round"/>
<path id="Vector_10" d="M64.0216 46.0602H46.6601C45.5999 46.0602 44.8047 45.2651 44.8047 44.2048V12.1325C44.8047 11.0723 45.5999 10.2771 46.6601 10.2771H64.0216C65.0818 10.2771 65.877 11.0723 65.877 12.1325V44.0723C66.0095 45.1325 65.0818 46.0602 64.0216 46.0602Z" stroke="#2B4657" stroke-width="2" stroke-miterlimit="10" stroke-linecap="round" stroke-linejoin="round"/>
<path id="Vector_11" d="M58.0625 22.2048H62.0384" stroke="#2B4657" stroke-width="2" stroke-miterlimit="10" stroke-linecap="round" stroke-linejoin="round"/>
<path id="Vector_12" d="M58.0625 26.1807H62.0384" stroke="#2B4657" stroke-width="2" stroke-miterlimit="10" stroke-linecap="round" stroke-linejoin="round"/>
<path id="Vector_13" d="M50.1094 30.1567H62.0371" stroke="#2B4657" stroke-width="2" stroke-miterlimit="10" stroke-linecap="round" stroke-linejoin="round"/>
<path id="Vector_14" d="M54.0853 22.2048H50.1094V26.1807H54.0853V22.2048Z" stroke="#2B4657" stroke-width="2" stroke-miterlimit="10" stroke-linecap="round" stroke-linejoin="round"/>
<path id="Vector_15" d="M44.8047 15.5784H66.0095" stroke="#2B4657" stroke-width="2" stroke-miterlimit="10" stroke-linecap="round" stroke-linejoin="round"/>
<path id="Vector_16" d="M44.8047 36.7832H66.0095" stroke="#2B4657" stroke-width="2" stroke-miterlimit="10" stroke-linecap="round" stroke-linejoin="round"/>
<path id="Vector_17" d="M54.0859 42.0842H56.7365" stroke="#2B4657" stroke-width="2" stroke-miterlimit="10" stroke-linecap="round" stroke-linejoin="round"/>
</g>
</g>
<defs>
<clipPath id="clip0_363_3826">
<rect width="80" height="47" fill="white"/>
</clipPath>
</defs>
</svg>
